G04*
G04 #@! TF.GenerationSoftware,Altium Limited,Altium Designer,18.1.7 (191)*
G04*
G04 Layer_Physical_Order=1*
G04 Layer_Color=255*
%FSAX44Y44*%
%MOMM*%
G71*
G01*
G75*
%ADD13C,0.2000*%
%ADD14C,0.1500*%
G04:AMPARAMS|DCode=16|XSize=1mm|YSize=0.8mm|CornerRadius=0.2mm|HoleSize=0mm|Usage=FLASHONLY|Rotation=90.000|XOffset=0mm|YOffset=0mm|HoleType=Round|Shape=RoundedRectangle|*
%AMROUNDEDRECTD16*
21,1,1.0000,0.4000,0,0,90.0*
21,1,0.6000,0.8000,0,0,90.0*
1,1,0.4000,0.2000,0.3000*
1,1,0.4000,0.2000,-0.3000*
1,1,0.4000,-0.2000,-0.3000*
1,1,0.4000,-0.2000,0.3000*
%
%ADD16ROUNDEDRECTD16*%
G04:AMPARAMS|DCode=17|XSize=0.95mm|YSize=0.7mm|CornerRadius=0.175mm|HoleSize=0mm|Usage=FLASHONLY|Rotation=0.000|XOffset=0mm|YOffset=0mm|HoleType=Round|Shape=RoundedRectangle|*
%AMROUNDEDRECTD17*
21,1,0.9500,0.3500,0,0,0.0*
21,1,0.6000,0.7000,0,0,0.0*
1,1,0.3500,0.3000,-0.1750*
1,1,0.3500,-0.3000,-0.1750*
1,1,0.3500,-0.3000,0.1750*
1,1,0.3500,0.3000,0.1750*
%
%ADD17ROUNDEDRECTD17*%
G04:AMPARAMS|DCode=18|XSize=1.8mm|YSize=1.3mm|CornerRadius=0.325mm|HoleSize=0mm|Usage=FLASHONLY|Rotation=270.000|XOffset=0mm|YOffset=0mm|HoleType=Round|Shape=RoundedRectangle|*
%AMROUNDEDRECTD18*
21,1,1.8000,0.6500,0,0,270.0*
21,1,1.1500,1.3000,0,0,270.0*
1,1,0.6500,-0.3250,-0.5750*
1,1,0.6500,-0.3250,0.5750*
1,1,0.6500,0.3250,0.5750*
1,1,0.6500,0.3250,-0.5750*
%
%ADD18ROUNDEDRECTD18*%
G04:AMPARAMS|DCode=19|XSize=1.8mm|YSize=1.3mm|CornerRadius=0.325mm|HoleSize=0mm|Usage=FLASHONLY|Rotation=180.000|XOffset=0mm|YOffset=0mm|HoleType=Round|Shape=RoundedRectangle|*
%AMROUNDEDRECTD19*
21,1,1.8000,0.6500,0,0,180.0*
21,1,1.1500,1.3000,0,0,180.0*
1,1,0.6500,-0.5750,0.3250*
1,1,0.6500,0.5750,0.3250*
1,1,0.6500,0.5750,-0.3250*
1,1,0.6500,-0.5750,-0.3250*
%
%ADD19ROUNDEDRECTD19*%
G04:AMPARAMS|DCode=20|XSize=0.3mm|YSize=0.5mm|CornerRadius=0.075mm|HoleSize=0mm|Usage=FLASHONLY|Rotation=0.000|XOffset=0mm|YOffset=0mm|HoleType=Round|Shape=RoundedRectangle|*
%AMROUNDEDRECTD20*
21,1,0.3000,0.3500,0,0,0.0*
21,1,0.1500,0.5000,0,0,0.0*
1,1,0.1500,0.0750,-0.1750*
1,1,0.1500,-0.0750,-0.1750*
1,1,0.1500,-0.0750,0.1750*
1,1,0.1500,0.0750,0.1750*
%
%ADD20ROUNDEDRECTD20*%
G04:AMPARAMS|DCode=21|XSize=0.95mm|YSize=0.7mm|CornerRadius=0.175mm|HoleSize=0mm|Usage=FLASHONLY|Rotation=270.000|XOffset=0mm|YOffset=0mm|HoleType=Round|Shape=RoundedRectangle|*
%AMROUNDEDRECTD21*
21,1,0.9500,0.3500,0,0,270.0*
21,1,0.6000,0.7000,0,0,270.0*
1,1,0.3500,-0.1750,-0.3000*
1,1,0.3500,-0.1750,0.3000*
1,1,0.3500,0.1750,0.3000*
1,1,0.3500,0.1750,-0.3000*
%
%ADD21ROUNDEDRECTD21*%
G04:AMPARAMS|DCode=22|XSize=1.2mm|YSize=2.5mm|CornerRadius=0.3mm|HoleSize=0mm|Usage=FLASHONLY|Rotation=90.000|XOffset=0mm|YOffset=0mm|HoleType=Round|Shape=RoundedRectangle|*
%AMROUNDEDRECTD22*
21,1,1.2000,1.9000,0,0,90.0*
21,1,0.6000,2.5000,0,0,90.0*
1,1,0.6000,0.9500,0.3000*
1,1,0.6000,0.9500,-0.3000*
1,1,0.6000,-0.9500,-0.3000*
1,1,0.6000,-0.9500,0.3000*
%
%ADD22ROUNDEDRECTD22*%
%ADD23O,0.2500X0.8500*%
%ADD24O,0.8500X0.2500*%
%ADD25O,0.6000X1.4500*%
G04:AMPARAMS|DCode=26|XSize=2.05mm|YSize=2.3mm|CornerRadius=0.5125mm|HoleSize=0mm|Usage=FLASHONLY|Rotation=90.000|XOffset=0mm|YOffset=0mm|HoleType=Round|Shape=RoundedRectangle|*
%AMROUNDEDRECTD26*
21,1,2.0500,1.2750,0,0,90.0*
21,1,1.0250,2.3000,0,0,90.0*
1,1,1.0250,0.6375,0.5125*
1,1,1.0250,0.6375,-0.5125*
1,1,1.0250,-0.6375,-0.5125*
1,1,1.0250,-0.6375,0.5125*
%
%ADD26ROUNDEDRECTD26*%
G04:AMPARAMS|DCode=27|XSize=0.2mm|YSize=0.775mm|CornerRadius=0.05mm|HoleSize=0mm|Usage=FLASHONLY|Rotation=180.000|XOffset=0mm|YOffset=0mm|HoleType=Round|Shape=RoundedRectangle|*
%AMROUNDEDRECTD27*
21,1,0.2000,0.6750,0,0,180.0*
21,1,0.1000,0.7750,0,0,180.0*
1,1,0.1000,-0.0500,0.3375*
1,1,0.1000,0.0500,0.3375*
1,1,0.1000,0.0500,-0.3375*
1,1,0.1000,-0.0500,-0.3375*
%
%ADD27ROUNDEDRECTD27*%
G04:AMPARAMS|DCode=28|XSize=0.2mm|YSize=0.85mm|CornerRadius=0.05mm|HoleSize=0mm|Usage=FLASHONLY|Rotation=270.000|XOffset=0mm|YOffset=0mm|HoleType=Round|Shape=RoundedRectangle|*
%AMROUNDEDRECTD28*
21,1,0.2000,0.7500,0,0,270.0*
21,1,0.1000,0.8500,0,0,270.0*
1,1,0.1000,-0.3750,-0.0500*
1,1,0.1000,-0.3750,0.0500*
1,1,0.1000,0.3750,0.0500*
1,1,0.1000,0.3750,-0.0500*
%
%ADD28ROUNDEDRECTD28*%
%ADD29R,4.4000X1.2000*%
%ADD30R,0.2500X0.7000*%
%ADD31R,2.0000X1.1800*%
G04:AMPARAMS|DCode=32|XSize=0.4mm|YSize=0.9mm|CornerRadius=0.1mm|HoleSize=0mm|Usage=FLASHONLY|Rotation=0.000|XOffset=0mm|YOffset=0mm|HoleType=Round|Shape=RoundedRectangle|*
%AMROUNDEDRECTD32*
21,1,0.4000,0.7000,0,0,0.0*
21,1,0.2000,0.9000,0,0,0.0*
1,1,0.2000,0.1000,-0.3500*
1,1,0.2000,-0.1000,-0.3500*
1,1,0.2000,-0.1000,0.3500*
1,1,0.2000,0.1000,0.3500*
%
%ADD32ROUNDEDRECTD32*%
G04:AMPARAMS|DCode=33|XSize=1mm|YSize=0.8mm|CornerRadius=0.2mm|HoleSize=0mm|Usage=FLASHONLY|Rotation=0.000|XOffset=0mm|YOffset=0mm|HoleType=Round|Shape=RoundedRectangle|*
%AMROUNDEDRECTD33*
21,1,1.0000,0.4000,0,0,0.0*
21,1,0.6000,0.8000,0,0,0.0*
1,1,0.4000,0.3000,-0.2000*
1,1,0.4000,-0.3000,-0.2000*
1,1,0.4000,-0.3000,0.2000*
1,1,0.4000,0.3000,0.2000*
%
%ADD33ROUNDEDRECTD33*%
G04:AMPARAMS|DCode=34|XSize=0.45mm|YSize=1.5mm|CornerRadius=0.1125mm|HoleSize=0mm|Usage=FLASHONLY|Rotation=0.000|XOffset=0mm|YOffset=0mm|HoleType=Round|Shape=RoundedRectangle|*
%AMROUNDEDRECTD34*
21,1,0.4500,1.2750,0,0,0.0*
21,1,0.2250,1.5000,0,0,0.0*
1,1,0.2250,0.1125,-0.6375*
1,1,0.2250,-0.1125,-0.6375*
1,1,0.2250,-0.1125,0.6375*
1,1,0.2250,0.1125,0.6375*
%
%ADD34ROUNDEDRECTD34*%
G04:AMPARAMS|DCode=35|XSize=2.2mm|YSize=1.3mm|CornerRadius=0.325mm|HoleSize=0mm|Usage=FLASHONLY|Rotation=0.000|XOffset=0mm|YOffset=0mm|HoleType=Round|Shape=RoundedRectangle|*
%AMROUNDEDRECTD35*
21,1,2.2000,0.6500,0,0,0.0*
21,1,1.5500,1.3000,0,0,0.0*
1,1,0.6500,0.7750,-0.3250*
1,1,0.6500,-0.7750,-0.3250*
1,1,0.6500,-0.7750,0.3250*
1,1,0.6500,0.7750,0.3250*
%
%ADD35ROUNDEDRECTD35*%
%ADD36R,0.8000X0.9500*%
%ADD37R,1.5800X1.4300*%
G04:AMPARAMS|DCode=38|XSize=0.3mm|YSize=0.5mm|CornerRadius=0.075mm|HoleSize=0mm|Usage=FLASHONLY|Rotation=90.000|XOffset=0mm|YOffset=0mm|HoleType=Round|Shape=RoundedRectangle|*
%AMROUNDEDRECTD38*
21,1,0.3000,0.3500,0,0,90.0*
21,1,0.1500,0.5000,0,0,90.0*
1,1,0.1500,0.1750,0.0750*
1,1,0.1500,0.1750,-0.0750*
1,1,0.1500,-0.1750,-0.0750*
1,1,0.1500,-0.1750,0.0750*
%
%ADD38ROUNDEDRECTD38*%
%ADD39O,0.6500X0.2500*%
%ADD40R,0.6000X1.2000*%
%ADD41O,0.5500X1.3500*%
G04:AMPARAMS|DCode=42|XSize=4mm|YSize=2.5mm|CornerRadius=0.625mm|HoleSize=0mm|Usage=FLASHONLY|Rotation=0.000|XOffset=0mm|YOffset=0mm|HoleType=Round|Shape=RoundedRectangle|*
%AMROUNDEDRECTD42*
21,1,4.0000,1.2500,0,0,0.0*
21,1,2.7500,2.5000,0,0,0.0*
1,1,1.2500,1.3750,-0.6250*
1,1,1.2500,-1.3750,-0.6250*
1,1,1.2500,-1.3750,0.6250*
1,1,1.2500,1.3750,0.6250*
%
%ADD42ROUNDEDRECTD42*%
%ADD43R,2.0500X2.5500*%
%ADD44O,0.2500X0.9000*%
%ADD45O,0.9000X0.2500*%
%ADD46R,1.1900X2.9900*%
%ADD47O,0.2000X0.6000*%
%ADD48O,0.6000X0.2000*%
%ADD49R,1.5400X1.7000*%
%ADD50O,1.5000X0.6000*%
%ADD51O,0.6000X1.5000*%
G04:AMPARAMS|DCode=52|XSize=1.4mm|YSize=1.15mm|CornerRadius=0.1725mm|HoleSize=0mm|Usage=FLASHONLY|Rotation=270.000|XOffset=0mm|YOffset=0mm|HoleType=Round|Shape=RoundedRectangle|*
%AMROUNDEDRECTD52*
21,1,1.4000,0.8050,0,0,270.0*
21,1,1.0550,1.1500,0,0,270.0*
1,1,0.3450,-0.4025,-0.5275*
1,1,0.3450,-0.4025,0.5275*
1,1,0.3450,0.4025,0.5275*
1,1,0.3450,0.4025,-0.5275*
%
%ADD52ROUNDEDRECTD52*%
%ADD53R,0.9500X0.8000*%
G04:AMPARAMS|DCode=54|XSize=0.6mm|YSize=1mm|CornerRadius=0.15mm|HoleSize=0mm|Usage=FLASHONLY|Rotation=180.000|XOffset=0mm|YOffset=0mm|HoleType=Round|Shape=RoundedRectangle|*
%AMROUNDEDRECTD54*
21,1,0.6000,0.7000,0,0,180.0*
21,1,0.3000,1.0000,0,0,180.0*
1,1,0.3000,-0.1500,0.3500*
1,1,0.3000,0.1500,0.3500*
1,1,0.3000,0.1500,-0.3500*
1,1,0.3000,-0.1500,-0.3500*
%
%ADD54ROUNDEDRECTD54*%
%ADD94C,1.7000*%
%ADD96R,1.7000X1.7000*%
%ADD98C,1.6000*%
%ADD104C,0.5000*%
%ADD105C,0.3000*%
%ADD106C,0.4000*%
%ADD107C,0.7000*%
%ADD108C,0.3500*%
%ADD109C,1.0000*%
%ADD110C,2.0000*%
%ADD111R,1.6000X1.6000*%
%ADD112R,1.6000X1.6000*%
%ADD113C,6.0000*%
%ADD114C,1.5000*%
%ADD115C,1.0000*%
%ADD116C,0.7000*%
%ADD117C,0.5000*%
%ADD118C,1.1000*%
G36*
X00580000Y00620000D02*
X00580000Y00536474D01*
X00579116Y00535884D01*
X00578232Y00534561D01*
X00577922Y00533000D01*
Y00527000D01*
X00578232Y00525439D01*
X00579116Y00524116D01*
X00580000Y00523526D01*
Y00517150D01*
X00575100D01*
Y00509810D01*
X00573830Y00508768D01*
X00573600Y00508814D01*
X00567600D01*
X00566332Y00508561D01*
X00565492Y00508000D01*
X00550000Y00508000D01*
X00550000Y00600531D01*
X00551270Y00601439D01*
X00553125D01*
X00554344Y00601681D01*
X00555250Y00602287D01*
X00556156Y00601681D01*
X00557375Y00601439D01*
X00559625D01*
X00560844Y00601681D01*
X00561878Y00602372D01*
X00562569Y00603406D01*
X00562811Y00604625D01*
Y00617375D01*
X00562569Y00618594D01*
X00562478Y00618730D01*
X00563157Y00620000D01*
X00580000Y00620000D01*
D02*
G37*
G36*
X00694941Y00618349D02*
X00693696Y00618101D01*
X00693500Y00618573D01*
X00690869Y00622867D01*
X00687597Y00626697D01*
X00683767Y00629969D01*
X00679473Y00632600D01*
X00674819Y00634528D01*
X00669921Y00635704D01*
X00664900Y00636099D01*
X00659879Y00635704D01*
X00654981Y00634528D01*
X00650327Y00632600D01*
X00646033Y00629969D01*
X00642203Y00626697D01*
X00638931Y00622867D01*
X00636300Y00618573D01*
X00634372Y00613919D01*
X00633196Y00609021D01*
X00632801Y00604000D01*
X00633196Y00598979D01*
X00634372Y00594081D01*
X00636300Y00589427D01*
X00638931Y00585133D01*
X00642203Y00581303D01*
X00646033Y00578031D01*
X00650327Y00575400D01*
X00654981Y00573472D01*
X00659879Y00572296D01*
X00664900Y00571901D01*
X00669921Y00572296D01*
X00674819Y00573472D01*
X00679473Y00575400D01*
X00683767Y00578031D01*
X00687597Y00581303D01*
X00690869Y00585133D01*
X00693500Y00589427D01*
X00693696Y00589899D01*
X00694941Y00589651D01*
X00694941Y00349789D01*
X00667039D01*
Y00375000D01*
X00666884Y00375780D01*
X00666442Y00376442D01*
X00665780Y00376884D01*
X00665000Y00377039D01*
X00629039D01*
Y00390976D01*
X00630213Y00391462D01*
X00631837Y00389837D01*
X00631837Y00389837D01*
X00632830Y00389174D01*
X00634000Y00388941D01*
X00636414D01*
X00636790Y00387049D01*
X00637895Y00385395D01*
X00639549Y00384290D01*
X00641500Y00383902D01*
X00660500D01*
X00662451Y00384290D01*
X00664105Y00385395D01*
X00665210Y00387049D01*
X00665598Y00389000D01*
Y00395000D01*
X00665210Y00396951D01*
X00664105Y00398605D01*
X00662451Y00399710D01*
X00660500Y00400098D01*
X00641500D01*
X00639549Y00399710D01*
X00637895Y00398605D01*
X00636790Y00396951D01*
X00636454Y00395260D01*
X00635205Y00395121D01*
X00607163Y00423163D01*
X00606171Y00423826D01*
X00605000Y00424059D01*
X00605000Y00424059D01*
X00591767D01*
X00589059Y00426767D01*
Y00448429D01*
X00589965Y00449035D01*
X00591181Y00450854D01*
X00591608Y00453000D01*
X00591181Y00455146D01*
X00589965Y00456965D01*
X00588146Y00458181D01*
X00587750Y00458260D01*
Y00458361D01*
X00587789Y00458558D01*
Y00479922D01*
X00587634Y00480702D01*
X00587192Y00481364D01*
X00586530Y00481806D01*
X00585750Y00481961D01*
X00582201D01*
X00582004Y00482000D01*
X00581803D01*
X00581606Y00482039D01*
X00577039D01*
X00577039Y00505695D01*
X00577023Y00505779D01*
X00577032Y00505864D01*
X00576945Y00506166D01*
X00576884Y00506475D01*
X00576836Y00506546D01*
X00576813Y00506628D01*
X00576696Y00506856D01*
X00576484Y00507121D01*
X00576542Y00508368D01*
X00576708Y00508617D01*
X00576898Y00508849D01*
X00576928Y00508946D01*
X00576984Y00509030D01*
X00577042Y00509324D01*
X00577129Y00509610D01*
X00577119Y00509711D01*
X00577139Y00509810D01*
Y00515111D01*
X00580000D01*
X00580780Y00515266D01*
X00581442Y00515708D01*
X00581884Y00516370D01*
X00582039Y00517150D01*
Y00523526D01*
X00582000Y00523722D01*
Y00523923D01*
X00581923Y00524109D01*
X00581884Y00524306D01*
X00581772Y00524473D01*
X00581696Y00524659D01*
X00581553Y00524800D01*
X00581442Y00524968D01*
X00581275Y00525079D01*
X00581133Y00525221D01*
X00580586Y00525586D01*
X00580153Y00526235D01*
X00579961Y00527201D01*
Y00532799D01*
X00580153Y00533765D01*
X00580586Y00534414D01*
X00581133Y00534779D01*
X00581275Y00534921D01*
X00581442Y00535033D01*
X00581553Y00535200D01*
X00581696Y00535341D01*
X00581772Y00535527D01*
X00581884Y00535694D01*
X00581923Y00535891D01*
X00582000Y00536077D01*
Y00536278D01*
X00582039Y00536474D01*
X00582039Y00607941D01*
X00600866D01*
X00601296Y00607296D01*
X00602537Y00606468D01*
X00604000Y00606177D01*
X00610000D01*
X00611463Y00606468D01*
X00612704Y00607296D01*
X00613532Y00608537D01*
X00613824Y00610000D01*
Y00613500D01*
X00613532Y00614963D01*
X00612704Y00616204D01*
X00611463Y00617032D01*
X00610000Y00617323D01*
X00604000D01*
X00602537Y00617032D01*
X00601296Y00616204D01*
X00600468Y00614963D01*
X00600288Y00614059D01*
X00582039D01*
Y00620000D01*
X00581884Y00620780D01*
X00581442Y00621442D01*
X00580780Y00621884D01*
X00580000Y00622039D01*
X00563157Y00622039D01*
X00562863Y00621981D01*
X00562565Y00621951D01*
X00562476Y00621904D01*
X00562377Y00621884D01*
X00562127Y00621717D01*
X00561863Y00621576D01*
X00561799Y00621498D01*
X00561715Y00621442D01*
X00561633Y00621319D01*
X00560844Y00620319D01*
X00559625Y00620561D01*
X00557375D01*
X00556156Y00620319D01*
X00555250Y00619714D01*
X00554344Y00620319D01*
X00553125Y00620561D01*
X00550875D01*
X00549656Y00620319D01*
X00548750Y00619714D01*
X00547844Y00620319D01*
X00546625Y00620561D01*
X00544375D01*
X00543156Y00620319D01*
X00542122Y00619628D01*
X00541431Y00618594D01*
X00541189Y00617375D01*
Y00604625D01*
X00541431Y00603406D01*
X00542122Y00602372D01*
X00543156Y00601681D01*
X00544375Y00601439D01*
X00546625D01*
X00546856Y00601485D01*
X00546888Y00601474D01*
X00547318Y00601236D01*
X00547530Y00601068D01*
X00547876Y00600636D01*
X00547961Y00600410D01*
X00547961Y00508000D01*
X00548116Y00507220D01*
X00548276Y00506980D01*
X00548116Y00506741D01*
X00547961Y00505961D01*
X00547961Y00473332D01*
X00546787Y00472846D01*
X00536692Y00482942D01*
X00536030Y00483384D01*
X00535250Y00483539D01*
X00533179D01*
X00531750Y00483823D01*
X00525750D01*
X00524321Y00483539D01*
X00510500Y00483539D01*
X00509720Y00483384D01*
X00509058Y00482942D01*
X00508160Y00482044D01*
X00507950Y00481730D01*
X00507734Y00481420D01*
X00507729Y00481400D01*
X00507718Y00481382D01*
X00507644Y00481012D01*
X00507563Y00480643D01*
X00507379Y00471422D01*
X00507383Y00471402D01*
X00507378Y00471381D01*
X00507452Y00471011D01*
X00507518Y00470639D01*
X00507530Y00470621D01*
X00507534Y00470601D01*
X00507744Y00470286D01*
X00507947Y00469969D01*
X00507964Y00469957D01*
X00507976Y00469939D01*
X00511308Y00466607D01*
X00511621Y00466398D01*
X00511929Y00466183D01*
X00511951Y00466178D01*
X00511970Y00466165D01*
X00512338Y00466092D01*
X00512706Y00466010D01*
X00512961Y00466005D01*
Y00456500D01*
X00513116Y00455720D01*
X00513558Y00455058D01*
X00516558Y00452058D01*
X00516558Y00452058D01*
X00517220Y00451616D01*
X00518000Y00451461D01*
X00547961Y00451461D01*
X00547961Y00420039D01*
X00505750D01*
X00504970Y00419884D01*
X00504308Y00419442D01*
X00496966Y00412100D01*
X00487750D01*
Y00408486D01*
X00487468Y00408063D01*
X00487177Y00406600D01*
Y00402060D01*
X00487035Y00401965D01*
X00486907Y00401774D01*
X00485503Y00401690D01*
X00484823Y00402413D01*
Y00406100D01*
X00484532Y00407563D01*
X00484250Y00407986D01*
Y00412100D01*
X00477947D01*
X00477750Y00412139D01*
X00475912D01*
X00475884Y00412280D01*
X00475442Y00412942D01*
X00475442Y00412942D01*
X00469942Y00418442D01*
X00469942Y00418442D01*
X00469280Y00418884D01*
X00468500Y00419039D01*
X00389148Y00419039D01*
X00389000Y00419068D01*
X00386000D01*
X00385852Y00419039D01*
X00384065D01*
X00383966Y00419019D01*
X00383865Y00419029D01*
X00383578Y00418942D01*
X00383285Y00418884D01*
X00383201Y00418828D01*
X00383104Y00418798D01*
X00382872Y00418608D01*
X00382623Y00418442D01*
X00382567Y00418358D01*
X00382489Y00418294D01*
X00381446Y00417024D01*
X00381399Y00416934D01*
X00381327Y00416863D01*
X00381213Y00416586D01*
X00381071Y00416322D01*
X00381062Y00416221D01*
X00381023Y00416128D01*
Y00415828D01*
X00380993Y00415530D01*
X00381023Y00415433D01*
Y00415332D01*
X00381029Y00415299D01*
Y00408701D01*
X00380876Y00407930D01*
X00380553Y00407447D01*
X00380070Y00407124D01*
X00379299Y00406971D01*
X00376701D01*
X00375930Y00407124D01*
X00375447Y00407447D01*
X00375124Y00407930D01*
X00374971Y00408701D01*
Y00415299D01*
X00374977Y00415332D01*
Y00415433D01*
X00375006Y00415530D01*
X00374977Y00415828D01*
Y00416128D01*
X00374938Y00416221D01*
X00374929Y00416322D01*
X00374787Y00416586D01*
X00374673Y00416863D01*
X00374601Y00416935D01*
X00374553Y00417024D01*
X00373511Y00418294D01*
X00373433Y00418358D01*
X00373377Y00418442D01*
X00373128Y00418608D01*
X00372896Y00418798D01*
X00372799Y00418828D01*
X00372715Y00418884D01*
X00372421Y00418942D01*
X00372135Y00419029D01*
X00372034Y00419020D01*
X00371935Y00419039D01*
X00370147D01*
X00370000Y00419068D01*
X00367000D01*
X00366852Y00419039D01*
X00364000D01*
X00363220Y00418884D01*
X00362558Y00418442D01*
X00362116Y00417780D01*
X00361961Y00417000D01*
Y00399000D01*
X00362116Y00398220D01*
X00362558Y00397558D01*
X00363220Y00397116D01*
X00364000Y00396961D01*
X00454425Y00396961D01*
X00454430Y00396923D01*
X00455135Y00395220D01*
X00456258Y00393758D01*
X00456662Y00393447D01*
Y00366338D01*
X00429750D01*
X00427994Y00365989D01*
X00426506Y00364994D01*
X00408256Y00346744D01*
X00407261Y00345256D01*
X00406912Y00343500D01*
Y00314401D01*
X00385099Y00292588D01*
X00315900D01*
X00299244Y00309244D01*
X00297756Y00310239D01*
X00296000Y00310588D01*
X00288588D01*
Y00325000D01*
X00288239Y00326756D01*
X00287244Y00328244D01*
X00279774Y00335714D01*
X00279792Y00335856D01*
X00280343Y00336941D01*
X00296106D01*
X00305203Y00327844D01*
X00304069Y00326146D01*
X00303642Y00324000D01*
X00304069Y00321854D01*
X00305285Y00320035D01*
X00307104Y00318819D01*
X00309250Y00318392D01*
X00311396Y00318819D01*
X00313215Y00320035D01*
X00314431Y00321854D01*
X00314569Y00322550D01*
X00315785Y00322919D01*
X00325867Y00312837D01*
X00325867Y00312837D01*
X00326859Y00312174D01*
X00328030Y00311941D01*
X00328030Y00311941D01*
X00334657D01*
X00334657Y00311941D01*
X00334657Y00311941D01*
X00336941D01*
Y00308000D01*
X00337174Y00306829D01*
X00337837Y00305837D01*
X00338829Y00305174D01*
X00340000Y00304941D01*
X00341171Y00305174D01*
X00342000Y00305728D01*
X00342830Y00305174D01*
X00344000Y00304941D01*
X00345171Y00305174D01*
X00346000Y00305728D01*
X00346829Y00305174D01*
X00348000Y00304941D01*
X00349170Y00305174D01*
X00350000Y00305728D01*
X00350830Y00305174D01*
X00352000Y00304941D01*
X00353171Y00305174D01*
X00354000Y00305728D01*
X00354829Y00305174D01*
X00356000Y00304941D01*
X00357171Y00305174D01*
X00358000Y00305728D01*
X00358829Y00305174D01*
X00360000Y00304941D01*
X00361171Y00305174D01*
X00362163Y00305837D01*
X00362826Y00306829D01*
X00363059Y00308000D01*
Y00311941D01*
X00367000D01*
X00368171Y00312174D01*
X00368172Y00312175D01*
X00368187Y00312185D01*
X00369232Y00312439D01*
X00370116Y00311116D01*
X00371439Y00310232D01*
X00373000Y00309922D01*
X00379000D01*
X00380561Y00310232D01*
X00381884Y00311116D01*
X00382768Y00312439D01*
X00383063Y00313922D01*
X00386142D01*
X00386142Y00313922D01*
X00387703Y00314232D01*
X00389026Y00315116D01*
X00394884Y00320974D01*
X00394884Y00320974D01*
X00395768Y00322297D01*
X00396078Y00323858D01*
X00396078Y00323858D01*
Y00350321D01*
X00396078Y00350321D01*
X00395768Y00351882D01*
X00394884Y00353205D01*
X00394884Y00353205D01*
X00384455Y00363634D01*
X00384455Y00363634D01*
X00384455Y00363634D01*
X00368705Y00379384D01*
X00367382Y00380268D01*
X00365821Y00380578D01*
X00365821Y00380578D01*
X00359642D01*
X00358715Y00381965D01*
X00356896Y00383181D01*
X00354750Y00383608D01*
X00352604Y00383181D01*
X00350785Y00381965D01*
X00350025Y00380828D01*
X00334078D01*
Y00426311D01*
X00338689Y00430922D01*
X00342000D01*
X00343561Y00431232D01*
X00344884Y00432116D01*
X00345391Y00432875D01*
X00346609D01*
X00347116Y00432116D01*
X00348439Y00431232D01*
X00350000Y00430922D01*
X00356000D01*
X00357561Y00431232D01*
X00358884Y00432116D01*
X00359422Y00432922D01*
X00363431D01*
Y00432500D01*
X00363703Y00431134D01*
X00364477Y00429977D01*
X00365634Y00429203D01*
X00367000Y00428931D01*
X00370000D01*
X00371366Y00429203D01*
X00372523Y00429977D01*
X00373297Y00431134D01*
X00373568Y00432500D01*
Y00439500D01*
X00373297Y00440866D01*
X00372523Y00442023D01*
X00371366Y00442797D01*
X00370000Y00443069D01*
X00367000D01*
X00365634Y00442797D01*
X00364477Y00442023D01*
X00363845Y00441078D01*
X00359422D01*
X00358884Y00441884D01*
X00357561Y00442768D01*
X00356000Y00443078D01*
X00350000D01*
X00348439Y00442768D01*
X00347116Y00441884D01*
X00346609Y00441125D01*
X00345391D01*
X00344884Y00441884D01*
X00343561Y00442768D01*
X00342000Y00443078D01*
X00336000D01*
X00334439Y00442768D01*
X00333116Y00441884D01*
X00332232Y00440561D01*
X00331922Y00439000D01*
Y00435689D01*
X00327116Y00430884D01*
X00326232Y00429561D01*
X00325922Y00428000D01*
X00325922Y00428000D01*
Y00380828D01*
X00324296D01*
X00307240Y00397884D01*
X00305917Y00398768D01*
X00304357Y00399078D01*
X00304356Y00399078D01*
X00295558D01*
X00294965Y00399965D01*
X00293146Y00401181D01*
X00291000Y00401608D01*
X00290508Y00401510D01*
X00287884Y00404134D01*
X00286561Y00405018D01*
X00285000Y00405328D01*
X00285000Y00405328D01*
X00274649D01*
X00274561Y00405768D01*
X00273843Y00406843D01*
X00272768Y00407561D01*
X00271500Y00407814D01*
X00270232Y00407561D01*
X00269157Y00406843D01*
X00268439Y00405768D01*
X00268186Y00404500D01*
Y00403490D01*
X00267732Y00402811D01*
X00267422Y00401250D01*
X00267732Y00399689D01*
X00268186Y00399009D01*
Y00398000D01*
X00268439Y00396732D01*
X00269157Y00395657D01*
X00270232Y00394939D01*
X00271500Y00394686D01*
X00272768Y00394939D01*
X00273011Y00395101D01*
X00273717Y00394740D01*
X00274211Y00394375D01*
X00274438Y00393232D01*
X00274596Y00392996D01*
X00275081Y00392000D01*
X00274596Y00391004D01*
X00274438Y00390768D01*
X00274186Y00389500D01*
X00274438Y00388232D01*
X00274596Y00387996D01*
X00275081Y00387000D01*
X00274596Y00386004D01*
X00274438Y00385768D01*
X00274186Y00384500D01*
X00274438Y00383232D01*
X00274596Y00382996D01*
X00275081Y00382000D01*
X00274596Y00381004D01*
X00274438Y00380768D01*
X00274186Y00379500D01*
X00274438Y00378232D01*
X00274596Y00377996D01*
X00275081Y00377000D01*
X00274596Y00376004D01*
X00274438Y00375768D01*
X00274186Y00374500D01*
X00274438Y00373232D01*
X00275157Y00372157D01*
Y00371843D01*
X00274438Y00370768D01*
X00274211Y00369625D01*
X00273717Y00369260D01*
X00273011Y00368899D01*
X00272768Y00369061D01*
X00271500Y00369314D01*
X00270232Y00369061D01*
X00269157Y00368343D01*
X00268439Y00367268D01*
X00268186Y00366000D01*
Y00359500D01*
X00268439Y00358232D01*
X00268671Y00357884D01*
X00268674Y00357870D01*
X00269337Y00356877D01*
X00273941Y00352273D01*
Y00342929D01*
X00273941Y00342929D01*
X00274174Y00341758D01*
X00274567Y00341171D01*
X00273841Y00340020D01*
X00273500Y00340088D01*
X00257783D01*
X00256896Y00340681D01*
X00254750Y00341108D01*
X00253988Y00340956D01*
X00252969Y00342048D01*
X00253059Y00342500D01*
X00253059Y00342500D01*
Y00351804D01*
X00255092Y00353837D01*
X00255092Y00353837D01*
X00257675Y00356420D01*
X00257768Y00356439D01*
X00258843Y00357157D01*
X00259561Y00358232D01*
X00259814Y00359500D01*
Y00366000D01*
X00259561Y00367268D01*
X00258843Y00368343D01*
X00257768Y00369061D01*
X00256500Y00369314D01*
X00255232Y00369061D01*
X00254989Y00368899D01*
X00254283Y00369260D01*
X00253789Y00369625D01*
X00253561Y00370768D01*
X00253404Y00371004D01*
X00252919Y00372000D01*
X00253404Y00372996D01*
X00253561Y00373232D01*
X00253814Y00374500D01*
X00253561Y00375768D01*
X00253404Y00376004D01*
X00252919Y00377000D01*
X00253404Y00377996D01*
X00253561Y00378232D01*
X00253814Y00379500D01*
X00253561Y00380768D01*
X00252843Y00381843D01*
Y00382157D01*
X00253561Y00383232D01*
X00253814Y00384500D01*
X00253561Y00385768D01*
X00253404Y00386004D01*
X00252919Y00387000D01*
X00253404Y00387996D01*
X00253561Y00388232D01*
X00253814Y00389500D01*
X00253561Y00390768D01*
X00252843Y00391843D01*
Y00392157D01*
X00253561Y00393232D01*
X00253814Y00394500D01*
X00253561Y00395768D01*
X00252843Y00396843D01*
X00251768Y00397561D01*
X00250500Y00397814D01*
X00244000D01*
X00243790Y00397772D01*
X00242809Y00398578D01*
Y00403826D01*
X00255924Y00416941D01*
X00283000D01*
X00283000Y00416941D01*
X00284170Y00417174D01*
X00285163Y00417837D01*
X00355826Y00488500D01*
X00379750D01*
X00379750Y00519191D01*
X00383657D01*
X00383660Y00519177D01*
X00384267Y00518267D01*
X00385177Y00517660D01*
X00386250Y00517446D01*
X00387750D01*
X00388823Y00517660D01*
X00389733Y00518267D01*
X00390183Y00518941D01*
X00399230D01*
X00399265Y00518857D01*
X00400868Y00516768D01*
X00402957Y00515165D01*
X00405390Y00514157D01*
X00408000Y00513814D01*
X00410611Y00514157D01*
X00413043Y00515165D01*
X00415132Y00516768D01*
X00416735Y00518857D01*
X00417743Y00521289D01*
X00418086Y00523900D01*
X00417743Y00526511D01*
X00416735Y00528943D01*
X00415132Y00531032D01*
X00413043Y00532635D01*
X00410611Y00533643D01*
X00408000Y00533986D01*
X00405390Y00533643D01*
X00402957Y00532635D01*
X00400868Y00531032D01*
X00399265Y00528943D01*
X00398257Y00526511D01*
X00398066Y00525059D01*
X00390183D01*
X00389733Y00525733D01*
X00388823Y00526340D01*
X00387750Y00526554D01*
X00386250D01*
X00385177Y00526340D01*
X00384267Y00525733D01*
X00383984Y00525309D01*
X00379750D01*
Y00533617D01*
X00379776Y00533750D01*
X00379775Y00533756D01*
X00379823Y00534000D01*
Y00537500D01*
X00379750Y00537869D01*
Y00547191D01*
X00383657D01*
X00383660Y00547177D01*
X00384267Y00546267D01*
X00385177Y00545659D01*
X00386250Y00545446D01*
X00387750D01*
X00388823Y00545659D01*
X00389733Y00546267D01*
X00390183Y00546941D01*
X00398224D01*
X00398257Y00546689D01*
X00399265Y00544257D01*
X00400868Y00542168D01*
X00402957Y00540565D01*
X00405390Y00539557D01*
X00408000Y00539214D01*
X00410611Y00539557D01*
X00413043Y00540565D01*
X00415132Y00542168D01*
X00416735Y00544257D01*
X00417743Y00546689D01*
X00418086Y00549300D01*
X00417743Y00551911D01*
X00416735Y00554343D01*
X00415132Y00556432D01*
X00413043Y00558035D01*
X00410611Y00559043D01*
X00408000Y00559386D01*
X00405390Y00559043D01*
X00402957Y00558035D01*
X00400868Y00556432D01*
X00399265Y00554343D01*
X00398733Y00553059D01*
X00390183D01*
X00389733Y00553733D01*
X00388823Y00554340D01*
X00387750Y00554554D01*
X00386250D01*
X00385177Y00554340D01*
X00384267Y00553733D01*
X00383984Y00553309D01*
X00379750D01*
X00379750Y00644941D01*
X00601150D01*
Y00633250D01*
X00603941D01*
Y00631812D01*
X00602537Y00631532D01*
X00601296Y00630704D01*
X00600468Y00629463D01*
X00600177Y00628000D01*
Y00624500D01*
X00600468Y00623037D01*
X00601296Y00621796D01*
X00602537Y00620968D01*
X00604000Y00620677D01*
X00610000D01*
X00611463Y00620968D01*
X00612704Y00621796D01*
X00613532Y00623037D01*
X00613824Y00624500D01*
Y00628000D01*
X00613532Y00629463D01*
X00612704Y00630704D01*
X00611463Y00631532D01*
X00610059Y00631812D01*
Y00633250D01*
X00613150D01*
Y00644941D01*
X00617650D01*
Y00633250D01*
X00622191D01*
Y00522040D01*
X00620921Y00521340D01*
X00619750Y00521573D01*
X00613750D01*
X00612287Y00521282D01*
X00611046Y00520454D01*
X00610218Y00519213D01*
X00610087Y00518559D01*
X00603672D01*
X00603668Y00518561D01*
X00602400Y00518814D01*
X00596400D01*
X00595132Y00518561D01*
X00594057Y00517843D01*
X00593339Y00516768D01*
X00593086Y00515500D01*
X00593339Y00514232D01*
X00593496Y00513996D01*
X00593980Y00513000D01*
X00593496Y00512004D01*
X00593339Y00511768D01*
X00593086Y00510500D01*
X00593339Y00509232D01*
X00594057Y00508157D01*
X00595132Y00507439D01*
X00596400Y00507186D01*
X00602400D01*
X00603668Y00507439D01*
X00604743Y00508157D01*
X00605461Y00509232D01*
X00605714Y00510500D01*
X00605580Y00511171D01*
X00606423Y00512441D01*
X00610448D01*
X00611046Y00511546D01*
X00612287Y00510718D01*
X00613750Y00510427D01*
X00619750D01*
X00620921Y00510659D01*
X00622191Y00509960D01*
Y00499267D01*
X00620233Y00497309D01*
X00609017D01*
X00605686Y00500640D01*
X00605461Y00501768D01*
X00604743Y00502843D01*
X00603668Y00503562D01*
X00602400Y00503814D01*
X00596400D01*
X00595132Y00503562D01*
X00594057Y00502843D01*
X00593339Y00501768D01*
X00593086Y00500500D01*
X00593339Y00499232D01*
X00594057Y00498157D01*
X00595132Y00497439D01*
X00596400Y00497186D01*
X00600488D01*
X00605587Y00492087D01*
X00606580Y00491424D01*
X00607750Y00491191D01*
X00607750Y00491191D01*
X00621500D01*
X00621500Y00491191D01*
X00622671Y00491424D01*
X00623663Y00492087D01*
X00627413Y00495837D01*
X00627413Y00495837D01*
X00628076Y00496829D01*
X00628309Y00498000D01*
X00628309Y00498000D01*
Y00633250D01*
X00629650D01*
Y00644941D01*
X00694941D01*
Y00618349D01*
D02*
G37*
G36*
X00573432Y00506768D02*
X00573533D01*
X00573630Y00506739D01*
X00573730Y00506748D01*
X00574120Y00506598D01*
X00574883Y00505922D01*
X00575000Y00505695D01*
X00575000Y00480000D01*
X00581606D01*
X00582000Y00479922D01*
X00585750D01*
Y00458558D01*
X00583854Y00458181D01*
X00582035Y00456965D01*
X00580819Y00455146D01*
X00580392Y00453000D01*
X00580819Y00450854D01*
X00582035Y00449035D01*
X00582941Y00448429D01*
Y00425500D01*
X00582941Y00425500D01*
X00583174Y00424329D01*
X00583837Y00423337D01*
X00588337Y00418837D01*
X00588337Y00418837D01*
X00589329Y00418174D01*
X00590204Y00418000D01*
X00590500Y00417941D01*
X00590500Y00417941D01*
X00603733D01*
X00627000Y00394674D01*
Y00375000D01*
X00665000D01*
Y00347750D01*
X00694941D01*
Y00305999D01*
X00693671Y00305746D01*
X00692500Y00308573D01*
X00689869Y00312867D01*
X00686597Y00316697D01*
X00682767Y00319969D01*
X00678473Y00322600D01*
X00673819Y00324528D01*
X00668921Y00325704D01*
X00663900Y00326099D01*
X00658879Y00325704D01*
X00653981Y00324528D01*
X00649327Y00322600D01*
X00645033Y00319969D01*
X00641203Y00316697D01*
X00637931Y00312867D01*
X00635300Y00308573D01*
X00633372Y00303919D01*
X00632196Y00299021D01*
X00631801Y00294000D01*
X00632196Y00288979D01*
X00633372Y00284081D01*
X00635300Y00279427D01*
X00637931Y00275133D01*
X00641203Y00271303D01*
X00645033Y00268031D01*
X00649327Y00265400D01*
X00653981Y00263472D01*
X00658879Y00262296D01*
X00663900Y00261901D01*
X00668921Y00262296D01*
X00673819Y00263472D01*
X00678473Y00265400D01*
X00682767Y00268031D01*
X00686597Y00271303D01*
X00689869Y00275133D01*
X00692500Y00279427D01*
X00693671Y00282254D01*
X00694941Y00282001D01*
Y00180000D01*
X00598000D01*
X00588210Y00189790D01*
X00527050D01*
X00526813Y00189948D01*
X00525545Y00190201D01*
X00521545D01*
X00521270Y00190146D01*
X00520000Y00191174D01*
Y00192600D01*
X00521270Y00193628D01*
X00521545Y00193573D01*
X00525545D01*
X00526813Y00193825D01*
X00527888Y00194544D01*
X00528607Y00195619D01*
X00528859Y00196887D01*
X00528607Y00198155D01*
X00527888Y00199230D01*
X00526813Y00199948D01*
Y00201000D01*
X00515000D01*
Y00208552D01*
X00515278Y00209951D01*
Y00215951D01*
X00515000Y00217350D01*
Y00256000D01*
X00593000D01*
Y00274000D01*
X00609500D01*
Y00294000D01*
X00595489D01*
X00593000Y00296489D01*
Y00303500D01*
X00605750Y00316250D01*
Y00323500D01*
X00610750Y00328500D01*
Y00333000D01*
X00605000Y00338750D01*
X00601148Y00338750D01*
X00600250Y00339648D01*
Y00346000D01*
X00572112D01*
X00571006Y00346739D01*
X00569250Y00347088D01*
X00526712D01*
X00526115Y00348530D01*
X00524992Y00349992D01*
X00523530Y00351115D01*
X00521827Y00351820D01*
X00520000Y00352060D01*
X00518173Y00351820D01*
X00516470Y00351115D01*
X00515329Y00350239D01*
X00514286Y00350606D01*
X00514059Y00350799D01*
Y00357314D01*
X00513826Y00358484D01*
X00513163Y00359477D01*
X00513163Y00359477D01*
X00511809Y00360831D01*
Y00388262D01*
X00512965Y00389035D01*
X00514181Y00390854D01*
X00514608Y00393000D01*
X00514181Y00395146D01*
X00512965Y00396965D01*
X00511146Y00398181D01*
X00509000Y00398608D01*
X00506854Y00398181D01*
X00506270Y00397791D01*
X00505150Y00398389D01*
Y00398950D01*
X00496419D01*
X00496181Y00400146D01*
X00494965Y00401965D01*
X00494823Y00402060D01*
Y00406600D01*
X00494532Y00408063D01*
X00494250Y00408486D01*
Y00410000D01*
X00497750D01*
X00497850Y00410100D01*
X00498000D01*
Y00410250D01*
X00505750Y00418000D01*
X00550000D01*
X00550000Y00453303D01*
X00550039Y00453500D01*
X00550039Y00468750D01*
X00550039Y00468750D01*
X00550000Y00468947D01*
X00550000Y00505961D01*
X00565492Y00505961D01*
X00565689Y00506000D01*
X00565889D01*
X00566075Y00506077D01*
X00566272Y00506116D01*
X00566439Y00506228D01*
X00566624Y00506304D01*
X00567128Y00506641D01*
X00567801Y00506774D01*
X00573399D01*
X00573432Y00506768D01*
D02*
G37*
G36*
X00098000Y00488500D02*
X00098679Y00487230D01*
X00098232Y00486561D01*
X00097922Y00485000D01*
Y00481410D01*
X00095706Y00479194D01*
X00094711Y00477706D01*
X00094362Y00475950D01*
Y00470282D01*
X00094107Y00469000D01*
Y00461000D01*
X00094174Y00460663D01*
X00091434Y00457922D01*
X00090447Y00458732D01*
X00090724Y00459147D01*
X00091093Y00461000D01*
Y00469000D01*
X00090724Y00470853D01*
X00089675Y00472425D01*
X00088103Y00473474D01*
X00086250Y00473843D01*
X00084397Y00473474D01*
X00082825Y00472425D01*
X00081776Y00470853D01*
X00081407Y00469000D01*
Y00461000D01*
X00081776Y00459147D01*
X00082825Y00457575D01*
X00084397Y00456526D01*
X00086250Y00456157D01*
X00088103Y00456526D01*
X00088518Y00456803D01*
X00089327Y00455816D01*
X00063056Y00429544D01*
X00062061Y00428056D01*
X00061712Y00426300D01*
Y00316950D01*
X00062061Y00315194D01*
X00063056Y00313706D01*
X00074000Y00302761D01*
X00073514Y00301588D01*
X00068493D01*
X00068138Y00302445D01*
X00066535Y00304534D01*
X00064446Y00306136D01*
X00062014Y00307144D01*
X00059403Y00307488D01*
X00056792Y00307144D01*
X00054360Y00306136D01*
X00054329Y00306113D01*
X00053059Y00306739D01*
Y00327828D01*
X00053532Y00328537D01*
X00053823Y00330000D01*
Y00336000D01*
X00053532Y00337463D01*
X00052704Y00338704D01*
X00051463Y00339532D01*
X00050000Y00339823D01*
X00046500D01*
X00045037Y00339532D01*
X00043796Y00338704D01*
X00042968Y00337463D01*
X00042677Y00336000D01*
Y00330000D01*
X00042968Y00328537D01*
X00043796Y00327296D01*
X00045037Y00326468D01*
X00046500Y00326176D01*
X00046941D01*
Y00306419D01*
X00046240Y00305718D01*
X00045577Y00304725D01*
X00045344Y00303555D01*
X00045344Y00303555D01*
Y00272199D01*
X00044074Y00272116D01*
X00043947Y00273083D01*
X00043746Y00274612D01*
X00042738Y00277045D01*
X00041135Y00279134D01*
X00039046Y00280737D01*
X00036614Y00281744D01*
X00034003Y00282088D01*
X00031393Y00281744D01*
X00028960Y00280737D01*
X00026871Y00279134D01*
X00025268Y00277045D01*
X00024260Y00274612D01*
X00023917Y00272001D01*
X00024260Y00269391D01*
X00025268Y00266958D01*
X00026871Y00264869D01*
X00028960Y00263267D01*
X00031393Y00262259D01*
X00034003Y00261915D01*
X00036614Y00262259D01*
X00039046Y00263267D01*
X00041135Y00264869D01*
X00042738Y00266958D01*
X00043746Y00269391D01*
X00043947Y00270920D01*
X00044074Y00271887D01*
X00045344Y00271804D01*
Y00246799D01*
X00044074Y00246716D01*
X00043947Y00247683D01*
X00043746Y00249212D01*
X00042738Y00251645D01*
X00041135Y00253734D01*
X00039046Y00255336D01*
X00036614Y00256344D01*
X00034003Y00256688D01*
X00031393Y00256344D01*
X00028960Y00255336D01*
X00026871Y00253734D01*
X00025268Y00251645D01*
X00024260Y00249212D01*
X00023917Y00246602D01*
X00024260Y00243991D01*
X00025268Y00241558D01*
X00026871Y00239469D01*
X00028960Y00237867D01*
X00030944Y00237045D01*
Y00227185D01*
X00030267Y00226733D01*
X00029660Y00225823D01*
X00029446Y00224750D01*
Y00223250D01*
X00029660Y00222177D01*
X00030267Y00221267D01*
X00030941Y00220817D01*
Y00217563D01*
X00030787Y00217532D01*
X00029546Y00216704D01*
X00028718Y00215463D01*
X00028427Y00214000D01*
Y00208000D01*
X00028718Y00206537D01*
X00029546Y00205296D01*
X00030787Y00204468D01*
X00032250Y00204177D01*
X00035750D01*
X00037213Y00204468D01*
X00038454Y00205296D01*
X00039282Y00206537D01*
X00039574Y00208000D01*
Y00214000D01*
X00039282Y00215463D01*
X00038454Y00216704D01*
X00037213Y00217532D01*
X00037059Y00217563D01*
Y00220817D01*
X00037733Y00221267D01*
X00038340Y00222177D01*
X00038554Y00223250D01*
Y00224750D01*
X00038340Y00225823D01*
X00037733Y00226733D01*
X00037062Y00227181D01*
Y00237045D01*
X00039046Y00237867D01*
X00041135Y00239469D01*
X00042738Y00241558D01*
X00043746Y00243991D01*
X00043947Y00245520D01*
X00044074Y00246487D01*
X00045344Y00246404D01*
Y00242045D01*
X00045344Y00242045D01*
X00045577Y00240875D01*
X00046240Y00239882D01*
X00054285Y00231837D01*
X00055278Y00231174D01*
X00056448Y00230941D01*
X00056448Y00230941D01*
X00060956D01*
X00061442Y00229768D01*
X00049498Y00217823D01*
X00046750D01*
X00045287Y00217532D01*
X00044046Y00216704D01*
X00043218Y00215463D01*
X00042927Y00214000D01*
Y00208000D01*
X00043218Y00206537D01*
X00044046Y00205296D01*
X00045287Y00204468D01*
X00046750Y00204177D01*
X00050250D01*
X00051713Y00204468D01*
X00052954Y00205296D01*
X00053782Y00206537D01*
X00054074Y00208000D01*
Y00213748D01*
X00067267Y00226941D01*
X00081075D01*
X00082055Y00225671D01*
X00081922Y00225000D01*
Y00219000D01*
X00082232Y00217439D01*
X00083116Y00216116D01*
X00082755Y00214830D01*
X00082522Y00214784D01*
X00081289Y00213960D01*
X00080466Y00212728D01*
X00080177Y00211275D01*
Y00200725D01*
X00080466Y00199272D01*
X00081289Y00198039D01*
X00082522Y00197216D01*
X00083975Y00196927D01*
X00091747D01*
X00098837Y00189837D01*
X00098922Y00189411D01*
X00098466Y00188728D01*
X00098177Y00187275D01*
Y00176725D01*
X00098466Y00175272D01*
X00098941Y00174561D01*
Y00172868D01*
X00098439Y00172768D01*
X00097116Y00171884D01*
X00096232Y00170561D01*
X00095922Y00169000D01*
Y00163000D01*
X00096232Y00161439D01*
X00097116Y00160116D01*
X00098439Y00159232D01*
X00100000Y00158922D01*
X00104000D01*
X00105561Y00159232D01*
X00106884Y00160116D01*
X00107768Y00161439D01*
X00108078Y00163000D01*
Y00169000D01*
X00107768Y00170561D01*
X00107035Y00171657D01*
X00107296Y00172486D01*
X00107598Y00172927D01*
X00110025D01*
X00111478Y00173216D01*
X00112711Y00174039D01*
X00113534Y00175272D01*
X00113823Y00176725D01*
Y00178941D01*
X00128733D01*
X00129959Y00177716D01*
X00130290Y00176049D01*
X00131395Y00174395D01*
X00133049Y00173290D01*
X00135000Y00172902D01*
X00144000D01*
X00145794Y00173259D01*
X00145973Y00172579D01*
X00146120Y00172275D01*
X00146250Y00171962D01*
X00146789Y00171155D01*
X00147019Y00170000D01*
X00146789Y00168845D01*
X00146135Y00167865D01*
X00145155Y00167211D01*
X00144293Y00167040D01*
X00144000Y00167098D01*
X00135000D01*
X00133049Y00166710D01*
X00132867Y00166588D01*
X00126830D01*
X00126561Y00166768D01*
X00125000Y00167078D01*
X00119000D01*
X00117439Y00166768D01*
X00116116Y00165884D01*
X00115232Y00164561D01*
X00114922Y00163000D01*
Y00159000D01*
X00115232Y00157439D01*
X00116116Y00156116D01*
X00117439Y00155232D01*
X00119000Y00154922D01*
X00119237D01*
X00119362Y00153652D01*
X00118689Y00153518D01*
X00117366Y00152634D01*
X00116482Y00151311D01*
X00116172Y00149750D01*
Y00144497D01*
X00113087Y00141413D01*
X00112424Y00140421D01*
X00112191Y00139250D01*
X00112191Y00139250D01*
Y00118794D01*
X00111018Y00118308D01*
X00104663Y00124663D01*
X00103671Y00125326D01*
X00102500Y00125559D01*
X00102500Y00125559D01*
X00093453D01*
X00092573Y00126500D01*
Y00130000D01*
X00092282Y00131463D01*
X00091454Y00132704D01*
X00090213Y00133532D01*
X00088750Y00133823D01*
X00082750D01*
X00081287Y00133532D01*
X00080046Y00132704D01*
X00079218Y00131463D01*
X00079087Y00130809D01*
X00077767D01*
X00073059Y00135517D01*
Y00135756D01*
X00073340Y00136177D01*
X00073554Y00137250D01*
Y00140750D01*
X00073340Y00141823D01*
X00072733Y00142733D01*
X00071823Y00143340D01*
X00070750Y00143554D01*
X00069250D01*
X00068177Y00143340D01*
X00067267Y00142733D01*
X00066817Y00142059D01*
X00037967D01*
X00036043Y00143535D01*
X00033610Y00144543D01*
X00031000Y00144886D01*
X00028389Y00144543D01*
X00025957Y00143535D01*
X00023868Y00141932D01*
X00022265Y00139843D01*
X00021257Y00137410D01*
X00020914Y00134800D01*
X00021257Y00132190D01*
X00022265Y00129757D01*
X00023868Y00127668D01*
X00025957Y00126065D01*
X00028389Y00125057D01*
X00031000Y00124714D01*
X00033610Y00125057D01*
X00036043Y00126065D01*
X00038132Y00127668D01*
X00039735Y00129757D01*
X00040743Y00132190D01*
X00041086Y00134800D01*
X00041062Y00134986D01*
X00041899Y00135941D01*
X00066817D01*
X00066941Y00135756D01*
Y00134250D01*
X00066941Y00134250D01*
X00067174Y00133080D01*
X00067837Y00132087D01*
X00074337Y00125587D01*
X00074337Y00125587D01*
X00075329Y00124924D01*
X00076500Y00124691D01*
X00079448D01*
X00080046Y00123796D01*
X00081287Y00122968D01*
X00082750Y00122677D01*
X00086426D01*
X00086504Y00122559D01*
X00085825Y00121289D01*
X00021250Y00121289D01*
X00020470Y00121134D01*
X00019808Y00120692D01*
X00019366Y00120030D01*
X00019211Y00119250D01*
X00019211Y00099500D01*
X00019366Y00098720D01*
X00019808Y00098058D01*
X00020470Y00097616D01*
X00021250Y00097461D01*
X00049405D01*
X00060558Y00086308D01*
X00061220Y00085866D01*
X00062000Y00085711D01*
X00074711D01*
Y00077000D01*
X00074866Y00076220D01*
X00075308Y00075558D01*
X00075970Y00075116D01*
X00076750Y00074961D01*
X00119750Y00074961D01*
X00120530Y00075116D01*
X00121192Y00075558D01*
X00122743Y00075782D01*
X00126438Y00072087D01*
X00126438Y00072087D01*
X00127430Y00071424D01*
X00128601Y00071191D01*
X00128601Y00071191D01*
X00131733D01*
X00140691Y00062233D01*
Y00034250D01*
X00140691Y00034250D01*
X00140924Y00033080D01*
X00141587Y00032087D01*
X00167346Y00006329D01*
X00166819Y00005059D01*
X00005059D01*
X00005059Y00488500D01*
X00098000Y00488500D01*
D02*
G37*
G36*
X00548000Y00468750D02*
X00548000Y00453500D01*
X00518000Y00453500D01*
X00515000Y00456500D01*
Y00468000D01*
X00512750Y00468049D01*
X00509418Y00471381D01*
X00509602Y00480602D01*
X00510500Y00481500D01*
X00535250Y00481500D01*
X00548000Y00468750D01*
D02*
G37*
G36*
X00339858Y00488500D02*
X00340344Y00487327D01*
X00280076Y00427059D01*
X00253000D01*
X00253000Y00427059D01*
X00251829Y00426826D01*
X00250837Y00426163D01*
X00250837Y00426163D01*
X00233587Y00408913D01*
X00232924Y00407920D01*
X00232691Y00406750D01*
X00232691Y00406750D01*
Y00398331D01*
X00217337Y00382977D01*
X00216674Y00381984D01*
X00216441Y00380814D01*
X00216441Y00380814D01*
Y00366122D01*
X00213837Y00363518D01*
X00213174Y00362526D01*
X00213002Y00361660D01*
X00211889Y00360949D01*
X00211819Y00360922D01*
X00211406Y00361198D01*
X00209260Y00361625D01*
X00207114Y00361198D01*
X00205295Y00359983D01*
X00204689Y00359076D01*
X00200907D01*
X00172820Y00387163D01*
X00171827Y00387826D01*
X00170657Y00388059D01*
X00170657Y00388059D01*
X00105343D01*
X00104173Y00387826D01*
X00103180Y00387163D01*
X00103180Y00387163D01*
X00099826Y00383809D01*
X00092750D01*
X00091579Y00383576D01*
X00090587Y00382913D01*
X00090587Y00382913D01*
X00087307Y00379633D01*
X00086250Y00379843D01*
X00084397Y00379474D01*
X00082825Y00378425D01*
X00081776Y00376853D01*
X00081407Y00375000D01*
Y00367000D01*
X00081776Y00365147D01*
X00082825Y00363575D01*
X00084397Y00362526D01*
X00086250Y00362157D01*
X00088103Y00362526D01*
X00089675Y00363575D01*
X00090724Y00365147D01*
X00091093Y00367000D01*
Y00374767D01*
X00093181Y00376855D01*
X00094352Y00376230D01*
X00094107Y00375000D01*
Y00367000D01*
X00094476Y00365147D01*
X00095525Y00363575D01*
X00097097Y00362526D01*
X00098950Y00362157D01*
X00100803Y00362526D01*
X00102374Y00363575D01*
X00103424Y00365147D01*
X00103793Y00367000D01*
Y00373467D01*
X00105686Y00375360D01*
X00106807Y00374685D01*
Y00367000D01*
X00107176Y00365147D01*
X00108225Y00363575D01*
X00109797Y00362526D01*
X00111650Y00362157D01*
X00113503Y00362526D01*
X00115075Y00363575D01*
X00116124Y00365147D01*
X00116493Y00367000D01*
Y00375000D01*
X00116161Y00376671D01*
X00116561Y00377671D01*
X00116706Y00377941D01*
X00131994D01*
X00132139Y00377671D01*
X00132539Y00376671D01*
X00132207Y00375000D01*
Y00367000D01*
X00132576Y00365147D01*
X00133625Y00363575D01*
X00135197Y00362526D01*
X00137050Y00362157D01*
X00138903Y00362526D01*
X00140475Y00363575D01*
X00141524Y00365147D01*
X00141893Y00367000D01*
Y00375000D01*
X00141561Y00376671D01*
X00141961Y00377671D01*
X00142106Y00377941D01*
X00144694D01*
X00144838Y00377671D01*
X00145239Y00376671D01*
X00144907Y00375000D01*
Y00367000D01*
X00145276Y00365147D01*
X00146325Y00363575D01*
X00147897Y00362526D01*
X00149750Y00362157D01*
X00151603Y00362526D01*
X00153174Y00363575D01*
X00154224Y00365147D01*
X00154593Y00367000D01*
Y00375000D01*
X00154261Y00376671D01*
X00154662Y00377671D01*
X00154806Y00377941D01*
X00157394D01*
X00157538Y00377671D01*
X00157939Y00376671D01*
X00157607Y00375000D01*
Y00367000D01*
X00157976Y00365147D01*
X00159025Y00363575D01*
X00160597Y00362526D01*
X00162450Y00362157D01*
X00164303Y00362526D01*
X00165875Y00363575D01*
X00166924Y00365147D01*
X00167293Y00367000D01*
Y00375000D01*
X00166961Y00376671D01*
X00167031Y00376847D01*
X00168520Y00377152D01*
X00168523Y00377151D01*
X00192529Y00353145D01*
X00192530Y00353145D01*
X00192530Y00353145D01*
X00198008Y00347666D01*
X00198319Y00346104D01*
X00199535Y00344285D01*
X00201354Y00343069D01*
X00203500Y00342642D01*
X00205646Y00343069D01*
X00205821Y00343186D01*
X00206941Y00342588D01*
Y00322481D01*
X00202992Y00318532D01*
X00201646Y00319431D01*
X00199500Y00319858D01*
X00197354Y00319431D01*
X00195535Y00318215D01*
X00194319Y00316396D01*
X00193892Y00314250D01*
X00194011Y00313651D01*
X00193667Y00313267D01*
X00192896Y00312747D01*
X00191009Y00313123D01*
X00188863Y00312696D01*
X00187044Y00311480D01*
X00185828Y00309661D01*
X00185402Y00307515D01*
X00185828Y00305369D01*
X00185956Y00305179D01*
X00185357Y00304059D01*
X00170929D01*
X00169758Y00303826D01*
X00168766Y00303163D01*
X00168766Y00303163D01*
X00165837Y00300234D01*
X00165174Y00299242D01*
X00164941Y00298071D01*
X00164941Y00298071D01*
Y00286000D01*
X00164941Y00286000D01*
X00163871Y00284873D01*
X00163049Y00284710D01*
X00161905Y00283945D01*
X00161000Y00283708D01*
X00160095Y00283945D01*
X00158951Y00284710D01*
X00157000Y00285098D01*
X00155049Y00284710D01*
X00153395Y00283605D01*
X00152290Y00281951D01*
X00152235Y00281675D01*
X00151020Y00281306D01*
X00143809Y00288517D01*
Y00294437D01*
X00143963Y00294468D01*
X00145204Y00295296D01*
X00146032Y00296537D01*
X00146323Y00298000D01*
Y00304000D01*
X00146032Y00305463D01*
X00145204Y00306704D01*
X00143963Y00307532D01*
X00142500Y00307823D01*
X00139000D01*
X00137537Y00307532D01*
X00136296Y00306704D01*
X00136135Y00306462D01*
X00134865D01*
X00134704Y00306704D01*
X00133463Y00307532D01*
X00132000Y00307823D01*
X00128500D01*
X00127037Y00307532D01*
X00125796Y00306704D01*
X00124968Y00305463D01*
X00124677Y00304000D01*
Y00298000D01*
X00124968Y00296537D01*
X00125796Y00295296D01*
X00127037Y00294468D01*
X00128500Y00294177D01*
X00131498D01*
X00133691Y00291983D01*
Y00285250D01*
X00133691Y00285250D01*
X00133924Y00284079D01*
X00134587Y00283087D01*
X00139106Y00278568D01*
X00138513Y00277366D01*
X00137000Y00277565D01*
X00135042Y00277307D01*
X00133218Y00276551D01*
X00131651Y00275349D01*
X00131067Y00274588D01*
X00120900D01*
X00095244Y00300244D01*
X00093756Y00301239D01*
X00092000Y00301588D01*
X00084588D01*
Y00303250D01*
X00084239Y00305006D01*
X00083244Y00306494D01*
X00070888Y00318850D01*
Y00361655D01*
X00072158Y00362434D01*
X00073550Y00362157D01*
X00075403Y00362526D01*
X00076975Y00363575D01*
X00078024Y00365147D01*
X00078393Y00367000D01*
Y00375000D01*
X00078024Y00376853D01*
X00076975Y00378425D01*
X00075403Y00379474D01*
X00073550Y00379843D01*
X00072158Y00379566D01*
X00070888Y00380345D01*
Y00424399D01*
X00095244Y00448756D01*
X00095244Y00448756D01*
X00102194Y00455706D01*
X00103189Y00457194D01*
X00103538Y00458950D01*
Y00459719D01*
X00103793Y00461000D01*
Y00469000D01*
X00103538Y00470281D01*
Y00474049D01*
X00104410Y00474922D01*
X00106000D01*
X00107561Y00475232D01*
X00108884Y00476116D01*
X00109768Y00477439D01*
X00110078Y00479000D01*
Y00485000D01*
X00109768Y00486561D01*
X00109321Y00487230D01*
X00110000Y00488500D01*
X00339858Y00488500D01*
D02*
G37*
G36*
X00371935Y00417000D02*
X00372977Y00415730D01*
X00372931Y00415500D01*
Y00408500D01*
X00373203Y00407134D01*
X00373977Y00405977D01*
X00375134Y00405203D01*
X00376500Y00404931D01*
X00379500D01*
X00380866Y00405203D01*
X00382023Y00405977D01*
X00382797Y00407134D01*
X00383069Y00408500D01*
Y00415500D01*
X00383023Y00415730D01*
X00384065Y00417000D01*
X00468500Y00417000D01*
X00474000Y00411500D01*
Y00410100D01*
X00477750D01*
Y00407986D01*
X00477468Y00407563D01*
X00477177Y00406100D01*
Y00402060D01*
X00477035Y00401965D01*
X00475819Y00400146D01*
X00475591Y00399000D01*
X00364000Y00399000D01*
Y00417000D01*
X00371935D01*
D02*
G37*
G36*
X00305941Y00374582D02*
Y00370407D01*
X00305941Y00370407D01*
X00306174Y00369236D01*
X00306837Y00368244D01*
X00310744Y00364337D01*
X00311736Y00363674D01*
X00312907Y00363441D01*
X00312907Y00363441D01*
X00319192D01*
X00319192Y00363441D01*
X00320363Y00363674D01*
X00321355Y00364337D01*
X00321459Y00364441D01*
X00353338D01*
X00353936Y00363321D01*
X00353819Y00363146D01*
X00353392Y00361000D01*
X00353819Y00358854D01*
X00354922Y00357204D01*
Y00356593D01*
X00354232Y00355561D01*
X00353922Y00354000D01*
Y00348000D01*
X00354232Y00346439D01*
X00353733Y00345132D01*
X00353171Y00344826D01*
X00352000Y00345059D01*
X00350830Y00344826D01*
X00350000Y00344272D01*
X00349170Y00344826D01*
X00348000Y00345059D01*
X00346829Y00344826D01*
X00346000Y00344272D01*
X00345171Y00344826D01*
X00344000Y00345059D01*
X00342830Y00344826D01*
X00341837Y00344163D01*
X00341174Y00343171D01*
X00340941Y00342000D01*
Y00338000D01*
X00341026Y00337577D01*
X00340018Y00336447D01*
X00339619Y00336480D01*
X00339615Y00336486D01*
X00339163Y00337163D01*
X00338171Y00337826D01*
X00337000Y00338059D01*
X00333000D01*
X00331829Y00337826D01*
X00330837Y00337163D01*
X00330174Y00336171D01*
X00329941Y00335000D01*
X00330174Y00333829D01*
X00330837Y00332837D01*
X00331829Y00332174D01*
X00333000Y00331941D01*
X00337000D01*
X00338171Y00332174D01*
X00339030Y00332748D01*
X00339632Y00332596D01*
X00340300Y00332253D01*
Y00329747D01*
X00339632Y00329404D01*
X00339030Y00329252D01*
X00338171Y00329826D01*
X00337000Y00330059D01*
X00333000D01*
X00331829Y00329826D01*
X00330837Y00329163D01*
X00329625Y00329044D01*
X00325633Y00333036D01*
X00326681Y00334604D01*
X00327108Y00336750D01*
X00326681Y00338896D01*
X00325465Y00340715D01*
X00323646Y00341931D01*
X00321500Y00342358D01*
X00319354Y00341931D01*
X00317535Y00340715D01*
X00316319Y00338896D01*
X00316216Y00338380D01*
X00315001Y00338011D01*
X00299059Y00353953D01*
Y00371733D01*
X00300163Y00372837D01*
X00300826Y00373829D01*
X00301059Y00375000D01*
Y00377805D01*
X00302232Y00378291D01*
X00305941Y00374582D01*
D02*
G37*
G36*
X00374408Y00356516D02*
X00374408Y00356516D01*
X00383941Y00346983D01*
Y00336925D01*
X00382671Y00335945D01*
X00382000Y00336078D01*
X00376000D01*
X00374439Y00335768D01*
X00373116Y00334884D01*
X00372232Y00333561D01*
X00371922Y00332000D01*
Y00330059D01*
X00363000D01*
X00361829Y00329826D01*
X00360970Y00329252D01*
X00360368Y00329404D01*
X00359700Y00329747D01*
Y00332253D01*
X00360368Y00332596D01*
X00360970Y00332748D01*
X00361829Y00332174D01*
X00363000Y00331941D01*
X00367000D01*
X00368171Y00332174D01*
X00369163Y00332837D01*
X00369826Y00333829D01*
X00370059Y00335000D01*
X00369826Y00336171D01*
X00369163Y00337163D01*
X00368171Y00337826D01*
X00367059Y00338047D01*
Y00340733D01*
X00369163Y00342837D01*
X00369163Y00342837D01*
X00369826Y00343829D01*
X00370059Y00345000D01*
X00370059Y00345000D01*
Y00359206D01*
X00371232Y00359692D01*
X00374408Y00356516D01*
D02*
G37*
G36*
X00561587Y00336642D02*
X00561037Y00336532D01*
X00559796Y00335704D01*
X00558968Y00334463D01*
X00558677Y00333000D01*
Y00327000D01*
X00558968Y00325537D01*
X00559796Y00324296D01*
X00561037Y00323468D01*
X00561191Y00323437D01*
Y00319343D01*
X00561177Y00319340D01*
X00560267Y00318733D01*
X00559660Y00317823D01*
X00559446Y00316750D01*
Y00315250D01*
X00559660Y00314177D01*
X00560267Y00313267D01*
X00560941Y00312817D01*
Y00309000D01*
X00560941Y00309000D01*
X00561174Y00307829D01*
X00561837Y00306837D01*
X00564941Y00303733D01*
Y00291500D01*
X00564941Y00291500D01*
X00565174Y00290329D01*
X00565722Y00289509D01*
X00565365Y00289043D01*
X00564357Y00286611D01*
X00564014Y00284000D01*
X00564357Y00281390D01*
X00565365Y00278957D01*
X00566968Y00276868D01*
X00569057Y00275265D01*
X00571489Y00274257D01*
X00574100Y00273914D01*
X00576711Y00274257D01*
X00579143Y00275265D01*
X00581232Y00276868D01*
X00582835Y00278957D01*
X00583843Y00281390D01*
X00584186Y00284000D01*
X00583843Y00286611D01*
X00582835Y00289043D01*
X00581232Y00291132D01*
X00579143Y00292735D01*
X00576711Y00293743D01*
X00574100Y00294086D01*
X00572329Y00293853D01*
X00571059Y00294849D01*
Y00305000D01*
X00571059Y00305000D01*
X00570826Y00306171D01*
X00570163Y00307163D01*
X00570163Y00307163D01*
X00567059Y00310267D01*
Y00312817D01*
X00567733Y00313267D01*
X00568340Y00314177D01*
X00568554Y00315250D01*
Y00316750D01*
X00568340Y00317823D01*
X00567733Y00318733D01*
X00567309Y00319016D01*
Y00323437D01*
X00567463Y00323468D01*
X00568704Y00324296D01*
X00569532Y00325537D01*
X00569823Y00327000D01*
Y00333000D01*
X00569664Y00333801D01*
X00570835Y00334427D01*
X00573922Y00331340D01*
Y00328000D01*
X00574232Y00326439D01*
X00575116Y00325116D01*
X00575412Y00324919D01*
Y00316000D01*
Y00303000D01*
X00575761Y00301244D01*
X00576756Y00299756D01*
X00589500Y00287011D01*
Y00274000D01*
X00590961D01*
Y00258039D01*
X00515000D01*
X00514220Y00257884D01*
X00513558Y00257442D01*
X00513116Y00256780D01*
X00512961Y00256000D01*
Y00250569D01*
X00494190D01*
X00493704Y00251742D01*
X00505913Y00263951D01*
X00505913Y00263951D01*
X00506576Y00264943D01*
X00506809Y00266114D01*
X00506809Y00266114D01*
Y00297826D01*
X00521413Y00312430D01*
X00521413Y00312430D01*
X00522076Y00313423D01*
X00522309Y00314593D01*
X00522309Y00314593D01*
Y00322177D01*
X00523500D01*
X00524963Y00322468D01*
X00526204Y00323296D01*
X00527032Y00324537D01*
X00527323Y00326000D01*
Y00332000D01*
X00527190Y00332671D01*
X00528124Y00333941D01*
X00529876D01*
X00530810Y00332671D01*
X00530676Y00332000D01*
Y00326000D01*
X00530968Y00324537D01*
X00531796Y00323296D01*
X00533037Y00322468D01*
X00533191Y00322437D01*
Y00319343D01*
X00533177Y00319340D01*
X00532267Y00318733D01*
X00531660Y00317823D01*
X00531446Y00316750D01*
Y00315250D01*
X00531660Y00314177D01*
X00532267Y00313267D01*
X00532941Y00312817D01*
Y00309000D01*
X00532941Y00309000D01*
X00533174Y00307829D01*
X00533837Y00306837D01*
X00537691Y00302983D01*
Y00290500D01*
X00537691Y00290500D01*
X00537924Y00289329D01*
X00538587Y00288337D01*
X00539355Y00287570D01*
X00538957Y00286611D01*
X00538614Y00284000D01*
X00538957Y00281390D01*
X00539965Y00278957D01*
X00541568Y00276868D01*
X00543657Y00275265D01*
X00546090Y00274257D01*
X00548700Y00273914D01*
X00551311Y00274257D01*
X00553743Y00275265D01*
X00555832Y00276868D01*
X00557435Y00278957D01*
X00558443Y00281390D01*
X00558786Y00284000D01*
X00558443Y00286611D01*
X00557435Y00289043D01*
X00555832Y00291132D01*
X00553743Y00292735D01*
X00551311Y00293743D01*
X00548700Y00294086D01*
X00546090Y00293743D01*
X00544865Y00293235D01*
X00543809Y00293941D01*
Y00304250D01*
X00543809Y00304250D01*
X00543576Y00305420D01*
X00542913Y00306413D01*
X00542913Y00306413D01*
X00539059Y00310267D01*
Y00312817D01*
X00539733Y00313267D01*
X00540340Y00314177D01*
X00540554Y00315250D01*
Y00316750D01*
X00540340Y00317823D01*
X00539733Y00318733D01*
X00539309Y00319016D01*
Y00322437D01*
X00539463Y00322468D01*
X00540704Y00323296D01*
X00541532Y00324537D01*
X00541823Y00326000D01*
Y00332000D01*
X00542854Y00333041D01*
X00543140Y00333062D01*
X00544177Y00332083D01*
Y00327000D01*
X00544468Y00325537D01*
X00545296Y00324296D01*
X00546537Y00323468D01*
X00548000Y00323176D01*
X00551500D01*
X00552963Y00323468D01*
X00554204Y00324296D01*
X00555032Y00325537D01*
X00555323Y00327000D01*
Y00333000D01*
X00555032Y00334463D01*
X00554204Y00335704D01*
X00552963Y00336532D01*
X00552413Y00336642D01*
X00552538Y00337912D01*
X00561462D01*
X00561587Y00336642D01*
D02*
G37*
G36*
X00252834Y00319034D02*
X00247216Y00313416D01*
X00246837Y00313163D01*
X00246174Y00312171D01*
X00245941Y00311000D01*
X00245941Y00311000D01*
Y00310875D01*
X00245941Y00310874D01*
X00245941Y00310874D01*
Y00294969D01*
X00245941Y00294968D01*
X00245941Y00294968D01*
Y00286267D01*
X00244716Y00285041D01*
X00243049Y00284710D01*
X00241905Y00283945D01*
X00241000Y00283708D01*
X00240095Y00283945D01*
X00238951Y00284710D01*
X00238059Y00284887D01*
Y00290772D01*
X00237826Y00291943D01*
X00237163Y00292935D01*
X00237163Y00292935D01*
X00235406Y00294692D01*
X00235619Y00295764D01*
X00235192Y00297910D01*
X00233976Y00299730D01*
X00232157Y00300945D01*
X00230753Y00301225D01*
X00230335Y00302603D01*
X00236163Y00308430D01*
X00236163Y00308430D01*
X00236826Y00309423D01*
X00237059Y00310593D01*
Y00317932D01*
X00238329Y00318611D01*
X00239116Y00318085D01*
X00241262Y00317658D01*
X00243408Y00318085D01*
X00245227Y00319300D01*
X00245833Y00320207D01*
X00252348D01*
X00252834Y00319034D01*
D02*
G37*
G36*
X00310756Y00284756D02*
X00312244Y00283761D01*
X00314000Y00283412D01*
X00351412D01*
Y00279081D01*
X00351116Y00278884D01*
X00350232Y00277561D01*
X00349922Y00276000D01*
Y00270000D01*
X00350132Y00268943D01*
X00349188Y00267960D01*
X00349136Y00267936D01*
X00348521Y00268059D01*
X00348521Y00268059D01*
X00308924D01*
X00306820Y00270163D01*
X00305827Y00270826D01*
X00304657Y00271059D01*
X00304657Y00271059D01*
X00282098D01*
Y00280000D01*
X00281710Y00281951D01*
X00280605Y00283605D01*
X00278951Y00284710D01*
X00277000Y00285098D01*
X00275049Y00284710D01*
X00273395Y00283605D01*
X00272290Y00281951D01*
X00271902Y00280000D01*
Y00271000D01*
X00272259Y00269206D01*
X00271579Y00269027D01*
X00271275Y00268880D01*
X00270962Y00268750D01*
X00270155Y00268211D01*
X00269000Y00267981D01*
X00267845Y00268211D01*
X00266865Y00268865D01*
X00266211Y00269845D01*
X00266101Y00270398D01*
X00266024Y00270583D01*
X00266020Y00270606D01*
X00266098Y00271000D01*
Y00280000D01*
X00265710Y00281951D01*
X00265588Y00282133D01*
Y00286919D01*
X00265884Y00287116D01*
X00266768Y00288439D01*
X00267078Y00290000D01*
Y00296000D01*
X00266768Y00297561D01*
X00265884Y00298884D01*
X00265588Y00299081D01*
Y00300551D01*
X00266704Y00301296D01*
X00266781Y00301412D01*
X00268219D01*
X00268296Y00301296D01*
X00269537Y00300468D01*
X00271000Y00300177D01*
X00277000D01*
X00278463Y00300468D01*
X00279704Y00301296D01*
X00279781Y00301412D01*
X00294100D01*
X00310756Y00284756D01*
D02*
G37*
G36*
X00598211Y00339648D02*
X00598211Y00339648D01*
X00598366Y00338868D01*
X00598808Y00338206D01*
X00599706Y00337308D01*
X00600368Y00336866D01*
X00601148Y00336711D01*
X00604155Y00336711D01*
X00608711Y00332155D01*
Y00329345D01*
X00604308Y00324942D01*
X00603866Y00324280D01*
X00603711Y00323500D01*
Y00317095D01*
X00591558Y00304942D01*
X00591116Y00304280D01*
X00590961Y00303500D01*
Y00300187D01*
X00589787Y00299701D01*
X00584588Y00304900D01*
Y00316000D01*
Y00324919D01*
X00584884Y00325116D01*
X00585768Y00326439D01*
X00586078Y00328000D01*
Y00334000D01*
X00585768Y00335561D01*
X00584884Y00336884D01*
X00583561Y00337768D01*
X00582000Y00338078D01*
X00580160D01*
X00575451Y00342788D01*
X00575937Y00343961D01*
X00598211D01*
Y00339648D01*
D02*
G37*
G36*
X00203941Y00297764D02*
Y00291767D01*
X00197227Y00285053D01*
X00197000Y00285098D01*
X00195049Y00284710D01*
X00193395Y00283605D01*
X00192290Y00281951D01*
X00191902Y00280000D01*
Y00271000D01*
X00192259Y00269206D01*
X00191579Y00269027D01*
X00191275Y00268880D01*
X00190962Y00268750D01*
X00190155Y00268211D01*
X00189000Y00267981D01*
X00187845Y00268211D01*
X00186865Y00268865D01*
X00186211Y00269845D01*
X00186101Y00270398D01*
X00186024Y00270583D01*
X00186020Y00270606D01*
X00186098Y00271000D01*
Y00280000D01*
X00185710Y00281951D01*
X00185588Y00282133D01*
Y00285250D01*
X00185239Y00287006D01*
X00184244Y00288494D01*
X00181078Y00291660D01*
Y00296000D01*
X00180945Y00296671D01*
X00181925Y00297941D01*
X00201099D01*
X00201099Y00297941D01*
X00202270Y00298174D01*
X00202671Y00298442D01*
X00203941Y00297764D01*
D02*
G37*
G36*
X00115756Y00266756D02*
X00117244Y00265761D01*
X00119000Y00265412D01*
X00131067D01*
X00131651Y00264651D01*
X00132671Y00263868D01*
X00132704Y00263768D01*
X00132589Y00262402D01*
X00131395Y00261605D01*
X00130290Y00259951D01*
X00129902Y00258000D01*
X00130290Y00256049D01*
X00131055Y00254905D01*
X00131292Y00254000D01*
X00131055Y00253095D01*
X00130290Y00251951D01*
X00129902Y00250000D01*
X00130290Y00248049D01*
X00131395Y00246395D01*
Y00245605D01*
X00130290Y00243951D01*
X00129902Y00242000D01*
X00130290Y00240049D01*
X00131395Y00238395D01*
X00133049Y00237290D01*
X00135000Y00236902D01*
X00144000D01*
X00145794Y00237259D01*
X00145973Y00236579D01*
X00146120Y00236275D01*
X00146250Y00235962D01*
X00146789Y00235155D01*
X00147019Y00234000D01*
X00146789Y00232845D01*
X00146135Y00231865D01*
X00145155Y00231211D01*
X00144293Y00231040D01*
X00144000Y00231098D01*
X00135000D01*
X00133049Y00230710D01*
X00132867Y00230588D01*
X00128081D01*
X00127884Y00230884D01*
X00126561Y00231768D01*
X00125000Y00232078D01*
X00119000D01*
X00117439Y00231768D01*
X00116516Y00231151D01*
X00115704Y00230995D01*
X00114822Y00231232D01*
X00109891Y00236163D01*
X00108898Y00236826D01*
X00107728Y00237059D01*
X00107728Y00237059D01*
X00057715D01*
X00051462Y00243312D01*
Y00263924D01*
X00052732Y00264516D01*
X00054360Y00263267D01*
X00056792Y00262259D01*
X00059403Y00261915D01*
X00062014Y00262259D01*
X00064446Y00263267D01*
X00066535Y00264869D01*
X00068138Y00266958D01*
X00069146Y00269391D01*
X00069489Y00272001D01*
X00069146Y00274612D01*
X00068138Y00277045D01*
X00066535Y00279134D01*
X00064446Y00280737D01*
X00062014Y00281744D01*
X00059403Y00282088D01*
X00056792Y00281744D01*
X00054360Y00280737D01*
X00052732Y00279487D01*
X00051462Y00280079D01*
Y00289324D01*
X00052732Y00289916D01*
X00054360Y00288667D01*
X00056792Y00287659D01*
X00059403Y00287315D01*
X00062014Y00287659D01*
X00064446Y00288667D01*
X00066535Y00290269D01*
X00068138Y00292358D01*
X00068160Y00292412D01*
X00090099D01*
X00115756Y00266756D01*
D02*
G37*
G36*
X00264290Y00269049D02*
X00265395Y00267395D01*
X00267049Y00266290D01*
X00269000Y00265902D01*
X00270951Y00266290D01*
X00272095Y00267055D01*
X00273000Y00267292D01*
X00273905Y00267055D01*
X00275049Y00266290D01*
X00277000Y00265902D01*
X00277644Y00266030D01*
X00277837Y00265837D01*
X00278829Y00265174D01*
X00280000Y00264941D01*
X00282471D01*
X00282957Y00263768D01*
X00281837Y00262648D01*
X00281174Y00261656D01*
X00280941Y00260485D01*
X00280941Y00260485D01*
Y00255515D01*
X00280941Y00255515D01*
X00281174Y00254344D01*
X00281837Y00253352D01*
X00284950Y00250239D01*
X00284902Y00250000D01*
X00285290Y00248049D01*
X00286055Y00246905D01*
X00286292Y00246000D01*
X00286055Y00245095D01*
X00285290Y00243951D01*
X00284902Y00242000D01*
X00285290Y00240049D01*
X00286055Y00238905D01*
X00286292Y00238000D01*
X00286055Y00237095D01*
X00285290Y00235951D01*
X00284902Y00234000D01*
X00285290Y00232049D01*
X00286055Y00230905D01*
X00286292Y00230000D01*
X00286055Y00229095D01*
X00285290Y00227951D01*
X00284902Y00226000D01*
X00285290Y00224049D01*
X00286055Y00222905D01*
X00286292Y00222000D01*
X00286055Y00221095D01*
X00285290Y00219951D01*
X00284902Y00218000D01*
X00285290Y00216049D01*
X00286055Y00214905D01*
X00286292Y00214000D01*
X00286055Y00213095D01*
X00285290Y00211951D01*
X00284902Y00210000D01*
X00285290Y00208049D01*
X00286395Y00206395D01*
X00288049Y00205290D01*
X00290000Y00204902D01*
Y00199098D01*
X00288049Y00198710D01*
X00286395Y00197605D01*
X00285290Y00195951D01*
X00284902Y00194000D01*
X00285290Y00192049D01*
X00286055Y00190905D01*
X00286292Y00190000D01*
X00286055Y00189095D01*
X00285290Y00187951D01*
X00284902Y00186000D01*
X00285290Y00184049D01*
X00286055Y00182905D01*
X00286292Y00182000D01*
X00286055Y00181095D01*
X00285290Y00179951D01*
X00284902Y00178000D01*
X00285290Y00176049D01*
X00286055Y00174905D01*
X00286292Y00174000D01*
X00286055Y00173095D01*
X00285290Y00171951D01*
X00284902Y00170000D01*
X00285290Y00168049D01*
X00286055Y00166905D01*
X00286292Y00166000D01*
X00286055Y00165095D01*
X00285290Y00163951D01*
X00284902Y00162000D01*
X00285290Y00160049D01*
X00286055Y00158905D01*
X00286292Y00158000D01*
X00286055Y00157095D01*
X00285290Y00155951D01*
X00284902Y00154000D01*
X00285290Y00152049D01*
X00286055Y00150905D01*
X00286292Y00150000D01*
X00286055Y00149095D01*
X00285290Y00147951D01*
X00284902Y00146000D01*
X00285290Y00144049D01*
X00286055Y00142905D01*
X00286292Y00142000D01*
X00286055Y00141095D01*
X00285290Y00139951D01*
X00284902Y00138000D01*
X00285290Y00136049D01*
X00286395Y00134395D01*
X00288049Y00133290D01*
X00290000Y00132902D01*
Y00124000D01*
X00282098D01*
Y00125000D01*
X00281710Y00126951D01*
X00280605Y00128605D01*
X00278951Y00129710D01*
X00277000Y00130098D01*
X00275049Y00129710D01*
X00273395Y00128605D01*
X00272290Y00126951D01*
X00271902Y00125000D01*
Y00124000D01*
X00266098D01*
Y00125000D01*
X00265710Y00126951D01*
X00265306Y00127556D01*
X00265281Y00127752D01*
X00265729Y00129208D01*
X00266965Y00130035D01*
X00268181Y00131854D01*
X00268608Y00134000D01*
X00268181Y00136146D01*
X00266965Y00137965D01*
X00265146Y00139181D01*
X00263000Y00139608D01*
X00260854Y00139181D01*
X00259035Y00137965D01*
X00258249Y00136789D01*
X00256751Y00136789D01*
X00255965Y00137965D01*
X00254146Y00139181D01*
X00251999Y00139607D01*
X00249853Y00139181D01*
X00248034Y00137965D01*
X00246819Y00136146D01*
X00246404Y00134059D01*
X00151767D01*
X00148887Y00136939D01*
X00149098Y00138000D01*
X00148710Y00139951D01*
X00147945Y00141095D01*
X00147708Y00142000D01*
X00147945Y00142905D01*
X00148710Y00144049D01*
X00149098Y00146000D01*
X00148710Y00147951D01*
X00147945Y00149095D01*
X00147708Y00150000D01*
X00147945Y00150905D01*
X00148710Y00152049D01*
X00149098Y00154000D01*
X00148710Y00155951D01*
X00147605Y00157605D01*
X00145951Y00158710D01*
X00144000Y00159098D01*
Y00164902D01*
X00145951Y00165290D01*
X00147605Y00166395D01*
X00148710Y00168049D01*
X00149098Y00170000D01*
X00148710Y00171951D01*
X00147945Y00173095D01*
X00147708Y00174000D01*
X00147945Y00174905D01*
X00148710Y00176049D01*
X00149098Y00178000D01*
X00148710Y00179951D01*
X00147605Y00181605D01*
Y00182395D01*
X00148710Y00184049D01*
X00149098Y00186000D01*
X00148710Y00187951D01*
X00147945Y00189095D01*
X00147708Y00190000D01*
X00147945Y00190905D01*
X00148710Y00192049D01*
X00149098Y00194000D01*
X00148710Y00195951D01*
X00147605Y00197605D01*
Y00198395D01*
X00148710Y00200049D01*
X00149098Y00202000D01*
X00148710Y00203951D01*
X00147945Y00205095D01*
X00147708Y00206000D01*
X00147945Y00206905D01*
X00148710Y00208049D01*
X00149098Y00210000D01*
X00148710Y00211951D01*
X00147945Y00213095D01*
X00147708Y00214000D01*
X00147945Y00214905D01*
X00148710Y00216049D01*
X00149098Y00218000D01*
X00148710Y00219951D01*
X00147605Y00221605D01*
X00145951Y00222710D01*
X00144000Y00223098D01*
Y00228902D01*
X00145951Y00229290D01*
X00147605Y00230395D01*
X00148710Y00232049D01*
X00149098Y00234000D01*
X00148710Y00235951D01*
X00147945Y00237095D01*
X00147708Y00238000D01*
X00147945Y00238905D01*
X00148710Y00240049D01*
X00149098Y00242000D01*
X00148710Y00243951D01*
X00147605Y00245605D01*
Y00246395D01*
X00148710Y00248049D01*
X00149098Y00250000D01*
X00148710Y00251951D01*
X00147945Y00253095D01*
X00147708Y00254000D01*
X00147945Y00254905D01*
X00148710Y00256049D01*
X00149098Y00258000D01*
X00148879Y00259098D01*
X00149059Y00260000D01*
X00149059Y00260000D01*
Y00270000D01*
X00152101D01*
X00152290Y00269049D01*
X00153395Y00267395D01*
X00155049Y00266290D01*
X00157000Y00265902D01*
X00158951Y00266290D01*
X00160095Y00267055D01*
X00161000Y00267292D01*
X00161905Y00267055D01*
X00163049Y00266290D01*
X00165000Y00265902D01*
X00166951Y00266290D01*
X00168095Y00267055D01*
X00169000Y00267292D01*
X00169905Y00267055D01*
X00171049Y00266290D01*
X00173000Y00265902D01*
X00174951Y00266290D01*
X00176605Y00267395D01*
X00177710Y00269049D01*
X00177899Y00270000D01*
X00184101D01*
X00184290Y00269049D01*
X00185395Y00267395D01*
X00187049Y00266290D01*
X00189000Y00265902D01*
X00190951Y00266290D01*
X00192095Y00267055D01*
X00193000Y00267292D01*
X00193905Y00267055D01*
X00195049Y00266290D01*
X00197000Y00265902D01*
X00198951Y00266290D01*
X00200095Y00267055D01*
X00201000Y00267292D01*
X00201905Y00267055D01*
X00203049Y00266290D01*
X00205000Y00265902D01*
X00206951Y00266290D01*
X00208095Y00267055D01*
X00209000Y00267292D01*
X00209905Y00267055D01*
X00211049Y00266290D01*
X00213000Y00265902D01*
X00214951Y00266290D01*
X00216095Y00267055D01*
X00217000Y00267292D01*
X00217905Y00267055D01*
X00219049Y00266290D01*
X00221000Y00265902D01*
X00222951Y00266290D01*
X00224095Y00267055D01*
X00225000Y00267292D01*
X00225905Y00267055D01*
X00227049Y00266290D01*
X00229000Y00265902D01*
X00230951Y00266290D01*
X00232095Y00267055D01*
X00233000Y00267292D01*
X00233905Y00267055D01*
X00235049Y00266290D01*
X00237000Y00265902D01*
X00238951Y00266290D01*
X00240095Y00267055D01*
X00241000Y00267292D01*
X00241905Y00267055D01*
X00243049Y00266290D01*
X00245000Y00265902D01*
X00246951Y00266290D01*
X00248095Y00267055D01*
X00249000Y00267292D01*
X00249905Y00267055D01*
X00251049Y00266290D01*
X00253000Y00265902D01*
X00254951Y00266290D01*
X00256605Y00267395D01*
X00257710Y00269049D01*
X00257899Y00270000D01*
X00264101D01*
X00264290Y00269049D01*
D02*
G37*
G36*
X00375412Y00259078D02*
X00375000D01*
X00373439Y00258768D01*
X00372116Y00257884D01*
X00371565Y00257059D01*
X00368522D01*
X00368518Y00257061D01*
X00367250Y00257314D01*
X00361250D01*
X00361084Y00257281D01*
X00359814Y00258323D01*
Y00262250D01*
X00359561Y00263518D01*
X00359559Y00263522D01*
Y00266232D01*
X00359561Y00266232D01*
X00360884Y00267116D01*
X00361768Y00268439D01*
X00362078Y00270000D01*
Y00276000D01*
X00361768Y00277561D01*
X00360884Y00278884D01*
X00360588Y00279081D01*
Y00283412D01*
X00375412D01*
Y00259078D01*
D02*
G37*
G36*
X00496006Y00354505D02*
X00495940Y00354000D01*
X00496180Y00352173D01*
X00496885Y00350470D01*
X00498008Y00349008D01*
X00499470Y00347886D01*
X00501173Y00347180D01*
X00503000Y00346940D01*
X00504827Y00347180D01*
X00506530Y00347886D01*
X00506802Y00348094D01*
X00507941Y00347533D01*
Y00318924D01*
X00493587Y00304570D01*
X00492924Y00303577D01*
X00492691Y00302407D01*
X00492691Y00302407D01*
Y00270695D01*
X00452755Y00230759D01*
X00418620D01*
X00418516Y00230863D01*
X00417524Y00231526D01*
X00416353Y00231759D01*
X00416000Y00232934D01*
Y00245700D01*
X00396000D01*
Y00228059D01*
X00355796D01*
X00355411Y00229329D01*
X00355423Y00229337D01*
X00358163Y00232077D01*
X00358163Y00232077D01*
X00358826Y00233069D01*
X00358914Y00233514D01*
X00359561Y00234482D01*
X00359814Y00235750D01*
Y00241750D01*
X00359561Y00243018D01*
X00358843Y00244093D01*
X00357768Y00244811D01*
X00356500Y00245064D01*
X00355232Y00244811D01*
X00354996Y00244654D01*
X00354000Y00244169D01*
X00353004Y00244654D01*
X00352768Y00244811D01*
X00351500Y00245064D01*
X00351160Y00244996D01*
X00349886Y00245253D01*
X00349595Y00245624D01*
X00349169Y00246500D01*
X00349654Y00247496D01*
X00349811Y00247732D01*
X00350064Y00249000D01*
X00349811Y00250268D01*
X00349093Y00251343D01*
X00348018Y00252061D01*
X00346750Y00252314D01*
X00340750D01*
X00339482Y00252061D01*
X00339478Y00252059D01*
X00319267D01*
X00317506Y00253820D01*
X00317506Y00253820D01*
X00310558Y00260768D01*
X00311044Y00261941D01*
X00347254D01*
X00348186Y00261009D01*
Y00256250D01*
X00348439Y00254982D01*
X00349157Y00253907D01*
X00350232Y00253189D01*
X00351500Y00252936D01*
X00352768Y00253189D01*
X00353004Y00253346D01*
X00354000Y00253831D01*
X00354996Y00253346D01*
X00355232Y00253189D01*
X00356500Y00252936D01*
X00356840Y00253004D01*
X00358114Y00252747D01*
X00358553Y00252186D01*
X00358907Y00251657D01*
X00359982Y00250939D01*
X00361250Y00250686D01*
X00367250D01*
X00368518Y00250939D01*
X00368522Y00250941D01*
X00370933D01*
X00371232Y00249439D01*
X00372116Y00248116D01*
X00373439Y00247232D01*
X00375000Y00246922D01*
X00381000D01*
X00382561Y00247232D01*
X00383884Y00248116D01*
X00384768Y00249439D01*
X00385078Y00251000D01*
Y00255000D01*
X00384768Y00256561D01*
X00384588Y00256830D01*
Y00283412D01*
X00387000D01*
X00388756Y00283761D01*
X00390244Y00284756D01*
X00414744Y00309256D01*
X00415739Y00310744D01*
X00416088Y00312500D01*
Y00341600D01*
X00431651Y00357162D01*
X00493349D01*
X00496006Y00354505D01*
D02*
G37*
G36*
X00342116Y00196116D02*
X00342412Y00195919D01*
Y00192708D01*
X00342240Y00192451D01*
X00341852Y00190500D01*
Y00182000D01*
X00342184Y00180329D01*
X00341491Y00179059D01*
X00317267D01*
X00313163Y00183163D01*
X00312171Y00183826D01*
X00311000Y00184059D01*
X00311000Y00184059D01*
X00308196D01*
X00306163Y00186092D01*
X00305170Y00186755D01*
X00304000Y00186988D01*
X00303710Y00187951D01*
X00302605Y00189605D01*
X00300951Y00190710D01*
X00299000Y00191098D01*
X00290000D01*
X00288206Y00190741D01*
X00288027Y00191421D01*
X00287880Y00191725D01*
X00287750Y00192038D01*
X00287211Y00192845D01*
X00286981Y00194000D01*
X00287211Y00195155D01*
X00287865Y00196135D01*
X00288845Y00196789D01*
X00289706Y00196960D01*
X00290000Y00196902D01*
X00299000D01*
X00300951Y00197290D01*
X00301133Y00197412D01*
X00305919D01*
X00306116Y00197116D01*
X00307439Y00196232D01*
X00309000Y00195922D01*
X00315000D01*
X00316561Y00196232D01*
X00317884Y00197116D01*
X00318081Y00197411D01*
X00330313D01*
X00330315Y00197412D01*
X00341250D01*
X00342116Y00196116D01*
D02*
G37*
G36*
X00512961Y00217350D02*
X00513000Y00217153D01*
Y00216952D01*
X00513239Y00215750D01*
Y00210152D01*
X00513000Y00208950D01*
Y00208749D01*
X00512961Y00208552D01*
Y00201000D01*
X00513116Y00200220D01*
X00513558Y00199558D01*
X00514220Y00199116D01*
X00515000Y00198961D01*
X00525058D01*
X00525118Y00198815D01*
X00525260Y00198673D01*
X00525371Y00198506D01*
X00525538Y00198395D01*
X00525680Y00198253D01*
X00526418Y00197760D01*
X00526686Y00197359D01*
X00526780Y00196887D01*
X00526686Y00196415D01*
X00526418Y00196014D01*
X00526018Y00195746D01*
X00525345Y00195613D01*
X00521746D01*
X00521668Y00195628D01*
X00521573D01*
X00521483Y00195656D01*
X00521178Y00195628D01*
X00520872D01*
X00520785Y00195592D01*
X00520691Y00195583D01*
X00520420Y00195441D01*
X00520137Y00195324D01*
X00520070Y00195257D01*
X00519987Y00195213D01*
X00518717Y00194184D01*
X00518648Y00194101D01*
X00518558Y00194042D01*
X00518395Y00193798D01*
X00518208Y00193573D01*
X00518176Y00193470D01*
X00518116Y00193380D01*
X00518059Y00193093D01*
X00517972Y00192813D01*
X00517982Y00192705D01*
X00517961Y00192600D01*
Y00191174D01*
X00517982Y00191069D01*
X00517972Y00190961D01*
X00518059Y00190681D01*
X00518116Y00190394D01*
X00518176Y00190304D01*
X00518208Y00190201D01*
X00518395Y00189976D01*
X00518558Y00189732D01*
X00518648Y00189673D01*
X00518717Y00189590D01*
X00519987Y00188561D01*
X00520070Y00188517D01*
X00520137Y00188450D01*
X00520420Y00188333D01*
X00520691Y00188191D01*
X00520785Y00188182D01*
X00520872Y00188146D01*
X00521178D01*
X00521483Y00188118D01*
X00521573Y00188146D01*
X00521668D01*
X00521746Y00188161D01*
X00525345D01*
X00526118Y00188008D01*
X00526270Y00187906D01*
X00526467Y00187867D01*
X00526652Y00187790D01*
X00526853D01*
X00527050Y00187751D01*
X00532107D01*
X00532360Y00186481D01*
X00530137Y00185560D01*
X00523432D01*
X00521605Y00185320D01*
X00521106Y00185113D01*
X00520277Y00184948D01*
X00519202Y00184230D01*
X00518993Y00183917D01*
X00518440Y00183492D01*
X00517318Y00182030D01*
X00516612Y00180327D01*
X00516372Y00178500D01*
X00516612Y00176673D01*
X00517318Y00174970D01*
X00518440Y00173508D01*
X00519902Y00172386D01*
X00521605Y00171680D01*
X00523432Y00171440D01*
X00524486D01*
X00525518Y00168948D01*
X00527441Y00166441D01*
X00529948Y00164518D01*
X00532867Y00163309D01*
X00536000Y00162896D01*
X00578000D01*
X00581133Y00163309D01*
X00584052Y00164518D01*
X00586558Y00166441D01*
X00588482Y00168948D01*
X00589691Y00171867D01*
X00590104Y00175000D01*
X00589691Y00178133D01*
X00588482Y00181052D01*
X00586558Y00183559D01*
X00584052Y00185482D01*
X00581640Y00186481D01*
X00581893Y00187751D01*
X00587365D01*
X00596558Y00178558D01*
X00597220Y00178116D01*
X00598000Y00177961D01*
X00694941D01*
X00694941Y00176765D01*
X00694941Y00156692D01*
X00693671Y00156439D01*
X00693333Y00157256D01*
X00692171Y00158771D01*
X00690656Y00159933D01*
X00688893Y00160663D01*
X00687000Y00160913D01*
X00685107Y00160663D01*
X00683344Y00159933D01*
X00681829Y00158771D01*
X00680667Y00157256D01*
X00679937Y00155493D01*
X00679687Y00153600D01*
X00679937Y00151707D01*
X00680667Y00149944D01*
X00681829Y00148429D01*
X00683344Y00147267D01*
X00685107Y00146537D01*
X00687000Y00146287D01*
X00688893Y00146537D01*
X00690656Y00147267D01*
X00692171Y00148429D01*
X00693333Y00149944D01*
X00693671Y00150761D01*
X00694941Y00150508D01*
Y00005059D01*
X00421951D01*
X00421465Y00006232D01*
X00422424Y00007191D01*
X00523750D01*
X00523750Y00007191D01*
X00524921Y00007424D01*
X00525913Y00008087D01*
X00529002Y00011177D01*
X00535000D01*
X00536463Y00011468D01*
X00537704Y00012296D01*
X00538532Y00013537D01*
X00538563Y00013691D01*
X00553250D01*
X00553250Y00013691D01*
X00554421Y00013924D01*
X00555413Y00014587D01*
X00562641Y00021816D01*
X00563989Y00021257D01*
X00566600Y00020914D01*
X00569211Y00021257D01*
X00571643Y00022265D01*
X00572691Y00023069D01*
X00573961Y00022443D01*
Y00013500D01*
X00574116Y00012720D01*
X00574558Y00012058D01*
X00575220Y00011616D01*
X00576000Y00011461D01*
X00607500Y00011461D01*
X00608280Y00011616D01*
X00608942Y00012058D01*
X00609384Y00012720D01*
X00609539Y00013500D01*
Y00021000D01*
X00609439Y00021503D01*
Y00040497D01*
X00609539Y00041000D01*
X00609539Y00069176D01*
X00609554Y00069250D01*
Y00070750D01*
X00609539Y00070824D01*
Y00093500D01*
X00609384Y00094280D01*
X00608942Y00094942D01*
X00599692Y00104192D01*
X00599030Y00104634D01*
X00598250Y00104789D01*
X00569039Y00104789D01*
Y00135000D01*
X00568884Y00135780D01*
X00568442Y00136442D01*
X00567780Y00136884D01*
X00567000Y00137039D01*
X00519039D01*
Y00160049D01*
X00518884Y00160829D01*
X00518442Y00161491D01*
X00517780Y00161933D01*
X00517000Y00162088D01*
X00512082D01*
X00512075Y00164433D01*
X00512036Y00164627D01*
Y00164825D01*
X00511961Y00165201D01*
Y00170799D01*
X00512014Y00171067D01*
Y00171271D01*
X00512053Y00171471D01*
X00512039Y00176055D01*
X00511960Y00176446D01*
X00511884Y00176829D01*
X00511882Y00176832D01*
X00511882Y00176835D01*
X00511660Y00177165D01*
X00511442Y00177491D01*
X00511439Y00177493D01*
X00511437Y00177495D01*
X00511106Y00177715D01*
X00510780Y00177933D01*
X00510777Y00177934D01*
X00510775Y00177935D01*
X00510384Y00178012D01*
X00510000Y00178088D01*
X00509039D01*
Y00182766D01*
X00509003Y00182949D01*
X00509005Y00183135D01*
X00508926Y00183335D01*
X00508884Y00183546D01*
X00508780Y00183701D01*
X00508711Y00183875D01*
X00508590Y00184062D01*
X00508575Y00184077D01*
X00508567Y00184097D01*
X00508298Y00184362D01*
X00508035Y00184632D01*
X00508016Y00184641D01*
X00508000Y00184656D01*
X00506852Y00185413D01*
X00506490Y00185559D01*
X00506128Y00185709D01*
X00506121D01*
X00506114Y00185712D01*
X00505722Y00185709D01*
X00505332D01*
X00504845Y00185613D01*
X00501246D01*
X00500483Y00185764D01*
X00500463Y00185772D01*
X00500296Y00185884D01*
X00500099Y00185923D01*
X00499914Y00186000D01*
X00499713D01*
X00499689Y00186005D01*
Y00186887D01*
X00499614Y00187267D01*
X00499540Y00187652D01*
X00499557Y00187696D01*
X00500326Y00188681D01*
X00500366Y00188708D01*
X00501045Y00188573D01*
X00505045D01*
X00506313Y00188825D01*
X00507388Y00189544D01*
X00508107Y00190619D01*
X00508359Y00191887D01*
X00508107Y00193155D01*
X00507388Y00194230D01*
Y00194544D01*
X00508107Y00195619D01*
X00508359Y00196887D01*
X00508107Y00198155D01*
X00507388Y00199230D01*
X00506313Y00199948D01*
X00505045Y00200201D01*
X00501045D01*
X00499777Y00199948D01*
X00499773Y00199946D01*
X00495627D01*
X00494954Y00200954D01*
X00493713Y00201782D01*
X00492250Y00202073D01*
X00486250D01*
X00484787Y00201782D01*
X00483546Y00200954D01*
X00483510Y00200899D01*
X00482240D01*
X00482204Y00200954D01*
X00480963Y00201782D01*
X00479500Y00202073D01*
X00473500D01*
X00472037Y00201782D01*
X00470796Y00200954D01*
X00469968Y00199713D01*
X00469677Y00198250D01*
Y00194750D01*
X00469760Y00194329D01*
X00468718Y00193059D01*
X00452540D01*
X00451841Y00194329D01*
X00452074Y00195500D01*
Y00199000D01*
X00451782Y00200463D01*
X00450954Y00201704D01*
X00450935Y00201889D01*
X00492478Y00243431D01*
X00512961D01*
Y00217350D01*
D02*
G37*
G36*
X00454221Y00215268D02*
X00444727Y00205773D01*
X00443953Y00204616D01*
X00443681Y00203250D01*
Y00202823D01*
X00442250D01*
X00440787Y00202532D01*
X00439546Y00201704D01*
X00438718Y00200463D01*
X00438427Y00199000D01*
Y00195500D01*
X00438660Y00194329D01*
X00437960Y00193059D01*
X00427267D01*
X00419147Y00201179D01*
X00419147Y00201179D01*
X00419147Y00201179D01*
X00414833Y00205493D01*
X00415743Y00207689D01*
X00416086Y00210300D01*
X00415743Y00212910D01*
X00414806Y00215171D01*
X00415047Y00215795D01*
X00415493Y00216441D01*
X00453735D01*
X00454221Y00215268D01*
D02*
G37*
G36*
X00105941Y00225804D02*
Y00221272D01*
X00105941Y00221272D01*
X00105941Y00221272D01*
Y00219515D01*
X00105941Y00219515D01*
X00106174Y00218344D01*
X00106837Y00217352D01*
X00129950Y00194239D01*
X00129902Y00194000D01*
X00130290Y00192049D01*
X00131055Y00190905D01*
X00131180Y00190426D01*
X00131025Y00189511D01*
X00130895Y00189202D01*
X00130837Y00189163D01*
X00130733Y00189059D01*
X00119249D01*
X00114145Y00194163D01*
X00113153Y00194826D01*
X00111982Y00195059D01*
X00111982Y00195059D01*
X00102267D01*
X00095823Y00201503D01*
Y00211275D01*
X00095534Y00212728D01*
X00094711Y00213960D01*
X00093478Y00214784D01*
X00093245Y00214830D01*
X00092884Y00216116D01*
X00093768Y00217439D01*
X00094078Y00219000D01*
Y00225000D01*
X00093945Y00225671D01*
X00094925Y00226941D01*
X00104804D01*
X00105941Y00225804D01*
D02*
G37*
G36*
X00398671Y00217176D02*
X00397265Y00215343D01*
X00396257Y00212910D01*
X00395914Y00210300D01*
X00396257Y00207689D01*
X00397265Y00205257D01*
X00398868Y00203168D01*
X00400957Y00201565D01*
X00403390Y00200557D01*
X00406000Y00200214D01*
X00408610Y00200557D01*
X00410383Y00201292D01*
X00414821Y00196854D01*
X00414821Y00196853D01*
X00423837Y00187837D01*
X00423837Y00187837D01*
X00424829Y00187174D01*
X00426000Y00186941D01*
X00437960D01*
X00438660Y00185671D01*
X00438427Y00184500D01*
Y00181000D01*
X00438718Y00179537D01*
X00439546Y00178296D01*
X00440787Y00177468D01*
X00442250Y00177177D01*
X00447498D01*
X00449191Y00175483D01*
Y00131767D01*
X00437983Y00120559D01*
X00367544D01*
X00367058Y00121732D01*
X00369030Y00123705D01*
X00370399Y00122790D01*
X00372350Y00122402D01*
X00374301Y00122790D01*
X00375955Y00123895D01*
X00377060Y00125549D01*
X00377448Y00127500D01*
Y00136000D01*
X00377060Y00137951D01*
X00375955Y00139605D01*
X00374301Y00140710D01*
X00372350Y00141098D01*
X00370399Y00140710D01*
X00368745Y00139605D01*
X00367640Y00137951D01*
X00367252Y00136000D01*
Y00130578D01*
X00365921Y00129247D01*
X00364748Y00129733D01*
Y00136000D01*
X00364360Y00137951D01*
X00363255Y00139605D01*
X00361601Y00140710D01*
X00359650Y00141098D01*
X00358047Y00140779D01*
X00354663Y00144163D01*
X00353671Y00144826D01*
X00352500Y00145059D01*
X00352500Y00145059D01*
X00341581D01*
X00331977Y00154663D01*
X00330984Y00155326D01*
X00329814Y00155559D01*
X00329814Y00155559D01*
X00323639D01*
X00321535Y00157663D01*
X00320542Y00158326D01*
X00319372Y00158559D01*
X00319371Y00158559D01*
X00317496D01*
X00317180Y00160146D01*
X00315965Y00161965D01*
X00314145Y00163181D01*
X00313442Y00163320D01*
X00313024Y00164699D01*
X00317267Y00168941D01*
X00374000D01*
X00374000Y00168941D01*
X00375171Y00169174D01*
X00376163Y00169837D01*
X00383530Y00177204D01*
X00385050Y00176902D01*
X00387001Y00177290D01*
X00388655Y00178395D01*
X00389760Y00180049D01*
X00390148Y00182000D01*
Y00190500D01*
X00389760Y00192451D01*
X00388655Y00194105D01*
X00387001Y00195210D01*
X00385050Y00195598D01*
X00383099Y00195210D01*
X00381445Y00194105D01*
X00380340Y00192451D01*
X00379952Y00190500D01*
Y00182278D01*
X00378512Y00180837D01*
X00377341Y00181463D01*
X00377448Y00182000D01*
Y00190500D01*
X00377060Y00192451D01*
X00375955Y00194105D01*
X00374301Y00195210D01*
X00372350Y00195598D01*
X00370399Y00195210D01*
X00368745Y00194105D01*
X00367640Y00192451D01*
X00367252Y00190500D01*
Y00182000D01*
X00367640Y00180049D01*
X00367673Y00179999D01*
X00366733Y00179059D01*
X00365109D01*
X00364416Y00180329D01*
X00364748Y00182000D01*
Y00190500D01*
X00364360Y00192451D01*
X00363255Y00194105D01*
X00361601Y00195210D01*
X00359650Y00195598D01*
X00358881Y00195445D01*
X00357059Y00197267D01*
Y00207071D01*
X00356826Y00208242D01*
X00356163Y00209234D01*
X00356163Y00209234D01*
X00353234Y00212163D01*
X00352242Y00212826D01*
X00351071Y00213059D01*
X00351071Y00213059D01*
X00342929D01*
X00342929Y00213059D01*
X00341758Y00212826D01*
X00340766Y00212163D01*
X00340766Y00212163D01*
X00339162Y00210559D01*
X00334017D01*
X00327808Y00216768D01*
X00328294Y00217941D01*
X00394000D01*
X00395171Y00218174D01*
X00395578Y00218446D01*
X00398278D01*
X00398671Y00217176D01*
D02*
G37*
G36*
X00482180Y00186573D02*
Y00178039D01*
X00473508D01*
X00473311Y00178000D01*
X00473111D01*
X00472925Y00177923D01*
X00472728Y00177884D01*
X00472561Y00177772D01*
X00472375Y00177696D01*
X00472233Y00177554D01*
X00472066Y00177442D01*
X00471955Y00177275D01*
X00471813Y00177133D01*
X00471736Y00176947D01*
X00471624Y00176780D01*
X00471585Y00176583D01*
X00471508Y00176398D01*
X00471260Y00175150D01*
X00470495Y00174005D01*
X00469350Y00173240D01*
X00468000Y00172971D01*
X00466650Y00173240D01*
X00465505Y00174005D01*
X00464740Y00175150D01*
X00464492Y00176398D01*
X00464415Y00176583D01*
X00464376Y00176780D01*
X00464264Y00176947D01*
X00464187Y00177133D01*
X00464112Y00177209D01*
X00463923Y00177520D01*
X00463792Y00178494D01*
X00463884Y00178928D01*
X00463895Y00178957D01*
X00464282Y00179537D01*
X00464574Y00181000D01*
Y00184500D01*
X00464341Y00185671D01*
X00465040Y00186941D01*
X00481878D01*
X00482180Y00186573D01*
D02*
G37*
G36*
X00497650Y00186887D02*
Y00184000D01*
X00499516D01*
X00499777Y00183825D01*
X00501045Y00183573D01*
X00505045D01*
X00505730Y00183710D01*
X00506879Y00182953D01*
X00507000Y00182766D01*
Y00176049D01*
X00510000D01*
X00510014Y00171465D01*
X00509922Y00171000D01*
Y00165000D01*
X00510036Y00164427D01*
X00510049Y00160049D01*
X00517000D01*
Y00135000D01*
X00567000D01*
Y00102750D01*
X00598250Y00102750D01*
X00607500Y00093500D01*
X00607500Y00041000D01*
X00607400D01*
Y00021000D01*
X00607500D01*
Y00013500D01*
X00576000Y00013500D01*
Y00027562D01*
X00576343Y00028389D01*
X00576686Y00031000D01*
X00576343Y00033610D01*
X00576000Y00034438D01*
Y00038000D01*
X00540000Y00074000D01*
X00529353D01*
Y00081750D01*
X00528945Y00083798D01*
X00527785Y00085535D01*
X00526048Y00086695D01*
X00524000Y00087103D01*
X00517500D01*
X00515452Y00086695D01*
X00513715Y00085535D01*
X00512555Y00083798D01*
X00512147Y00081750D01*
Y00074000D01*
X00493750D01*
X00494500Y00073250D01*
Y00021250D01*
X00472750D01*
Y00067293D01*
X00473340Y00068177D01*
X00473554Y00069250D01*
Y00070750D01*
X00473340Y00071823D01*
X00472750Y00072707D01*
Y00074000D01*
X00422603Y00074000D01*
Y00080750D01*
X00422195Y00082798D01*
X00421035Y00084535D01*
X00419298Y00085695D01*
X00417250Y00086103D01*
X00410750D01*
X00408702Y00085695D01*
X00406965Y00084535D01*
X00405805Y00082798D01*
X00405397Y00080750D01*
Y00074000D01*
X00386750Y00074000D01*
X00386750Y00020000D01*
X00364000Y00020000D01*
Y00065778D01*
X00364733Y00066267D01*
X00365340Y00067177D01*
X00365554Y00068250D01*
Y00069750D01*
X00365340Y00070823D01*
X00364733Y00071733D01*
X00363823Y00072340D01*
X00362750Y00072554D01*
X00359250D01*
X00358177Y00072340D01*
X00357668Y00072000D01*
X00319750Y00072000D01*
Y00085216D01*
X00319826Y00085329D01*
X00320059Y00086500D01*
Y00097000D01*
X00320049Y00097049D01*
Y00100000D01*
X00319855Y00100975D01*
X00319750Y00101132D01*
Y00104951D01*
X00323250D01*
X00324225Y00105145D01*
X00324383Y00105250D01*
X00342000Y00105250D01*
X00342000Y00113778D01*
X00342808Y00114441D01*
X00342808Y00114441D01*
X00439250D01*
X00439250Y00114441D01*
X00440421Y00114674D01*
X00441283Y00115250D01*
X00441522D01*
X00455022Y00128750D01*
X00455022Y00129248D01*
X00455076Y00129330D01*
X00455309Y00130500D01*
X00455309Y00130500D01*
Y00176000D01*
X00462492D01*
X00462819Y00174354D01*
X00464035Y00172535D01*
X00465854Y00171319D01*
X00468000Y00170892D01*
X00470146Y00171319D01*
X00471965Y00172535D01*
X00473181Y00174354D01*
X00473508Y00176000D01*
X00484219D01*
Y00186573D01*
X00484372Y00186941D01*
X00490995D01*
X00497650Y00186887D01*
D02*
G37*
G36*
X00131395Y00134395D02*
X00133049Y00133290D01*
X00135000Y00132902D01*
X00144000D01*
X00144227Y00132947D01*
X00148337Y00128837D01*
X00148337Y00128837D01*
X00149330Y00128174D01*
X00150500Y00127941D01*
X00150500Y00127941D01*
X00151541D01*
X00152234Y00126671D01*
X00151902Y00125000D01*
Y00116228D01*
X00148733Y00113059D01*
X00142750D01*
X00142750Y00113059D01*
X00141580Y00112826D01*
X00140587Y00112163D01*
X00137424Y00109000D01*
X00128250D01*
Y00108892D01*
X00127077Y00108406D01*
X00118309Y00117174D01*
Y00124575D01*
X00119579Y00125555D01*
X00120250Y00125422D01*
X00124250D01*
X00125811Y00125732D01*
X00127134Y00126616D01*
X00128018Y00127939D01*
X00128328Y00129500D01*
Y00134941D01*
X00131030D01*
X00131395Y00134395D01*
D02*
G37*
G36*
X00301951Y00112000D02*
X00302145Y00111025D01*
X00302698Y00110198D01*
X00303525Y00109645D01*
X00304500Y00109451D01*
X00305500D01*
X00306475Y00109645D01*
X00307036Y00109312D01*
X00307230Y00108483D01*
X00307176Y00107795D01*
X00306435Y00107054D01*
X00302500D01*
X00302475Y00107049D01*
X00299049D01*
X00299000Y00107059D01*
X00297500D01*
X00297500Y00107059D01*
X00296329Y00106826D01*
X00295337Y00106163D01*
X00292002Y00102828D01*
X00292000Y00102828D01*
X00286000D01*
X00284439Y00102518D01*
X00283116Y00101634D01*
X00282919Y00101338D01*
X00276651D01*
X00275078Y00102910D01*
Y00106000D01*
X00274768Y00107561D01*
X00273884Y00108884D01*
X00273588Y00109081D01*
Y00110919D01*
X00274708Y00111518D01*
X00275049Y00111290D01*
X00277000Y00110902D01*
X00278951Y00111290D01*
X00280605Y00112395D01*
X00281710Y00114049D01*
X00282098Y00116000D01*
Y00116941D01*
X00301951D01*
Y00112000D01*
D02*
G37*
G36*
X00260854Y00128819D02*
X00262157Y00128560D01*
X00263008Y00128361D01*
X00263275Y00127330D01*
X00263305Y00127158D01*
X00263431Y00126856D01*
X00263534Y00126546D01*
X00263582Y00126490D01*
X00263610Y00126423D01*
X00263789Y00126155D01*
X00263960Y00125294D01*
X00263902Y00125000D01*
Y00116000D01*
X00264290Y00114049D01*
X00264412Y00113867D01*
Y00109081D01*
X00264116Y00108884D01*
X00263232Y00107561D01*
X00262922Y00106000D01*
Y00102968D01*
X00254674Y00094720D01*
X00252750Y00095103D01*
X00246250D01*
X00244202Y00094695D01*
X00242465Y00093535D01*
X00241305Y00091798D01*
X00240897Y00089750D01*
Y00078250D01*
X00241305Y00076202D01*
X00242465Y00074465D01*
X00244202Y00073305D01*
X00244912Y00073163D01*
Y00043000D01*
X00235400D01*
Y00023000D01*
X00255400D01*
Y00043000D01*
X00254088D01*
Y00073163D01*
X00254798Y00073305D01*
X00256535Y00074465D01*
X00257695Y00076202D01*
X00258103Y00078250D01*
Y00085365D01*
X00258687Y00085756D01*
X00268853Y00095922D01*
X00269090D01*
X00271506Y00093506D01*
X00272994Y00092511D01*
X00274750Y00092162D01*
X00282919D01*
X00283116Y00091866D01*
X00284439Y00090982D01*
X00286000Y00090672D01*
X00292000D01*
X00293561Y00090982D01*
X00294884Y00091866D01*
X00295768Y00093189D01*
X00296078Y00094750D01*
Y00098253D01*
X00298767Y00100941D01*
X00299000D01*
X00299049Y00100951D01*
X00301171D01*
X00301951Y00100000D01*
Y00094299D01*
X00301941Y00094250D01*
Y00092738D01*
X00298087Y00088883D01*
X00297424Y00087891D01*
X00297191Y00086721D01*
X00297191Y00086720D01*
Y00022517D01*
X00285233Y00010559D01*
X00171767D01*
X00146809Y00035517D01*
Y00063500D01*
X00146809Y00063500D01*
X00146576Y00064671D01*
X00145913Y00065663D01*
X00145913Y00065663D01*
X00145808Y00065768D01*
X00146294Y00066941D01*
X00149937D01*
X00149968Y00066787D01*
X00150796Y00065546D01*
X00152037Y00064718D01*
X00153500Y00064426D01*
X00159500D01*
X00160963Y00064718D01*
X00162204Y00065546D01*
X00162486Y00065970D01*
X00164014D01*
X00164296Y00065546D01*
X00165537Y00064718D01*
X00167000Y00064426D01*
X00173000D01*
X00174463Y00064718D01*
X00175704Y00065546D01*
X00176532Y00066787D01*
X00176823Y00068250D01*
Y00071750D01*
X00176532Y00073213D01*
X00175704Y00074454D01*
X00174463Y00075282D01*
X00173000Y00075573D01*
X00167000D01*
X00165537Y00075282D01*
X00164296Y00074454D01*
X00164014Y00074030D01*
X00162486D01*
X00162204Y00074454D01*
X00160963Y00075282D01*
X00159500Y00075573D01*
X00153500D01*
X00152037Y00075282D01*
X00150796Y00074454D01*
X00149968Y00073213D01*
X00149937Y00073059D01*
X00144517D01*
X00138346Y00079230D01*
X00138872Y00080500D01*
X00141750D01*
Y00089424D01*
X00146168Y00093842D01*
X00147000Y00093677D01*
X00153000D01*
X00154463Y00093968D01*
X00155704Y00094796D01*
X00156532Y00096037D01*
X00156824Y00097500D01*
Y00101000D01*
X00156532Y00102463D01*
X00155704Y00103704D01*
X00154463Y00104532D01*
X00153000Y00104823D01*
X00147000D01*
X00145537Y00104532D01*
X00144296Y00103704D01*
X00143468Y00102463D01*
X00143176Y00101000D01*
Y00100519D01*
X00143020Y00100414D01*
X00141750Y00101093D01*
Y00104674D01*
X00144017Y00106941D01*
X00150000D01*
X00150000Y00106941D01*
X00151171Y00107174D01*
X00152163Y00107837D01*
X00155522Y00111196D01*
X00157000Y00110902D01*
X00158951Y00111290D01*
X00160095Y00112055D01*
X00160753Y00112227D01*
X00161941Y00111533D01*
Y00108250D01*
X00158250D01*
Y00096250D01*
X00169265D01*
X00169751Y00095077D01*
X00166424Y00091750D01*
X00158250D01*
Y00079750D01*
X00171750D01*
Y00088424D01*
X00177002Y00093677D01*
X00183000D01*
X00184463Y00093968D01*
X00185704Y00094796D01*
X00186532Y00096037D01*
X00186824Y00097500D01*
Y00100780D01*
X00187304Y00101310D01*
X00187971Y00101740D01*
X00188250Y00101649D01*
Y00096250D01*
X00199265D01*
X00199751Y00095077D01*
X00196424Y00091750D01*
X00188250D01*
Y00079750D01*
X00201750D01*
Y00088424D01*
X00209002Y00095676D01*
X00210250D01*
X00211713Y00095968D01*
X00212954Y00096796D01*
X00213782Y00098037D01*
X00214073Y00099500D01*
Y00105500D01*
X00213782Y00106963D01*
X00212954Y00108204D01*
X00211713Y00109032D01*
X00210250Y00109324D01*
X00206750D01*
X00205287Y00109032D01*
X00204046Y00108204D01*
X00203218Y00106963D01*
X00203020Y00105970D01*
X00201750Y00106095D01*
Y00108250D01*
X00192033D01*
X00191171Y00108826D01*
X00190000Y00109059D01*
X00190000Y00109059D01*
X00183782D01*
X00182781Y00110060D01*
X00183188Y00111448D01*
X00184095Y00112055D01*
X00185000Y00112292D01*
X00185905Y00112055D01*
X00187049Y00111290D01*
X00189000Y00110902D01*
X00190951Y00111290D01*
X00192095Y00112055D01*
X00193000Y00112292D01*
X00193905Y00112055D01*
X00195049Y00111290D01*
X00197000Y00110902D01*
X00198951Y00111290D01*
X00200605Y00112395D01*
X00201395D01*
X00203049Y00111290D01*
X00205000Y00110902D01*
X00206951Y00111290D01*
X00208095Y00112055D01*
X00209000Y00112292D01*
X00209905Y00112055D01*
X00211049Y00111290D01*
X00213000Y00110902D01*
X00214951Y00111290D01*
X00216605Y00112395D01*
X00217395D01*
X00219049Y00111290D01*
X00221000Y00110902D01*
X00222951Y00111290D01*
X00224095Y00112055D01*
X00225000Y00112292D01*
X00225905Y00112055D01*
X00227049Y00111290D01*
X00229000Y00110902D01*
X00230951Y00111290D01*
X00232095Y00112055D01*
X00233000Y00112292D01*
X00233905Y00112055D01*
X00235049Y00111290D01*
X00237000Y00110902D01*
X00238951Y00111290D01*
X00240605Y00112395D01*
X00241395D01*
X00243049Y00111290D01*
X00245000Y00110902D01*
X00246951Y00111290D01*
X00248095Y00112055D01*
X00249000Y00112292D01*
X00249905Y00112055D01*
X00251049Y00111290D01*
X00253000Y00110902D01*
X00254951Y00111290D01*
X00256605Y00112395D01*
X00257710Y00114049D01*
X00258098Y00116000D01*
Y00125000D01*
X00257889Y00126049D01*
X00260737Y00128897D01*
X00260854Y00128819D01*
D02*
G37*
G36*
X00333891Y00127126D02*
Y00123358D01*
X00333891Y00123358D01*
X00334124Y00122187D01*
X00334787Y00121195D01*
X00339794Y00116188D01*
X00340558Y00115220D01*
X00340557Y00115218D01*
X00340202Y00114740D01*
X00340172Y00114643D01*
X00340116Y00114559D01*
X00340058Y00114265D01*
X00339971Y00113978D01*
X00339981Y00113877D01*
X00339961Y00113778D01*
X00339961Y00107289D01*
X00326982Y00107289D01*
X00325799Y00108500D01*
X00325605Y00109475D01*
X00325052Y00110302D01*
X00324225Y00110855D01*
X00323250Y00111049D01*
X00320830D01*
X00320049Y00112000D01*
Y00117951D01*
X00320059Y00118000D01*
Y00124314D01*
X00319826Y00125484D01*
X00319163Y00126477D01*
X00316659Y00128981D01*
X00317027Y00130196D01*
X00317646Y00130319D01*
X00319465Y00131535D01*
X00320681Y00133354D01*
X00320698Y00133441D01*
X00327576D01*
X00333891Y00127126D01*
D02*
G37*
G36*
X00119750Y00100924D02*
X00119750Y00077000D01*
X00076750Y00077000D01*
Y00087750D01*
X00062000D01*
X00050250Y00099500D01*
X00021250D01*
X00021250Y00119250D01*
X00101424Y00119250D01*
X00119750Y00100924D01*
D02*
G37*
G36*
X00525253Y00084775D02*
X00526315Y00084065D01*
X00527024Y00083003D01*
X00527314Y00081549D01*
Y00074000D01*
X00527469Y00073220D01*
X00527911Y00072558D01*
X00528573Y00072116D01*
X00529353Y00071961D01*
X00539155D01*
X00569075Y00042041D01*
X00568481Y00040838D01*
X00566600Y00041086D01*
X00563989Y00040743D01*
X00561557Y00039735D01*
X00559468Y00038132D01*
X00557865Y00036043D01*
X00556857Y00033610D01*
X00556514Y00031000D01*
X00556857Y00028389D01*
X00557865Y00025957D01*
X00557981Y00025806D01*
X00551983Y00019809D01*
X00548304D01*
Y00020000D01*
X00548090Y00021073D01*
X00547483Y00021983D01*
X00546573Y00022590D01*
X00545500Y00022804D01*
X00544000D01*
X00542927Y00022590D01*
X00542017Y00021983D01*
X00541410Y00021073D01*
X00541196Y00020000D01*
Y00019809D01*
X00538563D01*
X00538532Y00019963D01*
X00537704Y00021204D01*
X00536463Y00022032D01*
X00535000Y00022324D01*
X00529000D01*
X00527537Y00022032D01*
X00526296Y00021204D01*
X00525468Y00019963D01*
X00525177Y00018500D01*
Y00016002D01*
X00522483Y00013309D01*
X00447786D01*
X00447400Y00014579D01*
X00447413Y00014587D01*
X00454641Y00021816D01*
X00455989Y00021257D01*
X00458600Y00020914D01*
X00461211Y00021257D01*
X00463643Y00022265D01*
X00465732Y00023868D01*
X00467335Y00025957D01*
X00468343Y00028389D01*
X00468686Y00031000D01*
X00468343Y00033610D01*
X00467335Y00036043D01*
X00465732Y00038132D01*
X00463643Y00039735D01*
X00461211Y00040743D01*
X00458600Y00041086D01*
X00455989Y00040743D01*
X00453557Y00039735D01*
X00451468Y00038132D01*
X00449865Y00036043D01*
X00448857Y00033610D01*
X00448514Y00031000D01*
X00448857Y00028389D01*
X00449865Y00025957D01*
X00449981Y00025806D01*
X00443983Y00019809D01*
X00440054D01*
Y00020000D01*
X00439840Y00021073D01*
X00439233Y00021983D01*
X00438323Y00022590D01*
X00437250Y00022804D01*
X00435750D01*
X00434677Y00022590D01*
X00433767Y00021983D01*
X00433160Y00021073D01*
X00432946Y00020000D01*
Y00019809D01*
X00429563D01*
X00429532Y00019963D01*
X00428704Y00021204D01*
X00427463Y00022032D01*
X00426000Y00022324D01*
X00420000D01*
X00418537Y00022032D01*
X00417296Y00021204D01*
X00416468Y00019963D01*
X00416176Y00018500D01*
Y00015252D01*
X00413983Y00013059D01*
X00322424D01*
X00311309Y00024174D01*
Y00042968D01*
X00312579Y00044010D01*
X00313000Y00043927D01*
X00314998D01*
X00321196Y00037728D01*
Y00036000D01*
X00321410Y00034927D01*
X00322017Y00034017D01*
X00322927Y00033410D01*
X00324000Y00033196D01*
X00325500D01*
X00326573Y00033410D01*
X00327483Y00034017D01*
X00327933Y00034691D01*
X00339562D01*
X00340006Y00034027D01*
X00340233Y00033421D01*
X00339914Y00031000D01*
X00340257Y00028389D01*
X00341265Y00025957D01*
X00342868Y00023868D01*
X00344957Y00022265D01*
X00347389Y00021257D01*
X00350000Y00020914D01*
X00352611Y00021257D01*
X00355043Y00022265D01*
X00357132Y00023868D01*
X00358735Y00025957D01*
X00359743Y00028389D01*
X00360086Y00031000D01*
X00359743Y00033610D01*
X00358735Y00036043D01*
X00357132Y00038132D01*
X00355043Y00039735D01*
X00352611Y00040743D01*
X00350000Y00041086D01*
X00347389Y00040743D01*
X00345403Y00039920D01*
X00344421Y00040576D01*
X00343250Y00040809D01*
X00343250Y00040809D01*
X00327933D01*
X00327483Y00041483D01*
X00326573Y00042090D01*
X00325500Y00042304D01*
X00325272D01*
X00320241Y00047335D01*
X00320323Y00047750D01*
Y00053750D01*
X00320032Y00055213D01*
X00319204Y00056454D01*
X00317963Y00057282D01*
X00316500Y00057573D01*
X00315309D01*
Y00080483D01*
X00316537Y00081712D01*
X00317711Y00081226D01*
Y00072000D01*
X00317866Y00071220D01*
X00318308Y00070558D01*
X00318970Y00070116D01*
X00319750Y00069961D01*
X00357668Y00069961D01*
X00357864Y00070000D01*
X00358065D01*
X00358251Y00070077D01*
X00358448Y00070116D01*
X00358615Y00070228D01*
X00358800Y00070304D01*
X00358973Y00070420D01*
X00359451Y00070515D01*
X00362549D01*
X00363027Y00070420D01*
X00363262Y00070262D01*
X00363419Y00070027D01*
X00363515Y00069549D01*
Y00068451D01*
X00363419Y00067973D01*
X00363262Y00067737D01*
X00362867Y00067473D01*
X00362725Y00067331D01*
X00362558Y00067220D01*
X00362446Y00067053D01*
X00362304Y00066911D01*
X00362228Y00066725D01*
X00362116Y00066558D01*
X00362077Y00066361D01*
X00362000Y00066176D01*
Y00065975D01*
X00361961Y00065778D01*
Y00020000D01*
X00362116Y00019220D01*
X00362558Y00018558D01*
X00363220Y00018116D01*
X00364000Y00017961D01*
X00386750Y00017961D01*
X00387530Y00018116D01*
X00388192Y00018558D01*
X00388634Y00019220D01*
X00388789Y00020000D01*
X00388789Y00063897D01*
X00389250D01*
X00391298Y00064305D01*
X00393035Y00065465D01*
X00394195Y00067202D01*
X00394603Y00069250D01*
Y00071961D01*
X00405397Y00071961D01*
X00406177Y00072116D01*
X00406839Y00072558D01*
X00407281Y00073220D01*
X00407436Y00074000D01*
Y00080549D01*
X00407725Y00082003D01*
X00408435Y00083065D01*
X00409497Y00083774D01*
X00410951Y00084064D01*
X00417049D01*
X00418503Y00083774D01*
X00419565Y00083065D01*
X00420275Y00082003D01*
X00420564Y00080549D01*
Y00074000D01*
X00420719Y00073220D01*
X00421161Y00072558D01*
X00421822Y00072116D01*
X00422603Y00071961D01*
X00470859Y00071961D01*
X00470866Y00071926D01*
X00470978Y00071759D01*
X00471054Y00071574D01*
X00471420Y00071027D01*
X00471515Y00070549D01*
Y00069451D01*
X00471420Y00068973D01*
X00471054Y00068426D01*
X00470978Y00068241D01*
X00470866Y00068074D01*
X00470827Y00067877D01*
X00470750Y00067691D01*
Y00067490D01*
X00470711Y00067293D01*
Y00021250D01*
X00470866Y00020470D01*
X00471308Y00019808D01*
X00471970Y00019366D01*
X00472750Y00019211D01*
X00494500D01*
X00495280Y00019366D01*
X00495942Y00019808D01*
X00496384Y00020470D01*
X00496539Y00021250D01*
Y00065004D01*
X00498048Y00065305D01*
X00499785Y00066465D01*
X00500945Y00068202D01*
X00501353Y00070250D01*
Y00071961D01*
X00512147D01*
X00512928Y00072116D01*
X00513589Y00072558D01*
X00514031Y00073220D01*
X00514186Y00074000D01*
Y00081549D01*
X00514476Y00083003D01*
X00515185Y00084065D01*
X00516247Y00084775D01*
X00517701Y00085064D01*
X00523799D01*
X00525253Y00084775D01*
D02*
G37*
%LPC*%
G36*
X00457900Y00636099D02*
X00452879Y00635704D01*
X00447981Y00634528D01*
X00443327Y00632600D01*
X00439033Y00629969D01*
X00435203Y00626697D01*
X00431931Y00622867D01*
X00429300Y00618573D01*
X00427372Y00613919D01*
X00426196Y00609021D01*
X00425801Y00604000D01*
X00426196Y00598979D01*
X00427372Y00594081D01*
X00429300Y00589427D01*
X00431931Y00585133D01*
X00435203Y00581303D01*
X00439033Y00578031D01*
X00443327Y00575400D01*
X00447981Y00573472D01*
X00452879Y00572296D01*
X00457900Y00571901D01*
X00462921Y00572296D01*
X00467819Y00573472D01*
X00472473Y00575400D01*
X00476767Y00578031D01*
X00480597Y00581303D01*
X00483869Y00585133D01*
X00486500Y00589427D01*
X00488428Y00594081D01*
X00489604Y00598979D01*
X00489999Y00604000D01*
X00489604Y00609021D01*
X00488428Y00613919D01*
X00486500Y00618573D01*
X00483869Y00622867D01*
X00480597Y00626697D01*
X00476767Y00629969D01*
X00472473Y00632600D01*
X00467819Y00634528D01*
X00462921Y00635704D01*
X00457900Y00636099D01*
D02*
G37*
G36*
X00501000Y00517823D02*
X00497500D01*
X00496037Y00517532D01*
X00494796Y00516704D01*
X00493968Y00515463D01*
X00493677Y00514000D01*
Y00508000D01*
X00493968Y00506537D01*
X00494796Y00505296D01*
X00496037Y00504468D01*
X00496941Y00504288D01*
Y00501732D01*
X00496837Y00501663D01*
X00496174Y00500671D01*
X00495941Y00499500D01*
Y00499059D01*
X00487074D01*
X00487000Y00499073D01*
X00481000D01*
X00479537Y00498782D01*
X00478296Y00497954D01*
X00477468Y00496713D01*
X00477177Y00495250D01*
Y00491750D01*
X00477468Y00490287D01*
X00478296Y00489046D01*
X00479537Y00488218D01*
X00481000Y00487927D01*
X00487000D01*
X00488463Y00488218D01*
X00489704Y00489046D01*
X00490532Y00490287D01*
X00490824Y00491750D01*
Y00492941D01*
X00495941D01*
Y00492500D01*
X00496174Y00491329D01*
X00496837Y00490337D01*
X00497830Y00489674D01*
X00499000Y00489441D01*
X00501000D01*
X00502170Y00489674D01*
X00503163Y00490337D01*
X00503826Y00491329D01*
X00504059Y00492500D01*
Y00499500D01*
X00503826Y00500671D01*
X00503163Y00501663D01*
X00503059Y00501732D01*
Y00504865D01*
X00503704Y00505296D01*
X00504532Y00506537D01*
X00504823Y00508000D01*
Y00514000D01*
X00504532Y00515463D01*
X00503704Y00516704D01*
X00502463Y00517532D01*
X00501000Y00517823D01*
D02*
G37*
G36*
X00515500D02*
X00512000D01*
X00510537Y00517532D01*
X00509296Y00516704D01*
X00508468Y00515463D01*
X00508177Y00514000D01*
Y00508000D01*
X00508468Y00506537D01*
X00509296Y00505296D01*
X00509941Y00504865D01*
Y00501732D01*
X00509837Y00501663D01*
X00509174Y00500671D01*
X00508941Y00499500D01*
Y00492500D01*
X00509174Y00491329D01*
X00509837Y00490337D01*
X00510830Y00489674D01*
X00512000Y00489441D01*
X00514000D01*
X00514000Y00489441D01*
X00522281D01*
X00523046Y00488296D01*
X00524287Y00487468D01*
X00525750Y00487177D01*
X00531750D01*
X00533213Y00487468D01*
X00534454Y00488296D01*
X00535282Y00489537D01*
X00535574Y00491000D01*
Y00494500D01*
X00535282Y00495963D01*
X00534454Y00497204D01*
X00533213Y00498032D01*
X00531750Y00498323D01*
X00525750D01*
X00524287Y00498032D01*
X00523046Y00497204D01*
X00522218Y00495963D01*
X00522137Y00495559D01*
X00517059D01*
Y00499500D01*
X00516826Y00500671D01*
X00516163Y00501663D01*
X00516059Y00501732D01*
Y00504288D01*
X00516963Y00504468D01*
X00518204Y00505296D01*
X00519032Y00506537D01*
X00519323Y00508000D01*
Y00514000D01*
X00519032Y00515463D01*
X00518204Y00516704D01*
X00516963Y00517532D01*
X00515500Y00517823D01*
D02*
G37*
G36*
X00389000Y00443069D02*
X00386000D01*
X00384634Y00442797D01*
X00383477Y00442023D01*
X00382703Y00440866D01*
X00382431Y00439500D01*
Y00432500D01*
X00382703Y00431134D01*
X00383477Y00429977D01*
X00384634Y00429203D01*
X00386000Y00428931D01*
X00389000D01*
X00390366Y00429203D01*
X00391523Y00429977D01*
X00392297Y00431134D01*
X00392569Y00432500D01*
Y00439500D01*
X00392297Y00440866D01*
X00391523Y00442023D01*
X00390366Y00442797D01*
X00389000Y00443069D01*
D02*
G37*
G36*
X00501000Y00482059D02*
X00499000D01*
X00497830Y00481826D01*
X00496837Y00481163D01*
X00496174Y00480171D01*
X00495941Y00479000D01*
Y00472000D01*
X00496174Y00470830D01*
X00496837Y00469837D01*
X00496941Y00469768D01*
Y00444447D01*
X00495604Y00444181D01*
X00493785Y00442965D01*
X00492569Y00441146D01*
X00492142Y00439000D01*
X00492569Y00436854D01*
X00493026Y00436170D01*
X00492750Y00434900D01*
X00492750D01*
Y00423900D01*
X00499250D01*
Y00429954D01*
X00499309Y00430250D01*
Y00433702D01*
X00499896Y00433819D01*
X00501715Y00435035D01*
X00502931Y00436854D01*
X00503358Y00439000D01*
X00502931Y00441146D01*
X00502860Y00441252D01*
X00503059Y00442250D01*
Y00469768D01*
X00503163Y00469837D01*
X00503826Y00470830D01*
X00504059Y00472000D01*
Y00479000D01*
X00503826Y00480171D01*
X00503163Y00481163D01*
X00502170Y00481826D01*
X00501000Y00482059D01*
D02*
G37*
G36*
X00418000Y00610100D02*
X00398000D01*
Y00590100D01*
X00411511D01*
X00427412Y00574199D01*
Y00563000D01*
X00427761Y00561244D01*
X00428756Y00559756D01*
X00429091Y00559532D01*
X00429267Y00559267D01*
X00430177Y00558660D01*
X00431250Y00558446D01*
X00431828D01*
X00432000Y00558412D01*
X00439919D01*
X00440116Y00558116D01*
X00441439Y00557232D01*
X00443000Y00556922D01*
X00447340D01*
X00455412Y00548849D01*
Y00451544D01*
X00455761Y00449789D01*
X00456756Y00448300D01*
X00465558Y00439498D01*
X00465463Y00438771D01*
X00465703Y00436944D01*
X00466409Y00435241D01*
X00467531Y00433779D01*
X00468993Y00432657D01*
X00470696Y00431952D01*
X00472431Y00431723D01*
Y00427400D01*
X00472703Y00426034D01*
X00472750Y00425964D01*
Y00423900D01*
X00475655D01*
X00476000Y00423831D01*
X00476345Y00423900D01*
X00479250D01*
Y00425964D01*
X00479297Y00426034D01*
X00479569Y00427400D01*
Y00436000D01*
X00479358Y00437059D01*
X00479583Y00438771D01*
X00479343Y00440599D01*
X00479031Y00441352D01*
X00479749Y00442762D01*
X00480316Y00442878D01*
X00480330Y00442873D01*
X00482431Y00440772D01*
Y00429400D01*
X00482703Y00428034D01*
X00482750Y00427964D01*
Y00423900D01*
X00489250D01*
Y00427964D01*
X00489297Y00428034D01*
X00489569Y00429400D01*
Y00442250D01*
X00489297Y00443616D01*
X00488523Y00444773D01*
X00485078Y00448218D01*
Y00453500D01*
X00484768Y00455061D01*
X00483884Y00456384D01*
X00482561Y00457268D01*
X00481000Y00457578D01*
X00477000D01*
X00475439Y00457268D01*
X00474116Y00456384D01*
X00473232Y00455061D01*
X00472922Y00453500D01*
Y00447500D01*
X00471968Y00446499D01*
X00471595Y00446438D01*
X00464588Y00453445D01*
Y00550750D01*
X00464239Y00552506D01*
X00463244Y00553994D01*
X00453078Y00564160D01*
Y00565000D01*
X00452768Y00566561D01*
X00451884Y00567884D01*
X00450561Y00568768D01*
X00449000Y00569078D01*
X00443000D01*
X00441439Y00568768D01*
X00440116Y00567884D01*
X00439919Y00567588D01*
X00436588D01*
Y00576100D01*
X00436239Y00577856D01*
X00435244Y00579344D01*
X00418000Y00596589D01*
Y00610100D01*
D02*
G37*
G36*
X00681000Y00432556D02*
X00679303Y00432333D01*
X00677722Y00431678D01*
X00676364Y00430636D01*
X00675322Y00429278D01*
X00674667Y00427697D01*
X00674444Y00426000D01*
X00674667Y00424303D01*
X00675322Y00422722D01*
X00676364Y00421364D01*
X00677722Y00420322D01*
X00679303Y00419667D01*
X00681000Y00419444D01*
X00682697Y00419667D01*
X00684278Y00420322D01*
X00685636Y00421364D01*
X00686678Y00422722D01*
X00687333Y00424303D01*
X00687556Y00426000D01*
X00687333Y00427697D01*
X00686678Y00429278D01*
X00685636Y00430636D01*
X00684278Y00431678D01*
X00682697Y00432333D01*
X00681000Y00432556D01*
D02*
G37*
G36*
Y00364556D02*
X00679303Y00364333D01*
X00677722Y00363678D01*
X00676364Y00362636D01*
X00675322Y00361278D01*
X00674667Y00359697D01*
X00674444Y00358000D01*
X00674667Y00356303D01*
X00675322Y00354722D01*
X00676364Y00353364D01*
X00677722Y00352322D01*
X00679303Y00351667D01*
X00681000Y00351444D01*
X00682697Y00351667D01*
X00684278Y00352322D01*
X00685636Y00353364D01*
X00686678Y00354722D01*
X00687333Y00356303D01*
X00687556Y00358000D01*
X00687333Y00359697D01*
X00686678Y00361278D01*
X00685636Y00362636D01*
X00684278Y00363678D01*
X00682697Y00364333D01*
X00681000Y00364556D01*
D02*
G37*
G36*
X00073550Y00473843D02*
X00071697Y00473474D01*
X00070125Y00472425D01*
X00069076Y00470853D01*
X00068707Y00469000D01*
Y00461000D01*
X00069076Y00459147D01*
X00070125Y00457575D01*
X00071697Y00456526D01*
X00073550Y00456157D01*
X00075403Y00456526D01*
X00076975Y00457575D01*
X00078024Y00459147D01*
X00078393Y00461000D01*
Y00469000D01*
X00078024Y00470853D01*
X00076975Y00472425D01*
X00075403Y00473474D01*
X00073550Y00473843D01*
D02*
G37*
G36*
X00035500Y00339823D02*
X00032000D01*
X00030537Y00339532D01*
X00029296Y00338704D01*
X00028468Y00337463D01*
X00028177Y00336000D01*
Y00330000D01*
X00028468Y00328537D01*
X00029296Y00327296D01*
X00030537Y00326468D01*
X00030941Y00326387D01*
Y00323183D01*
X00030267Y00322733D01*
X00029660Y00321823D01*
X00029446Y00320750D01*
Y00319250D01*
X00029660Y00318177D01*
X00030267Y00317267D01*
X00030944Y00316815D01*
Y00307402D01*
X00024003D01*
Y00287402D01*
X00044003D01*
Y00307402D01*
X00037062D01*
Y00316819D01*
X00037733Y00317267D01*
X00038340Y00318177D01*
X00038554Y00319250D01*
Y00320750D01*
X00038340Y00321823D01*
X00037733Y00322733D01*
X00037059Y00323183D01*
Y00326531D01*
X00038204Y00327296D01*
X00039032Y00328537D01*
X00039323Y00330000D01*
Y00336000D01*
X00039032Y00337463D01*
X00038204Y00338704D01*
X00036963Y00339532D01*
X00035500Y00339823D01*
D02*
G37*
G36*
X00162450Y00473843D02*
X00160597Y00473474D01*
X00159025Y00472425D01*
X00157976Y00470853D01*
X00157607Y00469000D01*
Y00461000D01*
X00157976Y00459147D01*
X00159025Y00457575D01*
X00160597Y00456526D01*
X00162450Y00456157D01*
X00164303Y00456526D01*
X00165875Y00457575D01*
X00166924Y00459147D01*
X00167293Y00461000D01*
Y00469000D01*
X00166924Y00470853D01*
X00165875Y00472425D01*
X00164303Y00473474D01*
X00162450Y00473843D01*
D02*
G37*
G36*
X00149750D02*
X00147897Y00473474D01*
X00146325Y00472425D01*
X00145276Y00470853D01*
X00144907Y00469000D01*
Y00461000D01*
X00145276Y00459147D01*
X00146325Y00457575D01*
X00147897Y00456526D01*
X00149750Y00456157D01*
X00151603Y00456526D01*
X00153174Y00457575D01*
X00154224Y00459147D01*
X00154593Y00461000D01*
Y00469000D01*
X00154224Y00470853D01*
X00153174Y00472425D01*
X00151603Y00473474D01*
X00149750Y00473843D01*
D02*
G37*
G36*
X00137050D02*
X00135197Y00473474D01*
X00133625Y00472425D01*
X00132576Y00470853D01*
X00132207Y00469000D01*
Y00461000D01*
X00132576Y00459147D01*
X00133625Y00457575D01*
X00135197Y00456526D01*
X00137050Y00456157D01*
X00138903Y00456526D01*
X00140475Y00457575D01*
X00141524Y00459147D01*
X00141893Y00461000D01*
Y00469000D01*
X00141524Y00470853D01*
X00140475Y00472425D01*
X00138903Y00473474D01*
X00137050Y00473843D01*
D02*
G37*
G36*
X00124350D02*
X00122497Y00473474D01*
X00120925Y00472425D01*
X00119876Y00470853D01*
X00119507Y00469000D01*
Y00461000D01*
X00119876Y00459147D01*
X00120925Y00457575D01*
X00122497Y00456526D01*
X00124350Y00456157D01*
X00126203Y00456526D01*
X00127774Y00457575D01*
X00128824Y00459147D01*
X00129193Y00461000D01*
Y00469000D01*
X00128824Y00470853D01*
X00127774Y00472425D01*
X00126203Y00473474D01*
X00124350Y00473843D01*
D02*
G37*
G36*
X00123000Y00348086D02*
X00120389Y00347743D01*
X00117957Y00346735D01*
X00115868Y00345132D01*
X00114265Y00343043D01*
X00113257Y00340611D01*
X00112914Y00338000D01*
X00113257Y00335390D01*
X00114265Y00332957D01*
X00115292Y00331618D01*
X00113837Y00330163D01*
X00113174Y00329170D01*
X00112941Y00328000D01*
X00112941Y00328000D01*
Y00317183D01*
X00112267Y00316733D01*
X00111659Y00315823D01*
X00111446Y00314750D01*
Y00313250D01*
X00111659Y00312177D01*
X00112267Y00311267D01*
X00112941Y00310817D01*
Y00307613D01*
X00112537Y00307532D01*
X00111296Y00306704D01*
X00110468Y00305463D01*
X00110176Y00304000D01*
Y00298000D01*
X00110468Y00296537D01*
X00111296Y00295296D01*
X00112537Y00294468D01*
X00114000Y00294177D01*
X00117500D01*
X00118963Y00294468D01*
X00120204Y00295296D01*
X00121032Y00296537D01*
X00121323Y00298000D01*
Y00304000D01*
X00121032Y00305463D01*
X00120204Y00306704D01*
X00119059Y00307468D01*
Y00310817D01*
X00119733Y00311267D01*
X00120340Y00312177D01*
X00120554Y00313250D01*
Y00314750D01*
X00120340Y00315823D01*
X00119733Y00316733D01*
X00119059Y00317183D01*
Y00326733D01*
X00120561Y00328235D01*
X00123000Y00327914D01*
X00125611Y00328257D01*
X00128043Y00329265D01*
X00130132Y00330868D01*
X00131735Y00332957D01*
X00132743Y00335390D01*
X00133086Y00338000D01*
X00132743Y00340611D01*
X00131735Y00343043D01*
X00130132Y00345132D01*
X00128043Y00346735D01*
X00125611Y00347743D01*
X00123000Y00348086D01*
D02*
G37*
G36*
X00158400Y00348000D02*
X00138400D01*
Y00328000D01*
X00145461D01*
X00145574Y00327430D01*
X00146237Y00326437D01*
X00147941Y00324733D01*
Y00317183D01*
X00147267Y00316733D01*
X00146660Y00315823D01*
X00146446Y00314750D01*
Y00313250D01*
X00146660Y00312177D01*
X00147267Y00311267D01*
X00148177Y00310660D01*
X00149250Y00310446D01*
X00150228D01*
X00151941Y00308733D01*
Y00307468D01*
X00150796Y00306704D01*
X00149968Y00305463D01*
X00149677Y00304000D01*
Y00298000D01*
X00149968Y00296537D01*
X00150796Y00295296D01*
X00152037Y00294468D01*
X00153500Y00294177D01*
X00157000D01*
X00158463Y00294468D01*
X00159704Y00295296D01*
X00160532Y00296537D01*
X00160823Y00298000D01*
Y00304000D01*
X00160532Y00305463D01*
X00159704Y00306704D01*
X00158463Y00307532D01*
X00158059Y00307613D01*
Y00310000D01*
X00157826Y00311171D01*
X00157163Y00312163D01*
X00157163Y00312163D01*
X00155554Y00313772D01*
Y00314750D01*
X00155340Y00315823D01*
X00154733Y00316733D01*
X00154059Y00317183D01*
Y00326000D01*
X00154059Y00326000D01*
X00153914Y00326730D01*
X00154683Y00328000D01*
X00158400D01*
Y00348000D01*
D02*
G37*
G36*
X00457900Y00326099D02*
X00452879Y00325704D01*
X00447981Y00324528D01*
X00443327Y00322600D01*
X00439033Y00319969D01*
X00435203Y00316697D01*
X00431931Y00312867D01*
X00429300Y00308573D01*
X00427372Y00303919D01*
X00426196Y00299021D01*
X00425801Y00294000D01*
X00426196Y00288979D01*
X00427372Y00284081D01*
X00429300Y00279427D01*
X00431931Y00275133D01*
X00435203Y00271303D01*
X00439033Y00268031D01*
X00443327Y00265400D01*
X00447981Y00263472D01*
X00452879Y00262296D01*
X00457900Y00261901D01*
X00462921Y00262296D01*
X00467819Y00263472D01*
X00472473Y00265400D01*
X00476767Y00268031D01*
X00480597Y00271303D01*
X00483869Y00275133D01*
X00486500Y00279427D01*
X00488428Y00284081D01*
X00489604Y00288979D01*
X00489999Y00294000D01*
X00489604Y00299021D01*
X00488428Y00303919D01*
X00486500Y00308573D01*
X00483869Y00312867D01*
X00480597Y00316697D01*
X00476767Y00319969D01*
X00472473Y00322600D01*
X00467819Y00324528D01*
X00462921Y00325704D01*
X00457900Y00326099D01*
D02*
G37*
G36*
X00627000Y00160913D02*
X00625107Y00160663D01*
X00623344Y00159933D01*
X00621829Y00158771D01*
X00620667Y00157256D01*
X00619937Y00155493D01*
X00619687Y00153600D01*
X00619937Y00151707D01*
X00620667Y00149944D01*
X00621829Y00148429D01*
X00623344Y00147267D01*
X00625107Y00146537D01*
X00627000Y00146287D01*
X00628893Y00146537D01*
X00630656Y00147267D01*
X00632171Y00148429D01*
X00633333Y00149944D01*
X00634063Y00151707D01*
X00634313Y00153600D01*
X00634063Y00155493D01*
X00633333Y00157256D01*
X00632171Y00158771D01*
X00630656Y00159933D01*
X00628893Y00160663D01*
X00627000Y00160913D01*
D02*
G37*
G36*
X00173000Y00061073D02*
X00167000D01*
X00165537Y00060782D01*
X00164296Y00059954D01*
X00163468Y00058713D01*
X00163176Y00057250D01*
Y00053750D01*
X00163468Y00052287D01*
X00164296Y00051046D01*
X00165537Y00050218D01*
X00166691Y00049988D01*
Y00046000D01*
X00166691Y00046000D01*
X00166924Y00044830D01*
X00167587Y00043837D01*
X00168196Y00043228D01*
Y00041250D01*
X00168410Y00040177D01*
X00169017Y00039267D01*
X00169927Y00038660D01*
X00171000Y00038446D01*
X00172500D01*
X00173573Y00038660D01*
X00174483Y00039267D01*
X00175090Y00040177D01*
X00175242Y00040941D01*
X00197889D01*
X00207993Y00030837D01*
X00208986Y00030174D01*
X00210156Y00029941D01*
X00210156Y00029941D01*
X00210443D01*
X00211265Y00027957D01*
X00212868Y00025868D01*
X00214957Y00024265D01*
X00217390Y00023257D01*
X00220000Y00022914D01*
X00222610Y00023257D01*
X00225043Y00024265D01*
X00227132Y00025868D01*
X00228735Y00027957D01*
X00229743Y00030389D01*
X00230086Y00033000D01*
X00229743Y00035610D01*
X00228735Y00038043D01*
X00227132Y00040132D01*
X00225043Y00041735D01*
X00222610Y00042743D01*
X00220000Y00043086D01*
X00217390Y00042743D01*
X00214957Y00041735D01*
X00212868Y00040132D01*
X00211265Y00038043D01*
X00211168Y00037808D01*
X00209922Y00037560D01*
X00201319Y00046163D01*
X00200327Y00046826D01*
X00199156Y00047059D01*
X00199156Y00047059D01*
X00173995D01*
X00173573Y00047340D01*
X00172809Y00047492D01*
Y00049927D01*
X00173000D01*
X00174463Y00050218D01*
X00175704Y00051046D01*
X00176532Y00052287D01*
X00176823Y00053750D01*
Y00057250D01*
X00176532Y00058713D01*
X00175704Y00059954D01*
X00174463Y00060782D01*
X00173000Y00061073D01*
D02*
G37*
G36*
X00331000Y00057573D02*
X00327500D01*
X00326037Y00057282D01*
X00324796Y00056454D01*
X00323968Y00055213D01*
X00323676Y00053750D01*
Y00047750D01*
X00323968Y00046287D01*
X00324796Y00045046D01*
X00326037Y00044218D01*
X00327500Y00043927D01*
X00331000D01*
X00332463Y00044218D01*
X00333704Y00045046D01*
X00334115Y00045662D01*
X00335217D01*
X00336104Y00045069D01*
X00338250Y00044642D01*
X00340396Y00045069D01*
X00342215Y00046285D01*
X00343431Y00048104D01*
X00343858Y00050250D01*
X00343431Y00052396D01*
X00342215Y00054215D01*
X00340396Y00055431D01*
X00338250Y00055858D01*
X00336104Y00055431D01*
X00335821Y00055242D01*
X00334532Y00055213D01*
X00333704Y00056454D01*
X00332463Y00057282D01*
X00331000Y00057573D01*
D02*
G37*
G36*
X00531750Y00045358D02*
X00529604Y00044931D01*
X00527785Y00043715D01*
X00526569Y00041896D01*
X00526142Y00039750D01*
X00526569Y00037604D01*
X00527162Y00036717D01*
Y00036282D01*
X00526296Y00035704D01*
X00525468Y00034463D01*
X00525177Y00033000D01*
Y00029500D01*
X00525468Y00028037D01*
X00526296Y00026796D01*
X00527537Y00025968D01*
X00529000Y00025677D01*
X00535000D01*
X00536463Y00025968D01*
X00537704Y00026796D01*
X00538532Y00028037D01*
X00538824Y00029500D01*
Y00033000D01*
X00538532Y00034463D01*
X00537704Y00035704D01*
X00536463Y00036532D01*
X00536931Y00037604D01*
X00537358Y00039750D01*
X00536931Y00041896D01*
X00535715Y00043715D01*
X00533896Y00044931D01*
X00531750Y00045358D01*
D02*
G37*
G36*
X00423250Y00045108D02*
X00421104Y00044681D01*
X00419285Y00043465D01*
X00418069Y00041646D01*
X00417642Y00039500D01*
X00418021Y00037599D01*
X00418069Y00037354D01*
X00417705Y00035976D01*
X00417296Y00035704D01*
X00416468Y00034463D01*
X00416176Y00033000D01*
Y00029500D01*
X00416468Y00028037D01*
X00417296Y00026796D01*
X00418537Y00025968D01*
X00420000Y00025677D01*
X00426000D01*
X00427463Y00025968D01*
X00428704Y00026796D01*
X00429532Y00028037D01*
X00429823Y00029500D01*
Y00033000D01*
X00429532Y00034463D01*
X00428704Y00035704D01*
X00427838Y00036282D01*
Y00036467D01*
X00428431Y00037354D01*
X00428858Y00039500D01*
X00428431Y00041646D01*
X00427215Y00043465D01*
X00425396Y00044681D01*
X00423250Y00045108D01*
D02*
G37*
%LPD*%
D13*
X00356500Y00271500D02*
X00358000Y00273000D01*
X00246000Y00352000D02*
Y00368250D01*
X00289000Y00099000D02*
X00292500D01*
X00305000Y00118000D02*
Y00118500D01*
X00303500Y00120000D02*
X00305000Y00118500D01*
X00277500Y00120000D02*
X00303500D01*
X00106000Y00182000D02*
X00130000D01*
X00133000Y00179000D01*
X00499750Y00267771D02*
Y00300750D01*
X00455679Y00223700D02*
X00499750Y00267771D01*
X00416050Y00223700D02*
X00455679D01*
X00522000Y00328000D02*
Y00329000D01*
X00457136Y00219500D02*
X00503750Y00266114D01*
X00414597Y00219500D02*
X00457136D01*
X00503750Y00266114D02*
Y00299093D01*
X00123250Y00134500D02*
X00126750Y00138000D01*
X00139500D01*
X00457750Y00182750D02*
X00459000D01*
X00446250D02*
X00457750D01*
X00144250Y00137250D02*
X00150500Y00131000D01*
X00086500Y00128000D02*
X00092000Y00122500D01*
X00081750Y00128000D02*
X00086500D01*
X00092000Y00122500D02*
X00102500D01*
X00076500Y00127750D02*
X00085250D01*
X00070000Y00134250D02*
X00076500Y00127750D01*
X00070000Y00134250D02*
Y00139000D01*
X00152942Y00070000D02*
X00171250D01*
X00123000Y00147000D02*
X00143000D01*
X00115250Y00139250D02*
X00122000Y00146000D01*
X00115250Y00115907D02*
Y00139250D01*
Y00115907D02*
X00127000Y00104157D01*
X00102500Y00122500D02*
X00123000Y00102000D01*
Y00079851D02*
Y00102000D01*
X00171750Y00044000D02*
X00199156D01*
X00169750Y00046000D02*
Y00056500D01*
X00168250Y00058000D02*
X00169750Y00056500D01*
Y00046000D02*
X00171750Y00044000D01*
X00452250Y00130500D02*
Y00176750D01*
X00446250Y00182750D02*
X00452250Y00176750D01*
X00426000Y00190000D02*
X00494277D01*
X00416984Y00199016D02*
X00426000Y00190000D01*
X00494277D02*
X00496277Y00192000D01*
X00143250Y00070000D02*
X00152942D01*
X00135000Y00078250D02*
X00143250Y00070000D01*
X00130257Y00078250D02*
X00135000D01*
X00143750Y00034250D02*
Y00063500D01*
X00133000Y00074250D02*
X00143750Y00063500D01*
X00128601Y00074250D02*
X00133000D01*
X00199156Y00044000D02*
X00210156Y00033000D01*
X00171750Y00044000D02*
Y00044000D01*
Y00043000D02*
Y00044000D01*
X00143750Y00034250D02*
X00170500Y00007500D01*
X00345500Y00035000D02*
X00349000Y00031500D01*
X00343250Y00037750D02*
X00347750Y00033250D01*
X00324750Y00037750D02*
X00343250D01*
X00314750Y00048500D02*
X00324250Y00039000D01*
X00314750Y00048500D02*
Y00050750D01*
X00348000Y00031000D02*
X00349000D01*
X00312250Y00051000D02*
Y00081750D01*
X00565000Y00031000D02*
X00566600D01*
X00532000Y00016750D02*
X00553250D01*
X00565750Y00029250D01*
X00445250Y00016750D02*
X00459250Y00030750D01*
X00423000Y00016750D02*
X00445250D01*
X00499250Y00495750D02*
Y00496000D01*
Y00511000D02*
X00500000Y00510250D01*
Y00496000D02*
Y00510250D01*
Y00496000D02*
X00500000D01*
X00484500D02*
X00499250D01*
X00483750Y00495250D02*
X00484500Y00496000D01*
X00499250Y00495750D02*
X00499500Y00495500D01*
X00513000Y00510750D02*
X00513500Y00511250D01*
X00513000Y00496000D02*
Y00510750D01*
X00512750Y00492500D02*
X00528750D01*
X00496250Y00439000D02*
X00497250D01*
X00496250Y00430250D02*
Y00439000D01*
X00497250Y00439500D02*
X00500000Y00442250D01*
Y00475500D01*
X00127000Y00081507D02*
Y00104157D01*
X00321500Y00332843D02*
X00331343Y00323000D01*
X00321500Y00332843D02*
Y00336750D01*
X00296000Y00352686D02*
X00329686Y00319000D01*
X00292000Y00351030D02*
X00328030Y00315000D01*
X00309250Y00324000D02*
Y00328123D01*
X00329686Y00319000D02*
X00333000D01*
X00328030Y00315000D02*
X00334657D01*
X00321500Y00336750D02*
X00321500D01*
X00297373Y00340000D02*
X00309250Y00328123D01*
X00210156Y00033000D02*
X00220000D01*
X00300250Y00021250D02*
Y00086721D01*
X00286500Y00007500D02*
X00300250Y00021250D01*
X00170500Y00007500D02*
X00286500D01*
X00305000Y00091470D02*
Y00094250D01*
X00300250Y00086721D02*
X00305000Y00091470D01*
X00439250Y00117500D02*
X00452250Y00130500D01*
X00297500Y00104000D02*
X00299000D01*
X00292500Y00099000D02*
X00297500Y00104000D01*
X00342808Y00117500D02*
X00439250D01*
X00523750Y00010250D02*
X00529750Y00016250D01*
X00421157Y00010250D02*
X00523750D01*
X00416907Y00006000D02*
X00421157Y00010250D01*
X00319500Y00006000D02*
X00416907D01*
X00304250Y00021250D02*
X00319500Y00006000D01*
X00152942Y00070000D02*
X00152942Y00070000D01*
X00123000Y00079851D02*
X00128601Y00074250D01*
X00127000Y00081507D02*
X00130257Y00078250D01*
X00309000Y00089814D02*
Y00097000D01*
X00304250Y00085064D02*
X00309000Y00089814D01*
X00304250Y00021250D02*
Y00085064D01*
X00308250Y00022907D02*
Y00083407D01*
X00313000Y00088157D02*
Y00097000D01*
X00308250Y00083407D02*
X00313000Y00088157D01*
X00312250Y00081750D02*
X00317000Y00086500D01*
Y00097000D01*
X00415250Y00010000D02*
X00421000Y00015750D01*
X00321157Y00010000D02*
X00415250D01*
X00308250Y00022907D02*
X00321157Y00010000D01*
X00219000Y00295593D02*
X00234000Y00310593D01*
X00219000Y00277500D02*
Y00295593D01*
Y00277500D02*
X00221000Y00275500D01*
X00215000Y00277500D02*
Y00297250D01*
X00213000Y00275500D02*
X00215000Y00277500D01*
X00211000Y00287500D02*
Y00299587D01*
X00207000Y00283500D02*
X00211000Y00287500D01*
X00207000Y00290500D02*
Y00301244D01*
X00197000Y00280500D02*
X00207000Y00290500D01*
X00215000Y00297250D02*
X00230000Y00312250D01*
X00211000Y00299587D02*
X00226000Y00314587D01*
X00207000Y00301244D02*
X00222000Y00316244D01*
X00197000Y00275500D02*
Y00280500D01*
X00241220Y00374250D02*
X00245750D01*
X00239500Y00372529D02*
X00241220Y00374250D01*
X00240564Y00379250D02*
X00245750D01*
X00235500Y00374186D02*
X00240564Y00379250D01*
X00239907Y00384250D02*
X00244750D01*
X00231500Y00375843D02*
X00239907Y00384250D01*
X00239250Y00389250D02*
X00246000D01*
X00227500Y00377500D02*
X00239250Y00389250D01*
X00281250Y00379250D02*
X00293029D01*
X00293530Y00378750D01*
X00202750Y00348250D02*
X00203500D01*
X00202500Y00348000D02*
X00202750Y00348250D01*
X00210000Y00321214D02*
Y00344941D01*
X00214000Y00319558D02*
Y00343284D01*
X00218000Y00317901D02*
Y00341627D01*
X00222000Y00339971D02*
X00228000Y00345971D01*
X00222000Y00316244D02*
Y00339971D01*
X00226000Y00338314D02*
X00232000Y00344314D01*
X00226000Y00314587D02*
Y00338314D01*
X00230000Y00336657D02*
X00236136Y00342793D01*
X00230000Y00312250D02*
Y00336657D01*
X00234000Y00335000D02*
X00239000Y00340000D01*
X00234000Y00310593D02*
Y00335000D01*
X00203036Y00314250D02*
X00210000Y00321214D01*
X00200692Y00306250D02*
X00214000Y00319558D01*
X00201099Y00301000D02*
X00218000Y00317901D01*
X00247500Y00340000D02*
X00250000Y00342500D01*
X00239000Y00340000D02*
X00247500D01*
X00265250Y00327500D02*
X00271750Y00321000D01*
X00246250Y00327500D02*
X00265250D01*
X00241250Y00332500D02*
X00246250Y00327500D01*
X00241262Y00323266D02*
X00256266D01*
X00256500Y00323500D01*
X00259000Y00321000D01*
X00236136Y00342793D02*
Y00342793D01*
X00236000Y00342929D02*
X00236136Y00342793D01*
X00232000Y00344314D02*
Y00354728D01*
X00228000Y00345971D02*
Y00356385D01*
X00218000Y00341627D02*
X00224000Y00347627D01*
Y00358042D01*
X00214000Y00343284D02*
X00220000Y00349284D01*
Y00359698D01*
X00210000Y00344941D02*
X00216000Y00350941D01*
Y00361355D01*
X00199639Y00356017D02*
X00209260D01*
X00170657Y00385000D02*
X00199639Y00356017D01*
X00250000Y00353071D02*
X00252929Y00356000D01*
X00250000Y00342500D02*
Y00353071D01*
X00292000Y00351030D02*
Y00368000D01*
X00288558Y00371442D02*
X00292000Y00368000D01*
X00288558Y00371442D02*
Y00371500D01*
X00285558Y00374500D02*
X00288558Y00371500D01*
X00280750Y00374500D02*
X00285558D01*
X00298000Y00375000D02*
Y00381192D01*
X00296000Y00373000D02*
X00298000Y00375000D01*
X00296000Y00352686D02*
Y00373000D01*
X00291250Y00378000D02*
X00293780D01*
X00280750Y00384500D02*
X00294692D01*
X00298000Y00381192D01*
X00295349Y00389500D02*
X00309000Y00375849D01*
X00280750Y00389500D02*
X00295349D01*
X00309000Y00370407D02*
Y00375849D01*
X00279929Y00340000D02*
X00297373D01*
X00277000Y00342929D02*
X00279929Y00340000D01*
X00331343Y00323000D02*
X00335000D01*
X00271500Y00359040D02*
Y00362750D01*
Y00359040D02*
X00277000Y00353540D01*
Y00342929D02*
Y00353540D01*
X00312907Y00366500D02*
X00319192D01*
X00309000Y00370407D02*
X00312907Y00366500D01*
X00371000Y00535250D02*
Y00536000D01*
X00199500Y00314250D02*
X00203036D01*
X00228000Y00276500D02*
Y00287500D01*
X00235000Y00277500D02*
Y00290772D01*
X00230011Y00295761D02*
X00235000Y00290772D01*
X00230011Y00295761D02*
Y00295764D01*
X00192274Y00306250D02*
X00200692D01*
X00496000Y00430000D02*
X00496250Y00430250D01*
X00315500Y00144500D02*
X00326500D01*
X00362500Y00121500D02*
X00372350Y00131350D01*
X00344465Y00121500D02*
X00362500D01*
X00340950Y00125015D02*
X00344465Y00121500D01*
X00328843Y00136500D02*
X00336950Y00128393D01*
X00316500Y00136500D02*
X00328843D01*
X00315500Y00135500D02*
X00316500Y00136500D01*
X00220000Y00359698D02*
X00223500Y00363198D01*
X00224000Y00358042D02*
X00227500Y00361541D01*
X00228000Y00356385D02*
X00231500Y00359885D01*
X00232000Y00354728D02*
X00235500Y00358228D01*
X00236000Y00353071D02*
X00239500Y00356571D01*
X00236000Y00342929D02*
Y00353071D01*
X00245000Y00351000D02*
X00246000Y00352000D01*
X00219500Y00380814D02*
X00235750Y00397064D01*
X00219500Y00364855D02*
Y00380814D01*
X00216000Y00361355D02*
X00219500Y00364855D01*
X00223500Y00379157D02*
X00239750Y00395407D01*
X00223500Y00363198D02*
Y00379157D01*
X00227500Y00361541D02*
Y00377500D01*
X00231500Y00359885D02*
Y00375843D01*
X00235500Y00358228D02*
Y00374186D01*
X00239500Y00356571D02*
Y00372529D01*
X00503750Y00299093D02*
X00519250Y00314593D01*
X00495750Y00302407D02*
X00511000Y00317657D01*
X00495750Y00269428D02*
Y00302407D01*
X00454022Y00227700D02*
X00495750Y00269428D01*
X00499750Y00300750D02*
X00515250Y00316250D01*
X00624000Y00641000D02*
X00625250Y00639750D01*
Y00498000D02*
Y00639750D01*
X00621500Y00494250D02*
X00625250Y00498000D01*
X00607750Y00494250D02*
X00621500D01*
X00536000Y00309000D02*
X00540750Y00304250D01*
Y00290500D02*
Y00304250D01*
Y00290500D02*
X00547500Y00283750D01*
X00354000Y00196000D02*
Y00196929D01*
X00354000Y00196929D01*
Y00207071D01*
X00351071Y00210000D02*
X00354000Y00207071D01*
X00342929Y00210000D02*
X00351071D01*
X00340429Y00207500D02*
X00342929Y00210000D01*
X00332750Y00207500D02*
X00340429D01*
X00323250Y00217000D02*
X00332750Y00207500D01*
X00295500Y00217000D02*
X00323250D01*
X00511000Y00350686D02*
X00511000Y00350686D01*
X00511000Y00317657D02*
Y00350686D01*
X00508750Y00359564D02*
Y00391750D01*
Y00359564D02*
X00511000Y00357314D01*
Y00350686D02*
Y00357314D01*
X00364000Y00528000D02*
X00364000Y00528000D01*
X00364000Y00506657D02*
Y00528000D01*
X00364000Y00528250D02*
X00371000Y00535250D01*
X00364000Y00528000D02*
Y00528250D01*
X00568000Y00291500D02*
X00574500Y00285000D01*
X00605000Y00421000D02*
X00634000Y00392000D01*
X00642250D02*
X00642500Y00391750D01*
X00634000Y00392000D02*
X00642250D01*
X00590500Y00421000D02*
X00605000D01*
X00586000Y00425500D02*
X00590500Y00421000D01*
X00586000Y00425500D02*
Y00453000D01*
X00294500Y00218000D02*
X00295500Y00217000D01*
X00142750Y00110000D02*
X00150000D01*
X00135750Y00103000D02*
X00142750Y00110000D01*
X00135000Y00103000D02*
X00135750D01*
X00302071Y00183929D02*
X00304000D01*
X00299000Y00187000D02*
X00302071Y00183929D01*
X00299000Y00187000D02*
Y00187000D01*
X00307250Y00174000D02*
X00308000D01*
X00303250Y00178000D02*
X00307250Y00174000D01*
X00294500Y00178000D02*
X00303250D01*
X00352500Y00142000D02*
X00358750Y00135750D01*
X00340314Y00142000D02*
X00352500D01*
X00329814Y00152500D02*
X00340314Y00142000D01*
X00322372Y00152500D02*
X00329814D01*
X00319372Y00155500D02*
X00322372Y00152500D01*
X00314499Y00155500D02*
X00319372D01*
X00311999Y00158000D02*
X00314499Y00155500D01*
X00341857Y00134800D02*
X00346950D01*
X00317715Y00151500D02*
X00320715Y00148500D01*
X00314692Y00151500D02*
X00317715D01*
X00314692Y00151500D02*
X00314692Y00151500D01*
X00328157Y00148500D02*
X00341857Y00134800D01*
X00320715Y00148500D02*
X00328157D01*
X00326500Y00144500D02*
X00340950Y00130050D01*
X00309000Y00132314D02*
X00317000Y00124314D01*
X00305000Y00130657D02*
X00313000Y00122657D01*
X00309000Y00117000D02*
Y00121000D01*
X00301000Y00129000D02*
X00309000Y00121000D01*
Y00132314D02*
Y00144485D01*
X00305000Y00130657D02*
Y00136000D01*
X00301000Y00129000D02*
Y00135000D01*
X00301485Y00152000D02*
X00309000Y00144485D01*
X00305000Y00136000D02*
Y00140485D01*
X00300485Y00145000D02*
X00305000Y00140485D01*
X00308500Y00151500D02*
X00314692D01*
X00298000Y00138000D02*
X00301000Y00135000D01*
X00305000Y00136000D02*
X00305000Y00136000D01*
X00346950Y00131750D02*
Y00134800D01*
X00347000Y00134750D01*
X00305000Y00155000D02*
X00308500Y00151500D01*
X00348521Y00265000D02*
X00351500Y00262021D01*
X00307657Y00265000D02*
X00348521D01*
X00304657Y00268000D02*
X00307657Y00265000D01*
X00249000Y00310874D02*
Y00311000D01*
Y00294968D02*
Y00310874D01*
X00257126Y00319000D02*
X00258000D01*
X00249000Y00310874D02*
X00257126Y00319000D01*
X00320192Y00367500D02*
X00361692D01*
X00317500Y00371500D02*
X00363750D01*
X00376571Y00358679D01*
Y00358679D02*
Y00358679D01*
X00387000Y00325929D02*
Y00348250D01*
X00376571Y00358679D02*
X00387000Y00348250D01*
X00316000Y00373000D02*
X00317500Y00371500D01*
X00315750Y00373000D02*
X00316000D01*
X00364000Y00335000D02*
Y00342000D01*
X00319192Y00366500D02*
X00320192Y00367500D01*
X00367000Y00345000D02*
Y00362192D01*
X00361692Y00367500D02*
X00367000Y00362192D01*
X00360000Y00351000D02*
X00360250Y00351250D01*
X00360000Y00340000D02*
Y00351000D01*
X00365000Y00319000D02*
X00375000D01*
X00266000Y00313000D02*
X00272000Y00319000D01*
X00256782Y00313000D02*
X00266000D01*
X00253000Y00309217D02*
X00256782Y00313000D01*
X00202000Y00348000D02*
X00202500D01*
X00194692Y00355308D02*
X00202000Y00348000D01*
X00170929Y00301000D02*
X00201099D01*
X00191009Y00307515D02*
X00192274Y00306250D01*
X00207000Y00279250D02*
Y00283500D01*
X00205000Y00277250D02*
X00207000Y00279250D01*
X00235000Y00277500D02*
X00237000Y00275500D01*
X00249000Y00285000D02*
Y00294968D01*
X00245000Y00281000D02*
X00249000Y00285000D01*
X00253000Y00275500D02*
X00253250Y00275750D01*
X00253000Y00275500D02*
X00253000Y00275500D01*
X00253000Y00296625D02*
X00253000Y00296625D01*
Y00275500D02*
Y00296625D01*
X00245000Y00275500D02*
Y00281000D01*
X00249000Y00294968D02*
X00249000Y00294968D01*
X00253000Y00296625D02*
Y00309217D01*
X00227250Y00288250D02*
X00228000Y00287500D01*
X00235750Y00397064D02*
Y00406750D01*
X00253000Y00424000D01*
X00281343D01*
X00364000Y00506657D01*
X00205000Y00275500D02*
Y00277250D01*
X00168000Y00298071D02*
X00170929Y00301000D01*
X00205000Y00275500D02*
X00207000Y00277500D01*
X00228000Y00276500D02*
X00229000Y00275500D01*
X00349240Y00232000D02*
X00349740Y00231500D01*
X00321000Y00232000D02*
X00349240D01*
X00323192Y00225000D02*
X00396457D01*
X00323192Y00225000D02*
X00323192Y00225000D01*
X00316343Y00221000D02*
X00394000D01*
X00312036Y00225308D02*
X00316343Y00221000D01*
X00318000Y00225000D02*
X00323192D01*
X00353260Y00231500D02*
X00356000Y00234240D01*
Y00238000D01*
X00349740Y00231500D02*
X00353260D01*
X00295192Y00225308D02*
X00312036D01*
X00313692Y00229308D02*
X00318000Y00225000D01*
X00313692Y00229308D02*
X00313692D01*
X00309000Y00234000D02*
X00313692Y00229308D01*
X00294500Y00234000D02*
X00309000D01*
X00294500Y00210000D02*
X00321000D01*
X00316000Y00239000D02*
X00351000D01*
X00313000Y00242000D02*
X00316000Y00239000D01*
X00294500Y00242000D02*
X00313000D01*
X00321000Y00210000D02*
X00323000D01*
X00317000Y00244000D02*
X00342000D01*
X00303000Y00258000D02*
X00317000Y00244000D01*
X00294500Y00258000D02*
X00303000D01*
X00280000Y00268000D02*
X00304657D01*
X00277000Y00271000D02*
X00280000Y00268000D01*
X00277000Y00271000D02*
Y00275500D01*
X00294500Y00242000D02*
X00294500Y00242000D01*
X00318000Y00249000D02*
X00342000D01*
X00315343Y00251657D02*
X00318000Y00249000D01*
X00315343Y00251657D02*
X00315343D01*
X00303000Y00264000D02*
X00315343Y00251657D01*
X00287515Y00264000D02*
X00303000D01*
X00284000Y00260485D02*
X00287515Y00264000D01*
X00284000Y00255515D02*
X00289515Y00250000D01*
X00284000Y00255515D02*
Y00260485D01*
X00289515Y00250000D02*
X00294500D01*
Y00250000D02*
Y00250000D01*
X00150000Y00314000D02*
X00151000Y00315000D01*
Y00326000D01*
Y00314000D02*
Y00315000D01*
X00148400Y00328600D02*
X00151000Y00326000D01*
X00148400Y00328600D02*
Y00338000D01*
X00116000Y00301000D02*
Y00314000D01*
X00116000Y00314000D01*
Y00328000D01*
X00123000Y00335000D01*
Y00338000D01*
X00407000Y00550000D02*
X00408000Y00549000D01*
X00387000Y00550000D02*
X00407000D01*
X00405000Y00522000D02*
X00407000Y00524000D01*
X00387000Y00522000D02*
X00405000D01*
X00371000Y00508000D02*
Y00509000D01*
X00283000Y00420000D02*
X00371000Y00508000D01*
X00254657Y00420000D02*
X00283000D01*
X00239750Y00405093D02*
X00254657Y00420000D01*
X00239750Y00395407D02*
Y00405093D01*
X00417353Y00227700D02*
X00454022D01*
X00416353Y00228700D02*
X00417353Y00227700D01*
X00409300Y00228700D02*
X00416353D01*
X00408000Y00230000D02*
X00409300Y00228700D01*
X00415700Y00223700D02*
X00416050D01*
X00416984Y00199016D02*
Y00199016D01*
X00407000Y00209000D02*
X00416984Y00199016D01*
X00407000Y00209000D02*
Y00210000D01*
X00136750Y00285250D02*
Y00293250D01*
Y00285250D02*
X00146000Y00276000D01*
X00130250Y00299750D02*
X00136750Y00293250D01*
X00146000Y00260000D02*
Y00276000D01*
X00144000Y00258000D02*
X00146000Y00260000D01*
X00139500Y00258000D02*
X00144000D01*
X00130250Y00299750D02*
Y00301000D01*
X00152000Y00276000D02*
X00157000D01*
X00140750Y00287250D02*
X00152000Y00276000D01*
X00140750Y00287250D02*
Y00301000D01*
X00087000Y00375000D02*
X00092750Y00380750D01*
X00101093D01*
X00105343Y00385000D01*
X00170657D01*
X00194692Y00355308D02*
X00194692D01*
X00169000Y00381000D02*
X00194692Y00355308D01*
X00107000Y00381000D02*
X00169000D01*
X00099000Y00373000D02*
X00107000Y00381000D01*
X00294500Y00138000D02*
X00298000D01*
X00336950Y00123358D02*
Y00128393D01*
X00340950Y00125015D02*
Y00130050D01*
X00336950Y00123358D02*
X00342808Y00117500D01*
X00317000Y00118000D02*
Y00124314D01*
X00313000Y00117000D02*
Y00122657D01*
X00294500Y00145000D02*
X00300485D01*
X00295500Y00152000D02*
X00301485D01*
X00295500D02*
Y00153000D01*
X00313000Y00117000D02*
X00313000Y00117000D01*
X00249000Y00131000D02*
X00251999Y00134000D01*
X00150500Y00131000D02*
X00249000D01*
X00253000Y00125485D02*
X00261515Y00134000D01*
X00253000Y00123000D02*
Y00125485D01*
X00372350Y00131350D02*
Y00131750D01*
X00261515Y00134000D02*
X00263000D01*
X00354000Y00196000D02*
X00359000Y00191000D01*
X00299485Y00162000D02*
X00305000Y00156485D01*
Y00155000D02*
Y00156485D01*
X00294500Y00154000D02*
X00295500Y00153000D01*
X00310000Y00166000D02*
X00316000Y00172000D01*
X00303485Y00166000D02*
X00310000D01*
X00316000Y00172000D02*
X00374000D01*
X00294500Y00162000D02*
X00299485D01*
X00035200Y00139000D02*
X00070000D01*
X00031000Y00134800D02*
X00035200Y00139000D01*
X00518283Y00337000D02*
X00544000D01*
X00515250Y00333968D02*
X00518283Y00337000D01*
X00519250Y00327250D02*
X00520000Y00328000D01*
X00519250Y00314593D02*
Y00327250D01*
X00515250Y00316250D02*
Y00333968D01*
X00316000Y00176000D02*
X00368000D01*
X00311000Y00181000D02*
X00316000Y00176000D01*
X00190000Y00106000D02*
X00193750Y00102250D01*
X00182515Y00106000D02*
X00190000D01*
X00173000Y00115515D02*
X00182515Y00106000D01*
X00173000Y00115515D02*
Y00116000D01*
X00478113Y00196887D02*
X00503045D01*
X00478000Y00197000D02*
X00478113Y00196887D01*
X00294500Y00145000D02*
Y00146000D01*
X00308000Y00174000D02*
X00309000Y00173000D01*
X00306929Y00181000D02*
X00311000D01*
X00304000Y00183929D02*
X00306929Y00181000D01*
X00374000Y00172000D02*
X00385050Y00183050D01*
X00372350Y00180350D02*
Y00186250D01*
X00368000Y00176000D02*
X00372350Y00180350D01*
X00294500Y00178000D02*
X00294500Y00178000D01*
X00294500Y00178000D02*
X00299900D01*
X00385050Y00183050D02*
Y00186250D01*
X00299485Y00170000D02*
X00303485Y00166000D01*
X00296000Y00170000D02*
X00299485D01*
X00359650Y00186250D02*
Y00188579D01*
X00568000Y00291500D02*
Y00305000D01*
X00564000Y00309000D02*
X00568000Y00305000D01*
X00564000Y00309000D02*
Y00316000D01*
X00536000Y00309000D02*
Y00316000D01*
X00536000D02*
X00536250Y00316250D01*
Y00329000D01*
X00564000Y00316000D02*
X00564250Y00316250D01*
Y00330000D01*
X00386750Y00550250D02*
X00387000Y00550000D01*
X00373000Y00550250D02*
X00386750D01*
X00544000Y00337000D02*
X00550000Y00331000D01*
X00496277Y00192000D02*
X00503000D01*
X00565000Y00611000D02*
X00603000D01*
X00602000Y00500000D02*
X00607750Y00494250D01*
X00613500Y00515500D02*
X00614000Y00515000D01*
X00599400Y00515500D02*
X00613500D01*
X00607000Y00624250D02*
Y00640000D01*
X00351500Y00259250D02*
Y00262021D01*
X00364250Y00254000D02*
X00377000D01*
X00356500Y00259250D02*
Y00271500D01*
Y00258750D02*
Y00259250D01*
X00364000Y00342000D02*
X00367000Y00345000D01*
X00365000Y00327000D02*
X00379000D01*
X00359000Y00361000D02*
X00360000Y00360000D01*
X00384071Y00323000D02*
X00387000Y00325929D01*
X00381071Y00323000D02*
X00384071D01*
X00381071Y00323000D02*
X00381071Y00323000D01*
X00376657Y00323000D02*
X00381071D01*
X00376657Y00323000D02*
X00376657Y00323000D01*
X00365000Y00323000D02*
X00376657D01*
X00334657Y00315000D02*
X00335000D01*
X00334657Y00315000D02*
X00334657Y00315000D01*
X00335000D02*
X00335000Y00315000D01*
X00150000Y00110000D02*
X00155000Y00115000D01*
X00113000Y00221171D02*
X00132171Y00202000D01*
X00113000Y00221171D02*
Y00228728D01*
X00132171Y00202000D02*
X00139500D01*
X00109000Y00219515D02*
X00134515Y00194000D01*
X00109000Y00219515D02*
Y00221272D01*
X00134515Y00194000D02*
X00139500D01*
X00107728Y00234000D02*
X00113000Y00228728D01*
X00294500Y00226000D02*
X00295192Y00225308D01*
X00375718Y00534750D02*
X00376717Y00533750D01*
X00374000Y00534750D02*
X00375718D01*
X00088000Y00208000D02*
X00089000Y00207000D01*
X00101000Y00192000D02*
X00111982D01*
X00088000Y00205000D02*
X00101000Y00192000D01*
X00088000Y00205000D02*
Y00206000D01*
X00066000Y00230000D02*
X00106071D01*
X00048000Y00212000D02*
X00066000Y00230000D01*
X00139500Y00202000D02*
X00139500Y00202000D01*
X00109000Y00221272D02*
X00109000Y00221272D01*
X00135000Y00258000D02*
X00136000Y00259000D01*
X00252929Y00356000D02*
X00256500Y00359571D01*
X00252929Y00356000D02*
X00252929D01*
X00173000Y00275500D02*
Y00282000D01*
X00168000Y00286000D02*
X00172000Y00282000D01*
X00168000Y00286000D02*
Y00298071D01*
X00256500Y00359571D02*
Y00362750D01*
X00246000Y00368250D02*
X00247250Y00369500D01*
X00375000Y00533750D02*
X00376717D01*
X00376000Y00534750D02*
X00376000D01*
X00249000Y00311000D02*
X00249000Y00311000D01*
X00245000Y00275500D02*
X00245000Y00275500D01*
X00155000Y00115000D02*
Y00116000D01*
X00193750Y00102250D02*
X00195000D01*
X00165000D02*
Y00115000D01*
X00157000Y00120000D02*
Y00120500D01*
X00209000Y00100000D02*
Y00100000D01*
X00195000Y00086000D02*
X00209000Y00100000D01*
X00195000Y00085750D02*
Y00086000D01*
X00147000Y00099000D02*
Y00100000D01*
X00135000Y00087000D02*
X00147000Y00099000D01*
X00135000Y00086500D02*
Y00087000D01*
X00177000Y00098000D02*
Y00100000D01*
X00165000Y00086000D02*
X00177000Y00098000D01*
X00165000Y00085750D02*
Y00086000D01*
X00155000Y00304000D02*
Y00310000D01*
X00151000Y00314000D02*
X00155000Y00310000D01*
X00277000Y00120500D02*
X00277500Y00120000D01*
X00056448Y00234000D02*
X00107728D01*
X00048403Y00242045D02*
Y00303555D01*
Y00242045D02*
X00056448Y00234000D01*
X00050000Y00305152D02*
Y00332000D01*
X00048403Y00303555D02*
X00050000Y00305152D01*
X00106071Y00230000D02*
X00109000Y00227071D01*
Y00221272D02*
Y00227071D01*
X00102000Y00179000D02*
X00103000Y00180000D01*
X00102000Y00166000D02*
Y00179000D01*
X00088000Y00208000D02*
Y00222000D01*
X00165000Y00115000D02*
Y00120500D01*
X00034000Y00211000D02*
Y00224000D01*
Y00210000D02*
Y00211000D01*
Y00224000D02*
X00034003Y00224003D01*
Y00246602D01*
Y00297402D02*
Y00320000D01*
X00034000D02*
Y00330000D01*
X00374717Y00522250D02*
X00386717D01*
X00111982Y00192000D02*
X00117982Y00186000D01*
X00132000D01*
X00133000Y00187000D01*
D14*
X00302500Y00104250D02*
X00307596D01*
X00412847Y00221250D02*
X00414597Y00219500D01*
X00394000Y00221000D02*
X00394250Y00221250D01*
X00416050Y00223700D02*
X00416125Y00223625D01*
X00414800Y00224950D02*
X00416050Y00223700D01*
X00394250Y00221250D02*
X00412847D01*
X00396861Y00224950D02*
X00414800D01*
X00396811Y00225000D02*
X00396861Y00224950D01*
X00396457Y00225000D02*
X00396811D01*
X00317750Y00107750D02*
X00318000Y00108000D01*
X00311096Y00107750D02*
X00317750D01*
X00307596Y00104250D02*
X00311096Y00107750D01*
X00302500Y00104000D02*
Y00104250D01*
X00608000Y00192500D02*
X00608500Y00193000D01*
D16*
X00508000Y00460500D02*
D03*
X00522000D02*
D03*
X00108250Y00132500D02*
D03*
X00122250D02*
D03*
X00493000Y00450500D02*
D03*
X00479000D02*
D03*
X00347000Y00202000D02*
D03*
X00361000D02*
D03*
X00584000Y00530000D02*
D03*
X00570000D02*
D03*
X00584000Y00487000D02*
D03*
X00570000D02*
D03*
X00523200Y00212951D02*
D03*
X00509200D02*
D03*
X00580000Y00331000D02*
D03*
X00594000D02*
D03*
X00360000Y00351000D02*
D03*
X00346000D02*
D03*
X00284000Y00348000D02*
D03*
X00270000D02*
D03*
X00243000D02*
D03*
X00257000D02*
D03*
X00104000Y00482000D02*
D03*
X00118000D02*
D03*
X00269000Y00103000D02*
D03*
X00255000D02*
D03*
X00356000Y00273000D02*
D03*
X00342000D02*
D03*
X00261000Y00293000D02*
D03*
X00275000D02*
D03*
X00175000D02*
D03*
X00189000D02*
D03*
X00088000Y00222000D02*
D03*
X00102000D02*
D03*
X00102000Y00166000D02*
D03*
X00088000D02*
D03*
X00502000Y00168000D02*
D03*
X00516000D02*
D03*
X00122250Y00146750D02*
D03*
X00108250D02*
D03*
D17*
X00156500Y00070000D02*
D03*
Y00055500D02*
D03*
X00484000Y00493500D02*
D03*
Y00479000D02*
D03*
X00528750Y00478250D02*
D03*
Y00492750D02*
D03*
X00489250Y00182000D02*
D03*
Y00196500D02*
D03*
X00476500D02*
D03*
Y00182000D02*
D03*
X00532000Y00031250D02*
D03*
Y00016750D02*
D03*
X00423000Y00031250D02*
D03*
Y00016750D02*
D03*
X00085750Y00113750D02*
D03*
Y00128250D02*
D03*
X00607000Y00611750D02*
D03*
Y00626250D02*
D03*
X00616750Y00516000D02*
D03*
Y00501500D02*
D03*
X00445250Y00197250D02*
D03*
Y00182750D02*
D03*
X00457750D02*
D03*
Y00197250D02*
D03*
X00170000Y00055500D02*
D03*
Y00070000D02*
D03*
X00372718Y00508000D02*
D03*
Y00522500D02*
D03*
X00373000Y00535750D02*
D03*
Y00550250D02*
D03*
X00261000Y00305750D02*
D03*
Y00320250D02*
D03*
X00274000Y00305750D02*
D03*
Y00320250D02*
D03*
X00180000Y00099250D02*
D03*
Y00084750D02*
D03*
X00150000Y00099250D02*
D03*
Y00084750D02*
D03*
D18*
X00386000Y00075000D02*
D03*
X00414000D02*
D03*
X00572000Y00550000D02*
D03*
X00600000D02*
D03*
X00572000Y00467000D02*
D03*
X00600000D02*
D03*
X00520750Y00076000D02*
D03*
X00492750D02*
D03*
X00627500Y00087250D02*
D03*
X00599500D02*
D03*
X00495200Y00232241D02*
D03*
X00523200D02*
D03*
X00538000Y00585000D02*
D03*
X00566000D02*
D03*
X00221500Y00084000D02*
D03*
X00249500D02*
D03*
X00535295Y00148436D02*
D03*
X00507295D02*
D03*
D19*
X00092000Y00095250D02*
D03*
Y00067250D02*
D03*
X00529000Y00404000D02*
D03*
Y00432000D02*
D03*
X00608000Y00164500D02*
D03*
Y00192500D02*
D03*
D20*
X00432000Y00553000D02*
D03*
Y00563000D02*
D03*
X00171750Y00043000D02*
D03*
Y00033000D02*
D03*
X00324750Y00027750D02*
D03*
Y00037750D02*
D03*
X00436500Y00028250D02*
D03*
Y00018250D02*
D03*
X00544750Y00028250D02*
D03*
Y00018250D02*
D03*
X00387000Y00512000D02*
D03*
Y00522000D02*
D03*
Y00540000D02*
D03*
Y00550000D02*
D03*
X00080000Y00287000D02*
D03*
Y00297000D02*
D03*
X00071750Y00080750D02*
D03*
Y00090750D02*
D03*
X00070000Y00149000D02*
D03*
Y00139000D02*
D03*
D21*
X00513750Y00511000D02*
D03*
X00499250D02*
D03*
X00329250Y00050750D02*
D03*
X00314750D02*
D03*
X00549750Y00330000D02*
D03*
X00564250D02*
D03*
X00521750Y00329000D02*
D03*
X00536250D02*
D03*
X00140750Y00301000D02*
D03*
X00155250D02*
D03*
X00130250D02*
D03*
X00115750D02*
D03*
X00048250Y00333000D02*
D03*
X00033750D02*
D03*
X00048500Y00211000D02*
D03*
X00034000D02*
D03*
X00208500Y00102500D02*
D03*
X00223000D02*
D03*
D22*
X00651000Y00367000D02*
D03*
Y00392000D02*
D03*
Y00417000D02*
D03*
D23*
X00356500Y00259250D02*
D03*
X00351500D02*
D03*
Y00238750D02*
D03*
X00356500D02*
D03*
D24*
X00343750Y00254000D02*
D03*
Y00249000D02*
D03*
Y00244000D02*
D03*
X00364250D02*
D03*
Y00249000D02*
D03*
Y00254000D02*
D03*
X00599400Y00500500D02*
D03*
Y00505500D02*
D03*
Y00510500D02*
D03*
Y00515500D02*
D03*
X00570600Y00500500D02*
D03*
Y00505500D02*
D03*
Y00510500D02*
D03*
Y00515500D02*
D03*
D25*
X00346950Y00131750D02*
D03*
X00359650D02*
D03*
X00372350D02*
D03*
X00385050D02*
D03*
X00346950Y00186250D02*
D03*
X00359650D02*
D03*
X00372350D02*
D03*
X00385050D02*
D03*
D26*
X00537000Y00116000D02*
D03*
X00581000D02*
D03*
D27*
X00317000Y00096625D02*
D03*
X00313000D02*
D03*
X00309000D02*
D03*
X00305000D02*
D03*
Y00115375D02*
D03*
X00309000D02*
D03*
X00313000D02*
D03*
X00317000D02*
D03*
D28*
X00302500Y00104000D02*
D03*
Y00108000D02*
D03*
X00319500D02*
D03*
Y00104000D02*
D03*
D29*
X00561000Y00208000D02*
D03*
Y00175000D02*
D03*
D30*
X00476000Y00406600D02*
D03*
X00481000D02*
D03*
X00486000D02*
D03*
X00491000D02*
D03*
X00496000D02*
D03*
X00476000Y00429400D02*
D03*
X00481000D02*
D03*
X00486000D02*
D03*
X00491000D02*
D03*
X00496000D02*
D03*
D31*
X00486000Y00418000D02*
D03*
D32*
X00513000Y00496000D02*
D03*
X00506500D02*
D03*
X00500000D02*
D03*
Y00475500D02*
D03*
X00513000D02*
D03*
D33*
X00510000Y00426000D02*
D03*
Y00412000D02*
D03*
X00446000Y00549000D02*
D03*
Y00563000D02*
D03*
X00312000Y00202000D02*
D03*
Y00188000D02*
D03*
X00465000Y00411000D02*
D03*
Y00425000D02*
D03*
X00450000Y00411000D02*
D03*
Y00425000D02*
D03*
X00289000Y00096750D02*
D03*
Y00110750D02*
D03*
X00334000Y00113750D02*
D03*
Y00099750D02*
D03*
X00378000Y00253000D02*
D03*
Y00239000D02*
D03*
X00122000Y00226000D02*
D03*
Y00240000D02*
D03*
X00122000Y00161000D02*
D03*
Y00175000D02*
D03*
X00403000Y00411000D02*
D03*
Y00425000D02*
D03*
X00418000Y00411000D02*
D03*
Y00425000D02*
D03*
X00353000Y00437000D02*
D03*
Y00423000D02*
D03*
X00339000Y00437000D02*
D03*
Y00423000D02*
D03*
X00376000Y00316000D02*
D03*
Y00302000D02*
D03*
X00379000Y00330000D02*
D03*
Y00344000D02*
D03*
D34*
X00565000Y00611000D02*
D03*
X00558500D02*
D03*
X00552000D02*
D03*
X00545500D02*
D03*
X00539000D02*
D03*
D35*
X00587000Y00638500D02*
D03*
X00517000D02*
D03*
D36*
X00607150Y00640000D02*
D03*
X00623650D02*
D03*
D37*
X00585000Y00508000D02*
D03*
D38*
X00580000Y00316000D02*
D03*
X00590000D02*
D03*
X00249500Y00068500D02*
D03*
X00239500D02*
D03*
X00361000Y00069000D02*
D03*
X00371000D02*
D03*
X00469000Y00070000D02*
D03*
X00479000D02*
D03*
X00615000D02*
D03*
X00605000D02*
D03*
X00554000Y00316000D02*
D03*
X00564000D02*
D03*
X00526000D02*
D03*
X00536000D02*
D03*
X00141000Y00314000D02*
D03*
X00151000D02*
D03*
X00126000D02*
D03*
X00116000D02*
D03*
X00044000Y00320000D02*
D03*
X00034000D02*
D03*
X00044000Y00224000D02*
D03*
X00034000D02*
D03*
D39*
X00523545Y00181887D02*
D03*
Y00186887D02*
D03*
Y00191887D02*
D03*
Y00196887D02*
D03*
X00503045D02*
D03*
Y00191887D02*
D03*
Y00186887D02*
D03*
Y00181887D02*
D03*
D40*
X00513295Y00189387D02*
D03*
D41*
X00162450Y00465000D02*
D03*
X00149750D02*
D03*
X00137050D02*
D03*
X00124350D02*
D03*
X00111650D02*
D03*
X00098950D02*
D03*
X00086250D02*
D03*
X00073550D02*
D03*
X00162450Y00371000D02*
D03*
X00149750D02*
D03*
X00137050D02*
D03*
X00124350D02*
D03*
X00111650D02*
D03*
X00098950D02*
D03*
X00086250D02*
D03*
X00073550D02*
D03*
D42*
X00260500Y00453865D02*
D03*
D43*
X00264000Y00382000D02*
D03*
D44*
X00271500Y00362750D02*
D03*
X00256500D02*
D03*
Y00401250D02*
D03*
X00271500D02*
D03*
D45*
X00247250Y00369500D02*
D03*
Y00374500D02*
D03*
Y00379500D02*
D03*
Y00384500D02*
D03*
Y00389500D02*
D03*
Y00394500D02*
D03*
X00280750D02*
D03*
Y00389500D02*
D03*
Y00384500D02*
D03*
Y00379500D02*
D03*
Y00374500D02*
D03*
Y00369500D02*
D03*
D46*
X00497200Y00382000D02*
D03*
X00475000D02*
D03*
D47*
X00340000Y00310000D02*
D03*
X00344000D02*
D03*
X00348000D02*
D03*
X00352000D02*
D03*
X00356000D02*
D03*
X00360000D02*
D03*
Y00340000D02*
D03*
X00356000D02*
D03*
X00352000D02*
D03*
X00348000D02*
D03*
X00344000D02*
D03*
X00340000D02*
D03*
D48*
X00365000Y00315000D02*
D03*
Y00319000D02*
D03*
Y00323000D02*
D03*
Y00327000D02*
D03*
Y00331000D02*
D03*
Y00335000D02*
D03*
X00335000D02*
D03*
Y00331000D02*
D03*
Y00327000D02*
D03*
Y00323000D02*
D03*
Y00319000D02*
D03*
Y00315000D02*
D03*
D49*
X00350000Y00325000D02*
D03*
D50*
X00139500Y00138000D02*
D03*
Y00146000D02*
D03*
Y00154000D02*
D03*
Y00162000D02*
D03*
Y00170000D02*
D03*
Y00178000D02*
D03*
Y00186000D02*
D03*
Y00194000D02*
D03*
Y00202000D02*
D03*
Y00210000D02*
D03*
Y00218000D02*
D03*
Y00226000D02*
D03*
Y00234000D02*
D03*
Y00242000D02*
D03*
Y00250000D02*
D03*
Y00258000D02*
D03*
X00294500D02*
D03*
Y00250000D02*
D03*
Y00242000D02*
D03*
Y00234000D02*
D03*
Y00226000D02*
D03*
Y00218000D02*
D03*
Y00210000D02*
D03*
Y00202000D02*
D03*
Y00194000D02*
D03*
Y00186000D02*
D03*
Y00178000D02*
D03*
Y00170000D02*
D03*
Y00162000D02*
D03*
Y00154000D02*
D03*
Y00146000D02*
D03*
Y00138000D02*
D03*
D51*
X00157000Y00275500D02*
D03*
X00165000D02*
D03*
X00173000D02*
D03*
X00181000D02*
D03*
X00189000D02*
D03*
X00197000D02*
D03*
X00205000D02*
D03*
X00213000D02*
D03*
X00221000D02*
D03*
X00229000D02*
D03*
X00237000D02*
D03*
X00245000D02*
D03*
X00253000D02*
D03*
X00261000D02*
D03*
X00269000D02*
D03*
X00277000D02*
D03*
Y00120500D02*
D03*
X00269000D02*
D03*
X00261000D02*
D03*
X00253000D02*
D03*
X00245000D02*
D03*
X00237000D02*
D03*
X00229000D02*
D03*
X00221000D02*
D03*
X00213000D02*
D03*
X00205000D02*
D03*
X00197000D02*
D03*
X00189000D02*
D03*
X00181000D02*
D03*
X00173000D02*
D03*
X00165000D02*
D03*
X00157000D02*
D03*
D52*
X00106000Y00206000D02*
D03*
Y00182000D02*
D03*
X00088000D02*
D03*
Y00206000D02*
D03*
D53*
X00195000Y00085750D02*
D03*
Y00102250D02*
D03*
X00165000Y00085750D02*
D03*
Y00102250D02*
D03*
X00135000Y00086500D02*
D03*
Y00103000D02*
D03*
D54*
X00368500Y00436000D02*
D03*
X00387500D02*
D03*
Y00412000D02*
D03*
X00378000D02*
D03*
X00368500D02*
D03*
D94*
X00657000Y00163000D02*
D03*
D96*
Y00193000D02*
D03*
D98*
X00408000Y00523900D02*
D03*
Y00549300D02*
D03*
Y00574700D02*
D03*
X00406000Y00210300D02*
D03*
X00031000Y00134800D02*
D03*
Y00109400D02*
D03*
X00566600Y00031000D02*
D03*
X00592000D02*
D03*
X00458600D02*
D03*
X00484000D02*
D03*
X00350000D02*
D03*
X00375400D02*
D03*
X00574100Y00284000D02*
D03*
X00548700D02*
D03*
X00523300D02*
D03*
X00220000Y00033000D02*
D03*
X00194600D02*
D03*
X00059403Y00297402D02*
D03*
Y00272001D02*
D03*
Y00246602D02*
D03*
X00034003D02*
D03*
Y00272001D02*
D03*
X00097600Y00338000D02*
D03*
X00123000D02*
D03*
D104*
X00460000Y00451544D02*
X00472523Y00439021D01*
Y00438771D02*
Y00439021D01*
X00495250Y00361750D02*
X00503250Y00353750D01*
X00345000Y00202000D02*
X00346000Y00201000D01*
X00261000Y00306000D02*
X00284000D01*
X00261000Y00292000D02*
Y00305750D01*
X00098950Y00475950D02*
X00105000Y00482000D01*
X00098950Y00458950D02*
Y00475950D01*
X00080000Y00297402D02*
X00080401D01*
X00249500Y00035750D02*
Y00084000D01*
X00066300Y00426300D02*
X00093000Y00453000D01*
X00066300Y00316950D02*
Y00426300D01*
X00380000Y00255000D02*
Y00287000D01*
X00378000Y00253000D02*
X00380000Y00255000D01*
X00460000Y00451544D02*
Y00550750D01*
X00448000Y00562750D02*
X00460000Y00550750D01*
X00531750Y00032000D02*
X00532250Y00031500D01*
X00031000Y00108000D02*
X00032400Y00109400D01*
X00376000Y00030400D02*
Y00031000D01*
X00066300Y00316950D02*
X00080000Y00303250D01*
X00247500Y00033750D02*
X00249500Y00035750D01*
X00269000Y00102558D02*
Y00103000D01*
Y00102500D02*
Y00102558D01*
X00274750Y00096750D02*
X00289000D01*
X00269000Y00102500D02*
X00274750Y00096750D01*
X00252250Y00089000D02*
X00255442D01*
X00269000Y00102558D01*
X00429750Y00361750D02*
X00495250D01*
X00461250Y00363000D02*
X00461500Y00362750D01*
X00461250Y00363000D02*
Y00398750D01*
X00531750Y00032000D02*
Y00039750D01*
X00423250Y00031750D02*
Y00039500D01*
X00421750Y00032000D02*
X00422250Y00031500D01*
X00532250Y00032750D02*
X00532750Y00032250D01*
X00330000Y00050250D02*
X00338250D01*
X00059805Y00297000D02*
X00080000D01*
X00059403Y00297402D02*
X00059805Y00297000D01*
X00254750Y00335500D02*
X00273500D01*
X00284000Y00325000D01*
X00080000Y00297402D02*
Y00303250D01*
Y00297000D02*
X00092000D01*
X00080401Y00297402D02*
X00080500Y00297500D01*
X00411500Y00343500D02*
X00429750Y00361750D01*
X00411500Y00312500D02*
Y00343500D01*
X00387000Y00288000D02*
X00411500Y00312500D01*
X00579875Y00332125D02*
X00580000Y00332000D01*
X00569250Y00342500D02*
X00579750Y00332000D01*
X00522500Y00342500D02*
X00569250D01*
X00520000Y00345000D02*
X00522500Y00342500D01*
X00502500Y00354500D02*
X00503000Y00354000D01*
X00580000Y00303000D02*
X00598500Y00284500D01*
X00580000Y00303000D02*
Y00316000D01*
X00284000Y00306000D02*
Y00325000D01*
X00181000Y00278000D02*
Y00285250D01*
X00175000Y00291250D02*
X00181000Y00285250D01*
X00175000Y00291250D02*
Y00293000D01*
X00312000Y00202000D02*
X00330313D01*
X00312000Y00202000D02*
X00312000Y00202000D01*
X00330313Y00202000D02*
X00345000D01*
X00330313Y00202000D02*
X00330313Y00202000D01*
X00432000Y00563000D02*
X00445000D01*
X00432000D02*
Y00576100D01*
X00408000Y00600100D02*
X00432000Y00576100D01*
X00092000Y00452000D02*
X00098950Y00458950D01*
X00031000Y00109400D02*
X00032400D01*
X00484000Y00029000D02*
Y00031000D01*
X00245400Y00033000D02*
X00246000D01*
X00347000Y00188000D02*
X00347000Y00188000D01*
Y00202000D01*
X00580000Y00316000D02*
Y00331000D01*
X00356000Y00288000D02*
X00387000D01*
X00314000D02*
X00356000D01*
Y00273000D02*
Y00288000D01*
X00356000Y00273000D02*
X00356000Y00273000D01*
X00296000Y00306000D02*
X00314000Y00288000D01*
X00284000Y00306000D02*
X00296000D01*
X00119000Y00270000D02*
X00137000D01*
X00092000Y00297000D02*
X00119000Y00270000D01*
X00261000Y00278500D02*
Y00293000D01*
X00387000Y00411000D02*
X00388000Y00410000D01*
X00387000Y00411000D02*
Y00411500D01*
X00387500Y00412000D01*
X00403000Y00411000D02*
X00403000Y00411000D01*
X00122000Y00226000D02*
X00138000D01*
X00123000Y00162000D02*
X00138000D01*
X00122000Y00161000D02*
X00123000Y00162000D01*
X00269000Y00103000D02*
X00269000Y00103000D01*
X00269000Y00103000D02*
Y00120500D01*
X00310000Y00202000D02*
X00310000Y00202000D01*
X00294500Y00202000D02*
X00310000D01*
X00261000Y00278500D02*
X00261500Y00278000D01*
D105*
X00447250Y00196750D02*
Y00203250D01*
X00491000Y00247000D01*
X00473479Y00438521D02*
X00476000Y00436000D01*
X00486000Y00429400D02*
Y00442250D01*
X00479500Y00448750D02*
X00486000Y00442250D01*
X00479500Y00448750D02*
Y00450250D01*
X00476000Y00429400D02*
Y00436000D01*
Y00427400D02*
Y00429400D01*
X00491000Y00247000D02*
X00518000D01*
D106*
X00304357Y00395000D02*
X00322607Y00376750D01*
X00292000Y00395000D02*
X00304357D01*
X00282000Y00350500D02*
Y00363000D01*
Y00369250D01*
X00354750Y00377000D02*
Y00378000D01*
Y00377000D02*
X00355017Y00376733D01*
X00354750Y00377751D02*
Y00378000D01*
X00353749Y00376750D02*
X00354750Y00377751D01*
X00355017Y00376733D02*
X00355250Y00376500D01*
X00339000Y00437000D02*
X00368250D01*
X00322607Y00376750D02*
X00353749D01*
X00392000Y00323858D02*
Y00350321D01*
X00381571Y00360750D02*
X00392000Y00350321D01*
X00381571Y00360750D02*
Y00360750D01*
X00365821Y00376500D02*
X00381571Y00360750D01*
X00355250Y00376500D02*
X00365821D01*
X00368250Y00437000D02*
X00368750Y00437500D01*
X00359000Y00352500D02*
X00359750Y00351750D01*
X00359000Y00352500D02*
Y00361000D01*
X00376250Y00318000D02*
X00386142D01*
X00392000Y00323858D01*
X00330000Y00378250D02*
Y00428000D01*
X00291000Y00396000D02*
X00292000Y00395000D01*
X00290250Y00396000D02*
X00291000D01*
X00285000Y00401250D02*
X00290250Y00396000D01*
X00271500Y00401250D02*
X00285000D01*
X00282000Y00350500D02*
X00282750Y00349750D01*
X00572000Y00548000D02*
Y00550000D01*
X00565000Y00586000D02*
X00566000Y00585000D01*
X00330000Y00428000D02*
X00339000Y00437000D01*
D107*
X00491000Y00382000D02*
X00491000Y00398000D01*
X00481000Y00382000D02*
X00481000Y00398000D01*
X00481000Y00371750D02*
Y00382000D01*
X00491000Y00372000D02*
X00491000Y00382000D01*
D108*
Y00399000D02*
X00491000Y00399000D01*
X00491000Y00399000D02*
Y00406600D01*
X00481000Y00399000D02*
Y00406100D01*
D109*
X00523432Y00178500D02*
X00536000D01*
X00523200Y00230241D02*
Y00232241D01*
D110*
X00536000Y00175000D02*
X00561000D01*
X00578000D01*
D111*
X00408000Y00600100D02*
D03*
X00406000Y00235700D02*
D03*
X00031000Y00084000D02*
D03*
X00034003Y00297402D02*
D03*
D112*
X00617400Y00031000D02*
D03*
X00509400D02*
D03*
X00400800D02*
D03*
X00599500Y00284000D02*
D03*
X00245400Y00033000D02*
D03*
X00148400Y00338000D02*
D03*
D113*
X00457900Y00604000D02*
D03*
X00664900D02*
D03*
X00663900Y00294000D02*
D03*
X00457900D02*
D03*
X00035232Y00611000D02*
D03*
X00665000Y00035000D02*
D03*
X00035000D02*
D03*
D114*
X00471000Y00134000D02*
D03*
X00436000D02*
D03*
D115*
X00472523Y00438771D02*
D03*
X00461250Y00398750D02*
D03*
X00520000Y00345000D02*
D03*
X00503000Y00354000D02*
D03*
D116*
X00439250Y00383250D02*
D03*
X00486250Y00340500D02*
D03*
X00396500Y00511250D02*
D03*
X00387750Y00503250D02*
D03*
X00396500Y00536500D02*
D03*
X00387250Y00531500D02*
D03*
X00294692Y00328750D02*
D03*
X00325250Y00162500D02*
D03*
X00156500Y00046500D02*
D03*
X00098000Y00132902D02*
D03*
X00276250Y00044830D02*
D03*
X00277000Y00081000D02*
D03*
X00475303Y00471750D02*
D03*
X00509000Y00450000D02*
D03*
X00309250Y00324000D02*
D03*
X00321500Y00336750D02*
D03*
X00232750Y00101500D02*
D03*
X00234250Y00076000D02*
D03*
X00223750Y00069250D02*
D03*
X00209500Y00071750D02*
D03*
X00208750Y00084250D02*
D03*
X00164500Y00036500D02*
D03*
X00357500Y00062500D02*
D03*
X00627000Y00071500D02*
D03*
X00639750Y00087250D02*
D03*
X00627250Y00101750D02*
D03*
X00615000Y00082000D02*
D03*
Y00092750D02*
D03*
X00534250Y00067000D02*
D03*
X00520500Y00061000D02*
D03*
X00508000Y00067250D02*
D03*
X00462500Y00066250D02*
D03*
X00437250Y00060000D02*
D03*
X00426250Y00067500D02*
D03*
X00413250Y00060500D02*
D03*
X00401500Y00068000D02*
D03*
X00069000Y00060500D02*
D03*
X00122750D02*
D03*
Y00070750D02*
D03*
X00069000Y00072000D02*
D03*
X00064500Y00080750D02*
D03*
X00070000Y00157500D02*
D03*
X00061750Y00149000D02*
D03*
X00458500Y00436500D02*
D03*
X00531750Y00039750D02*
D03*
X00423250Y00039500D02*
D03*
X00111250Y00081500D02*
D03*
X00102000Y00081250D02*
D03*
X00092500D02*
D03*
X00082500D02*
D03*
X00352000Y00077000D02*
D03*
Y00086000D02*
D03*
X00179750Y00076000D02*
D03*
X00338250Y00050250D02*
D03*
X00343000Y00077000D02*
D03*
Y00086000D02*
D03*
X00334000Y00077000D02*
D03*
Y00086000D02*
D03*
X00325000Y00077000D02*
D03*
Y00086000D02*
D03*
X00203500Y00348250D02*
D03*
X00254750Y00335500D02*
D03*
X00241262Y00323266D02*
D03*
X00241250Y00332500D02*
D03*
X00209260Y00356017D02*
D03*
X00291250Y00378000D02*
D03*
X00282000Y00363000D02*
D03*
X00230011Y00295764D02*
D03*
X00226011Y00287014D02*
D03*
X00198750Y00292000D02*
D03*
X00491250Y00461125D02*
D03*
X00506500Y00487000D02*
D03*
X00497750Y00439000D02*
D03*
X00588750Y00505000D02*
D03*
X00581250Y00511000D02*
D03*
X00513250Y00186250D02*
D03*
Y00192500D02*
D03*
X00246000Y00362000D02*
D03*
X00241000Y00305500D02*
D03*
X00491000Y00417750D02*
D03*
X00481000Y00418000D02*
D03*
X00521250Y00638000D02*
D03*
X00511500D02*
D03*
X00582500Y00638250D02*
D03*
X00592250Y00638000D02*
D03*
X00264000Y00401750D02*
D03*
X00446250Y00539250D02*
D03*
X00431750Y00544750D02*
D03*
X00424250Y00553750D02*
D03*
X00538250Y00598750D02*
D03*
X00525750Y00586000D02*
D03*
X00537500Y00571000D02*
D03*
X00608500Y00506250D02*
D03*
X00588000Y00550750D02*
D03*
X00600250Y00564500D02*
D03*
X00612000Y00549500D02*
D03*
X00593000Y00530250D02*
D03*
X00597000Y00485250D02*
D03*
X00613250Y00466000D02*
D03*
X00599250Y00451250D02*
D03*
X00598000Y00320250D02*
D03*
X00593250Y00340000D02*
D03*
X00590000Y00309500D02*
D03*
X00553250Y00309000D02*
D03*
X00546500Y00316250D02*
D03*
X00525750Y00308500D02*
D03*
X00534250Y00444000D02*
D03*
X00523000D02*
D03*
X00509750Y00435250D02*
D03*
X00494250Y00486000D02*
D03*
X00449000Y00434000D02*
D03*
X00439750Y00426250D02*
D03*
X00233500Y00454500D02*
D03*
X00259750Y00434250D02*
D03*
X00288250Y00452000D02*
D03*
X00261000Y00473000D02*
D03*
X00434500Y00210250D02*
D03*
X00041500Y00344500D02*
D03*
X00395250Y00131250D02*
D03*
X00385500Y00145250D02*
D03*
X00372250Y00202500D02*
D03*
X00501000Y00206500D02*
D03*
X00482750Y00227500D02*
D03*
X00495000Y00218000D02*
D03*
X00507750Y00232000D02*
D03*
X00462000Y00206500D02*
D03*
X00548000Y00153500D02*
D03*
X00548250Y00143250D02*
D03*
X00524750Y00162000D02*
D03*
X00523500Y00148750D02*
D03*
X00601250Y00152250D02*
D03*
X00613250Y00152000D02*
D03*
X00594000Y00164500D02*
D03*
X00599500Y00109250D02*
D03*
X00599000Y00120250D02*
D03*
X00586000Y00132250D02*
D03*
X00575000Y00132500D02*
D03*
X00087000Y00156500D02*
D03*
X00133500Y00311500D02*
D03*
X00133250Y00320250D02*
D03*
X00111750Y00452000D02*
D03*
X00602750Y00331250D02*
D03*
X00468000Y00176500D02*
D03*
X00327250Y00122250D02*
D03*
X00315515Y00144507D02*
D03*
X00315500Y00135500D02*
D03*
X00311999Y00158000D02*
D03*
X00354750Y00378000D02*
D03*
X00373500Y00352500D02*
D03*
X00315750Y00373000D02*
D03*
X00291000Y00396000D02*
D03*
X00199500Y00314250D02*
D03*
X00191009Y00307515D02*
D03*
X00321000Y00232000D02*
D03*
Y00210000D02*
D03*
X00264000Y00357000D02*
D03*
X00251999Y00134000D02*
D03*
X00280000Y00105750D02*
D03*
X00263000Y00134000D02*
D03*
X00146750Y00076500D02*
D03*
X00133250Y00120750D02*
D03*
X00361000Y00212000D02*
D03*
X00509000Y00393000D02*
D03*
X00656000Y00417000D02*
D03*
X00645000D02*
D03*
X00543750Y00460250D02*
D03*
X00586000Y00453000D02*
D03*
X00322250Y00187500D02*
D03*
X00308000Y00174000D02*
D03*
X00418999Y00433999D02*
D03*
X00367000Y00297000D02*
D03*
X00359000Y00361000D02*
D03*
X00350000Y00321000D02*
D03*
Y00329000D02*
D03*
X00368500Y00269500D02*
D03*
X00316000Y00354000D02*
D03*
X00410000Y00434000D02*
D03*
X00400000D02*
D03*
X00382000Y00424000D02*
D03*
X00373000D02*
D03*
X00357000Y00413000D02*
D03*
X00348000D02*
D03*
X00339000D02*
D03*
X00337000Y00351000D02*
D03*
X00345000Y00361000D02*
D03*
X00385000Y00309000D02*
D03*
X00367000Y00308000D02*
D03*
X00388000Y00241000D02*
D03*
X00367000Y00237000D02*
D03*
X00336000Y00257000D02*
D03*
X00335000Y00280000D02*
D03*
X00333000Y00272000D02*
D03*
X00285000Y00288000D02*
D03*
Y00297000D02*
D03*
X00257000Y00412000D02*
D03*
X00125000Y00359000D02*
D03*
X00128250Y00481750D02*
D03*
X00042000Y00313000D02*
D03*
X00080000Y00279000D02*
D03*
X00072000Y00286000D02*
D03*
X00112000Y00242000D02*
D03*
X00122000Y00249000D02*
D03*
X00043000Y00231000D02*
D03*
X00051000Y00226000D02*
D03*
X00117000Y00199000D02*
D03*
X00077000Y00187000D02*
D03*
X00076750Y00177250D02*
D03*
X00077500Y00166250D02*
D03*
X00112500Y00169000D02*
D03*
X00097750Y00147000D02*
D03*
X00246500Y00102750D02*
D03*
D117*
X00258500Y00387500D02*
D03*
Y00376500D02*
D03*
X00269500D02*
D03*
Y00387500D02*
D03*
D118*
X00137000Y00270000D02*
D03*
X00155000Y00260000D02*
D03*
M02*
