G04*
G04 #@! TF.GenerationSoftware,Altium Limited,Altium Designer,18.1.7 (191)*
G04*
G04 Layer_Color=16711935*
%FSAX44Y44*%
%MOMM*%
G71*
G01*
G75*
%ADD92C,1.7000*%
%ADD93R,1.7000X1.7000*%
%ADD94R,1.7000X1.7000*%
%ADD95C,6.1000*%
%ADD96C,1.6000*%
%ADD97R,1.8000X1.8000*%
%ADD98C,1.8000*%
%ADD99C,0.1000*%
%ADD100C,1.2000*%
%ADD101C,0.8000*%
%ADD102C,0.6000*%
D92*
X00031000Y00134800D02*
D03*
Y00109400D02*
D03*
X00566600Y00031000D02*
D03*
X00592000D02*
D03*
X00458600D02*
D03*
X00484000D02*
D03*
X00350000D02*
D03*
X00375400D02*
D03*
X00567800Y00291000D02*
D03*
X00542400D02*
D03*
X00517000D02*
D03*
X00231999Y00031270D02*
D03*
X00206599D02*
D03*
X00059403Y00297402D02*
D03*
Y00272001D02*
D03*
Y00246602D02*
D03*
X00034003D02*
D03*
Y00272001D02*
D03*
X00105200Y00354000D02*
D03*
X00130600D02*
D03*
X00373998Y00199398D02*
D03*
Y00173998D02*
D03*
D93*
X00031000Y00084000D02*
D03*
X00034003Y00297402D02*
D03*
X00373998Y00148598D02*
D03*
D94*
X00617400Y00031000D02*
D03*
X00509400D02*
D03*
X00400800D02*
D03*
X00593200Y00291000D02*
D03*
X00257399Y00031270D02*
D03*
X00156000Y00354000D02*
D03*
D95*
X00451600Y00611000D02*
D03*
X00658600D02*
D03*
X00657600Y00301000D02*
D03*
X00451600D02*
D03*
X00035232Y00611000D02*
D03*
X00665000Y00035000D02*
D03*
X00035000D02*
D03*
D96*
X00521000Y00163000D02*
D03*
X00556000D02*
D03*
D97*
X00656000Y00205000D02*
D03*
D98*
Y00175000D02*
D03*
D99*
X00626000Y00165600D02*
D03*
X00686000D02*
D03*
D100*
X00467000Y00215000D02*
D03*
X00494000Y00396000D02*
D03*
X00488000Y00113000D02*
D03*
D101*
X00656000Y00526000D02*
D03*
X00643000D02*
D03*
X00350000Y00321000D02*
D03*
Y00329000D02*
D03*
X00686000Y00351000D02*
D03*
Y00361000D02*
D03*
Y00421000D02*
D03*
Y00431000D02*
D03*
D102*
X00258500Y00387500D02*
D03*
Y00376500D02*
D03*
X00269500D02*
D03*
Y00387500D02*
D03*
M02*
