G04*
G04 #@! TF.GenerationSoftware,Altium Limited,Altium Designer,18.1.7 (191)*
G04*
G04 Layer_Color=16711935*
%FSAX44Y44*%
%MOMM*%
G71*
G01*
G75*
%ADD94C,1.7000*%
%ADD95R,1.7000X1.7000*%
%ADD96R,1.7000X1.7000*%
%ADD97C,6.1000*%
%ADD98C,1.6000*%
%ADD99R,1.8000X1.8000*%
%ADD100C,1.8000*%
%ADD101C,0.1000*%
%ADD102C,0.8000*%
%ADD103C,0.6000*%
D94*
X00408000Y00523900D02*
D03*
Y00549300D02*
D03*
Y00574700D02*
D03*
X00406000Y00210300D02*
D03*
X00031000Y00134800D02*
D03*
Y00109400D02*
D03*
X00566600Y00031000D02*
D03*
X00592000D02*
D03*
X00458600D02*
D03*
X00484000D02*
D03*
X00350000D02*
D03*
X00375400D02*
D03*
X00574100Y00284000D02*
D03*
X00548700D02*
D03*
X00523300D02*
D03*
X00220000Y00033000D02*
D03*
X00194600D02*
D03*
X00059403Y00297402D02*
D03*
Y00272001D02*
D03*
Y00246602D02*
D03*
X00034003D02*
D03*
Y00272001D02*
D03*
X00097600Y00338000D02*
D03*
X00123000D02*
D03*
D95*
X00408000Y00600100D02*
D03*
X00406000Y00235700D02*
D03*
X00031000Y00084000D02*
D03*
X00034003Y00297402D02*
D03*
D96*
X00617400Y00031000D02*
D03*
X00509400D02*
D03*
X00400800D02*
D03*
X00599500Y00284000D02*
D03*
X00245400Y00033000D02*
D03*
X00148400Y00338000D02*
D03*
D97*
X00457900Y00604000D02*
D03*
X00664900D02*
D03*
X00663900Y00294000D02*
D03*
X00457900D02*
D03*
X00035232Y00611000D02*
D03*
X00665000Y00035000D02*
D03*
X00035000D02*
D03*
D98*
X00471000Y00134000D02*
D03*
X00436000D02*
D03*
D99*
X00657000Y00193000D02*
D03*
D100*
Y00163000D02*
D03*
D101*
X00627000Y00153600D02*
D03*
X00687000D02*
D03*
D102*
X00588750Y00505000D02*
D03*
X00581250Y00511000D02*
D03*
X00513250Y00186250D02*
D03*
Y00192500D02*
D03*
X00491000Y00417750D02*
D03*
X00481000Y00418000D02*
D03*
X00521250Y00638000D02*
D03*
X00511500D02*
D03*
X00582500Y00638250D02*
D03*
X00592250Y00638000D02*
D03*
X00656000Y00417000D02*
D03*
X00645000D02*
D03*
X00350000Y00321000D02*
D03*
Y00329000D02*
D03*
D103*
X00258500Y00387500D02*
D03*
Y00376500D02*
D03*
X00269500D02*
D03*
Y00387500D02*
D03*
M02*
