G04*
G04 #@! TF.GenerationSoftware,Altium Limited,Altium Designer,18.1.7 (191)*
G04*
G04 Layer_Color=32896*
%FSAX44Y44*%
%MOMM*%
G71*
G01*
G75*
%ADD15C,0.1500*%
D15*
X00059332Y00076336D02*
X00057999Y00075003D01*
X00055333D01*
X00054000Y00076336D01*
Y00081667D01*
X00055333Y00083000D01*
X00057999D01*
X00059332Y00081667D01*
Y00079001D01*
X00056666D01*
X00061997Y00083000D02*
Y00075003D01*
X00067329Y00083000D01*
Y00075003D01*
X00069995D02*
Y00083000D01*
X00073994D01*
X00075326Y00081667D01*
Y00076336D01*
X00073994Y00075003D01*
X00069995D01*
X00058332Y00100003D02*
X00053000D01*
Y00104001D01*
X00055666Y00102668D01*
X00056999D01*
X00058332Y00104001D01*
Y00106667D01*
X00056999Y00108000D01*
X00054333D01*
X00053000Y00106667D01*
X00060997Y00100003D02*
Y00105334D01*
X00063663Y00108000D01*
X00066329Y00105334D01*
Y00100003D01*
X00053000Y00133000D02*
Y00125003D01*
X00056999D01*
X00058332Y00126335D01*
Y00129001D01*
X00056999Y00130334D01*
X00053000D01*
X00060997Y00125003D02*
Y00133000D01*
X00063663Y00130334D01*
X00066329Y00133000D01*
Y00125003D01*
X00068995Y00133000D02*
Y00125003D01*
X00071661Y00127668D01*
X00074326Y00125003D01*
Y00133000D01*
X00348000Y00046000D02*
X00355997D01*
Y00049999D01*
X00354664Y00051332D01*
X00351999D01*
X00350666Y00049999D01*
Y00046000D01*
X00355997Y00053997D02*
X00348000D01*
X00350666Y00056663D01*
X00348000Y00059329D01*
X00355997D01*
X00348000Y00061995D02*
X00355997D01*
X00353332Y00064661D01*
X00355997Y00067326D01*
X00348000D01*
X00380997Y00051332D02*
Y00046000D01*
X00376999D01*
X00378332Y00048666D01*
Y00049999D01*
X00376999Y00051332D01*
X00374333D01*
X00373000Y00049999D01*
Y00047333D01*
X00374333Y00046000D01*
X00380997Y00053997D02*
X00375666D01*
X00373000Y00056663D01*
X00375666Y00059329D01*
X00380997D01*
X00404664Y00052332D02*
X00405997Y00050999D01*
Y00048333D01*
X00404664Y00047000D01*
X00399333D01*
X00398000Y00048333D01*
Y00050999D01*
X00399333Y00052332D01*
X00401999D01*
Y00049666D01*
X00398000Y00054997D02*
X00405997D01*
X00398000Y00060329D01*
X00405997D01*
Y00062995D02*
X00398000D01*
Y00066994D01*
X00399333Y00068327D01*
X00404664D01*
X00405997Y00066994D01*
Y00062995D01*
X00456000Y00047000D02*
X00463997D01*
Y00050999D01*
X00462664Y00052332D01*
X00459999D01*
X00458666Y00050999D01*
Y00047000D01*
X00463997Y00054998D02*
X00456000D01*
X00458666Y00057663D01*
X00456000Y00060329D01*
X00463997D01*
X00456000Y00062995D02*
X00463997D01*
X00461332Y00065661D01*
X00463997Y00068327D01*
X00456000D01*
X00488997Y00052332D02*
Y00047000D01*
X00484999D01*
X00486332Y00049666D01*
Y00050999D01*
X00484999Y00052332D01*
X00482333D01*
X00481000Y00050999D01*
Y00048333D01*
X00482333Y00047000D01*
X00488997Y00054998D02*
X00483666D01*
X00481000Y00057663D01*
X00483666Y00060329D01*
X00488997D01*
X00512664Y00053332D02*
X00513997Y00051999D01*
Y00049333D01*
X00512664Y00048000D01*
X00507333D01*
X00506000Y00049333D01*
Y00051999D01*
X00507333Y00053332D01*
X00509999D01*
Y00050666D01*
X00506000Y00055998D02*
X00513997D01*
X00506000Y00061329D01*
X00513997D01*
Y00063995D02*
X00506000D01*
Y00067994D01*
X00507333Y00069327D01*
X00512664D01*
X00513997Y00067994D01*
Y00063995D01*
X00619664Y00053332D02*
X00620997Y00051999D01*
Y00049333D01*
X00619664Y00048000D01*
X00614333D01*
X00613000Y00049333D01*
Y00051999D01*
X00614333Y00053332D01*
X00616999D01*
Y00050666D01*
X00613000Y00055997D02*
X00620997D01*
X00613000Y00061329D01*
X00620997D01*
Y00063995D02*
X00613000D01*
Y00067994D01*
X00614333Y00069327D01*
X00619664D01*
X00620997Y00067994D01*
Y00063995D01*
X00595997Y00053332D02*
Y00048000D01*
X00591999D01*
X00593332Y00050666D01*
Y00051999D01*
X00591999Y00053332D01*
X00589333D01*
X00588000Y00051999D01*
Y00049333D01*
X00589333Y00048000D01*
X00595997Y00055997D02*
X00590666D01*
X00588000Y00058663D01*
X00590666Y00061329D01*
X00595997D01*
X00563000Y00048000D02*
X00570997D01*
Y00051999D01*
X00569664Y00053332D01*
X00566999D01*
X00565666Y00051999D01*
Y00048000D01*
X00570997Y00055997D02*
X00563000D01*
X00565666Y00058663D01*
X00563000Y00061329D01*
X00570997D01*
X00563000Y00063995D02*
X00570997D01*
X00568332Y00066661D01*
X00570997Y00069327D01*
X00563000D01*
M02*
