G04*
G04 #@! TF.GenerationSoftware,Altium Limited,Altium Designer,18.1.7 (191)*
G04*
G04 Layer_Physical_Order=2*
G04 Layer_Color=16711680*
%FSAX44Y44*%
%MOMM*%
G71*
G01*
G75*
%ADD12C,0.2000*%
%ADD90C,1.7000*%
%ADD92R,1.7000X1.7000*%
%ADD94C,1.6000*%
%ADD100C,0.5000*%
%ADD101C,0.7000*%
%ADD105R,1.6000X1.6000*%
%ADD106R,1.6000X1.6000*%
%ADD107C,6.0000*%
%ADD108C,1.5000*%
%ADD109C,0.7000*%
%ADD110C,1.1000*%
%ADD111C,0.5000*%
G36*
X00694941Y00005059D02*
X00005059D01*
X00005059Y00644941D01*
X00694941D01*
X00694941Y00005059D01*
D02*
G37*
%LPC*%
G36*
X00658600Y00643099D02*
X00653579Y00642704D01*
X00648681Y00641528D01*
X00644027Y00639600D01*
X00639733Y00636969D01*
X00635903Y00633697D01*
X00632631Y00629867D01*
X00630000Y00625573D01*
X00628072Y00620919D01*
X00626896Y00616021D01*
X00626501Y00611000D01*
X00626896Y00605979D01*
X00628072Y00601081D01*
X00630000Y00596427D01*
X00632631Y00592133D01*
X00635903Y00588303D01*
X00639733Y00585031D01*
X00644027Y00582400D01*
X00648681Y00580472D01*
X00653579Y00579296D01*
X00658600Y00578901D01*
X00663621Y00579296D01*
X00668519Y00580472D01*
X00673173Y00582400D01*
X00677467Y00585031D01*
X00681297Y00588303D01*
X00684569Y00592133D01*
X00687200Y00596427D01*
X00689128Y00601081D01*
X00690304Y00605979D01*
X00690699Y00611000D01*
X00690304Y00616021D01*
X00689128Y00620919D01*
X00687200Y00625573D01*
X00684569Y00629867D01*
X00681297Y00633697D01*
X00677467Y00636969D01*
X00673173Y00639600D01*
X00668519Y00641528D01*
X00663621Y00642704D01*
X00658600Y00643099D01*
D02*
G37*
G36*
X00451600D02*
X00446579Y00642704D01*
X00441681Y00641528D01*
X00437027Y00639600D01*
X00432733Y00636969D01*
X00428903Y00633697D01*
X00425631Y00629867D01*
X00423000Y00625573D01*
X00421072Y00620919D01*
X00419896Y00616021D01*
X00419501Y00611000D01*
X00419896Y00605979D01*
X00421072Y00601081D01*
X00423000Y00596427D01*
X00425631Y00592133D01*
X00428903Y00588303D01*
X00432733Y00585031D01*
X00437027Y00582400D01*
X00441681Y00580472D01*
X00446579Y00579296D01*
X00451600Y00578901D01*
X00456621Y00579296D01*
X00461519Y00580472D01*
X00466173Y00582400D01*
X00470467Y00585031D01*
X00474297Y00588303D01*
X00477569Y00592133D01*
X00480200Y00596427D01*
X00482128Y00601081D01*
X00483304Y00605979D01*
X00483699Y00611000D01*
X00483304Y00616021D01*
X00482128Y00620919D01*
X00480200Y00625573D01*
X00477569Y00629867D01*
X00474297Y00633697D01*
X00470467Y00636969D01*
X00466173Y00639600D01*
X00461519Y00641528D01*
X00456621Y00642704D01*
X00451600Y00643099D01*
D02*
G37*
G36*
X00680000Y00541556D02*
X00678303Y00541333D01*
X00676722Y00540678D01*
X00675364Y00539636D01*
X00674322Y00538278D01*
X00673667Y00536697D01*
X00673444Y00535000D01*
X00673667Y00533303D01*
X00674322Y00531722D01*
X00675364Y00530364D01*
X00676722Y00529322D01*
X00678303Y00528667D01*
X00680000Y00528444D01*
X00681697Y00528667D01*
X00683278Y00529322D01*
X00684636Y00530364D01*
X00685678Y00531722D01*
X00686333Y00533303D01*
X00686556Y00535000D01*
X00686333Y00536697D01*
X00685678Y00538278D01*
X00684636Y00539636D01*
X00683278Y00540678D01*
X00681697Y00541333D01*
X00680000Y00541556D01*
D02*
G37*
G36*
Y00473556D02*
X00678303Y00473333D01*
X00676722Y00472678D01*
X00675364Y00471636D01*
X00674322Y00470278D01*
X00673667Y00468697D01*
X00673444Y00467000D01*
X00673667Y00465303D01*
X00674322Y00463722D01*
X00675364Y00462364D01*
X00676722Y00461322D01*
X00678303Y00460667D01*
X00680000Y00460444D01*
X00681697Y00460667D01*
X00683278Y00461322D01*
X00684636Y00462364D01*
X00685678Y00463722D01*
X00686333Y00465303D01*
X00686556Y00467000D01*
X00686333Y00468697D01*
X00685678Y00470278D01*
X00684636Y00471636D01*
X00683278Y00472678D01*
X00681697Y00473333D01*
X00680000Y00473556D01*
D02*
G37*
G36*
X00472000Y00409565D02*
X00470042Y00409307D01*
X00468218Y00408551D01*
X00466651Y00407349D01*
X00466067Y00406588D01*
X00440000D01*
X00438244Y00406239D01*
X00436756Y00405244D01*
X00434566Y00403055D01*
X00433958Y00403307D01*
X00432000Y00403565D01*
X00430042Y00403307D01*
X00428218Y00402551D01*
X00426651Y00401349D01*
X00425449Y00399782D01*
X00424693Y00397958D01*
X00424435Y00396000D01*
X00424693Y00394042D01*
X00425449Y00392218D01*
X00426651Y00390651D01*
X00428218Y00389449D01*
X00430042Y00388693D01*
X00432000Y00388435D01*
X00433958Y00388693D01*
X00435782Y00389449D01*
X00437349Y00390651D01*
X00438551Y00392218D01*
X00439307Y00394042D01*
X00439425Y00394936D01*
X00441900Y00397412D01*
X00466067D01*
X00466651Y00396651D01*
X00468218Y00395449D01*
X00470042Y00394693D01*
X00472000Y00394435D01*
X00473958Y00394693D01*
X00475782Y00395449D01*
X00477349Y00396651D01*
X00478551Y00398218D01*
X00479307Y00400042D01*
X00479565Y00402000D01*
X00479307Y00403958D01*
X00478551Y00405782D01*
X00477349Y00407349D01*
X00475782Y00408551D01*
X00473958Y00409307D01*
X00472000Y00409565D01*
D02*
G37*
G36*
X00291000Y00403608D02*
X00288854Y00403181D01*
X00287035Y00401965D01*
X00285819Y00400146D01*
X00285392Y00398000D01*
X00285605Y00396931D01*
X00279837Y00391163D01*
X00279174Y00390171D01*
X00278941Y00389000D01*
X00278941Y00389000D01*
Y00367571D01*
X00278035Y00366965D01*
X00276819Y00365146D01*
X00276392Y00363000D01*
X00276819Y00360854D01*
X00278035Y00359035D01*
X00279854Y00357819D01*
X00282000Y00357392D01*
X00284146Y00357819D01*
X00285965Y00359035D01*
X00287181Y00360854D01*
X00287608Y00363000D01*
X00287181Y00365146D01*
X00285965Y00366965D01*
X00285059Y00367571D01*
Y00387733D01*
X00289931Y00392605D01*
X00291000Y00392392D01*
X00293146Y00392819D01*
X00294965Y00394035D01*
X00296181Y00395854D01*
X00296608Y00398000D01*
X00296181Y00400146D01*
X00294965Y00401965D01*
X00293146Y00403181D01*
X00291000Y00403608D01*
D02*
G37*
G36*
X00630000Y00396608D02*
X00627854Y00396181D01*
X00626035Y00394965D01*
X00624819Y00393146D01*
X00624603Y00392059D01*
X00589571D01*
X00588965Y00392965D01*
X00587146Y00394181D01*
X00585000Y00394608D01*
X00582854Y00394181D01*
X00581035Y00392965D01*
X00579819Y00391146D01*
X00579392Y00389000D01*
X00579819Y00386854D01*
X00581035Y00385035D01*
X00582854Y00383819D01*
X00585000Y00383392D01*
X00587146Y00383819D01*
X00588965Y00385035D01*
X00589571Y00385941D01*
X00627000D01*
X00627000Y00385941D01*
X00627517Y00386044D01*
X00627854Y00385819D01*
X00630000Y00385392D01*
X00632146Y00385819D01*
X00633965Y00387035D01*
X00635181Y00388854D01*
X00635608Y00391000D01*
X00635181Y00393146D01*
X00633965Y00394965D01*
X00632146Y00396181D01*
X00630000Y00396608D01*
D02*
G37*
G36*
X00313000Y00375608D02*
X00310854Y00375181D01*
X00309035Y00373965D01*
X00307819Y00372146D01*
X00307603Y00371059D01*
X00300571D01*
X00299965Y00371965D01*
X00298146Y00373181D01*
X00296000Y00373608D01*
X00293854Y00373181D01*
X00292035Y00371965D01*
X00290819Y00370146D01*
X00290392Y00368000D01*
X00290819Y00365854D01*
X00292035Y00364035D01*
X00293854Y00362819D01*
X00296000Y00362392D01*
X00298146Y00362819D01*
X00299965Y00364035D01*
X00300571Y00364941D01*
X00310671D01*
X00310854Y00364819D01*
X00313000Y00364392D01*
X00315146Y00364819D01*
X00316965Y00366035D01*
X00318181Y00367854D01*
X00318608Y00370000D01*
X00318181Y00372146D01*
X00316965Y00373965D01*
X00315146Y00375181D01*
X00313000Y00375608D01*
D02*
G37*
G36*
X00355000Y00389608D02*
X00352854Y00389181D01*
X00351035Y00387965D01*
X00349819Y00386146D01*
X00349392Y00384000D01*
X00349819Y00381854D01*
X00351035Y00380035D01*
X00351941Y00379429D01*
Y00365000D01*
X00351941Y00365000D01*
X00352174Y00363829D01*
X00352837Y00362837D01*
X00353605Y00362069D01*
X00353392Y00361000D01*
X00353819Y00358854D01*
X00355035Y00357035D01*
X00356854Y00355819D01*
X00359000Y00355392D01*
X00361146Y00355819D01*
X00362965Y00357035D01*
X00364181Y00358854D01*
X00364608Y00361000D01*
X00364181Y00363146D01*
X00362965Y00364965D01*
X00361146Y00366181D01*
X00359000Y00366608D01*
X00358059Y00367380D01*
Y00372571D01*
X00359329Y00373235D01*
X00359941Y00372810D01*
Y00372000D01*
X00359941Y00372000D01*
X00360174Y00370830D01*
X00360837Y00369837D01*
X00365605Y00365069D01*
X00365392Y00364000D01*
X00365819Y00361854D01*
X00367035Y00360035D01*
X00368854Y00358819D01*
X00371000Y00358392D01*
X00373146Y00358819D01*
X00374965Y00360035D01*
X00376181Y00361854D01*
X00376608Y00364000D01*
X00376181Y00366146D01*
X00374965Y00367965D01*
X00373146Y00369181D01*
X00371000Y00369608D01*
X00369931Y00369395D01*
X00366877Y00372449D01*
X00366965Y00374035D01*
X00368181Y00375854D01*
X00368608Y00378000D01*
X00368181Y00380146D01*
X00366965Y00381965D01*
X00365146Y00383181D01*
X00363000Y00383608D01*
X00361776Y00383364D01*
X00360635Y00383985D01*
X00360545Y00384316D01*
X00360181Y00386146D01*
X00358965Y00387965D01*
X00357146Y00389181D01*
X00355000Y00389608D01*
D02*
G37*
G36*
X00626000Y00352608D02*
X00623854Y00352181D01*
X00622035Y00350965D01*
X00621429Y00350059D01*
X00612571D01*
X00611965Y00350965D01*
X00610146Y00352181D01*
X00608000Y00352608D01*
X00605854Y00352181D01*
X00604035Y00350965D01*
X00602819Y00349146D01*
X00602392Y00347000D01*
X00602819Y00344854D01*
X00604035Y00343035D01*
X00605854Y00341819D01*
X00608000Y00341392D01*
X00610146Y00341819D01*
X00611965Y00343035D01*
X00612571Y00343941D01*
X00621429D01*
X00622035Y00343035D01*
X00623854Y00341819D01*
X00626000Y00341392D01*
X00628146Y00341819D01*
X00629965Y00343035D01*
X00631181Y00344854D01*
X00631608Y00347000D01*
X00631181Y00349146D01*
X00629965Y00350965D01*
X00628146Y00352181D01*
X00626000Y00352608D01*
D02*
G37*
G36*
X00166000Y00364000D02*
X00146000D01*
Y00344000D01*
X00166000D01*
Y00364000D01*
D02*
G37*
G36*
X00130600Y00364086D02*
X00127990Y00363743D01*
X00125557Y00362735D01*
X00123468Y00361132D01*
X00121865Y00359043D01*
X00120857Y00356610D01*
X00120514Y00354000D01*
X00120857Y00351390D01*
X00121865Y00348957D01*
X00123468Y00346868D01*
X00125557Y00345265D01*
X00127990Y00344257D01*
X00130600Y00343914D01*
X00133210Y00344257D01*
X00135643Y00345265D01*
X00137732Y00346868D01*
X00139335Y00348957D01*
X00140343Y00351390D01*
X00140686Y00354000D01*
X00140343Y00356610D01*
X00139335Y00359043D01*
X00137732Y00361132D01*
X00135643Y00362735D01*
X00133210Y00363743D01*
X00130600Y00364086D01*
D02*
G37*
G36*
X00313000Y00346608D02*
X00310854Y00346181D01*
X00309035Y00344965D01*
X00307819Y00343146D01*
X00307802Y00343059D01*
X00299571D01*
X00298965Y00343965D01*
X00297146Y00345181D01*
X00295000Y00345608D01*
X00292854Y00345181D01*
X00291035Y00343965D01*
X00289819Y00342146D01*
X00289392Y00340000D01*
X00289819Y00337854D01*
X00291035Y00336035D01*
X00292854Y00334819D01*
X00295000Y00334392D01*
X00297146Y00334819D01*
X00298965Y00336035D01*
X00299571Y00336941D01*
X00309175D01*
X00310854Y00335819D01*
X00313000Y00335392D01*
X00315146Y00335819D01*
X00316965Y00337035D01*
X00318181Y00338854D01*
X00318608Y00341000D01*
X00318181Y00343146D01*
X00316965Y00344965D01*
X00315146Y00346181D01*
X00313000Y00346608D01*
D02*
G37*
G36*
X00246000Y00367608D02*
X00243854Y00367181D01*
X00242035Y00365965D01*
X00240819Y00364146D01*
X00240392Y00362000D01*
X00240819Y00359854D01*
X00242035Y00358035D01*
X00243854Y00356819D01*
X00246000Y00356392D01*
X00246099Y00356412D01*
X00267611Y00334900D01*
X00267819Y00333854D01*
X00269035Y00332035D01*
X00270854Y00330819D01*
X00273000Y00330392D01*
X00275146Y00330819D01*
X00276965Y00332035D01*
X00278181Y00333854D01*
X00278608Y00336000D01*
X00278181Y00338146D01*
X00276965Y00339965D01*
X00275146Y00341181D01*
X00274100Y00341389D01*
X00250855Y00364633D01*
X00249965Y00365965D01*
X00248146Y00367181D01*
X00246000Y00367608D01*
D02*
G37*
G36*
X00202000Y00359608D02*
X00199854Y00359181D01*
X00198035Y00357965D01*
X00196819Y00356146D01*
X00196392Y00354000D01*
X00196819Y00351854D01*
X00198035Y00350035D01*
X00199854Y00348819D01*
X00202000Y00348392D01*
X00202285Y00348449D01*
X00203512Y00347398D01*
X00203819Y00345854D01*
X00205035Y00344035D01*
X00206854Y00342819D01*
X00209000Y00342392D01*
X00211146Y00342819D01*
X00212965Y00344035D01*
X00214181Y00345854D01*
X00214198Y00345941D01*
X00227733D01*
X00234976Y00338698D01*
X00234558Y00337320D01*
X00233853Y00337180D01*
X00232034Y00335965D01*
X00230819Y00334145D01*
X00230570Y00332896D01*
X00214069Y00316395D01*
X00213000Y00316608D01*
X00210854Y00316181D01*
X00209035Y00314965D01*
X00207819Y00313146D01*
X00207392Y00311000D01*
X00207819Y00308854D01*
X00209035Y00307035D01*
X00209633Y00306635D01*
Y00305365D01*
X00209034Y00304965D01*
X00207819Y00303145D01*
X00207392Y00300999D01*
X00207819Y00298853D01*
X00209034Y00297034D01*
X00209632Y00296635D01*
Y00295365D01*
X00209035Y00294965D01*
X00207819Y00293146D01*
X00207392Y00291000D01*
X00207819Y00288854D01*
X00209035Y00287035D01*
X00210854Y00285819D01*
X00213000Y00285392D01*
X00215146Y00285819D01*
X00216965Y00287035D01*
X00218181Y00288854D01*
X00218608Y00291000D01*
X00218395Y00292069D01*
X00226931Y00300605D01*
X00228000Y00300392D01*
X00230146Y00300819D01*
X00231965Y00302035D01*
X00233181Y00303854D01*
X00233608Y00306000D01*
X00233181Y00308146D01*
X00231965Y00309965D01*
X00231367Y00310365D01*
Y00311635D01*
X00231965Y00312035D01*
X00233181Y00313854D01*
X00233608Y00316000D01*
X00233181Y00318146D01*
X00231965Y00319965D01*
X00230146Y00321181D01*
X00229443Y00321321D01*
X00229025Y00322699D01*
X00233428Y00327103D01*
X00233853Y00326819D01*
X00236000Y00326392D01*
X00238146Y00326819D01*
X00239965Y00328034D01*
X00240364Y00328632D01*
X00241635D01*
X00242034Y00328034D01*
X00243853Y00326819D01*
X00246000Y00326392D01*
X00248146Y00326819D01*
X00249965Y00328034D01*
X00250751Y00329211D01*
X00252249Y00329211D01*
X00253035Y00328035D01*
X00254854Y00326819D01*
X00257000Y00326392D01*
X00259146Y00326819D01*
X00260965Y00328035D01*
X00262181Y00329854D01*
X00262608Y00332000D01*
X00262181Y00334146D01*
X00260965Y00335965D01*
X00259146Y00337181D01*
X00257000Y00337608D01*
X00254854Y00337181D01*
X00254544Y00336973D01*
X00234354Y00357163D01*
X00233362Y00357826D01*
X00232191Y00358059D01*
X00232191Y00358059D01*
X00205825D01*
X00204146Y00359181D01*
X00202000Y00359608D01*
D02*
G37*
G36*
X00504000Y00352565D02*
X00502042Y00352307D01*
X00500218Y00351551D01*
X00498651Y00350349D01*
X00497449Y00348782D01*
X00496693Y00346958D01*
X00496435Y00345000D01*
X00496693Y00343042D01*
X00497449Y00341218D01*
X00498392Y00339988D01*
Y00328323D01*
X00495560Y00325491D01*
X00495000Y00325565D01*
X00493042Y00325307D01*
X00491218Y00324551D01*
X00489651Y00323349D01*
X00488449Y00321782D01*
X00487693Y00319958D01*
X00487435Y00318000D01*
X00487693Y00316042D01*
X00488449Y00314218D01*
X00489651Y00312651D01*
X00491218Y00311449D01*
X00493042Y00310693D01*
X00495000Y00310435D01*
X00496958Y00310693D01*
X00498782Y00311449D01*
X00500349Y00312651D01*
X00501551Y00314218D01*
X00502307Y00316042D01*
X00502358Y00316427D01*
X00507965Y00322035D01*
X00509181Y00323854D01*
X00509608Y00326000D01*
Y00339988D01*
X00510551Y00341218D01*
X00511307Y00343042D01*
X00511565Y00345000D01*
X00511307Y00346958D01*
X00510551Y00348782D01*
X00509349Y00350349D01*
X00507782Y00351551D01*
X00505958Y00352307D01*
X00504000Y00352565D01*
D02*
G37*
G36*
X00044003Y00307402D02*
X00024003D01*
Y00287402D01*
X00044003D01*
Y00307402D01*
D02*
G37*
G36*
X00059403Y00307488D02*
X00056792Y00307144D01*
X00054360Y00306136D01*
X00052271Y00304534D01*
X00050668Y00302445D01*
X00049661Y00300012D01*
X00049317Y00297402D01*
X00049661Y00294791D01*
X00050668Y00292358D01*
X00052271Y00290269D01*
X00054360Y00288667D01*
X00056792Y00287659D01*
X00059403Y00287315D01*
X00062014Y00287659D01*
X00064446Y00288667D01*
X00066535Y00290269D01*
X00068138Y00292358D01*
X00069146Y00294791D01*
X00069489Y00297402D01*
X00069146Y00300012D01*
X00068138Y00302445D01*
X00066535Y00304534D01*
X00064446Y00306136D01*
X00062014Y00307144D01*
X00059403Y00307488D01*
D02*
G37*
G36*
X00603200Y00301000D02*
X00583200D01*
Y00281000D01*
X00603200D01*
Y00301000D01*
D02*
G37*
G36*
X00567800Y00301086D02*
X00565190Y00300743D01*
X00562757Y00299735D01*
X00560668Y00298132D01*
X00559065Y00296043D01*
X00558057Y00293610D01*
X00557714Y00291000D01*
X00558057Y00288389D01*
X00559065Y00285957D01*
X00560668Y00283868D01*
X00562757Y00282265D01*
X00565190Y00281257D01*
X00567800Y00280914D01*
X00570410Y00281257D01*
X00572843Y00282265D01*
X00574932Y00283868D01*
X00576535Y00285957D01*
X00577543Y00288389D01*
X00577886Y00291000D01*
X00577543Y00293610D01*
X00576535Y00296043D01*
X00574932Y00298132D01*
X00572843Y00299735D01*
X00570410Y00300743D01*
X00567800Y00301086D01*
D02*
G37*
G36*
X00542400D02*
X00539790Y00300743D01*
X00537357Y00299735D01*
X00535268Y00298132D01*
X00533665Y00296043D01*
X00532657Y00293610D01*
X00532314Y00291000D01*
X00532657Y00288389D01*
X00533665Y00285957D01*
X00535268Y00283868D01*
X00537357Y00282265D01*
X00539790Y00281257D01*
X00542400Y00280914D01*
X00545010Y00281257D01*
X00547443Y00282265D01*
X00549532Y00283868D01*
X00551135Y00285957D01*
X00552143Y00288389D01*
X00552486Y00291000D01*
X00552143Y00293610D01*
X00551135Y00296043D01*
X00549532Y00298132D01*
X00547443Y00299735D01*
X00545010Y00300743D01*
X00542400Y00301086D01*
D02*
G37*
G36*
X00657600Y00333099D02*
X00652579Y00332704D01*
X00647681Y00331528D01*
X00643027Y00329600D01*
X00638733Y00326969D01*
X00634903Y00323697D01*
X00631631Y00319867D01*
X00629000Y00315573D01*
X00627072Y00310919D01*
X00625896Y00306021D01*
X00625501Y00301000D01*
X00625896Y00295979D01*
X00627072Y00291081D01*
X00629000Y00286427D01*
X00631631Y00282133D01*
X00634903Y00278303D01*
X00638733Y00275031D01*
X00643027Y00272400D01*
X00647681Y00270472D01*
X00652579Y00269296D01*
X00657600Y00268901D01*
X00662621Y00269296D01*
X00667519Y00270472D01*
X00672173Y00272400D01*
X00676467Y00275031D01*
X00680297Y00278303D01*
X00683569Y00282133D01*
X00686200Y00286427D01*
X00688128Y00291081D01*
X00689304Y00295979D01*
X00689699Y00301000D01*
X00689304Y00306021D01*
X00688128Y00310919D01*
X00686200Y00315573D01*
X00683569Y00319867D01*
X00680297Y00323697D01*
X00676467Y00326969D01*
X00672173Y00329600D01*
X00667519Y00331528D01*
X00662621Y00332704D01*
X00657600Y00333099D01*
D02*
G37*
G36*
X00451600D02*
X00446579Y00332704D01*
X00441681Y00331528D01*
X00437027Y00329600D01*
X00432733Y00326969D01*
X00428903Y00323697D01*
X00425631Y00319867D01*
X00423000Y00315573D01*
X00421072Y00310919D01*
X00419896Y00306021D01*
X00419501Y00301000D01*
X00419896Y00295979D01*
X00421072Y00291081D01*
X00423000Y00286427D01*
X00425631Y00282133D01*
X00428903Y00278303D01*
X00432733Y00275031D01*
X00437027Y00272400D01*
X00441681Y00270472D01*
X00446579Y00269296D01*
X00451600Y00268901D01*
X00456621Y00269296D01*
X00461519Y00270472D01*
X00466173Y00272400D01*
X00470467Y00275031D01*
X00474297Y00278303D01*
X00477569Y00282133D01*
X00480200Y00286427D01*
X00482128Y00291081D01*
X00483304Y00295979D01*
X00483699Y00301000D01*
X00483304Y00306021D01*
X00482128Y00310919D01*
X00480200Y00315573D01*
X00477569Y00319867D01*
X00474297Y00323697D01*
X00470467Y00326969D01*
X00466173Y00329600D01*
X00461519Y00331528D01*
X00456621Y00332704D01*
X00451600Y00333099D01*
D02*
G37*
G36*
X00059403Y00282088D02*
X00056792Y00281744D01*
X00054360Y00280737D01*
X00052271Y00279134D01*
X00050668Y00277045D01*
X00049661Y00274612D01*
X00049317Y00272001D01*
X00049661Y00269391D01*
X00050668Y00266958D01*
X00052271Y00264869D01*
X00054360Y00263267D01*
X00056792Y00262259D01*
X00059403Y00261915D01*
X00062014Y00262259D01*
X00064446Y00263267D01*
X00066535Y00264869D01*
X00068138Y00266958D01*
X00069146Y00269391D01*
X00069489Y00272001D01*
X00069146Y00274612D01*
X00068138Y00277045D01*
X00066535Y00279134D01*
X00064446Y00280737D01*
X00062014Y00281744D01*
X00059403Y00282088D01*
D02*
G37*
G36*
X00034003D02*
X00031393Y00281744D01*
X00028960Y00280737D01*
X00026871Y00279134D01*
X00025268Y00277045D01*
X00024260Y00274612D01*
X00023917Y00272001D01*
X00024260Y00269391D01*
X00025268Y00266958D01*
X00026871Y00264869D01*
X00028960Y00263267D01*
X00031393Y00262259D01*
X00034003Y00261915D01*
X00036614Y00262259D01*
X00039046Y00263267D01*
X00041135Y00264869D01*
X00042738Y00266958D01*
X00043746Y00269391D01*
X00044089Y00272001D01*
X00043746Y00274612D01*
X00042738Y00277045D01*
X00041135Y00279134D01*
X00039046Y00280737D01*
X00036614Y00281744D01*
X00034003Y00282088D01*
D02*
G37*
G36*
X00137000Y00277565D02*
X00135042Y00277307D01*
X00133218Y00276551D01*
X00131651Y00275349D01*
X00130449Y00273782D01*
X00129693Y00271958D01*
X00129435Y00270000D01*
X00129693Y00268042D01*
X00130449Y00266218D01*
X00131651Y00264651D01*
X00133218Y00263449D01*
X00135042Y00262693D01*
X00137000Y00262435D01*
X00138958Y00262693D01*
X00140782Y00263449D01*
X00142349Y00264651D01*
X00143911Y00264600D01*
X00147561Y00260951D01*
X00147435Y00260000D01*
X00147693Y00258042D01*
X00148449Y00256218D01*
X00149651Y00254651D01*
X00151218Y00253449D01*
X00153042Y00252693D01*
X00155000Y00252435D01*
X00156958Y00252693D01*
X00158782Y00253449D01*
X00160349Y00254651D01*
X00161551Y00256218D01*
X00162307Y00258042D01*
X00162565Y00260000D01*
X00162307Y00261958D01*
X00161551Y00263782D01*
X00160349Y00265349D01*
X00158782Y00266551D01*
X00156958Y00267307D01*
X00155000Y00267565D01*
X00154049Y00267439D01*
X00148244Y00273244D01*
X00146756Y00274239D01*
X00145000Y00274588D01*
X00142933D01*
X00142349Y00275349D01*
X00140782Y00276551D01*
X00138958Y00277307D01*
X00137000Y00277565D01*
D02*
G37*
G36*
X00517000Y00260608D02*
X00514854Y00260181D01*
X00513035Y00258965D01*
X00511819Y00257146D01*
X00511392Y00255000D01*
X00511605Y00253931D01*
X00507903Y00250229D01*
X00506000Y00250608D01*
X00503854Y00250181D01*
X00502035Y00248965D01*
X00500819Y00247146D01*
X00500392Y00245000D01*
X00500819Y00242854D01*
X00502035Y00241035D01*
X00503854Y00239819D01*
X00506000Y00239392D01*
X00508146Y00239819D01*
X00509965Y00241035D01*
X00511181Y00242854D01*
X00511608Y00245000D01*
X00511561Y00245235D01*
X00515931Y00249605D01*
X00517000Y00249392D01*
X00519146Y00249819D01*
X00520965Y00251035D01*
X00522181Y00252854D01*
X00522608Y00255000D01*
X00522181Y00257146D01*
X00520965Y00258965D01*
X00519146Y00260181D01*
X00517000Y00260608D01*
D02*
G37*
G36*
X00488000Y00271565D02*
X00486042Y00271307D01*
X00484218Y00270551D01*
X00482651Y00269349D01*
X00481449Y00267782D01*
X00480693Y00265958D01*
X00480435Y00264000D01*
X00480693Y00262042D01*
X00481449Y00260218D01*
X00482392Y00258988D01*
Y00252323D01*
X00473560Y00243491D01*
X00473000Y00243565D01*
X00471042Y00243307D01*
X00469218Y00242551D01*
X00467651Y00241349D01*
X00466449Y00239782D01*
X00465693Y00237958D01*
X00465435Y00236000D01*
X00465693Y00234042D01*
X00466449Y00232218D01*
X00467651Y00230651D01*
X00469218Y00229449D01*
X00471042Y00228693D01*
X00473000Y00228435D01*
X00474958Y00228693D01*
X00476782Y00229449D01*
X00478349Y00230651D01*
X00479551Y00232218D01*
X00480307Y00234042D01*
X00480358Y00234427D01*
X00491965Y00246035D01*
X00493181Y00247854D01*
X00493608Y00250000D01*
Y00258988D01*
X00494551Y00260218D01*
X00495307Y00262042D01*
X00495565Y00264000D01*
X00495307Y00265958D01*
X00494551Y00267782D01*
X00493349Y00269349D01*
X00491782Y00270551D01*
X00489958Y00271307D01*
X00488000Y00271565D01*
D02*
G37*
G36*
X00034003Y00256688D02*
X00031393Y00256344D01*
X00028960Y00255336D01*
X00026871Y00253734D01*
X00025268Y00251645D01*
X00024260Y00249212D01*
X00023917Y00246602D01*
X00024260Y00243991D01*
X00025268Y00241558D01*
X00026871Y00239469D01*
X00028960Y00237867D01*
X00031393Y00236859D01*
X00034003Y00236515D01*
X00036614Y00236859D01*
X00039046Y00237867D01*
X00041135Y00239469D01*
X00042738Y00241558D01*
X00043746Y00243991D01*
X00044089Y00246602D01*
X00043746Y00249212D01*
X00042738Y00251645D01*
X00041135Y00253734D01*
X00039046Y00255336D01*
X00036614Y00256344D01*
X00034003Y00256688D01*
D02*
G37*
G36*
X00307000Y00263608D02*
X00304854Y00263181D01*
X00303035Y00261965D01*
X00301819Y00260146D01*
X00301392Y00258000D01*
X00301819Y00255854D01*
X00303035Y00254035D01*
X00303941Y00253429D01*
Y00251000D01*
X00303941Y00251000D01*
X00304174Y00249830D01*
X00304837Y00248837D01*
X00309771Y00243903D01*
X00309392Y00242000D01*
X00309819Y00239854D01*
X00311035Y00238035D01*
X00312854Y00236819D01*
X00315000Y00236392D01*
X00317146Y00236819D01*
X00318965Y00238035D01*
X00320181Y00239854D01*
X00320608Y00242000D01*
X00320181Y00244146D01*
X00318965Y00245965D01*
X00317146Y00247181D01*
X00315000Y00247608D01*
X00314765Y00247561D01*
X00310087Y00252238D01*
X00310159Y00253496D01*
X00310965Y00254035D01*
X00312181Y00255854D01*
X00312608Y00258000D01*
X00312181Y00260146D01*
X00310965Y00261965D01*
X00309146Y00263181D01*
X00307000Y00263608D01*
D02*
G37*
G36*
X00326000Y00237608D02*
X00323854Y00237181D01*
X00322035Y00235965D01*
X00320819Y00234146D01*
X00320392Y00232000D01*
X00320605Y00230931D01*
X00312235Y00222561D01*
X00312000Y00222608D01*
X00309854Y00222181D01*
X00308035Y00220965D01*
X00306819Y00219146D01*
X00306392Y00217000D01*
X00306819Y00214854D01*
X00308035Y00213035D01*
X00309854Y00211819D01*
X00312000Y00211392D01*
X00314146Y00211819D01*
X00315965Y00213035D01*
X00317181Y00214854D01*
X00317608Y00217000D01*
X00317229Y00218903D01*
X00324931Y00226605D01*
X00326000Y00226392D01*
X00328146Y00226819D01*
X00329965Y00228035D01*
X00331181Y00229854D01*
X00331608Y00232000D01*
X00331181Y00234146D01*
X00329965Y00235965D01*
X00328146Y00237181D01*
X00326000Y00237608D01*
D02*
G37*
G36*
X00666500Y00215500D02*
X00645500D01*
Y00194500D01*
X00666500D01*
Y00215500D01*
D02*
G37*
G36*
X00373998Y00184084D02*
X00371387Y00183740D01*
X00368955Y00182733D01*
X00366866Y00181130D01*
X00365263Y00179041D01*
X00364255Y00176608D01*
X00363912Y00173998D01*
X00364255Y00171387D01*
X00365263Y00168955D01*
X00366866Y00166866D01*
X00368955Y00165263D01*
X00371387Y00164255D01*
X00373998Y00163911D01*
X00376609Y00164255D01*
X00379041Y00165263D01*
X00381130Y00166866D01*
X00382733Y00168955D01*
X00383741Y00171387D01*
X00384084Y00173998D01*
X00383741Y00176608D01*
X00382733Y00179041D01*
X00381130Y00181130D01*
X00379041Y00182733D01*
X00376609Y00183740D01*
X00373998Y00184084D01*
D02*
G37*
G36*
X00436000Y00177608D02*
X00433854Y00177181D01*
X00432035Y00175965D01*
X00430819Y00174146D01*
X00430392Y00172000D01*
X00430819Y00169854D01*
X00432035Y00168035D01*
X00433854Y00166819D01*
X00436000Y00166392D01*
X00438146Y00166819D01*
X00439965Y00168035D01*
X00440571Y00168941D01*
X00458620D01*
X00459392Y00168000D01*
X00459819Y00165854D01*
X00461035Y00164035D01*
X00462854Y00162819D01*
X00465000Y00162392D01*
X00467146Y00162819D01*
X00468965Y00164035D01*
X00470181Y00165854D01*
X00470608Y00168000D01*
X00470181Y00170146D01*
X00468965Y00171965D01*
X00467146Y00173181D01*
X00465000Y00173608D01*
X00463931Y00173395D01*
X00463163Y00174163D01*
X00462170Y00174826D01*
X00461000Y00175059D01*
X00461000Y00175059D01*
X00440571D01*
X00439965Y00175965D01*
X00438146Y00177181D01*
X00436000Y00177608D01*
D02*
G37*
G36*
X00686000Y00172913D02*
X00684107Y00172663D01*
X00682344Y00171933D01*
X00680829Y00170771D01*
X00679667Y00169256D01*
X00678937Y00167493D01*
X00678688Y00165600D01*
X00678937Y00163707D01*
X00679667Y00161944D01*
X00680829Y00160429D01*
X00682344Y00159267D01*
X00684107Y00158537D01*
X00686000Y00158287D01*
X00687893Y00158537D01*
X00689656Y00159267D01*
X00691171Y00160429D01*
X00692333Y00161944D01*
X00693063Y00163707D01*
X00693313Y00165600D01*
X00693063Y00167493D01*
X00692333Y00169256D01*
X00691171Y00170771D01*
X00689656Y00171933D01*
X00687893Y00172663D01*
X00686000Y00172913D01*
D02*
G37*
G36*
X00626000D02*
X00624107Y00172663D01*
X00622344Y00171933D01*
X00620829Y00170771D01*
X00619667Y00169256D01*
X00618937Y00167493D01*
X00618687Y00165600D01*
X00618937Y00163707D01*
X00619667Y00161944D01*
X00620829Y00160429D01*
X00622344Y00159267D01*
X00624107Y00158537D01*
X00626000Y00158287D01*
X00627893Y00158537D01*
X00629656Y00159267D01*
X00631171Y00160429D01*
X00632333Y00161944D01*
X00633063Y00163707D01*
X00633313Y00165600D01*
X00633063Y00167493D01*
X00632333Y00169256D01*
X00631171Y00170771D01*
X00629656Y00171933D01*
X00627893Y00172663D01*
X00626000Y00172913D01*
D02*
G37*
G36*
X00521000Y00172582D02*
X00518520Y00172255D01*
X00516209Y00171298D01*
X00514225Y00169776D01*
X00512702Y00167791D01*
X00511744Y00165480D01*
X00511418Y00163000D01*
X00511744Y00160520D01*
X00512702Y00158209D01*
X00514225Y00156225D01*
X00516209Y00154702D01*
X00518520Y00153744D01*
X00521000Y00153418D01*
X00523480Y00153744D01*
X00525791Y00154702D01*
X00527775Y00156225D01*
X00529298Y00158209D01*
X00530256Y00160520D01*
X00530582Y00163000D01*
X00530256Y00165480D01*
X00529298Y00167791D01*
X00527775Y00169776D01*
X00525791Y00171298D01*
X00523480Y00172255D01*
X00521000Y00172582D01*
D02*
G37*
G36*
X00383998Y00158598D02*
X00363998D01*
Y00138598D01*
X00383998D01*
Y00158598D01*
D02*
G37*
G36*
X00031000Y00138886D02*
X00028389Y00138543D01*
X00025957Y00137535D01*
X00023868Y00135932D01*
X00022265Y00133843D01*
X00021257Y00131411D01*
X00020914Y00128800D01*
X00021257Y00126189D01*
X00022265Y00123757D01*
X00023868Y00121668D01*
X00025957Y00120065D01*
X00028389Y00119057D01*
X00031000Y00118714D01*
X00033610Y00119057D01*
X00036043Y00120065D01*
X00038132Y00121668D01*
X00039735Y00123757D01*
X00040743Y00126189D01*
X00041086Y00128800D01*
X00040743Y00131411D01*
X00039735Y00133843D01*
X00038132Y00135932D01*
X00036043Y00137535D01*
X00033610Y00138543D01*
X00031000Y00138886D01*
D02*
G37*
G36*
Y00113486D02*
X00028389Y00113143D01*
X00025957Y00112135D01*
X00023868Y00110532D01*
X00022265Y00108443D01*
X00021257Y00106011D01*
X00020914Y00103400D01*
X00021257Y00100789D01*
X00022265Y00098357D01*
X00023868Y00096268D01*
X00025957Y00094665D01*
X00028389Y00093657D01*
X00031000Y00093314D01*
X00033610Y00093657D01*
X00036043Y00094665D01*
X00038132Y00096268D01*
X00039735Y00098357D01*
X00040743Y00100789D01*
X00041086Y00103400D01*
X00040743Y00106011D01*
X00039735Y00108443D01*
X00038132Y00110532D01*
X00036043Y00112135D01*
X00033610Y00113143D01*
X00031000Y00113486D01*
D02*
G37*
G36*
X00115000Y00083608D02*
X00112854Y00083181D01*
X00111034Y00081965D01*
X00109819Y00080146D01*
X00109392Y00078000D01*
X00109819Y00075854D01*
X00111034Y00074035D01*
X00111941Y00073429D01*
Y00062198D01*
X00111854Y00062181D01*
X00110035Y00060965D01*
X00108819Y00059146D01*
X00108392Y00057000D01*
X00108819Y00054854D01*
X00110035Y00053035D01*
X00111854Y00051819D01*
X00114000Y00051392D01*
X00116146Y00051819D01*
X00117965Y00053035D01*
X00119181Y00054854D01*
X00119608Y00057000D01*
X00119181Y00059146D01*
X00118059Y00060826D01*
Y00073429D01*
X00118965Y00074035D01*
X00120181Y00075854D01*
X00120608Y00078000D01*
X00120181Y00080146D01*
X00118965Y00081965D01*
X00117146Y00083181D01*
X00115000Y00083608D01*
D02*
G37*
G36*
X00272000Y00087565D02*
X00270042Y00087307D01*
X00268218Y00086551D01*
X00266651Y00085349D01*
X00265449Y00083782D01*
X00264693Y00081958D01*
X00264435Y00080000D01*
X00264693Y00078042D01*
X00265449Y00076218D01*
X00266651Y00074651D01*
X00267412Y00074067D01*
Y00072000D01*
X00267761Y00070244D01*
X00268756Y00068756D01*
X00281560Y00055951D01*
X00281435Y00055000D01*
X00281693Y00053042D01*
X00282449Y00051218D01*
X00283651Y00049651D01*
X00285218Y00048449D01*
X00287042Y00047693D01*
X00289000Y00047435D01*
X00290958Y00047693D01*
X00292782Y00048449D01*
X00294349Y00049651D01*
X00295551Y00051218D01*
X00295863Y00051969D01*
X00297078Y00052338D01*
X00297854Y00051819D01*
X00300000Y00051392D01*
X00300285Y00051449D01*
X00301512Y00050398D01*
X00301819Y00048854D01*
X00303035Y00047035D01*
X00304854Y00045819D01*
X00307000Y00045392D01*
X00307617Y00045515D01*
X00308515Y00044617D01*
X00308392Y00044000D01*
X00308819Y00041854D01*
X00310035Y00040035D01*
X00311854Y00038819D01*
X00314000Y00038392D01*
X00316146Y00038819D01*
X00317965Y00040035D01*
X00319181Y00041854D01*
X00319608Y00044000D01*
X00319181Y00046146D01*
X00317965Y00047965D01*
X00317059Y00048571D01*
Y00065733D01*
X00319896Y00068571D01*
X00321146Y00068819D01*
X00322965Y00070035D01*
X00324181Y00071854D01*
X00324608Y00074000D01*
X00324181Y00076146D01*
X00322965Y00077965D01*
X00321146Y00079181D01*
X00319000Y00079608D01*
X00316854Y00079181D01*
X00315035Y00077965D01*
X00313965D01*
X00312146Y00079181D01*
X00310000Y00079608D01*
X00307854Y00079181D01*
X00306351Y00078176D01*
X00304965Y00077965D01*
X00303145Y00079181D01*
X00300999Y00079608D01*
X00298853Y00079181D01*
X00297034Y00077965D01*
X00295819Y00076146D01*
X00295392Y00074000D01*
X00295819Y00071854D01*
X00297034Y00070035D01*
X00297941Y00069429D01*
Y00062198D01*
X00297854Y00062181D01*
X00296035Y00060965D01*
X00295636Y00060368D01*
X00294840Y00060342D01*
X00294181Y00060478D01*
X00292782Y00061551D01*
X00290958Y00062307D01*
X00289000Y00062565D01*
X00288049Y00062439D01*
X00277400Y00073089D01*
X00277349Y00074651D01*
X00278551Y00076218D01*
X00279307Y00078042D01*
X00279565Y00080000D01*
X00279307Y00081958D01*
X00278551Y00083782D01*
X00277349Y00085349D01*
X00275782Y00086551D01*
X00273958Y00087307D01*
X00272000Y00087565D01*
D02*
G37*
G36*
X00267399Y00041270D02*
X00247399D01*
Y00021270D01*
X00267399D01*
Y00041270D01*
D02*
G37*
G36*
X00231999Y00041356D02*
X00229388Y00041013D01*
X00226956Y00040005D01*
X00224867Y00038402D01*
X00223264Y00036313D01*
X00222256Y00033881D01*
X00221913Y00031270D01*
X00222256Y00028660D01*
X00223264Y00026227D01*
X00224867Y00024138D01*
X00226956Y00022535D01*
X00229388Y00021527D01*
X00231999Y00021184D01*
X00234609Y00021527D01*
X00237042Y00022535D01*
X00239131Y00024138D01*
X00240734Y00026227D01*
X00241742Y00028660D01*
X00242085Y00031270D01*
X00241742Y00033881D01*
X00240734Y00036313D01*
X00239131Y00038402D01*
X00237042Y00040005D01*
X00234609Y00041013D01*
X00231999Y00041356D01*
D02*
G37*
G36*
X00592000Y00041086D02*
X00589389Y00040743D01*
X00586957Y00039735D01*
X00584868Y00038132D01*
X00583265Y00036043D01*
X00582257Y00033610D01*
X00581914Y00031000D01*
X00582257Y00028389D01*
X00583265Y00025957D01*
X00584868Y00023868D01*
X00586957Y00022265D01*
X00589389Y00021257D01*
X00592000Y00020914D01*
X00594610Y00021257D01*
X00597043Y00022265D01*
X00599132Y00023868D01*
X00600735Y00025957D01*
X00601743Y00028389D01*
X00602086Y00031000D01*
X00601743Y00033610D01*
X00600735Y00036043D01*
X00599132Y00038132D01*
X00597043Y00039735D01*
X00594610Y00040743D01*
X00592000Y00041086D01*
D02*
G37*
G36*
X00566600D02*
X00563989Y00040743D01*
X00561557Y00039735D01*
X00559468Y00038132D01*
X00557865Y00036043D01*
X00556857Y00033610D01*
X00556514Y00031000D01*
X00556857Y00028389D01*
X00557865Y00025957D01*
X00559468Y00023868D01*
X00561557Y00022265D01*
X00563989Y00021257D01*
X00566600Y00020914D01*
X00569211Y00021257D01*
X00571643Y00022265D01*
X00573732Y00023868D01*
X00575335Y00025957D01*
X00576343Y00028389D01*
X00576686Y00031000D01*
X00576343Y00033610D01*
X00575335Y00036043D01*
X00573732Y00038132D01*
X00571643Y00039735D01*
X00569211Y00040743D01*
X00566600Y00041086D01*
D02*
G37*
G36*
X00484000D02*
X00481390Y00040743D01*
X00478957Y00039735D01*
X00476868Y00038132D01*
X00475265Y00036043D01*
X00474257Y00033610D01*
X00473914Y00031000D01*
X00474257Y00028389D01*
X00475265Y00025957D01*
X00476868Y00023868D01*
X00478957Y00022265D01*
X00481390Y00021257D01*
X00484000Y00020914D01*
X00486610Y00021257D01*
X00489043Y00022265D01*
X00491132Y00023868D01*
X00492735Y00025957D01*
X00493743Y00028389D01*
X00494086Y00031000D01*
X00493743Y00033610D01*
X00492735Y00036043D01*
X00491132Y00038132D01*
X00489043Y00039735D01*
X00486610Y00040743D01*
X00484000Y00041086D01*
D02*
G37*
G36*
X00458600D02*
X00455989Y00040743D01*
X00453557Y00039735D01*
X00451468Y00038132D01*
X00449865Y00036043D01*
X00448857Y00033610D01*
X00448514Y00031000D01*
X00448857Y00028389D01*
X00449865Y00025957D01*
X00451468Y00023868D01*
X00453557Y00022265D01*
X00455989Y00021257D01*
X00458600Y00020914D01*
X00461211Y00021257D01*
X00463643Y00022265D01*
X00465732Y00023868D01*
X00467335Y00025957D01*
X00468343Y00028389D01*
X00468686Y00031000D01*
X00468343Y00033610D01*
X00467335Y00036043D01*
X00465732Y00038132D01*
X00463643Y00039735D01*
X00461211Y00040743D01*
X00458600Y00041086D01*
D02*
G37*
G36*
X00375400D02*
X00372789Y00040743D01*
X00370357Y00039735D01*
X00368268Y00038132D01*
X00366665Y00036043D01*
X00365657Y00033610D01*
X00365314Y00031000D01*
X00365657Y00028389D01*
X00366665Y00025957D01*
X00368268Y00023868D01*
X00370357Y00022265D01*
X00372789Y00021257D01*
X00375400Y00020914D01*
X00378010Y00021257D01*
X00380443Y00022265D01*
X00382532Y00023868D01*
X00384135Y00025957D01*
X00385143Y00028389D01*
X00385486Y00031000D01*
X00385143Y00033610D01*
X00384135Y00036043D01*
X00382532Y00038132D01*
X00380443Y00039735D01*
X00378010Y00040743D01*
X00375400Y00041086D01*
D02*
G37*
G36*
X00350000D02*
X00347389Y00040743D01*
X00344957Y00039735D01*
X00342868Y00038132D01*
X00341265Y00036043D01*
X00340257Y00033610D01*
X00339914Y00031000D01*
X00340257Y00028389D01*
X00341265Y00025957D01*
X00342868Y00023868D01*
X00344957Y00022265D01*
X00347389Y00021257D01*
X00350000Y00020914D01*
X00352611Y00021257D01*
X00355043Y00022265D01*
X00357132Y00023868D01*
X00358735Y00025957D01*
X00359743Y00028389D01*
X00360086Y00031000D01*
X00359743Y00033610D01*
X00358735Y00036043D01*
X00357132Y00038132D01*
X00355043Y00039735D01*
X00352611Y00040743D01*
X00350000Y00041086D01*
D02*
G37*
%LPD*%
D12*
X00314000Y00044000D02*
Y00067000D01*
X00320000Y00073000D02*
X00321000Y00074000D01*
X00314000Y00067000D02*
X00319000Y00072000D01*
Y00074000D01*
X00307000Y00051000D02*
Y00067999D01*
X00306999Y00067999D02*
X00307000Y00067999D01*
X00115000Y00057000D02*
Y00078000D01*
X00114000Y00057000D02*
X00115000D01*
X00115000Y00057000D01*
X00300999Y00058000D02*
X00301000Y00057998D01*
X00300000Y00056999D02*
X00301000Y00057998D01*
X00300000Y00056999D02*
Y00057000D01*
X00300999Y00058001D02*
Y00074000D01*
X00319000Y00074000D02*
X00321000D01*
X00310000Y00072999D02*
Y00074000D01*
Y00072999D02*
X00310999Y00071999D01*
X00321000Y00074000D02*
X00321000Y00074000D01*
X00300999Y00058000D02*
X00300999Y00058001D01*
X00307000Y00068000D02*
X00310999Y00071999D01*
X00363000Y00372000D02*
X00371000Y00364000D01*
X00363000Y00372000D02*
Y00378000D01*
X00282000Y00363000D02*
Y00389000D01*
X00291000Y00398000D01*
X00358692Y00361308D02*
X00359000Y00361615D01*
X00355000Y00365000D02*
X00358692Y00361308D01*
X00355000Y00365000D02*
Y00384000D01*
X00359000Y00361000D02*
Y00361615D01*
X00295000Y00340000D02*
X00312000D01*
X00313000Y00341000D01*
X00210000Y00350000D02*
X00211000Y00349000D01*
X00202000Y00355000D02*
X00232191D01*
X00252500Y00334692D01*
Y00334501D02*
X00255000Y00332000D01*
X00252500Y00334501D02*
Y00334692D01*
X00255000Y00332000D02*
X00257000D01*
X00608000Y00347000D02*
X00626000D01*
X00506000Y00245000D02*
X00507000D01*
X00517000Y00255000D01*
X00296000Y00368000D02*
X00311000D01*
X00313000Y00370000D01*
X00234000Y00332000D02*
X00234001Y00331999D01*
X00213000Y00311000D02*
X00234000Y00332000D01*
X00229000Y00349000D02*
X00244692Y00333308D01*
X00234001Y00331999D02*
X00236000D01*
X00211000Y00349000D02*
X00229000D01*
X00213000Y00291000D02*
X00228000Y00306000D01*
X00213000Y00301000D02*
X00227000Y00315000D01*
X00213000Y00300999D02*
Y00301000D01*
X00227000Y00315000D02*
Y00316000D01*
X00325000Y00231000D02*
Y00232000D01*
X00628000Y00390000D02*
Y00391000D01*
X00627000Y00389000D02*
X00628000Y00390000D01*
X00585000Y00389000D02*
X00627000D01*
X00312000Y00217000D02*
Y00218000D01*
X00325000Y00231000D01*
X00307000Y00251000D02*
X00313000Y00245000D01*
X00307000Y00251000D02*
Y00258000D01*
X00461000Y00172000D02*
X00465000Y00168000D01*
X00436000Y00172000D02*
X00461000D01*
D90*
X00656000Y00175000D02*
D03*
D92*
Y00205000D02*
D03*
D94*
X00031000Y00128800D02*
D03*
Y00103400D02*
D03*
X00566600Y00031000D02*
D03*
X00592000D02*
D03*
X00458600D02*
D03*
X00484000D02*
D03*
X00350000D02*
D03*
X00375400D02*
D03*
X00567800Y00291000D02*
D03*
X00542400D02*
D03*
X00517000D02*
D03*
X00231999Y00031270D02*
D03*
X00206599D02*
D03*
X00059403Y00297402D02*
D03*
Y00272001D02*
D03*
Y00246602D02*
D03*
X00034003D02*
D03*
Y00272001D02*
D03*
X00105200Y00354000D02*
D03*
X00130600D02*
D03*
X00373998Y00199398D02*
D03*
Y00173998D02*
D03*
D100*
X00272000Y00072000D02*
X00289000Y00055000D01*
X00272000Y00072000D02*
Y00080000D01*
X00432000Y00396000D02*
X00434000D01*
X00440000Y00402000D01*
X00472000D01*
X00473000Y00236000D02*
X00474000D01*
X00247000Y00362000D02*
X00273000Y00336000D01*
X00246000Y00362000D02*
X00247000D01*
X00145000Y00270000D02*
X00155000Y00260000D01*
X00137000Y00270000D02*
X00145000D01*
D101*
X00495000Y00317000D02*
X00504000Y00326000D01*
Y00345000D01*
X00488000Y00250000D02*
Y00264000D01*
X00474000Y00236000D02*
X00488000Y00250000D01*
D105*
X00031000Y00078000D02*
D03*
X00034003Y00297402D02*
D03*
X00373998Y00148598D02*
D03*
D106*
X00617400Y00031000D02*
D03*
X00509400D02*
D03*
X00400800D02*
D03*
X00593200Y00291000D02*
D03*
X00257399Y00031270D02*
D03*
X00156000Y00354000D02*
D03*
D107*
X00451600Y00611000D02*
D03*
X00658600D02*
D03*
X00657600Y00301000D02*
D03*
X00451600D02*
D03*
X00035232Y00611000D02*
D03*
X00665000Y00035000D02*
D03*
X00035000D02*
D03*
D108*
X00521000Y00163000D02*
D03*
X00556000D02*
D03*
D109*
X00307000Y00051000D02*
D03*
X00333000Y00078000D02*
D03*
X00630000Y00090000D02*
D03*
X00642000Y00075000D02*
D03*
X00631000Y00061000D02*
D03*
X00618000Y00075000D02*
D03*
X00578000Y00062000D02*
D03*
X00570000Y00069000D02*
D03*
X00545000Y00060000D02*
D03*
X00552000Y00052000D02*
D03*
X00537000Y00074000D02*
D03*
X00525000Y00060000D02*
D03*
X00513000Y00074000D02*
D03*
X00463000Y00069000D02*
D03*
X00471000Y00062000D02*
D03*
X00438000Y00060000D02*
D03*
X00445000Y00051000D02*
D03*
X00427000Y00075000D02*
D03*
X00414000Y00060000D02*
D03*
X00402000Y00075000D02*
D03*
X00353000Y00067000D02*
D03*
X00361000Y00062000D02*
D03*
X00335000Y00019000D02*
D03*
X00089000Y00062000D02*
D03*
X00074000Y00074000D02*
D03*
X00088000Y00085000D02*
D03*
X00070000D02*
D03*
X00064000Y00093000D02*
D03*
X00071000Y00116000D02*
D03*
X00064000Y00121000D02*
D03*
X00273000Y00024000D02*
D03*
X00184000Y00031000D02*
D03*
X00177000Y00038000D02*
D03*
X00282000Y00012000D02*
D03*
X00285000Y00024000D02*
D03*
X00305000Y00023000D02*
D03*
X00115000Y00078000D02*
D03*
X00114000Y00057000D02*
D03*
X00314000Y00044000D02*
D03*
X00300000Y00057000D02*
D03*
X00300999Y00074000D02*
D03*
X00319000Y00074000D02*
D03*
X00310000D02*
D03*
X00291000Y00398000D02*
D03*
X00656000Y00526000D02*
D03*
X00643000D02*
D03*
X00317000Y00109000D02*
D03*
X00371000Y00364000D02*
D03*
X00363000Y00378000D02*
D03*
X00367000Y00297000D02*
D03*
X00359000Y00361000D02*
D03*
X00350000Y00321000D02*
D03*
X00313000Y00341000D02*
D03*
X00295000Y00340000D02*
D03*
X00350000Y00329000D02*
D03*
X00474000Y00264000D02*
D03*
X00237000Y00360000D02*
D03*
X00367000Y00263000D02*
D03*
X00627000Y00365000D02*
D03*
X00452000Y00350000D02*
D03*
X00306000Y00355000D02*
D03*
X00235000Y00295000D02*
D03*
X00686000Y00351000D02*
D03*
Y00361000D02*
D03*
Y00421000D02*
D03*
Y00431000D02*
D03*
X00517000Y00255000D02*
D03*
X00506000Y00245000D02*
D03*
X00608000Y00347000D02*
D03*
X00626000D02*
D03*
X00650000Y00412000D02*
D03*
X00636000Y00417000D02*
D03*
X00622000Y00406000D02*
D03*
X00541000Y00343000D02*
D03*
X00549000Y00367000D02*
D03*
X00538000D02*
D03*
X00549000Y00304000D02*
D03*
X00539000Y00308000D02*
D03*
Y00317000D02*
D03*
X00423000Y00461000D02*
D03*
X00510000Y00433000D02*
D03*
X00500000D02*
D03*
X00490000D02*
D03*
X00445000Y00417000D02*
D03*
X00433000Y00441000D02*
D03*
X00448000Y00457000D02*
D03*
Y00467000D02*
D03*
X00420000Y00425000D02*
D03*
X00410000D02*
D03*
X00400000D02*
D03*
X00382000Y00415000D02*
D03*
X00373000D02*
D03*
X00357000Y00404000D02*
D03*
X00348000D02*
D03*
X00339000D02*
D03*
X00374000Y00352000D02*
D03*
X00337000Y00351000D02*
D03*
X00345000Y00361000D02*
D03*
X00385000Y00309000D02*
D03*
X00367000Y00308000D02*
D03*
X00424000Y00171000D02*
D03*
X00500000Y00187000D02*
D03*
X00422000Y00239000D02*
D03*
Y00228000D02*
D03*
X00430000Y00217000D02*
D03*
X00438000Y00201000D02*
D03*
X00423000Y00203000D02*
D03*
X00436000Y00158000D02*
D03*
X00438000Y00123000D02*
D03*
X00425000Y00141000D02*
D03*
Y00129000D02*
D03*
X00353000Y00156000D02*
D03*
X00319000Y00180000D02*
D03*
X00322000Y00192000D02*
D03*
X00389000Y00245000D02*
D03*
X00367000Y00237000D02*
D03*
X00336000Y00257000D02*
D03*
X00335000Y00280000D02*
D03*
X00333000Y00272000D02*
D03*
X00285000Y00288000D02*
D03*
Y00297000D02*
D03*
X00189000Y00302000D02*
D03*
X00264000Y00357000D02*
D03*
X00257000Y00412000D02*
D03*
X00141000Y00459000D02*
D03*
X00170000D02*
D03*
X00032000Y00455000D02*
D03*
X00041000Y00464000D02*
D03*
X00042000Y00313000D02*
D03*
X00080000Y00279000D02*
D03*
X00072000Y00286000D02*
D03*
X00112000Y00242000D02*
D03*
X00122000Y00249000D02*
D03*
X00043000Y00231000D02*
D03*
X00051000Y00226000D02*
D03*
X00117000Y00199000D02*
D03*
X00077000Y00187000D02*
D03*
Y00175000D02*
D03*
Y00165000D02*
D03*
X00112000Y00169000D02*
D03*
X00596000Y00166000D02*
D03*
X00613000D02*
D03*
X00596000Y00188000D02*
D03*
X00613000D02*
D03*
X00325000Y00112000D02*
D03*
X00123000Y00123000D02*
D03*
X00132000Y00129000D02*
D03*
X00156000Y00078000D02*
D03*
X00186000D02*
D03*
X00217000Y00079000D02*
D03*
X00246000Y00101000D02*
D03*
X00254000Y00093000D02*
D03*
X00290000Y00112000D02*
D03*
X00296000Y00368000D02*
D03*
X00257000Y00332000D02*
D03*
X00236000Y00331999D02*
D03*
X00246000D02*
D03*
X00228000Y00316000D02*
D03*
Y00306000D02*
D03*
X00246000Y00362000D02*
D03*
X00213000Y00311000D02*
D03*
X00315000Y00242000D02*
D03*
X00355000Y00384000D02*
D03*
X00213000Y00300999D02*
D03*
X00443000Y00429000D02*
D03*
X00470000Y00419000D02*
D03*
X00313000Y00370000D02*
D03*
X00282000Y00363000D02*
D03*
X00273000Y00336000D02*
D03*
X00630000Y00391000D02*
D03*
X00585000Y00389000D02*
D03*
X00202000Y00354000D02*
D03*
X00209000Y00348000D02*
D03*
X00213000Y00291000D02*
D03*
X00312000Y00217000D02*
D03*
X00326000Y00232000D02*
D03*
X00307000Y00258000D02*
D03*
X00465000Y00168000D02*
D03*
X00436000Y00172000D02*
D03*
D110*
X00289000Y00055000D02*
D03*
X00272000Y00080000D02*
D03*
X00495000Y00318000D02*
D03*
X00472000Y00402000D02*
D03*
X00488000Y00264000D02*
D03*
X00504000Y00345000D02*
D03*
X00473000Y00236000D02*
D03*
X00137000Y00270000D02*
D03*
X00432000Y00396000D02*
D03*
X00155000Y00260000D02*
D03*
D111*
X00258500Y00387500D02*
D03*
Y00376500D02*
D03*
X00269500D02*
D03*
Y00387500D02*
D03*
M02*
