G04*
G04 #@! TF.GenerationSoftware,Altium Limited,Altium Designer,18.1.7 (191)*
G04*
G04 Layer_Physical_Order=1*
G04 Layer_Color=255*
%FSAX44Y44*%
%MOMM*%
G71*
G01*
G75*
%ADD12C,0.2000*%
%ADD15C,0.1500*%
G04:AMPARAMS|DCode=16|XSize=0.3mm|YSize=0.5mm|CornerRadius=0.075mm|HoleSize=0mm|Usage=FLASHONLY|Rotation=0.000|XOffset=0mm|YOffset=0mm|HoleType=Round|Shape=RoundedRectangle|*
%AMROUNDEDRECTD16*
21,1,0.3000,0.3500,0,0,0.0*
21,1,0.1500,0.5000,0,0,0.0*
1,1,0.1500,0.0750,-0.1750*
1,1,0.1500,-0.0750,-0.1750*
1,1,0.1500,-0.0750,0.1750*
1,1,0.1500,0.0750,0.1750*
%
%ADD16ROUNDEDRECTD16*%
G04:AMPARAMS|DCode=17|XSize=0.95mm|YSize=0.7mm|CornerRadius=0.175mm|HoleSize=0mm|Usage=FLASHONLY|Rotation=270.000|XOffset=0mm|YOffset=0mm|HoleType=Round|Shape=RoundedRectangle|*
%AMROUNDEDRECTD17*
21,1,0.9500,0.3500,0,0,270.0*
21,1,0.6000,0.7000,0,0,270.0*
1,1,0.3500,-0.1750,-0.3000*
1,1,0.3500,-0.1750,0.3000*
1,1,0.3500,0.1750,0.3000*
1,1,0.3500,0.1750,-0.3000*
%
%ADD17ROUNDEDRECTD17*%
%ADD18O,0.8000X0.2500*%
%ADD19O,0.2500X0.8000*%
%ADD20O,1.5000X0.2500*%
%ADD21O,1.9000X0.2500*%
G04:AMPARAMS|DCode=22|XSize=1mm|YSize=0.8mm|CornerRadius=0.2mm|HoleSize=0mm|Usage=FLASHONLY|Rotation=180.000|XOffset=0mm|YOffset=0mm|HoleType=Round|Shape=RoundedRectangle|*
%AMROUNDEDRECTD22*
21,1,1.0000,0.4000,0,0,180.0*
21,1,0.6000,0.8000,0,0,180.0*
1,1,0.4000,-0.3000,0.2000*
1,1,0.4000,0.3000,0.2000*
1,1,0.4000,0.3000,-0.2000*
1,1,0.4000,-0.3000,-0.2000*
%
%ADD22ROUNDEDRECTD22*%
G04:AMPARAMS|DCode=23|XSize=0.3mm|YSize=0.5mm|CornerRadius=0.075mm|HoleSize=0mm|Usage=FLASHONLY|Rotation=270.000|XOffset=0mm|YOffset=0mm|HoleType=Round|Shape=RoundedRectangle|*
%AMROUNDEDRECTD23*
21,1,0.3000,0.3500,0,0,270.0*
21,1,0.1500,0.5000,0,0,270.0*
1,1,0.1500,-0.1750,-0.0750*
1,1,0.1500,-0.1750,0.0750*
1,1,0.1500,0.1750,0.0750*
1,1,0.1500,0.1750,-0.0750*
%
%ADD23ROUNDEDRECTD23*%
G04:AMPARAMS|DCode=24|XSize=1.8mm|YSize=1.3mm|CornerRadius=0.325mm|HoleSize=0mm|Usage=FLASHONLY|Rotation=270.000|XOffset=0mm|YOffset=0mm|HoleType=Round|Shape=RoundedRectangle|*
%AMROUNDEDRECTD24*
21,1,1.8000,0.6500,0,0,270.0*
21,1,1.1500,1.3000,0,0,270.0*
1,1,0.6500,-0.3250,-0.5750*
1,1,0.6500,-0.3250,0.5750*
1,1,0.6500,0.3250,0.5750*
1,1,0.6500,0.3250,-0.5750*
%
%ADD24ROUNDEDRECTD24*%
G04:AMPARAMS|DCode=25|XSize=0.95mm|YSize=0.7mm|CornerRadius=0.175mm|HoleSize=0mm|Usage=FLASHONLY|Rotation=180.000|XOffset=0mm|YOffset=0mm|HoleType=Round|Shape=RoundedRectangle|*
%AMROUNDEDRECTD25*
21,1,0.9500,0.3500,0,0,180.0*
21,1,0.6000,0.7000,0,0,180.0*
1,1,0.3500,-0.3000,0.1750*
1,1,0.3500,0.3000,0.1750*
1,1,0.3500,0.3000,-0.1750*
1,1,0.3500,-0.3000,-0.1750*
%
%ADD25ROUNDEDRECTD25*%
G04:AMPARAMS|DCode=26|XSize=1mm|YSize=0.8mm|CornerRadius=0.2mm|HoleSize=0mm|Usage=FLASHONLY|Rotation=90.000|XOffset=0mm|YOffset=0mm|HoleType=Round|Shape=RoundedRectangle|*
%AMROUNDEDRECTD26*
21,1,1.0000,0.4000,0,0,90.0*
21,1,0.6000,0.8000,0,0,90.0*
1,1,0.4000,0.2000,0.3000*
1,1,0.4000,0.2000,-0.3000*
1,1,0.4000,-0.2000,-0.3000*
1,1,0.4000,-0.2000,0.3000*
%
%ADD26ROUNDEDRECTD26*%
%ADD27R,2.1400X1.1000*%
G04:AMPARAMS|DCode=28|XSize=1.8mm|YSize=1.3mm|CornerRadius=0.325mm|HoleSize=0mm|Usage=FLASHONLY|Rotation=180.000|XOffset=0mm|YOffset=0mm|HoleType=Round|Shape=RoundedRectangle|*
%AMROUNDEDRECTD28*
21,1,1.8000,0.6500,0,0,180.0*
21,1,1.1500,1.3000,0,0,180.0*
1,1,0.6500,-0.5750,0.3250*
1,1,0.6500,0.5750,0.3250*
1,1,0.6500,0.5750,-0.3250*
1,1,0.6500,-0.5750,-0.3250*
%
%ADD28ROUNDEDRECTD28*%
%ADD29R,2.0500X2.5500*%
%ADD30O,0.2500X0.9000*%
%ADD31O,0.9000X0.2500*%
%ADD32O,1.6500X0.6000*%
%ADD33R,0.8700X0.2350*%
%ADD34O,0.6500X0.3000*%
G04:AMPARAMS|DCode=35|XSize=0.6mm|YSize=1mm|CornerRadius=0.15mm|HoleSize=0mm|Usage=FLASHONLY|Rotation=180.000|XOffset=0mm|YOffset=0mm|HoleType=Round|Shape=RoundedRectangle|*
%AMROUNDEDRECTD35*
21,1,0.6000,0.7000,0,0,180.0*
21,1,0.3000,1.0000,0,0,180.0*
1,1,0.3000,-0.1500,0.3500*
1,1,0.3000,0.1500,0.3500*
1,1,0.3000,0.1500,-0.3500*
1,1,0.3000,-0.1500,-0.3500*
%
%ADD35ROUNDEDRECTD35*%
%ADD36R,1.1900X2.9900*%
%ADD37R,1.2000X0.6000*%
%ADD38O,0.2500X0.6500*%
G04:AMPARAMS|DCode=39|XSize=0.2mm|YSize=0.6mm|CornerRadius=0.05mm|HoleSize=0mm|Usage=FLASHONLY|Rotation=180.000|XOffset=0mm|YOffset=0mm|HoleType=Round|Shape=RoundedRectangle|*
%AMROUNDEDRECTD39*
21,1,0.2000,0.5000,0,0,180.0*
21,1,0.1000,0.6000,0,0,180.0*
1,1,0.1000,-0.0500,0.2500*
1,1,0.1000,0.0500,0.2500*
1,1,0.1000,0.0500,-0.2500*
1,1,0.1000,-0.0500,-0.2500*
%
%ADD39ROUNDEDRECTD39*%
G04:AMPARAMS|DCode=40|XSize=0.2mm|YSize=0.6mm|CornerRadius=0.05mm|HoleSize=0mm|Usage=FLASHONLY|Rotation=270.000|XOffset=0mm|YOffset=0mm|HoleType=Round|Shape=RoundedRectangle|*
%AMROUNDEDRECTD40*
21,1,0.2000,0.5000,0,0,270.0*
21,1,0.1000,0.6000,0,0,270.0*
1,1,0.1000,-0.2500,-0.0500*
1,1,0.1000,-0.2500,0.0500*
1,1,0.1000,0.2500,0.0500*
1,1,0.1000,0.2500,-0.0500*
%
%ADD40ROUNDEDRECTD40*%
%ADD41O,0.2000X0.6000*%
%ADD42O,0.6000X0.2000*%
%ADD43R,1.5400X1.7000*%
%ADD44O,0.7500X0.2500*%
%ADD45O,0.2500X0.7500*%
%ADD46O,1.5000X0.6000*%
%ADD47O,0.6000X1.5000*%
G04:AMPARAMS|DCode=48|XSize=1.4mm|YSize=1.15mm|CornerRadius=0.1725mm|HoleSize=0mm|Usage=FLASHONLY|Rotation=270.000|XOffset=0mm|YOffset=0mm|HoleType=Round|Shape=RoundedRectangle|*
%AMROUNDEDRECTD48*
21,1,1.4000,0.8050,0,0,270.0*
21,1,1.0550,1.1500,0,0,270.0*
1,1,0.3450,-0.4025,-0.5275*
1,1,0.3450,-0.4025,0.5275*
1,1,0.3450,0.4025,0.5275*
1,1,0.3450,0.4025,-0.5275*
%
%ADD48ROUNDEDRECTD48*%
%ADD49R,0.9500X0.8000*%
G04:AMPARAMS|DCode=50|XSize=1.2mm|YSize=2.5mm|CornerRadius=0.3mm|HoleSize=0mm|Usage=FLASHONLY|Rotation=90.000|XOffset=0mm|YOffset=0mm|HoleType=Round|Shape=RoundedRectangle|*
%AMROUNDEDRECTD50*
21,1,1.2000,1.9000,0,0,90.0*
21,1,0.6000,2.5000,0,0,90.0*
1,1,0.6000,0.9500,0.3000*
1,1,0.6000,0.9500,-0.3000*
1,1,0.6000,-0.9500,-0.3000*
1,1,0.6000,-0.9500,0.3000*
%
%ADD50ROUNDEDRECTD50*%
G04:AMPARAMS|DCode=51|XSize=2.2mm|YSize=1.3mm|CornerRadius=0.325mm|HoleSize=0mm|Usage=FLASHONLY|Rotation=270.000|XOffset=0mm|YOffset=0mm|HoleType=Round|Shape=RoundedRectangle|*
%AMROUNDEDRECTD51*
21,1,2.2000,0.6500,0,0,270.0*
21,1,1.5500,1.3000,0,0,270.0*
1,1,0.6500,-0.3250,-0.7750*
1,1,0.6500,-0.3250,0.7750*
1,1,0.6500,0.3250,0.7750*
1,1,0.6500,0.3250,-0.7750*
%
%ADD51ROUNDEDRECTD51*%
G04:AMPARAMS|DCode=52|XSize=0.45mm|YSize=1.5mm|CornerRadius=0.1125mm|HoleSize=0mm|Usage=FLASHONLY|Rotation=270.000|XOffset=0mm|YOffset=0mm|HoleType=Round|Shape=RoundedRectangle|*
%AMROUNDEDRECTD52*
21,1,0.4500,1.2750,0,0,270.0*
21,1,0.2250,1.5000,0,0,270.0*
1,1,0.2250,-0.6375,-0.1125*
1,1,0.2250,-0.6375,0.1125*
1,1,0.2250,0.6375,0.1125*
1,1,0.2250,0.6375,-0.1125*
%
%ADD52ROUNDEDRECTD52*%
%ADD90C,1.7000*%
%ADD92R,1.7000X1.7000*%
%ADD94C,1.6000*%
%ADD100C,0.5000*%
%ADD101C,0.7000*%
%ADD102C,0.3000*%
%ADD103C,0.3500*%
%ADD104R,1.8000X0.9500*%
%ADD105R,1.6000X1.6000*%
%ADD106R,1.6000X1.6000*%
%ADD107C,6.0000*%
%ADD108C,1.5000*%
%ADD109C,0.7000*%
%ADD110C,1.1000*%
%ADD111C,0.5000*%
G36*
X00694941Y00005059D02*
X00435701D01*
X00435215Y00006232D01*
X00437174Y00008191D01*
X00539250D01*
X00539250Y00008191D01*
X00540420Y00008424D01*
X00541413Y00009087D01*
X00543502Y00011177D01*
X00548000D01*
X00549463Y00011468D01*
X00550704Y00012296D01*
X00551532Y00013537D01*
X00551824Y00015000D01*
Y00018500D01*
X00551532Y00019963D01*
X00550704Y00021204D01*
X00549463Y00022032D01*
X00548000Y00022324D01*
X00542000D01*
X00540537Y00022032D01*
X00539296Y00021204D01*
X00538468Y00019963D01*
X00538176Y00018500D01*
Y00015000D01*
X00537033Y00014309D01*
X00444782D01*
X00443740Y00015579D01*
X00443823Y00016000D01*
Y00019500D01*
X00443532Y00020963D01*
X00442704Y00022204D01*
X00441463Y00023032D01*
X00440000Y00023323D01*
X00434000D01*
X00432537Y00023032D01*
X00431296Y00022204D01*
X00430468Y00020963D01*
X00430177Y00019500D01*
Y00016000D01*
X00430259Y00015585D01*
X00428733Y00014059D01*
X00327464D01*
X00324059Y00017464D01*
Y00022790D01*
X00324982Y00023155D01*
X00325329Y00023226D01*
X00326177Y00022660D01*
X00327250Y00022446D01*
X00328750D01*
X00329823Y00022660D01*
X00330733Y00023267D01*
X00331183Y00023941D01*
X00342812D01*
X00342868Y00023868D01*
X00344957Y00022265D01*
X00347389Y00021257D01*
X00350000Y00020914D01*
X00352611Y00021257D01*
X00355043Y00022265D01*
X00357132Y00023868D01*
X00358735Y00025957D01*
X00359743Y00028389D01*
X00360086Y00031000D01*
X00359743Y00033610D01*
X00358735Y00036043D01*
X00357132Y00038132D01*
X00355043Y00039735D01*
X00352611Y00040743D01*
X00350000Y00041086D01*
X00347389Y00040743D01*
X00344957Y00039735D01*
X00342868Y00038132D01*
X00341265Y00036043D01*
X00340257Y00033610D01*
X00339914Y00031000D01*
X00339088Y00030059D01*
X00331183D01*
X00331059Y00030245D01*
Y00033177D01*
X00332000D01*
X00333463Y00033468D01*
X00334704Y00034296D01*
X00335532Y00035537D01*
X00335824Y00037000D01*
Y00040500D01*
X00335532Y00041963D01*
X00334704Y00043204D01*
X00333463Y00044032D01*
X00332000Y00044324D01*
X00326000D01*
X00325329Y00044190D01*
X00324059Y00045124D01*
Y00046192D01*
X00324059Y00046192D01*
X00323919Y00046894D01*
X00324048Y00047118D01*
X00324821Y00047845D01*
X00324917Y00047892D01*
X00326000Y00047677D01*
X00332000D01*
X00333463Y00047968D01*
X00334704Y00048796D01*
X00335532Y00050037D01*
X00335824Y00051500D01*
Y00055000D01*
X00335532Y00056463D01*
X00334704Y00057704D01*
X00333463Y00058532D01*
X00332000Y00058823D01*
X00326000D01*
X00324537Y00058532D01*
X00323296Y00057704D01*
X00322468Y00056463D01*
X00322387Y00056059D01*
X00321116D01*
X00320012Y00057163D01*
X00319020Y00057826D01*
X00317849Y00058059D01*
X00317849Y00058059D01*
X00313459D01*
X00311876Y00059642D01*
X00311878Y00059732D01*
X00312272Y00060912D01*
X00337500D01*
X00339256Y00061261D01*
X00340744Y00062256D01*
X00354901Y00076412D01*
X00377397D01*
Y00073588D01*
X00371000D01*
X00369244Y00073239D01*
X00367756Y00072244D01*
X00367532Y00071909D01*
X00367267Y00071733D01*
X00366660Y00070823D01*
X00366446Y00069750D01*
Y00069172D01*
X00366412Y00069000D01*
Y00036000D01*
X00366488Y00035616D01*
X00365657Y00033610D01*
X00365314Y00031000D01*
X00365657Y00028389D01*
X00366665Y00025957D01*
X00368268Y00023868D01*
X00370357Y00022265D01*
X00372789Y00021257D01*
X00375400Y00020914D01*
X00378010Y00021257D01*
X00380443Y00022265D01*
X00382532Y00023868D01*
X00384135Y00025957D01*
X00385143Y00028389D01*
X00385486Y00031000D01*
X00385143Y00033610D01*
X00384135Y00036043D01*
X00382532Y00038132D01*
X00380443Y00039735D01*
X00378010Y00040743D01*
X00375588Y00041062D01*
Y00064412D01*
X00380541D01*
X00380701Y00064305D01*
X00382750Y00063897D01*
X00389250D01*
X00391298Y00064305D01*
X00393035Y00065465D01*
X00394195Y00067202D01*
X00394603Y00069250D01*
Y00079672D01*
X00398823Y00083892D01*
X00488220D01*
X00488457Y00083448D01*
X00488770Y00082622D01*
X00488397Y00080750D01*
Y00073588D01*
X00481000D01*
X00479244Y00073239D01*
X00477756Y00072244D01*
X00477532Y00071909D01*
X00477267Y00071733D01*
X00476660Y00070823D01*
X00476446Y00069750D01*
Y00069172D01*
X00476412Y00069000D01*
Y00037538D01*
X00475265Y00036043D01*
X00474257Y00033610D01*
X00473914Y00031000D01*
X00474257Y00028389D01*
X00475265Y00025957D01*
X00476868Y00023868D01*
X00478957Y00022265D01*
X00481390Y00021257D01*
X00484000Y00020914D01*
X00486610Y00021257D01*
X00489043Y00022265D01*
X00491132Y00023868D01*
X00492735Y00025957D01*
X00493743Y00028389D01*
X00494086Y00031000D01*
X00493743Y00033610D01*
X00492735Y00036043D01*
X00491132Y00038132D01*
X00489043Y00039735D01*
X00486610Y00040743D01*
X00485588Y00040877D01*
Y00064412D01*
X00491000D01*
X00491417Y00064495D01*
X00491702Y00064305D01*
X00493750Y00063897D01*
X00500250D01*
X00502298Y00064305D01*
X00504035Y00065465D01*
X00505195Y00067202D01*
X00505603Y00069250D01*
Y00080750D01*
X00505230Y00082622D01*
X00505542Y00083448D01*
X00505780Y00083892D01*
X00588177D01*
X00593397Y00078672D01*
Y00073588D01*
X00588000D01*
X00586244Y00073239D01*
X00584756Y00072244D01*
X00584532Y00071909D01*
X00584267Y00071733D01*
X00583660Y00070823D01*
X00583446Y00069750D01*
Y00069172D01*
X00583412Y00069000D01*
Y00036234D01*
X00583265Y00036043D01*
X00582257Y00033610D01*
X00581914Y00031000D01*
X00582257Y00028389D01*
X00583265Y00025957D01*
X00584868Y00023868D01*
X00586957Y00022265D01*
X00589389Y00021257D01*
X00592000Y00020914D01*
X00594610Y00021257D01*
X00597043Y00022265D01*
X00599132Y00023868D01*
X00600735Y00025957D01*
X00601743Y00028389D01*
X00602086Y00031000D01*
X00601743Y00033610D01*
X00600735Y00036043D01*
X00599132Y00038132D01*
X00597043Y00039735D01*
X00594610Y00040743D01*
X00592588Y00041009D01*
Y00064412D01*
X00596000D01*
X00596417Y00064495D01*
X00596702Y00064305D01*
X00598750Y00063897D01*
X00605250D01*
X00607299Y00064305D01*
X00609035Y00065465D01*
X00610195Y00067202D01*
X00610603Y00069250D01*
Y00080750D01*
X00610195Y00082798D01*
X00609035Y00084535D01*
X00607299Y00085695D01*
X00605250Y00086103D01*
X00601828D01*
X00594465Y00093465D01*
X00592646Y00094681D01*
X00590500Y00095108D01*
X00535039D01*
Y00173000D01*
X00534884Y00173780D01*
X00534442Y00174442D01*
X00533780Y00174884D01*
X00533000Y00175039D01*
X00495700D01*
Y00183200D01*
X00474126D01*
X00473165Y00184161D01*
X00472173Y00184824D01*
X00471002Y00185057D01*
X00471002Y00185057D01*
X00466775D01*
X00466768Y00185061D01*
X00465500Y00185314D01*
X00453000D01*
X00451732Y00185061D01*
X00450657Y00184343D01*
X00449939Y00183268D01*
X00449686Y00182000D01*
X00449939Y00180732D01*
X00450482Y00179919D01*
X00450558Y00178442D01*
X00450116Y00177780D01*
X00449961Y00177000D01*
Y00095108D01*
X00396500D01*
X00394354Y00094681D01*
X00392535Y00093465D01*
X00385172Y00086103D01*
X00382750D01*
X00380701Y00085695D01*
X00380541Y00085588D01*
X00352901D01*
X00345244Y00093244D01*
X00343756Y00094239D01*
X00342000Y00094588D01*
X00331081D01*
X00330884Y00094884D01*
X00329561Y00095768D01*
X00328000Y00096078D01*
X00322000D01*
X00320439Y00095768D01*
X00319116Y00094884D01*
X00318982Y00094683D01*
X00317255Y00094358D01*
X00317049Y00094500D01*
X00316855Y00095475D01*
X00316302Y00096302D01*
X00315475Y00096855D01*
X00314500Y00097049D01*
X00313419D01*
X00313049Y00097500D01*
Y00100950D01*
X00313059Y00101000D01*
Y00143485D01*
X00313059Y00143485D01*
X00312826Y00144656D01*
X00312163Y00145648D01*
X00312163Y00145648D01*
X00304050Y00153761D01*
X00304098Y00154000D01*
X00303710Y00155951D01*
X00302945Y00157095D01*
X00302708Y00158000D01*
X00302945Y00158905D01*
X00303710Y00160049D01*
X00304098Y00162000D01*
X00303710Y00163951D01*
X00302945Y00165095D01*
X00302708Y00166000D01*
X00302945Y00166905D01*
X00303710Y00168049D01*
X00304033Y00169674D01*
X00305243Y00170260D01*
X00316665Y00158837D01*
X00317658Y00158174D01*
X00318828Y00157941D01*
X00318829Y00157941D01*
X00324733D01*
X00332177Y00150498D01*
Y00148500D01*
X00332468Y00147037D01*
X00333296Y00145796D01*
X00334537Y00144968D01*
X00336000Y00144677D01*
X00342000D01*
X00343463Y00144968D01*
X00344704Y00145796D01*
X00345532Y00147037D01*
X00345823Y00148500D01*
Y00152000D01*
X00345532Y00153463D01*
X00345060Y00154171D01*
X00344704Y00155296D01*
X00345532Y00156537D01*
X00345824Y00158000D01*
Y00161500D01*
X00345532Y00162963D01*
X00344704Y00164204D01*
X00343463Y00165032D01*
X00342000Y00165323D01*
X00336002D01*
X00334163Y00167163D01*
X00333171Y00167826D01*
X00332000Y00168059D01*
X00332000Y00168059D01*
X00321752D01*
X00304050Y00185761D01*
X00304098Y00186000D01*
X00303710Y00187951D01*
X00302605Y00189605D01*
X00300951Y00190710D01*
X00299000Y00191098D01*
X00290000D01*
X00288206Y00190741D01*
X00288027Y00191421D01*
X00287880Y00191725D01*
X00287750Y00192038D01*
X00287211Y00192845D01*
X00286981Y00194000D01*
X00287211Y00195155D01*
X00287865Y00196135D01*
X00288845Y00196789D01*
X00289706Y00196960D01*
X00290000Y00196902D01*
X00299000D01*
X00300951Y00197290D01*
X00301133Y00197412D01*
X00305919D01*
X00306116Y00197116D01*
X00307439Y00196232D01*
X00309000Y00195922D01*
X00315000D01*
X00316561Y00196232D01*
X00317884Y00197116D01*
X00318768Y00198439D01*
X00319078Y00200000D01*
Y00204000D01*
X00318768Y00205561D01*
X00317884Y00206884D01*
X00316561Y00207768D01*
X00315000Y00208078D01*
X00309000D01*
X00307439Y00207768D01*
X00306116Y00206884D01*
X00305919Y00206588D01*
X00304081D01*
X00303482Y00207708D01*
X00303710Y00208049D01*
X00304041Y00209716D01*
X00307421Y00213095D01*
X00308035Y00213035D01*
X00309854Y00211819D01*
X00312000Y00211392D01*
X00314146Y00211819D01*
X00315965Y00213035D01*
X00317181Y00214854D01*
X00317608Y00217000D01*
X00317181Y00219146D01*
X00316471Y00220208D01*
X00317030Y00221657D01*
X00317140Y00221685D01*
X00319488Y00219337D01*
X00319488Y00219337D01*
X00320480Y00218674D01*
X00321651Y00218441D01*
X00330349D01*
X00330349Y00218441D01*
X00331520Y00218674D01*
X00332512Y00219337D01*
X00334116Y00220941D01*
X00386000D01*
X00386000Y00220941D01*
X00387170Y00221174D01*
X00388163Y00221837D01*
X00427017Y00260691D01*
X00437456D01*
X00437916Y00259581D01*
X00437096Y00258705D01*
X00436500Y00258824D01*
X00433000D01*
X00431537Y00258532D01*
X00430296Y00257704D01*
X00429468Y00256463D01*
X00429177Y00255000D01*
Y00249000D01*
X00429468Y00247537D01*
X00430296Y00246296D01*
X00431537Y00245468D01*
X00433000Y00245177D01*
X00436500D01*
X00437963Y00245468D01*
X00439204Y00246296D01*
X00440032Y00247537D01*
X00440323Y00249000D01*
Y00253248D01*
X00442458Y00255382D01*
X00443212Y00255146D01*
X00443677Y00254805D01*
Y00249000D01*
X00443968Y00247537D01*
X00444796Y00246296D01*
X00446037Y00245468D01*
X00446191Y00245437D01*
Y00228267D01*
X00444837Y00226913D01*
X00444174Y00225921D01*
X00443941Y00224750D01*
X00443941Y00224750D01*
Y00221071D01*
X00443941Y00221071D01*
X00443976Y00220894D01*
X00443941Y00220718D01*
Y00209000D01*
X00443941Y00209000D01*
X00444174Y00207829D01*
X00444837Y00206837D01*
X00445343Y00206331D01*
Y00205289D01*
X00445186Y00204500D01*
Y00199000D01*
X00445439Y00197732D01*
X00446157Y00196657D01*
X00447232Y00195939D01*
X00448500Y00195686D01*
X00449405Y00195867D01*
X00450531Y00195037D01*
X00450482Y00194081D01*
X00449939Y00193268D01*
X00449686Y00192000D01*
X00449939Y00190732D01*
X00450657Y00189657D01*
X00451732Y00188939D01*
X00453000Y00188686D01*
X00465500D01*
X00466768Y00188939D01*
X00466769Y00188939D01*
X00471998D01*
X00471998Y00188939D01*
X00473168Y00189172D01*
X00474161Y00189835D01*
X00475126Y00190800D01*
X00495700D01*
Y00205800D01*
X00483039D01*
X00483039Y00243941D01*
X00495733D01*
X00496441Y00243233D01*
Y00242308D01*
X00496441Y00242308D01*
X00496674Y00241137D01*
X00497337Y00240145D01*
X00501645Y00235837D01*
X00502637Y00235174D01*
X00503808Y00234941D01*
X00503808Y00234941D01*
X00509000D01*
X00509000Y00234941D01*
X00510171Y00235174D01*
X00511163Y00235837D01*
X00515267Y00239941D01*
X00605000D01*
X00605000Y00239941D01*
X00606171Y00240174D01*
X00607163Y00240837D01*
X00611239Y00244913D01*
X00612412Y00244427D01*
Y00216901D01*
X00609114Y00213603D01*
X00599250D01*
X00597202Y00213195D01*
X00595465Y00212035D01*
X00594305Y00210298D01*
X00593897Y00208250D01*
Y00201750D01*
X00594305Y00199702D01*
X00595465Y00197965D01*
X00597202Y00196805D01*
X00599250Y00196397D01*
X00610750D01*
X00612798Y00196805D01*
X00614535Y00197965D01*
X00615695Y00199702D01*
X00615837Y00200412D01*
X00645500D01*
Y00194500D01*
X00666500D01*
Y00215500D01*
X00645500D01*
Y00209588D01*
X00619736D01*
X00619250Y00210762D01*
X00620244Y00211756D01*
X00621239Y00213244D01*
X00621588Y00215000D01*
Y00341806D01*
X00622858Y00342485D01*
X00623854Y00341819D01*
X00626000Y00341392D01*
X00628146Y00341819D01*
X00629965Y00343035D01*
X00631181Y00344854D01*
X00631608Y00347000D01*
X00631181Y00349146D01*
X00629965Y00350965D01*
X00629159Y00351504D01*
X00629087Y00352762D01*
X00640767Y00364441D01*
X00644339D01*
X00644339Y00364441D01*
X00645509Y00364674D01*
X00646502Y00365337D01*
X00649606Y00368441D01*
X00665831D01*
X00665832Y00368441D01*
X00667002Y00368674D01*
X00667994Y00369337D01*
X00672663Y00374006D01*
X00672663Y00374006D01*
X00673326Y00374998D01*
X00673559Y00376169D01*
Y00462631D01*
X00674829Y00463062D01*
X00675364Y00462364D01*
X00676722Y00461322D01*
X00678303Y00460667D01*
X00680000Y00460444D01*
X00681697Y00460667D01*
X00683278Y00461322D01*
X00684636Y00462364D01*
X00685678Y00463722D01*
X00686333Y00465303D01*
X00686556Y00467000D01*
X00686333Y00468697D01*
X00685678Y00470278D01*
X00684636Y00471636D01*
X00683278Y00472678D01*
X00681697Y00473333D01*
X00680000Y00473556D01*
X00678303Y00473333D01*
X00676722Y00472678D01*
X00675364Y00471636D01*
X00674829Y00470938D01*
X00673559Y00471369D01*
Y00487500D01*
X00673326Y00488671D01*
X00672663Y00489663D01*
X00664553Y00497773D01*
X00664598Y00498000D01*
Y00504000D01*
X00664210Y00505951D01*
X00663105Y00507605D01*
X00661451Y00508710D01*
X00659500Y00509098D01*
X00640500D01*
X00638549Y00508710D01*
X00636895Y00507605D01*
X00635790Y00505951D01*
X00635402Y00504000D01*
Y00498000D01*
X00635790Y00496049D01*
X00636895Y00494395D01*
X00638549Y00493290D01*
X00640500Y00492902D01*
X00659500D01*
X00660561Y00493113D01*
X00667441Y00486233D01*
Y00402409D01*
X00666171Y00401650D01*
X00665371Y00401809D01*
X00652621D01*
X00651402Y00401567D01*
X00650368Y00400876D01*
X00649677Y00399842D01*
X00649435Y00398623D01*
Y00396373D01*
X00649677Y00395154D01*
X00650282Y00394248D01*
X00649677Y00393342D01*
X00649435Y00392123D01*
Y00389873D01*
X00649677Y00388654D01*
X00650282Y00387748D01*
X00649677Y00386842D01*
X00649435Y00385623D01*
Y00383373D01*
X00649537Y00382858D01*
X00648644Y00381588D01*
X00646837D01*
X00646695Y00382299D01*
X00645535Y00384035D01*
X00643798Y00385195D01*
X00641750Y00385603D01*
X00634108D01*
X00633723Y00386873D01*
X00633965Y00387035D01*
X00635181Y00388854D01*
X00635608Y00391000D01*
X00635181Y00393146D01*
X00633965Y00394965D01*
X00632146Y00396181D01*
X00630000Y00396608D01*
X00627854Y00396181D01*
X00627429Y00395897D01*
X00623163Y00400163D01*
X00622170Y00400826D01*
X00622153Y00400829D01*
X00622023Y00401023D01*
X00620866Y00401797D01*
X00619500Y00402069D01*
X00616000D01*
X00614634Y00401797D01*
X00614120Y00401453D01*
X00612850Y00401675D01*
X00612244Y00402244D01*
X00610756Y00403239D01*
X00609000Y00403588D01*
X00570750D01*
X00568994Y00403239D01*
X00567506Y00402244D01*
X00562301Y00397039D01*
X00544588D01*
Y00420099D01*
X00594901Y00470412D01*
X00636216D01*
X00636895Y00469395D01*
X00638549Y00468290D01*
X00640500Y00467902D01*
X00659500D01*
X00661451Y00468290D01*
X00663105Y00469395D01*
X00664210Y00471049D01*
X00664598Y00473000D01*
Y00479000D01*
X00664210Y00480951D01*
X00663105Y00482605D01*
X00661451Y00483710D01*
X00659500Y00484098D01*
X00640500D01*
X00638549Y00483710D01*
X00636895Y00482605D01*
X00635790Y00480951D01*
X00635519Y00479588D01*
X00593000D01*
X00591244Y00479239D01*
X00589756Y00478244D01*
X00540000Y00428489D01*
X00504244Y00464244D01*
X00502756Y00465239D01*
X00501000Y00465588D01*
X00474039D01*
Y00471000D01*
X00473884Y00471780D01*
X00473442Y00472442D01*
X00472780Y00472884D01*
X00472000Y00473039D01*
X00453470Y00473039D01*
X00453176Y00472981D01*
X00452878Y00472951D01*
X00452788Y00472904D01*
X00452689Y00472884D01*
X00452440Y00472718D01*
X00452176Y00472576D01*
X00452112Y00472498D01*
X00452028Y00472442D01*
X00451861Y00472193D01*
X00451671Y00471961D01*
X00450992Y00470691D01*
X00450905Y00470405D01*
X00450791Y00470128D01*
Y00470027D01*
X00450761Y00469930D01*
X00450791Y00469632D01*
Y00469332D01*
X00450829Y00469239D01*
X00450839Y00469138D01*
X00450980Y00468874D01*
X00451095Y00468597D01*
X00451260Y00468350D01*
X00451529Y00467000D01*
X00451260Y00465650D01*
X00450495Y00464505D01*
X00450234Y00464331D01*
X00450092Y00464189D01*
X00449925Y00464077D01*
X00449813Y00463910D01*
X00449672Y00463768D01*
X00449595Y00463582D01*
X00449483Y00463415D01*
X00449444Y00463218D01*
X00449367Y00463033D01*
Y00462832D01*
X00449328Y00462635D01*
Y00461365D01*
X00449367Y00461168D01*
Y00460967D01*
X00449444Y00460782D01*
X00449483Y00460585D01*
X00449595Y00460418D01*
X00449672Y00460232D01*
X00449813Y00460090D01*
X00449925Y00459923D01*
X00450092Y00459811D01*
X00450234Y00459669D01*
X00450495Y00459495D01*
X00451260Y00458350D01*
X00451529Y00457000D01*
X00451260Y00455650D01*
X00450495Y00454505D01*
X00449265Y00453683D01*
X00449220Y00453674D01*
X00449053Y00453562D01*
X00448867Y00453485D01*
X00448725Y00453344D01*
X00448558Y00453232D01*
X00448446Y00453065D01*
X00448304Y00452923D01*
X00448228Y00452737D01*
X00448116Y00452570D01*
X00448077Y00452373D01*
X00448000Y00452188D01*
X00448000Y00451987D01*
X00447961Y00451790D01*
Y00449000D01*
Y00433000D01*
X00448116Y00432220D01*
X00448558Y00431558D01*
X00449220Y00431116D01*
X00450000Y00430961D01*
X00451000D01*
Y00430960D01*
X00451077Y00430775D01*
X00451116Y00430578D01*
X00451228Y00430411D01*
X00451304Y00430225D01*
X00451640Y00429722D01*
X00451774Y00429049D01*
Y00425451D01*
X00451619Y00424668D01*
Y00424357D01*
X00451592Y00424047D01*
X00451619Y00423962D01*
Y00423872D01*
X00451738Y00423585D01*
X00451831Y00423288D01*
X00452340Y00422362D01*
X00452487Y00422188D01*
X00452602Y00421991D01*
X00452907Y00421646D01*
X00452957Y00421609D01*
X00452991Y00421558D01*
X00453272Y00421370D01*
X00453541Y00421166D01*
X00453601Y00421150D01*
X00453652Y00421116D01*
X00453984Y00421050D01*
X00454311Y00420964D01*
X00454372Y00420973D01*
X00454433Y00420961D01*
X00456683D01*
X00456966Y00421017D01*
X00457253Y00421042D01*
X00457353Y00421094D01*
X00457464Y00421116D01*
X00457703Y00421276D01*
X00457959Y00421409D01*
X00458031Y00421495D01*
X00458125Y00421558D01*
X00458285Y00421798D01*
X00458471Y00422018D01*
X00459168Y00423288D01*
X00459262Y00423585D01*
X00459381Y00423872D01*
Y00423962D01*
X00459408Y00424047D01*
X00459381Y00424357D01*
Y00424668D01*
X00459225Y00425451D01*
Y00429049D01*
X00459359Y00429722D01*
X00459627Y00430123D01*
X00460133Y00430461D01*
X00460223Y00430551D01*
X00460803Y00430663D01*
X00461438Y00430574D01*
X00462242Y00429529D01*
X00462186Y00429250D01*
Y00425250D01*
X00462439Y00423982D01*
X00463157Y00422907D01*
X00464232Y00422189D01*
X00465500Y00421936D01*
X00466768Y00422189D01*
X00467843Y00422907D01*
X00468561Y00423982D01*
X00468603Y00424191D01*
X00473922D01*
Y00421000D01*
X00474232Y00419439D01*
X00473768Y00418442D01*
X00473656Y00418275D01*
X00473514Y00418133D01*
X00473437Y00417947D01*
X00473326Y00417780D01*
X00473317Y00417735D01*
X00472495Y00416505D01*
X00471350Y00415740D01*
X00470000Y00415471D01*
X00468650Y00415740D01*
X00468403Y00415905D01*
X00468126Y00416020D01*
X00467862Y00416161D01*
X00467761Y00416171D01*
X00467668Y00416209D01*
X00467368D01*
X00467070Y00416239D01*
X00466973Y00416209D01*
X00466872D01*
X00466595Y00416095D01*
X00466309Y00416008D01*
X00465039Y00415329D01*
X00464807Y00415139D01*
X00464558Y00414972D01*
X00464502Y00414888D01*
X00464424Y00414824D01*
X00464282Y00414560D01*
X00464116Y00414311D01*
X00464096Y00414212D01*
X00464049Y00414123D01*
X00464040Y00414039D01*
X00464000D01*
X00463220Y00413884D01*
X00462558Y00413442D01*
X00462116Y00412780D01*
X00460781Y00412022D01*
X00460701Y00412024D01*
X00460500Y00412064D01*
X00459232Y00411811D01*
X00458996Y00411654D01*
X00458000Y00411170D01*
X00457004Y00411654D01*
X00456768Y00411811D01*
X00455500Y00412064D01*
X00454232Y00411811D01*
X00453996Y00411654D01*
X00453000Y00411170D01*
X00452004Y00411654D01*
X00451768Y00411811D01*
X00450500Y00412064D01*
X00449232Y00411811D01*
X00448157Y00411093D01*
X00447439Y00410018D01*
X00447186Y00408750D01*
Y00408541D01*
X00446968Y00408213D01*
X00446676Y00406750D01*
Y00397950D01*
X00439308D01*
X00439307Y00397958D01*
X00438551Y00399782D01*
X00437349Y00401349D01*
X00435782Y00402551D01*
X00433958Y00403307D01*
X00432000Y00403565D01*
X00430042Y00403307D01*
X00428218Y00402551D01*
X00426651Y00401349D01*
X00425089Y00401400D01*
X00425078Y00401410D01*
Y00404000D01*
X00424768Y00405561D01*
X00423884Y00406884D01*
X00422561Y00407768D01*
X00421000Y00408078D01*
X00415000D01*
X00413439Y00407768D01*
X00412116Y00406884D01*
X00411919Y00406588D01*
X00409081D01*
X00408884Y00406884D01*
X00407561Y00407768D01*
X00406000Y00408078D01*
X00400000D01*
X00398439Y00407768D01*
X00397116Y00406884D01*
X00396919Y00406588D01*
X00392551D01*
X00392297Y00407866D01*
X00391523Y00409023D01*
X00390366Y00409797D01*
X00389000Y00410069D01*
X00386000D01*
X00384634Y00409797D01*
X00383477Y00409023D01*
X00382703Y00407866D01*
X00382431Y00406500D01*
Y00402598D01*
X00382412Y00402500D01*
Y00402000D01*
X00382431Y00401902D01*
Y00399500D01*
X00382528Y00399016D01*
X00381600Y00398088D01*
X00374400D01*
X00373472Y00399016D01*
X00373568Y00399500D01*
Y00406500D01*
X00373297Y00407866D01*
X00372523Y00409023D01*
X00371366Y00409797D01*
X00370000Y00410069D01*
X00367000D01*
X00365634Y00409797D01*
X00364477Y00409023D01*
X00363703Y00407866D01*
X00363431Y00406500D01*
Y00400098D01*
X00363412Y00400000D01*
Y00398000D01*
X00363761Y00396244D01*
X00364756Y00394756D01*
X00369256Y00390256D01*
X00370744Y00389261D01*
X00372500Y00388912D01*
X00383500D01*
X00385256Y00389261D01*
X00386744Y00390256D01*
X00391244Y00394756D01*
X00392239Y00396244D01*
X00392471Y00397412D01*
X00396919D01*
X00397116Y00397116D01*
X00398439Y00396232D01*
X00400000Y00395922D01*
X00406000D01*
X00407561Y00396232D01*
X00408884Y00397116D01*
X00409081Y00397412D01*
X00411919D01*
X00412116Y00397116D01*
X00413439Y00396232D01*
X00415000Y00395922D01*
X00417590D01*
X00420756Y00392756D01*
X00422244Y00391761D01*
X00424000Y00391412D01*
X00426067D01*
X00426651Y00390651D01*
X00427412Y00390067D01*
Y00339901D01*
X00380099Y00292588D01*
X00315900D01*
X00299244Y00309244D01*
X00297756Y00310239D01*
X00296000Y00310588D01*
X00288588D01*
Y00325000D01*
X00288239Y00326756D01*
X00287244Y00328244D01*
X00279774Y00335714D01*
X00279792Y00335856D01*
X00280343Y00336941D01*
X00290429D01*
X00291035Y00336035D01*
X00292854Y00334819D01*
X00295000Y00334392D01*
X00297146Y00334819D01*
X00298965Y00336035D01*
X00300181Y00337854D01*
X00300608Y00340000D01*
X00300181Y00342146D01*
X00298965Y00343965D01*
X00297146Y00345181D01*
X00295000Y00345608D01*
X00292854Y00345181D01*
X00291188Y00344067D01*
X00290607Y00344273D01*
X00290018Y00344697D01*
X00290078Y00345000D01*
Y00351000D01*
X00289768Y00352561D01*
X00288884Y00353884D01*
X00287561Y00354768D01*
X00286000Y00355078D01*
X00285059D01*
Y00358429D01*
X00285528Y00358743D01*
X00286303Y00358937D01*
X00287244Y00358663D01*
X00303441Y00342466D01*
Y00336530D01*
X00303441Y00336530D01*
X00303674Y00335359D01*
X00304337Y00334367D01*
X00325867Y00312837D01*
X00325867Y00312837D01*
X00326859Y00312174D01*
X00328030Y00311941D01*
X00334657D01*
X00334657Y00311941D01*
X00334657Y00311941D01*
X00336941D01*
Y00308000D01*
X00337174Y00306829D01*
X00337837Y00305837D01*
X00338829Y00305174D01*
X00340000Y00304941D01*
X00341171Y00305174D01*
X00342000Y00305728D01*
X00342830Y00305174D01*
X00344000Y00304941D01*
X00345171Y00305174D01*
X00346000Y00305728D01*
X00346829Y00305174D01*
X00348000Y00304941D01*
X00349170Y00305174D01*
X00350000Y00305728D01*
X00350830Y00305174D01*
X00352000Y00304941D01*
X00353171Y00305174D01*
X00354000Y00305728D01*
X00354829Y00305174D01*
X00356000Y00304941D01*
X00357171Y00305174D01*
X00358000Y00305728D01*
X00358829Y00305174D01*
X00360000Y00304941D01*
X00361171Y00305174D01*
X00362163Y00305837D01*
X00362826Y00306829D01*
X00363059Y00308000D01*
Y00311941D01*
X00367000D01*
X00368171Y00312174D01*
X00368172Y00312175D01*
X00368187Y00312185D01*
X00369232Y00312439D01*
X00370116Y00311116D01*
X00371439Y00310232D01*
X00373000Y00309922D01*
X00379000D01*
X00380561Y00310232D01*
X00381884Y00311116D01*
X00382768Y00312439D01*
X00383078Y00314000D01*
Y00315941D01*
X00386000D01*
X00386000Y00315941D01*
X00387170Y00316174D01*
X00388163Y00316837D01*
X00393163Y00321837D01*
X00393826Y00322830D01*
X00394059Y00324000D01*
X00394059Y00324000D01*
Y00350657D01*
X00393826Y00351827D01*
X00393163Y00352820D01*
X00393163Y00352820D01*
X00384559Y00361424D01*
Y00368692D01*
X00384559Y00368692D01*
X00384326Y00369863D01*
X00383663Y00370855D01*
X00383663Y00370855D01*
X00367855Y00386663D01*
X00366863Y00387326D01*
X00365692Y00387559D01*
X00365692Y00387559D01*
X00359237D01*
X00358965Y00387965D01*
X00357146Y00389181D01*
X00355000Y00389608D01*
X00352854Y00389181D01*
X00351035Y00387965D01*
X00349819Y00386146D01*
X00349404Y00384059D01*
X00334059D01*
Y00418733D01*
X00337247Y00421922D01*
X00342000D01*
X00343561Y00422232D01*
X00344884Y00423116D01*
X00345236Y00423644D01*
X00346764D01*
X00347116Y00423116D01*
X00348439Y00422232D01*
X00350000Y00421922D01*
X00356000D01*
X00357561Y00422232D01*
X00358884Y00423116D01*
X00359768Y00424439D01*
X00359868Y00424941D01*
X00363431D01*
Y00423500D01*
X00363703Y00422134D01*
X00364477Y00420977D01*
X00365634Y00420203D01*
X00367000Y00419931D01*
X00370000D01*
X00371366Y00420203D01*
X00372523Y00420977D01*
X00373297Y00422134D01*
X00373568Y00423500D01*
Y00430500D01*
X00373297Y00431866D01*
X00372523Y00433023D01*
X00371366Y00433797D01*
X00370000Y00434069D01*
X00367000D01*
X00365634Y00433797D01*
X00364477Y00433023D01*
X00363703Y00431866D01*
X00363543Y00431059D01*
X00359868D01*
X00359768Y00431561D01*
X00358884Y00432884D01*
X00357561Y00433768D01*
X00356000Y00434078D01*
X00350000D01*
X00348439Y00433768D01*
X00347116Y00432884D01*
X00346764Y00432356D01*
X00345236D01*
X00344884Y00432884D01*
X00343561Y00433768D01*
X00342000Y00434078D01*
X00336000D01*
X00334439Y00433768D01*
X00333116Y00432884D01*
X00332232Y00431561D01*
X00331922Y00430000D01*
Y00426000D01*
X00332047Y00425372D01*
X00328837Y00422163D01*
X00328174Y00421171D01*
X00327941Y00420000D01*
X00327941Y00420000D01*
Y00384059D01*
X00304924D01*
X00295059Y00393924D01*
Y00394175D01*
X00296181Y00395854D01*
X00296608Y00398000D01*
X00296181Y00400146D01*
X00294965Y00401965D01*
X00293146Y00403181D01*
X00291000Y00403608D01*
X00288854Y00403181D01*
X00287035Y00401965D01*
X00286930Y00401809D01*
X00274814D01*
Y00404500D01*
X00274561Y00405768D01*
X00273843Y00406843D01*
X00272768Y00407561D01*
X00271500Y00407814D01*
X00270232Y00407561D01*
X00269157Y00406843D01*
X00268439Y00405768D01*
X00268186Y00404500D01*
Y00398000D01*
X00268439Y00396732D01*
X00269157Y00395657D01*
X00270232Y00394939D01*
X00271500Y00394686D01*
X00272768Y00394939D01*
X00273011Y00395101D01*
X00273717Y00394740D01*
X00274211Y00394375D01*
X00274438Y00393232D01*
X00274596Y00392996D01*
X00275081Y00392000D01*
X00274596Y00391004D01*
X00274438Y00390768D01*
X00274186Y00389500D01*
X00274438Y00388232D01*
X00274596Y00387996D01*
X00275081Y00387000D01*
X00274596Y00386004D01*
X00274438Y00385768D01*
X00274186Y00384500D01*
X00274438Y00383232D01*
X00275157Y00382157D01*
Y00381843D01*
X00274438Y00380768D01*
X00274186Y00379500D01*
X00274438Y00378232D01*
X00275157Y00377157D01*
Y00376843D01*
X00274438Y00375768D01*
X00274186Y00374500D01*
X00274438Y00373232D01*
X00274596Y00372996D01*
X00275081Y00372000D01*
X00274596Y00371004D01*
X00274438Y00370768D01*
X00274211Y00369625D01*
X00273717Y00369260D01*
X00273011Y00368899D01*
X00272768Y00369061D01*
X00271500Y00369314D01*
X00270232Y00369061D01*
X00269157Y00368343D01*
X00268439Y00367268D01*
X00268186Y00366000D01*
Y00359500D01*
X00268439Y00358232D01*
X00269157Y00357157D01*
X00270232Y00356439D01*
X00271485Y00356189D01*
X00273941Y00353733D01*
Y00353071D01*
X00273941Y00353071D01*
X00273941Y00353071D01*
Y00342929D01*
X00273941Y00342929D01*
X00273985Y00342707D01*
X00273022Y00341632D01*
X00272913Y00341590D01*
X00270854Y00341181D01*
X00269035Y00339965D01*
X00267819Y00338146D01*
X00267392Y00336000D01*
X00267819Y00333854D01*
X00269035Y00332035D01*
X00270854Y00330819D01*
X00271900Y00330611D01*
X00275515Y00326997D01*
X00275029Y00325824D01*
X00271502D01*
X00263163Y00334163D01*
X00262171Y00334826D01*
X00261658Y00334928D01*
X00260965Y00335965D01*
X00259146Y00337181D01*
X00257000Y00337608D01*
X00254854Y00337181D01*
X00253035Y00335965D01*
X00252249Y00334789D01*
X00250751Y00334789D01*
X00249965Y00335965D01*
X00249966Y00336041D01*
X00250210Y00337328D01*
X00250971Y00337837D01*
X00252163Y00339029D01*
X00252163Y00339029D01*
X00252826Y00340022D01*
X00253059Y00341192D01*
X00253059Y00341192D01*
Y00351804D01*
X00255092Y00353837D01*
X00255092Y00353837D01*
X00257675Y00356420D01*
X00257768Y00356439D01*
X00258843Y00357157D01*
X00259561Y00358232D01*
X00259814Y00359500D01*
Y00366000D01*
X00259561Y00367268D01*
X00258843Y00368343D01*
X00257768Y00369061D01*
X00256500Y00369314D01*
X00255232Y00369061D01*
X00254989Y00368899D01*
X00254283Y00369260D01*
X00253789Y00369625D01*
X00253561Y00370768D01*
X00252843Y00371843D01*
Y00372157D01*
X00253561Y00373232D01*
X00253814Y00374500D01*
X00253561Y00375768D01*
X00253404Y00376004D01*
X00252919Y00377000D01*
X00253404Y00377996D01*
X00253561Y00378232D01*
X00253814Y00379500D01*
X00253561Y00380768D01*
X00252843Y00381843D01*
Y00382157D01*
X00253561Y00383232D01*
X00253814Y00384500D01*
X00253561Y00385768D01*
X00253404Y00386004D01*
X00252919Y00387000D01*
X00253404Y00387996D01*
X00253561Y00388232D01*
X00253814Y00389500D01*
X00253561Y00390768D01*
X00252843Y00391843D01*
Y00392157D01*
X00253561Y00393232D01*
X00253814Y00394500D01*
X00253561Y00395768D01*
X00252843Y00396843D01*
X00251768Y00397561D01*
X00250500Y00397814D01*
X00244000D01*
X00242732Y00397561D01*
X00241657Y00396843D01*
X00240938Y00395768D01*
X00240686Y00394500D01*
X00240938Y00393232D01*
X00241041Y00393079D01*
X00240362Y00391809D01*
X00238750D01*
X00237579Y00391576D01*
X00236587Y00390913D01*
X00236587Y00390913D01*
X00214337Y00368663D01*
X00213674Y00367671D01*
X00213441Y00366500D01*
X00213441Y00366500D01*
Y00353926D01*
X00212171Y00353219D01*
X00211559Y00353599D01*
Y00356692D01*
X00211326Y00357863D01*
X00210663Y00358855D01*
X00210663Y00358855D01*
X00209059Y00360459D01*
Y00380657D01*
X00208826Y00381827D01*
X00208163Y00382820D01*
X00208163Y00382820D01*
X00169559Y00421424D01*
Y00428500D01*
X00169559Y00428500D01*
X00169326Y00429671D01*
X00168663Y00430663D01*
X00165561Y00433765D01*
X00165598Y00433950D01*
X00165210Y00435901D01*
X00164105Y00437555D01*
X00162451Y00438660D01*
X00160500Y00439048D01*
X00150000D01*
X00148049Y00438660D01*
X00146395Y00437555D01*
X00145290Y00435901D01*
X00144902Y00433950D01*
X00145290Y00431999D01*
X00146395Y00430345D01*
X00148049Y00429240D01*
X00150000Y00428852D01*
X00160500D01*
X00161603Y00429071D01*
X00162849Y00427826D01*
X00162754Y00427037D01*
X00161483Y00426152D01*
X00160500Y00426348D01*
X00150000D01*
X00148049Y00425960D01*
X00146395Y00424855D01*
X00145290Y00423201D01*
X00144902Y00421250D01*
X00145290Y00419299D01*
X00146395Y00417645D01*
X00148049Y00416540D01*
X00150000Y00416152D01*
X00160500D01*
X00160518Y00416156D01*
X00162037Y00414637D01*
X00161412Y00413467D01*
X00160500Y00413648D01*
X00150000D01*
X00148049Y00413260D01*
X00146395Y00412155D01*
X00145290Y00410501D01*
X00144902Y00408550D01*
X00145290Y00406599D01*
X00146395Y00404945D01*
X00148049Y00403840D01*
X00150000Y00403452D01*
X00160500D01*
X00162451Y00403840D01*
X00164105Y00404945D01*
X00165210Y00406599D01*
X00165598Y00408550D01*
X00165417Y00409462D01*
X00166587Y00410087D01*
X00198941Y00377733D01*
Y00358571D01*
X00198035Y00357965D01*
X00196819Y00356146D01*
X00196392Y00354000D01*
X00196819Y00351854D01*
X00198035Y00350035D01*
X00199854Y00348819D01*
X00202000Y00348392D01*
X00202285Y00348449D01*
X00203512Y00347398D01*
X00203819Y00345854D01*
X00205035Y00344035D01*
X00206854Y00342819D01*
X00209000Y00342392D01*
X00211146Y00342819D01*
X00212171Y00343504D01*
X00213441Y00342825D01*
Y00326767D01*
X00198733Y00312059D01*
X00178929D01*
X00178929Y00312059D01*
X00177758Y00311826D01*
X00176766Y00311163D01*
X00165837Y00300234D01*
X00165174Y00299242D01*
X00164941Y00298071D01*
X00164941Y00298071D01*
Y00286000D01*
X00164941Y00286000D01*
X00163871Y00284873D01*
X00163049Y00284710D01*
X00161905Y00283945D01*
X00161000Y00283708D01*
X00160095Y00283945D01*
X00158951Y00284710D01*
X00157000Y00285098D01*
X00155522Y00284804D01*
X00154059Y00286267D01*
Y00311176D01*
X00155500D01*
X00156963Y00311468D01*
X00158204Y00312296D01*
X00159032Y00313537D01*
X00159324Y00315000D01*
Y00321000D01*
X00159032Y00322463D01*
X00158204Y00323704D01*
X00156963Y00324532D01*
X00155500Y00324823D01*
X00152000D01*
X00150537Y00324532D01*
X00149296Y00323704D01*
X00149135Y00323462D01*
X00147865D01*
X00147704Y00323704D01*
X00146463Y00324532D01*
X00145000Y00324823D01*
X00141500D01*
X00140037Y00324532D01*
X00138796Y00323704D01*
X00137968Y00322463D01*
X00137676Y00321000D01*
Y00315000D01*
X00137968Y00313537D01*
X00138796Y00312296D01*
X00140037Y00311468D01*
X00141500Y00311176D01*
X00143498D01*
X00143941Y00310733D01*
Y00275360D01*
X00142671Y00274929D01*
X00142349Y00275349D01*
X00140782Y00276551D01*
X00138958Y00277307D01*
X00137000Y00277565D01*
X00135042Y00277307D01*
X00133218Y00276551D01*
X00131651Y00275349D01*
X00131067Y00274588D01*
X00120900D01*
X00096588Y00298901D01*
Y00310000D01*
X00096239Y00311756D01*
X00095244Y00313244D01*
X00077588Y00330900D01*
Y00439000D01*
X00077239Y00440756D01*
X00076244Y00442244D01*
X00070290Y00448199D01*
X00070210Y00448601D01*
X00069105Y00450255D01*
X00067451Y00451360D01*
X00065500Y00451748D01*
X00055000D01*
X00053049Y00451360D01*
X00052867Y00451238D01*
X00048650D01*
X00046894Y00450889D01*
X00045406Y00449894D01*
X00042590Y00447078D01*
X00039000D01*
X00037439Y00446768D01*
X00036116Y00445884D01*
X00035232Y00444561D01*
X00034922Y00443000D01*
Y00439000D01*
X00035232Y00437439D01*
X00036116Y00436116D01*
X00037439Y00435232D01*
X00039000Y00434922D01*
X00041590D01*
X00045806Y00430706D01*
X00047294Y00429711D01*
X00049050Y00429362D01*
X00052867D01*
X00053049Y00429240D01*
X00055000Y00428852D01*
X00065500D01*
X00067142Y00429179D01*
X00068227Y00428574D01*
X00068412Y00428415D01*
Y00426729D01*
X00067142Y00426021D01*
X00065500Y00426348D01*
X00055000D01*
X00053049Y00425960D01*
X00051395Y00424855D01*
X00050290Y00423201D01*
X00049902Y00421250D01*
X00050290Y00419299D01*
X00051395Y00417645D01*
X00053049Y00416540D01*
X00055000Y00416152D01*
X00065500D01*
X00067142Y00416479D01*
X00068412Y00415771D01*
Y00414029D01*
X00067142Y00413321D01*
X00065500Y00413648D01*
X00055000D01*
X00053049Y00413260D01*
X00051395Y00412155D01*
X00050290Y00410501D01*
X00049902Y00408550D01*
X00050290Y00406599D01*
X00051395Y00404945D01*
X00053049Y00403840D01*
X00055000Y00403452D01*
X00065500D01*
X00067142Y00403779D01*
X00068412Y00403071D01*
Y00329000D01*
X00068761Y00327244D01*
X00069756Y00325756D01*
X00087412Y00308099D01*
Y00301588D01*
X00068493D01*
X00068138Y00302445D01*
X00066535Y00304534D01*
X00064446Y00306136D01*
X00062014Y00307144D01*
X00059403Y00307488D01*
X00056792Y00307144D01*
X00054360Y00306136D01*
X00054329Y00306113D01*
X00053059Y00306739D01*
Y00327828D01*
X00053532Y00328537D01*
X00053823Y00330000D01*
Y00336000D01*
X00053532Y00337463D01*
X00052704Y00338704D01*
X00051463Y00339532D01*
X00050000Y00339823D01*
X00046500D01*
X00045037Y00339532D01*
X00043796Y00338704D01*
X00042968Y00337463D01*
X00042677Y00336000D01*
Y00330000D01*
X00042968Y00328537D01*
X00043796Y00327296D01*
X00045037Y00326468D01*
X00046500Y00326176D01*
X00046941D01*
Y00306419D01*
X00046240Y00305718D01*
X00045577Y00304725D01*
X00045344Y00303555D01*
X00045344Y00303555D01*
Y00272199D01*
X00044074Y00272116D01*
X00043947Y00273083D01*
X00043746Y00274612D01*
X00042738Y00277045D01*
X00041135Y00279134D01*
X00039046Y00280737D01*
X00036614Y00281744D01*
X00034003Y00282088D01*
X00031393Y00281744D01*
X00028960Y00280737D01*
X00026871Y00279134D01*
X00025268Y00277045D01*
X00024260Y00274612D01*
X00023917Y00272001D01*
X00024260Y00269391D01*
X00025268Y00266958D01*
X00026871Y00264869D01*
X00028960Y00263267D01*
X00031393Y00262259D01*
X00034003Y00261915D01*
X00036614Y00262259D01*
X00039046Y00263267D01*
X00041135Y00264869D01*
X00042738Y00266958D01*
X00043746Y00269391D01*
X00043947Y00270920D01*
X00044074Y00271887D01*
X00045344Y00271804D01*
Y00246799D01*
X00044074Y00246716D01*
X00043947Y00247683D01*
X00043746Y00249212D01*
X00042738Y00251645D01*
X00041135Y00253734D01*
X00039046Y00255336D01*
X00036614Y00256344D01*
X00034003Y00256688D01*
X00031393Y00256344D01*
X00028960Y00255336D01*
X00026871Y00253734D01*
X00025268Y00251645D01*
X00024260Y00249212D01*
X00023917Y00246602D01*
X00024260Y00243991D01*
X00025268Y00241558D01*
X00026871Y00239469D01*
X00028960Y00237867D01*
X00030944Y00237045D01*
Y00227185D01*
X00030267Y00226733D01*
X00029660Y00225823D01*
X00029446Y00224750D01*
Y00223250D01*
X00029660Y00222177D01*
X00030267Y00221267D01*
X00030941Y00220817D01*
Y00217563D01*
X00030787Y00217532D01*
X00029546Y00216704D01*
X00028718Y00215463D01*
X00028427Y00214000D01*
Y00208000D01*
X00028718Y00206537D01*
X00029546Y00205296D01*
X00030787Y00204468D01*
X00032250Y00204177D01*
X00035750D01*
X00037213Y00204468D01*
X00038454Y00205296D01*
X00039282Y00206537D01*
X00039574Y00208000D01*
Y00214000D01*
X00039282Y00215463D01*
X00038454Y00216704D01*
X00037213Y00217532D01*
X00037059Y00217563D01*
Y00220817D01*
X00037733Y00221267D01*
X00038340Y00222177D01*
X00038554Y00223250D01*
Y00224750D01*
X00038340Y00225823D01*
X00037733Y00226733D01*
X00037062Y00227181D01*
Y00237045D01*
X00039046Y00237867D01*
X00041135Y00239469D01*
X00042738Y00241558D01*
X00043746Y00243991D01*
X00043947Y00245520D01*
X00044074Y00246487D01*
X00045344Y00246404D01*
Y00242045D01*
X00045344Y00242045D01*
X00045577Y00240875D01*
X00046240Y00239882D01*
X00054285Y00231837D01*
X00055278Y00231174D01*
X00056448Y00230941D01*
X00056448Y00230941D01*
X00060956D01*
X00061442Y00229768D01*
X00049498Y00217823D01*
X00046750D01*
X00045287Y00217532D01*
X00044046Y00216704D01*
X00043218Y00215463D01*
X00042927Y00214000D01*
Y00208000D01*
X00043218Y00206537D01*
X00044046Y00205296D01*
X00045287Y00204468D01*
X00046750Y00204177D01*
X00050250D01*
X00051713Y00204468D01*
X00052954Y00205296D01*
X00053782Y00206537D01*
X00054074Y00208000D01*
Y00213748D01*
X00067267Y00226941D01*
X00081075D01*
X00082055Y00225671D01*
X00081922Y00225000D01*
Y00219000D01*
X00082232Y00217439D01*
X00083116Y00216116D01*
X00082755Y00214830D01*
X00082522Y00214784D01*
X00081289Y00213960D01*
X00080466Y00212728D01*
X00080177Y00211275D01*
Y00200725D01*
X00080466Y00199272D01*
X00081289Y00198039D01*
X00082522Y00197216D01*
X00083975Y00196927D01*
X00091747D01*
X00098837Y00189837D01*
X00098922Y00189411D01*
X00098466Y00188728D01*
X00098177Y00187275D01*
Y00176725D01*
X00098466Y00175272D01*
X00098941Y00174561D01*
Y00172868D01*
X00098439Y00172768D01*
X00097116Y00171884D01*
X00096232Y00170561D01*
X00095922Y00169000D01*
Y00163000D01*
X00096232Y00161439D01*
X00097116Y00160116D01*
X00098439Y00159232D01*
X00100000Y00158922D01*
X00104000D01*
X00105561Y00159232D01*
X00106884Y00160116D01*
X00107768Y00161439D01*
X00108078Y00163000D01*
Y00169000D01*
X00107768Y00170561D01*
X00107035Y00171657D01*
X00107296Y00172486D01*
X00107598Y00172927D01*
X00110025D01*
X00111478Y00173216D01*
X00112711Y00174039D01*
X00113534Y00175272D01*
X00113823Y00176725D01*
Y00178941D01*
X00128733D01*
X00129959Y00177716D01*
X00130290Y00176049D01*
X00131395Y00174395D01*
X00133049Y00173290D01*
X00135000Y00172902D01*
X00144000D01*
X00145794Y00173259D01*
X00145973Y00172579D01*
X00146120Y00172275D01*
X00146250Y00171962D01*
X00146789Y00171155D01*
X00147019Y00170000D01*
X00146789Y00168845D01*
X00146135Y00167865D01*
X00145155Y00167211D01*
X00144293Y00167040D01*
X00144000Y00167098D01*
X00135000D01*
X00133049Y00166710D01*
X00132867Y00166588D01*
X00126830D01*
X00126561Y00166768D01*
X00125000Y00167078D01*
X00119000D01*
X00117439Y00166768D01*
X00116116Y00165884D01*
X00115232Y00164561D01*
X00114922Y00163000D01*
Y00159000D01*
X00115232Y00157439D01*
X00116116Y00156116D01*
X00117439Y00155232D01*
X00119000Y00154922D01*
X00125000D01*
X00126561Y00155232D01*
X00127884Y00156116D01*
X00128741Y00157400D01*
X00129939Y00157375D01*
X00130518Y00156292D01*
X00130290Y00155951D01*
X00129902Y00154000D01*
X00130290Y00152049D01*
X00130771Y00151329D01*
X00130092Y00150059D01*
X00128435D01*
X00127884Y00150884D01*
X00126561Y00151768D01*
X00125000Y00152078D01*
X00119000D01*
X00117439Y00151768D01*
X00116116Y00150884D01*
X00115232Y00149561D01*
X00114922Y00148000D01*
Y00144000D01*
X00115047Y00143372D01*
X00109837Y00138163D01*
X00109174Y00137170D01*
X00108941Y00136000D01*
X00108941Y00136000D01*
Y00099044D01*
X00107768Y00098558D01*
X00104059Y00102267D01*
Y00108000D01*
X00103826Y00109171D01*
X00103163Y00110163D01*
X00103163Y00110163D01*
X00094163Y00119163D01*
X00093170Y00119826D01*
X00092000Y00120059D01*
X00091919Y00120043D01*
X00091839Y00120059D01*
X00091839Y00120059D01*
X00088823D01*
Y00120500D01*
X00088532Y00121963D01*
X00087704Y00123204D01*
X00086463Y00124032D01*
X00085000Y00124323D01*
X00079000D01*
X00077537Y00124032D01*
X00076296Y00123204D01*
X00075468Y00121963D01*
X00075177Y00120500D01*
Y00117000D01*
X00075468Y00115537D01*
X00076296Y00114296D01*
X00077537Y00113468D01*
X00079000Y00113177D01*
X00085000D01*
X00086463Y00113468D01*
X00087172Y00113941D01*
X00090733D01*
X00092898Y00111776D01*
X00092412Y00110603D01*
X00083250D01*
X00081202Y00110195D01*
X00079465Y00109035D01*
X00078766Y00107988D01*
X00071080D01*
X00070750Y00108054D01*
X00069250D01*
X00068920Y00107988D01*
X00039923D01*
X00039735Y00108443D01*
X00038132Y00110532D01*
X00036043Y00112135D01*
X00033610Y00113143D01*
X00031000Y00113486D01*
X00028389Y00113143D01*
X00025957Y00112135D01*
X00023868Y00110532D01*
X00022265Y00108443D01*
X00021257Y00106011D01*
X00020914Y00103400D01*
X00021257Y00100789D01*
X00022265Y00098357D01*
X00023868Y00096268D01*
X00025957Y00094665D01*
X00028389Y00093657D01*
X00031000Y00093314D01*
X00033610Y00093657D01*
X00036043Y00094665D01*
X00038132Y00096268D01*
X00039735Y00098357D01*
X00039923Y00098812D01*
X00077897D01*
Y00098750D01*
X00078305Y00096702D01*
X00079465Y00094965D01*
X00081202Y00093805D01*
X00083250Y00093397D01*
X00094114D01*
X00097912Y00089600D01*
Y00071529D01*
X00098261Y00069774D01*
X00099256Y00068285D01*
X00105285Y00062256D01*
X00106774Y00061261D01*
X00108530Y00060912D01*
X00108652D01*
X00109251Y00059792D01*
X00108819Y00059146D01*
X00108392Y00057000D01*
X00108819Y00054854D01*
X00110035Y00053035D01*
X00111854Y00051819D01*
X00114000Y00051392D01*
X00116146Y00051819D01*
X00117965Y00053035D01*
X00119181Y00054854D01*
X00119596Y00056941D01*
X00144733D01*
X00150177Y00051498D01*
Y00047000D01*
X00150468Y00045537D01*
X00151296Y00044296D01*
X00152537Y00043468D01*
X00154000Y00043176D01*
X00157500D01*
X00158963Y00043468D01*
X00160204Y00044296D01*
X00161032Y00045537D01*
X00161324Y00047000D01*
Y00053000D01*
X00161032Y00054463D01*
X00160204Y00055704D01*
X00158963Y00056532D01*
X00157500Y00056824D01*
X00154000D01*
X00153585Y00056741D01*
X00150587Y00059738D01*
X00151073Y00060912D01*
X00282482D01*
X00283108Y00059642D01*
X00282449Y00058782D01*
X00281693Y00056958D01*
X00281435Y00055000D01*
X00281693Y00053042D01*
X00282449Y00051218D01*
X00283651Y00049651D01*
X00285218Y00048449D01*
X00286607Y00047873D01*
X00287047Y00046715D01*
X00287048Y00046411D01*
X00286305Y00045298D01*
X00286163Y00044588D01*
X00266000D01*
X00264244Y00044239D01*
X00262756Y00043244D01*
X00260781Y00041270D01*
X00247399D01*
Y00021270D01*
X00267399D01*
Y00034910D01*
X00267901Y00035412D01*
X00286163D01*
X00286305Y00034702D01*
X00287465Y00032965D01*
X00289202Y00031805D01*
X00291250Y00031397D01*
X00302750D01*
X00304798Y00031805D01*
X00306535Y00032965D01*
X00307695Y00034702D01*
X00308103Y00036750D01*
Y00040640D01*
X00309373Y00041025D01*
X00310035Y00040035D01*
X00311854Y00038819D01*
X00313941Y00038404D01*
Y00014540D01*
X00313941Y00014540D01*
X00314174Y00013369D01*
X00314837Y00012377D01*
X00320982Y00006232D01*
X00320496Y00005059D01*
X00005059D01*
X00005059Y00644941D01*
X00694941D01*
X00694941Y00005059D01*
D02*
G37*
G36*
X00472000Y00449000D02*
X00462000D01*
Y00433000D01*
X00459000D01*
Y00432156D01*
X00458157Y00431593D01*
X00457439Y00430518D01*
X00457186Y00429250D01*
Y00425250D01*
X00457381Y00424270D01*
X00456683Y00423000D01*
X00454433D01*
X00454127Y00423344D01*
X00453619Y00424270D01*
X00453814Y00425250D01*
Y00429250D01*
X00453561Y00430518D01*
X00453000Y00431358D01*
Y00433000D01*
X00450000D01*
Y00449000D01*
Y00451790D01*
X00450146Y00451819D01*
X00451965Y00453035D01*
X00453181Y00454854D01*
X00453608Y00457000D01*
X00453181Y00459146D01*
X00451965Y00460965D01*
X00451367Y00461365D01*
Y00462635D01*
X00451965Y00463035D01*
X00453181Y00464854D01*
X00453608Y00467000D01*
X00453181Y00469146D01*
X00452791Y00469730D01*
X00453470Y00471000D01*
X00472000Y00471000D01*
Y00449000D01*
D02*
G37*
G36*
X00517000Y00390000D02*
X00515000Y00388000D01*
X00464000D01*
Y00412000D01*
X00466000D01*
Y00413531D01*
X00467270Y00414209D01*
X00467854Y00413819D01*
X00470000Y00413392D01*
X00472146Y00413819D01*
X00473965Y00415035D01*
X00475181Y00416854D01*
X00475210Y00417000D01*
X00477606D01*
X00478000Y00416922D01*
X00484000D01*
X00484394Y00417000D01*
X00490606D01*
X00491000Y00416922D01*
X00497000D01*
X00497394Y00417000D01*
X00503606D01*
X00504000Y00416922D01*
X00510000D01*
X00510394Y00417000D01*
X00517000D01*
Y00390000D01*
D02*
G37*
G36*
X00456941Y00397973D02*
Y00364958D01*
X00456941Y00364957D01*
X00457174Y00363787D01*
X00457837Y00362794D01*
X00476870Y00343761D01*
X00476384Y00342588D01*
X00436588D01*
Y00390067D01*
X00437349Y00390651D01*
X00437680Y00391082D01*
X00438950Y00390651D01*
Y00364050D01*
X00454850D01*
Y00397950D01*
X00454850D01*
X00454871Y00398247D01*
X00456177Y00398736D01*
X00456941Y00397973D01*
D02*
G37*
G36*
X00621000Y00393674D02*
Y00384000D01*
X00593000D01*
Y00394000D01*
X00620674D01*
X00621000Y00393674D01*
D02*
G37*
G36*
X00590961Y00385735D02*
Y00385648D01*
X00590931Y00385500D01*
X00590961Y00385352D01*
Y00384000D01*
X00591116Y00383220D01*
X00591558Y00382558D01*
X00592220Y00382116D01*
X00593000Y00381961D01*
X00594352D01*
X00594500Y00381931D01*
X00598000D01*
X00598143Y00381960D01*
X00615857D01*
X00616000Y00381931D01*
X00616580D01*
X00620756Y00377756D01*
X00622244Y00376761D01*
X00624000Y00376412D01*
X00624897D01*
Y00373750D01*
X00625305Y00371702D01*
X00626465Y00369965D01*
X00628201Y00368805D01*
X00630250Y00368397D01*
X00634412D01*
X00634898Y00367224D01*
X00624250Y00356575D01*
X00623419Y00356867D01*
X00623039Y00357161D01*
Y00358352D01*
X00623069Y00358500D01*
X00623039Y00358648D01*
Y00364852D01*
X00623069Y00365000D01*
X00623039Y00365148D01*
Y00367000D01*
X00622884Y00367780D01*
X00622442Y00368442D01*
X00622611Y00369856D01*
X00622797Y00370134D01*
X00623069Y00371500D01*
X00622797Y00372866D01*
X00622023Y00374023D01*
X00620866Y00374797D01*
X00619500Y00375069D01*
X00617257D01*
X00615274Y00377052D01*
X00615274Y00377052D01*
X00615274Y00377052D01*
X00613663Y00378663D01*
X00612671Y00379326D01*
X00611500Y00379559D01*
X00611500Y00379559D01*
X00587364D01*
X00587364Y00379559D01*
X00586193Y00379326D01*
X00585201Y00378663D01*
X00582742Y00376204D01*
X00581569Y00376690D01*
Y00380500D01*
X00581297Y00381866D01*
X00580523Y00383023D01*
X00580465Y00383316D01*
X00581476Y00384516D01*
X00581822Y00384509D01*
X00582854Y00383819D01*
X00585000Y00383392D01*
X00587146Y00383819D01*
X00588965Y00385035D01*
X00589691Y00386121D01*
X00590961Y00385735D01*
D02*
G37*
G36*
X00566000Y00384069D02*
X00565500D01*
X00564134Y00383797D01*
X00562977Y00383023D01*
X00562203Y00381866D01*
X00561931Y00380500D01*
Y00373500D01*
X00562176Y00372270D01*
X00562092Y00371894D01*
X00561614Y00371000D01*
X00552913D01*
X00551146Y00372181D01*
X00549000Y00372608D01*
X00546854Y00372181D01*
X00545087Y00371000D01*
X00541913D01*
X00540146Y00372181D01*
X00538000Y00372608D01*
X00535854Y00372181D01*
X00534087Y00371000D01*
X00530000D01*
Y00395000D01*
X00566000D01*
Y00384069D01*
D02*
G37*
G36*
X00550350Y00370260D02*
X00551780Y00369305D01*
X00551966Y00369228D01*
X00552133Y00369116D01*
X00552330Y00369077D01*
X00552515Y00369000D01*
X00552716D01*
X00552913Y00368961D01*
X00555065D01*
X00563770Y00360256D01*
X00565259Y00359261D01*
X00567015Y00358912D01*
X00584515D01*
X00586271Y00359261D01*
X00587759Y00360256D01*
X00589787Y00362284D01*
X00590961Y00361798D01*
Y00360449D01*
X00578100Y00347588D01*
X00565415D01*
X00562569Y00350435D01*
Y00356500D01*
X00562297Y00357866D01*
X00561523Y00359023D01*
X00560366Y00359797D01*
X00559000Y00360069D01*
X00556000D01*
X00554634Y00359797D01*
X00553477Y00359023D01*
X00552703Y00357866D01*
X00552431Y00356500D01*
Y00353098D01*
X00552412Y00353000D01*
Y00349515D01*
X00552761Y00347759D01*
X00553756Y00346270D01*
X00560270Y00339756D01*
X00561759Y00338761D01*
X00563515Y00338412D01*
X00580000D01*
X00581756Y00338761D01*
X00583244Y00339756D01*
X00597686Y00354198D01*
X00598006Y00354261D01*
X00599052Y00354960D01*
X00612412D01*
Y00352194D01*
X00611142Y00351516D01*
X00610146Y00352181D01*
X00608000Y00352608D01*
X00605854Y00352181D01*
X00604035Y00350965D01*
X00602819Y00349146D01*
X00602392Y00347000D01*
X00602605Y00345931D01*
X00591233Y00334559D01*
X00504687D01*
X00502954Y00336292D01*
X00503547Y00337495D01*
X00504000Y00337435D01*
X00505958Y00337693D01*
X00507782Y00338449D01*
X00509349Y00339651D01*
X00510551Y00341218D01*
X00511307Y00343042D01*
X00511565Y00345000D01*
X00511375Y00346444D01*
X00533891Y00368961D01*
X00534087D01*
X00534284Y00369000D01*
X00534484D01*
X00534670Y00369077D01*
X00534867Y00369116D01*
X00535034Y00369228D01*
X00535220Y00369305D01*
X00536650Y00370260D01*
X00538000Y00370529D01*
X00539350Y00370260D01*
X00540780Y00369305D01*
X00540966Y00369228D01*
X00541133Y00369116D01*
X00541330Y00369077D01*
X00541516Y00369000D01*
X00541716D01*
X00541913Y00368961D01*
X00545087D01*
X00545284Y00369000D01*
X00545485D01*
X00545670Y00369077D01*
X00545867Y00369116D01*
X00546034Y00369228D01*
X00546220Y00369305D01*
X00547650Y00370260D01*
X00549000Y00370529D01*
X00550350Y00370260D01*
D02*
G37*
G36*
X00358145Y00369337D02*
X00358145Y00369337D01*
X00359137Y00368674D01*
X00360308Y00368441D01*
X00360308Y00368441D01*
X00365825D01*
X00366504Y00367171D01*
X00365819Y00366146D01*
X00365428Y00364179D01*
X00365256Y00363894D01*
X00365194Y00363846D01*
X00363513Y00364146D01*
X00362965Y00364965D01*
X00361146Y00366181D01*
X00359000Y00366608D01*
X00356854Y00366181D01*
X00355035Y00364965D01*
X00353819Y00363146D01*
X00353392Y00361000D01*
X00353819Y00358854D01*
X00355035Y00357035D01*
X00354455Y00355895D01*
X00354232Y00355561D01*
X00353922Y00354000D01*
Y00348000D01*
X00354232Y00346439D01*
X00353733Y00345132D01*
X00353171Y00344826D01*
X00352000Y00345059D01*
X00350830Y00344826D01*
X00350000Y00344272D01*
X00349170Y00344826D01*
X00348000Y00345059D01*
X00346829Y00344826D01*
X00346000Y00344272D01*
X00345171Y00344826D01*
X00344000Y00345059D01*
X00342830Y00344826D01*
X00341837Y00344163D01*
X00341174Y00343171D01*
X00340941Y00342000D01*
Y00338000D01*
X00341174Y00336829D01*
X00341837Y00335837D01*
X00342830Y00335174D01*
X00344000Y00334941D01*
X00345171Y00335174D01*
X00346000Y00335728D01*
X00346829Y00335174D01*
X00348000Y00334941D01*
X00349170Y00335174D01*
X00350000Y00335728D01*
X00350830Y00335174D01*
X00352000Y00334941D01*
X00353171Y00335174D01*
X00354000Y00335728D01*
X00354829Y00335174D01*
X00356000Y00334941D01*
X00357171Y00335174D01*
X00358000Y00335728D01*
X00358829Y00335174D01*
X00359951Y00334951D01*
X00360174Y00333829D01*
X00360837Y00332837D01*
X00361829Y00332174D01*
X00363000Y00331941D01*
X00367000D01*
X00368171Y00332174D01*
X00369163Y00332837D01*
X00369826Y00333829D01*
X00370059Y00335000D01*
X00369826Y00336171D01*
X00369163Y00337163D01*
X00368171Y00337826D01*
X00367059Y00338047D01*
Y00340733D01*
X00369163Y00342837D01*
X00369163Y00342837D01*
X00369826Y00343829D01*
X00370059Y00345000D01*
X00370059Y00345000D01*
Y00357620D01*
X00371000Y00358392D01*
X00373146Y00358819D01*
X00373322Y00358937D01*
X00373382Y00358913D01*
X00374501Y00358197D01*
X00374674Y00357329D01*
X00375337Y00356337D01*
X00383941Y00347733D01*
Y00336925D01*
X00382671Y00335945D01*
X00382000Y00336078D01*
X00376000D01*
X00374439Y00335768D01*
X00373116Y00334884D01*
X00372232Y00333561D01*
X00371922Y00332000D01*
Y00330059D01*
X00363000D01*
X00361829Y00329826D01*
X00360837Y00329163D01*
X00360174Y00328171D01*
X00359941Y00327000D01*
X00360174Y00325830D01*
X00360728Y00325000D01*
X00360174Y00324170D01*
X00359941Y00323000D01*
X00360174Y00321829D01*
X00360728Y00321000D01*
X00360174Y00320171D01*
X00359941Y00319000D01*
X00360174Y00317829D01*
X00360728Y00317000D01*
X00360174Y00316171D01*
X00359951Y00315049D01*
X00358829Y00314826D01*
X00358000Y00314272D01*
X00357171Y00314826D01*
X00356000Y00315059D01*
X00354829Y00314826D01*
X00354000Y00314272D01*
X00353171Y00314826D01*
X00352000Y00315059D01*
X00350830Y00314826D01*
X00350000Y00314272D01*
X00349170Y00314826D01*
X00348000Y00315059D01*
X00346829Y00314826D01*
X00346000Y00314272D01*
X00345171Y00314826D01*
X00344000Y00315059D01*
X00342830Y00314826D01*
X00342000Y00314272D01*
X00341171Y00314826D01*
X00340049Y00315049D01*
X00339826Y00316171D01*
X00339272Y00317000D01*
X00339826Y00317829D01*
X00340059Y00319000D01*
X00339826Y00320171D01*
X00339272Y00321000D01*
X00339826Y00321829D01*
X00340059Y00323000D01*
X00339826Y00324170D01*
X00339272Y00325000D01*
X00339826Y00325830D01*
X00340059Y00327000D01*
X00339826Y00328171D01*
X00339163Y00329163D01*
X00338171Y00329826D01*
X00337000Y00330059D01*
X00333000D01*
X00331829Y00329826D01*
X00330837Y00329163D01*
X00329625Y00329044D01*
X00323059Y00335610D01*
Y00353192D01*
X00323059Y00353192D01*
X00322826Y00354363D01*
X00322163Y00355355D01*
X00322163Y00355355D01*
X00314058Y00363461D01*
X00314426Y00364676D01*
X00315146Y00364819D01*
X00316965Y00366035D01*
X00318181Y00367854D01*
X00318596Y00369941D01*
X00357541D01*
X00358145Y00369337D01*
D02*
G37*
G36*
X00316941Y00351925D02*
Y00346328D01*
X00315821Y00345730D01*
X00315146Y00346181D01*
X00313000Y00346608D01*
X00310854Y00346181D01*
X00309954Y00345580D01*
X00308709Y00345827D01*
X00308663Y00345896D01*
X00308663Y00345896D01*
X00292885Y00361673D01*
X00292921Y00361915D01*
X00293133Y00362120D01*
X00294325Y00362725D01*
X00296000Y00362392D01*
X00298146Y00362819D01*
X00299965Y00364035D01*
X00301181Y00365854D01*
X00301222Y00366061D01*
X00302437Y00366429D01*
X00316941Y00351925D01*
D02*
G37*
G36*
X00621000Y00357000D02*
X00593000D01*
Y00365497D01*
X00593915Y00366412D01*
X00609000D01*
X00610756Y00366761D01*
X00611113Y00367000D01*
X00621000D01*
Y00357000D01*
D02*
G37*
G36*
X00535412Y00420099D02*
Y00397039D01*
X00530000D01*
X00529220Y00396884D01*
X00528558Y00396442D01*
X00528116Y00395780D01*
X00527961Y00395000D01*
Y00386570D01*
X00527897Y00386250D01*
Y00379750D01*
X00527961Y00379430D01*
Y00378891D01*
X00500906Y00351836D01*
X00500218Y00351551D01*
X00498651Y00350349D01*
X00497449Y00348782D01*
X00496693Y00346958D01*
X00496520Y00345640D01*
X00496392Y00345000D01*
X00496479Y00344563D01*
X00496129Y00344231D01*
X00495292Y00343954D01*
X00493583Y00345663D01*
X00492591Y00346326D01*
X00491420Y00346559D01*
X00491420Y00346559D01*
X00482724D01*
X00466407Y00362877D01*
X00466893Y00364050D01*
X00477050D01*
Y00385961D01*
X00515000D01*
X00515780Y00386116D01*
X00516442Y00386558D01*
X00518442Y00388558D01*
X00518884Y00389220D01*
X00519039Y00390000D01*
Y00417000D01*
X00518884Y00417780D01*
X00518442Y00418442D01*
X00517780Y00418884D01*
X00517000Y00419039D01*
X00510394D01*
X00510197Y00419000D01*
X00509996D01*
X00509799Y00418961D01*
X00504201D01*
X00504004Y00419000D01*
X00503803D01*
X00503606Y00419039D01*
X00497394D01*
X00497197Y00419000D01*
X00496996D01*
X00496799Y00418961D01*
X00491201D01*
X00491004Y00419000D01*
X00490803D01*
X00490606Y00419039D01*
X00488912D01*
X00487941Y00420309D01*
X00488078Y00421000D01*
Y00425000D01*
X00487768Y00426561D01*
X00486884Y00427884D01*
X00485561Y00428768D01*
X00484000Y00429078D01*
X00478247D01*
X00477913Y00429413D01*
X00476921Y00430076D01*
X00475750Y00430309D01*
X00475750Y00430309D01*
X00468603D01*
X00468561Y00430518D01*
X00467843Y00431593D01*
X00466768Y00432312D01*
X00465500Y00432564D01*
X00465237Y00432511D01*
X00464956Y00432626D01*
X00464039Y00433568D01*
Y00446961D01*
X00472000D01*
X00472780Y00447116D01*
X00473442Y00447558D01*
X00473884Y00448220D01*
X00474039Y00449000D01*
Y00456412D01*
X00499100D01*
X00535412Y00420099D01*
D02*
G37*
G36*
X00241093Y00368001D02*
X00241618Y00367215D01*
X00241675Y00367100D01*
X00242035Y00365965D01*
X00241817Y00365639D01*
X00240819Y00364146D01*
X00240392Y00362000D01*
X00240819Y00359854D01*
X00242035Y00358035D01*
X00242941Y00357429D01*
Y00355078D01*
X00241000D01*
X00239439Y00354768D01*
X00238116Y00353884D01*
X00237232Y00352561D01*
X00236922Y00351000D01*
Y00345000D01*
X00237232Y00343439D01*
X00237894Y00342449D01*
X00237837Y00342163D01*
X00237837Y00342163D01*
X00233837Y00338163D01*
X00233174Y00337170D01*
X00232810Y00337129D01*
X00231559Y00338200D01*
Y00360262D01*
X00239707Y00368410D01*
X00241093Y00368001D01*
D02*
G37*
G36*
X00608000Y00341392D02*
X00608302Y00341144D01*
Y00250628D01*
X00603733Y00246059D01*
X00550044D01*
X00549558Y00247232D01*
X00550502Y00248176D01*
X00553500D01*
X00554963Y00248468D01*
X00556204Y00249296D01*
X00557032Y00250537D01*
X00557323Y00252000D01*
Y00258000D01*
X00557032Y00259463D01*
X00556204Y00260704D01*
X00554963Y00261532D01*
X00553500Y00261824D01*
X00550000D01*
X00548537Y00261532D01*
X00547296Y00260704D01*
X00547135Y00260462D01*
X00545865D01*
X00545704Y00260704D01*
X00544463Y00261532D01*
X00544309Y00261563D01*
Y00263984D01*
X00544733Y00264267D01*
X00545340Y00265177D01*
X00545554Y00266250D01*
Y00267750D01*
X00545340Y00268823D01*
X00544733Y00269733D01*
X00544059Y00270183D01*
Y00281132D01*
X00545010Y00281257D01*
X00547443Y00282265D01*
X00549532Y00283868D01*
X00551135Y00285957D01*
X00552143Y00288389D01*
X00552486Y00291000D01*
X00552143Y00293610D01*
X00551135Y00296043D01*
X00549532Y00298132D01*
X00547443Y00299735D01*
X00545010Y00300743D01*
X00542400Y00301086D01*
X00539790Y00300743D01*
X00537357Y00299735D01*
X00535268Y00298132D01*
X00533665Y00296043D01*
X00532657Y00293610D01*
X00532314Y00291000D01*
X00532657Y00288389D01*
X00533665Y00285957D01*
X00535268Y00283868D01*
X00537357Y00282265D01*
X00537941Y00282023D01*
Y00270183D01*
X00537267Y00269733D01*
X00536660Y00268823D01*
X00536446Y00267750D01*
Y00266250D01*
X00536660Y00265177D01*
X00537267Y00264267D01*
X00538177Y00263660D01*
X00538191Y00263657D01*
Y00261563D01*
X00538037Y00261532D01*
X00536796Y00260704D01*
X00535968Y00259463D01*
X00535677Y00258000D01*
Y00252000D01*
X00535810Y00251329D01*
X00534876Y00250059D01*
X00533124D01*
X00532190Y00251329D01*
X00532323Y00252000D01*
Y00258000D01*
X00532032Y00259463D01*
X00531204Y00260704D01*
X00529963Y00261532D01*
X00528500Y00261824D01*
X00525000D01*
X00523537Y00261532D01*
X00522296Y00260704D01*
X00521734Y00259862D01*
X00521393Y00259465D01*
X00520178Y00259491D01*
X00519146Y00260181D01*
X00517000Y00260608D01*
X00514854Y00260181D01*
X00513035Y00258965D01*
X00511819Y00257146D01*
X00511513Y00255609D01*
X00510164Y00255162D01*
X00508163Y00257163D01*
X00507170Y00257826D01*
X00506000Y00258059D01*
X00506000Y00258059D01*
X00494496D01*
X00493869Y00259329D01*
X00494551Y00260218D01*
X00495307Y00262042D01*
X00495509Y00263579D01*
X00498965Y00267035D01*
X00500181Y00268854D01*
X00500608Y00271000D01*
Y00312988D01*
X00501551Y00314218D01*
X00502307Y00316042D01*
X00502565Y00318000D01*
X00502307Y00319958D01*
X00502142Y00320356D01*
X00502848Y00321412D01*
X00551100D01*
X00556922Y00315590D01*
Y00311000D01*
X00557232Y00309439D01*
X00558116Y00308116D01*
X00559439Y00307232D01*
X00561000Y00306922D01*
X00565000D01*
X00565003Y00306922D01*
X00565244Y00306761D01*
X00567000Y00306412D01*
X00572099D01*
X00583200Y00295311D01*
Y00281000D01*
X00603200D01*
Y00301000D01*
X00590489D01*
X00577244Y00314244D01*
X00575756Y00315239D01*
X00574000Y00315588D01*
X00569901D01*
X00569078Y00316410D01*
Y00317000D01*
X00568768Y00318561D01*
X00567884Y00319884D01*
X00566561Y00320768D01*
X00565000Y00321078D01*
X00564410D01*
X00558221Y00327268D01*
X00558707Y00328441D01*
X00592500D01*
X00592500Y00328441D01*
X00593671Y00328674D01*
X00594663Y00329337D01*
X00606931Y00341605D01*
X00608000Y00341392D01*
D02*
G37*
G36*
X00242034Y00328034D02*
X00243853Y00326819D01*
X00246000Y00326392D01*
X00247904Y00326770D01*
X00254174Y00320500D01*
X00246837Y00313163D01*
X00246174Y00312171D01*
X00245941Y00311000D01*
X00245954Y00310937D01*
X00245941Y00310874D01*
Y00286267D01*
X00244716Y00285041D01*
X00243049Y00284710D01*
X00241905Y00283945D01*
X00241000Y00283708D01*
X00240095Y00283945D01*
X00238951Y00284710D01*
X00237000Y00285098D01*
X00235049Y00284710D01*
X00233905Y00283945D01*
X00233000Y00283708D01*
X00232095Y00283945D01*
X00230951Y00284710D01*
X00229000Y00285098D01*
X00227049Y00284710D01*
X00225905Y00283945D01*
X00225000Y00283708D01*
X00224095Y00283945D01*
X00223559Y00284304D01*
Y00300825D01*
X00224829Y00301504D01*
X00225854Y00300819D01*
X00228000Y00300392D01*
X00230146Y00300819D01*
X00231965Y00302035D01*
X00233181Y00303854D01*
X00233608Y00306000D01*
X00233261Y00307743D01*
X00236663Y00311145D01*
X00236663Y00311145D01*
X00237326Y00312137D01*
X00237559Y00313308D01*
X00237559Y00313308D01*
Y00319500D01*
X00237559Y00319500D01*
X00237326Y00320671D01*
X00236663Y00321663D01*
X00232460Y00325866D01*
X00232508Y00326190D01*
X00233850Y00326817D01*
X00233884Y00326812D01*
X00236000Y00326392D01*
X00238146Y00326819D01*
X00239965Y00328034D01*
X00240364Y00328632D01*
X00241635D01*
X00242034Y00328034D01*
D02*
G37*
G36*
X00206817Y00309695D02*
X00206923Y00309249D01*
X00196837Y00299163D01*
X00196174Y00298171D01*
X00195941Y00297000D01*
X00195941Y00297000D01*
Y00284887D01*
X00195049Y00284710D01*
X00193395Y00283605D01*
X00192290Y00281951D01*
X00191902Y00280000D01*
Y00271000D01*
X00192259Y00269206D01*
X00191579Y00269027D01*
X00191275Y00268880D01*
X00190962Y00268750D01*
X00190155Y00268211D01*
X00189000Y00267981D01*
X00187845Y00268211D01*
X00186865Y00268865D01*
X00186211Y00269845D01*
X00186101Y00270398D01*
X00186024Y00270583D01*
X00186020Y00270606D01*
X00186098Y00271000D01*
Y00280000D01*
X00185710Y00281951D01*
X00185588Y00282133D01*
Y00286000D01*
X00185239Y00287756D01*
X00184244Y00289244D01*
X00181078Y00292410D01*
Y00296000D01*
X00180768Y00297561D01*
X00179884Y00298884D01*
X00178561Y00299768D01*
X00177000Y00300078D01*
X00175992D01*
X00175506Y00301252D01*
X00180196Y00305941D01*
X00200000D01*
X00200000Y00305941D01*
X00201171Y00306174D01*
X00202163Y00306837D01*
X00205418Y00310092D01*
X00206817Y00309695D01*
D02*
G37*
G36*
X00310756Y00284756D02*
X00312244Y00283761D01*
X00314000Y00283412D01*
X00351412D01*
Y00279081D01*
X00351116Y00278884D01*
X00350232Y00277561D01*
X00349922Y00276000D01*
Y00270000D01*
X00350232Y00268439D01*
X00351116Y00267116D01*
X00352439Y00266232D01*
X00353190Y00266083D01*
X00353315Y00265413D01*
X00353161Y00265154D01*
X00352252Y00264414D01*
X00351827Y00264499D01*
X00349163Y00267163D01*
X00348171Y00267826D01*
X00347000Y00268059D01*
X00347000Y00268059D01*
X00319267D01*
X00309163Y00278163D01*
X00308171Y00278826D01*
X00307000Y00279059D01*
X00307000Y00279059D01*
X00282098D01*
Y00280000D01*
X00281710Y00281951D01*
X00280605Y00283605D01*
X00278951Y00284710D01*
X00277000Y00285098D01*
X00275049Y00284710D01*
X00273395Y00283605D01*
X00272290Y00281951D01*
X00271902Y00280000D01*
Y00271000D01*
X00272259Y00269206D01*
X00271579Y00269027D01*
X00271275Y00268880D01*
X00270962Y00268750D01*
X00270155Y00268211D01*
X00269000Y00267981D01*
X00267845Y00268211D01*
X00266865Y00268865D01*
X00266211Y00269845D01*
X00266101Y00270398D01*
X00266024Y00270583D01*
X00266020Y00270606D01*
X00266098Y00271000D01*
Y00280000D01*
X00265710Y00281951D01*
X00265588Y00282133D01*
Y00286919D01*
X00265884Y00287116D01*
X00266768Y00288439D01*
X00267078Y00290000D01*
Y00296000D01*
X00266768Y00297561D01*
X00265884Y00298884D01*
X00265588Y00299081D01*
Y00300551D01*
X00266704Y00301296D01*
X00266781Y00301412D01*
X00268219D01*
X00268296Y00301296D01*
X00269537Y00300468D01*
X00271000Y00300177D01*
X00277000D01*
X00278463Y00300468D01*
X00279704Y00301296D01*
X00279781Y00301412D01*
X00294100D01*
X00310756Y00284756D01*
D02*
G37*
G36*
X00115756Y00266756D02*
X00117244Y00265761D01*
X00119000Y00265412D01*
X00131067D01*
X00131651Y00264651D01*
X00132671Y00263868D01*
X00132704Y00263768D01*
X00132589Y00262402D01*
X00131395Y00261605D01*
X00130290Y00259951D01*
X00129902Y00258000D01*
X00130290Y00256049D01*
X00131055Y00254905D01*
X00131292Y00254000D01*
X00131055Y00253095D01*
X00130290Y00251951D01*
X00129902Y00250000D01*
X00130290Y00248049D01*
X00131395Y00246395D01*
Y00245605D01*
X00130290Y00243951D01*
X00129902Y00242000D01*
X00130290Y00240049D01*
X00131395Y00238395D01*
X00133049Y00237290D01*
X00135000Y00236902D01*
X00144000D01*
X00145794Y00237259D01*
X00145973Y00236579D01*
X00146120Y00236275D01*
X00146250Y00235962D01*
X00146789Y00235155D01*
X00147019Y00234000D01*
X00146789Y00232845D01*
X00146135Y00231865D01*
X00145155Y00231211D01*
X00144293Y00231040D01*
X00144000Y00231098D01*
X00135000D01*
X00133049Y00230710D01*
X00132867Y00230588D01*
X00128081D01*
X00127884Y00230884D01*
X00126561Y00231768D01*
X00125000Y00232078D01*
X00119000D01*
X00117439Y00231768D01*
X00116516Y00231151D01*
X00115704Y00230995D01*
X00114822Y00231232D01*
X00109891Y00236163D01*
X00108898Y00236826D01*
X00107728Y00237059D01*
X00107728Y00237059D01*
X00057715D01*
X00051462Y00243312D01*
Y00263924D01*
X00052732Y00264516D01*
X00054360Y00263267D01*
X00056792Y00262259D01*
X00059403Y00261915D01*
X00062014Y00262259D01*
X00064446Y00263267D01*
X00066535Y00264869D01*
X00068138Y00266958D01*
X00069146Y00269391D01*
X00069489Y00272001D01*
X00069146Y00274612D01*
X00068138Y00277045D01*
X00066535Y00279134D01*
X00064446Y00280737D01*
X00062014Y00281744D01*
X00059403Y00282088D01*
X00056792Y00281744D01*
X00054360Y00280737D01*
X00052732Y00279487D01*
X00051462Y00280079D01*
Y00289324D01*
X00052732Y00289916D01*
X00054360Y00288667D01*
X00056792Y00287659D01*
X00059403Y00287315D01*
X00062014Y00287659D01*
X00064446Y00288667D01*
X00066535Y00290269D01*
X00068138Y00292358D01*
X00068160Y00292412D01*
X00090099D01*
X00115756Y00266756D01*
D02*
G37*
G36*
X00290000Y00263098D02*
X00288049Y00262710D01*
X00286395Y00261605D01*
X00285290Y00259951D01*
X00284902Y00258000D01*
X00285290Y00256049D01*
X00286055Y00254905D01*
X00286292Y00254000D01*
X00286055Y00253095D01*
X00285290Y00251951D01*
X00284902Y00250000D01*
X00285290Y00248049D01*
X00286055Y00246905D01*
X00286292Y00246000D01*
X00286055Y00245095D01*
X00285290Y00243951D01*
X00284902Y00242000D01*
X00285290Y00240049D01*
X00286055Y00238905D01*
X00286292Y00238000D01*
X00286055Y00237095D01*
X00285290Y00235951D01*
X00284902Y00234000D01*
X00285290Y00232049D01*
X00286055Y00230905D01*
X00286292Y00230000D01*
X00286055Y00229095D01*
X00285290Y00227951D01*
X00284902Y00226000D01*
X00285290Y00224049D01*
X00286055Y00222905D01*
X00286292Y00222000D01*
X00286055Y00221095D01*
X00285290Y00219951D01*
X00284902Y00218000D01*
X00285290Y00216049D01*
X00286055Y00214905D01*
X00286292Y00214000D01*
X00286055Y00213095D01*
X00285290Y00211951D01*
X00284902Y00210000D01*
X00285290Y00208049D01*
X00286395Y00206395D01*
X00288049Y00205290D01*
X00290000Y00204902D01*
Y00199098D01*
X00288049Y00198710D01*
X00286395Y00197605D01*
X00285290Y00195951D01*
X00284902Y00194000D01*
X00285290Y00192049D01*
X00286055Y00190905D01*
X00286292Y00190000D01*
X00286055Y00189095D01*
X00285290Y00187951D01*
X00284902Y00186000D01*
X00285290Y00184049D01*
X00286055Y00182905D01*
X00286292Y00182000D01*
X00286055Y00181095D01*
X00285290Y00179951D01*
X00284902Y00178000D01*
X00285290Y00176049D01*
X00286055Y00174905D01*
X00286292Y00174000D01*
X00286055Y00173095D01*
X00285290Y00171951D01*
X00284902Y00170000D01*
X00285290Y00168049D01*
X00286055Y00166905D01*
X00286292Y00166000D01*
X00286055Y00165095D01*
X00285290Y00163951D01*
X00284902Y00162000D01*
X00285290Y00160049D01*
X00286055Y00158905D01*
X00286292Y00158000D01*
X00286055Y00157095D01*
X00285290Y00155951D01*
X00284902Y00154000D01*
X00285290Y00152049D01*
X00286055Y00150905D01*
X00286292Y00150000D01*
X00286055Y00149095D01*
X00285290Y00147951D01*
X00284902Y00146000D01*
X00285290Y00144049D01*
X00286055Y00142905D01*
X00286292Y00142000D01*
X00286055Y00141095D01*
X00285290Y00139951D01*
X00284902Y00138000D01*
X00285290Y00136049D01*
X00286395Y00134395D01*
X00288049Y00133290D01*
X00290000Y00132902D01*
Y00124000D01*
X00282098D01*
Y00125000D01*
X00281710Y00126951D01*
X00280605Y00128605D01*
X00278951Y00129710D01*
X00277000Y00130098D01*
X00275049Y00129710D01*
X00273395Y00128605D01*
X00272290Y00126951D01*
X00271902Y00125000D01*
Y00124000D01*
X00266098D01*
Y00125000D01*
X00265710Y00126951D01*
X00264605Y00128605D01*
X00262951Y00129710D01*
X00261000Y00130098D01*
X00259049Y00129710D01*
X00257905Y00128945D01*
X00257000Y00128708D01*
X00256095Y00128945D01*
X00254951Y00129710D01*
X00253000Y00130098D01*
X00251049Y00129710D01*
X00249905Y00128945D01*
X00249000Y00128708D01*
X00248095Y00128945D01*
X00246951Y00129710D01*
X00245000Y00130098D01*
X00243049Y00129710D01*
X00241395Y00128605D01*
X00240605D01*
X00238951Y00129710D01*
X00237000Y00130098D01*
X00235049Y00129710D01*
X00233905Y00128945D01*
X00233000Y00128708D01*
X00232095Y00128945D01*
X00230951Y00129710D01*
X00229000Y00130098D01*
X00227049Y00129710D01*
X00225905Y00128945D01*
X00225000Y00128708D01*
X00224095Y00128945D01*
X00222951Y00129710D01*
X00221000Y00130098D01*
X00219049Y00129710D01*
X00217395Y00128605D01*
X00216605D01*
X00214951Y00129710D01*
X00213000Y00130098D01*
X00211049Y00129710D01*
X00209905Y00128945D01*
X00209000Y00128708D01*
X00208095Y00128945D01*
X00206951Y00129710D01*
X00205000Y00130098D01*
X00203049Y00129710D01*
X00201395Y00128605D01*
X00200605D01*
X00198951Y00129710D01*
X00197000Y00130098D01*
X00195049Y00129710D01*
X00193905Y00128945D01*
X00193000Y00128708D01*
X00192095Y00128945D01*
X00190951Y00129710D01*
X00189000Y00130098D01*
X00187049Y00129710D01*
X00185905Y00128945D01*
X00185000Y00128708D01*
X00184095Y00128945D01*
X00182951Y00129710D01*
X00181000Y00130098D01*
X00179049Y00129710D01*
X00177395Y00128605D01*
X00176605D01*
X00174951Y00129710D01*
X00173000Y00130098D01*
X00171049Y00129710D01*
X00169905Y00128945D01*
X00169000Y00128708D01*
X00168095Y00128945D01*
X00166951Y00129710D01*
X00165000Y00130098D01*
X00163049Y00129710D01*
X00161905Y00128945D01*
X00161000Y00128708D01*
X00160095Y00128945D01*
X00158951Y00129710D01*
X00157000Y00130098D01*
X00155049Y00129710D01*
X00153395Y00128605D01*
X00152290Y00126951D01*
X00151902Y00125000D01*
Y00124000D01*
X00144000D01*
Y00132902D01*
X00145951Y00133290D01*
X00147605Y00134395D01*
X00148710Y00136049D01*
X00149098Y00138000D01*
X00148710Y00139951D01*
X00147945Y00141095D01*
X00147708Y00142000D01*
X00147945Y00142905D01*
X00148710Y00144049D01*
X00149098Y00146000D01*
X00148710Y00147951D01*
X00147605Y00149605D01*
X00145951Y00150710D01*
X00144000Y00151098D01*
Y00164902D01*
X00145951Y00165290D01*
X00147605Y00166395D01*
X00148710Y00168049D01*
X00149098Y00170000D01*
X00148710Y00171951D01*
X00147945Y00173095D01*
X00147708Y00174000D01*
X00147945Y00174905D01*
X00148710Y00176049D01*
X00149098Y00178000D01*
X00148710Y00179951D01*
X00147605Y00181605D01*
Y00182395D01*
X00148710Y00184049D01*
X00149098Y00186000D01*
X00148710Y00187951D01*
X00147945Y00189095D01*
X00147708Y00190000D01*
X00147945Y00190905D01*
X00148710Y00192049D01*
X00149098Y00194000D01*
X00148710Y00195951D01*
X00147605Y00197605D01*
Y00198395D01*
X00148710Y00200049D01*
X00149098Y00202000D01*
X00148710Y00203951D01*
X00147945Y00205095D01*
X00147708Y00206000D01*
X00147945Y00206905D01*
X00148710Y00208049D01*
X00149098Y00210000D01*
X00148710Y00211951D01*
X00147945Y00213095D01*
X00147708Y00214000D01*
X00147945Y00214905D01*
X00148710Y00216049D01*
X00149098Y00218000D01*
X00148710Y00219951D01*
X00147605Y00221605D01*
X00145951Y00222710D01*
X00144000Y00223098D01*
Y00228902D01*
X00145951Y00229290D01*
X00147605Y00230395D01*
X00148710Y00232049D01*
X00149098Y00234000D01*
X00148710Y00235951D01*
X00147945Y00237095D01*
X00147708Y00238000D01*
X00147945Y00238905D01*
X00148710Y00240049D01*
X00149098Y00242000D01*
X00148710Y00243951D01*
X00147605Y00245605D01*
Y00246395D01*
X00148710Y00248049D01*
X00149098Y00250000D01*
X00148710Y00251951D01*
X00147945Y00253095D01*
X00147708Y00254000D01*
X00147945Y00254905D01*
X00148710Y00256049D01*
X00149098Y00258000D01*
X00148710Y00259951D01*
X00148592Y00260127D01*
X00148663Y00261337D01*
X00148705Y00261400D01*
X00149163Y00261858D01*
X00149163Y00261858D01*
X00149826Y00262850D01*
X00150059Y00264021D01*
Y00270000D01*
X00152101D01*
X00152290Y00269049D01*
X00153395Y00267395D01*
X00155049Y00266290D01*
X00157000Y00265902D01*
X00158951Y00266290D01*
X00160095Y00267055D01*
X00161000Y00267292D01*
X00161905Y00267055D01*
X00163049Y00266290D01*
X00165000Y00265902D01*
X00166951Y00266290D01*
X00168095Y00267055D01*
X00169000Y00267292D01*
X00169905Y00267055D01*
X00171049Y00266290D01*
X00173000Y00265902D01*
X00174951Y00266290D01*
X00176605Y00267395D01*
X00177710Y00269049D01*
X00177899Y00270000D01*
X00184101D01*
X00184290Y00269049D01*
X00185395Y00267395D01*
X00187049Y00266290D01*
X00189000Y00265902D01*
X00190951Y00266290D01*
X00192095Y00267055D01*
X00193000Y00267292D01*
X00193905Y00267055D01*
X00195049Y00266290D01*
X00197000Y00265902D01*
X00198951Y00266290D01*
X00200095Y00267055D01*
X00201000Y00267292D01*
X00201905Y00267055D01*
X00203049Y00266290D01*
X00205000Y00265902D01*
X00206951Y00266290D01*
X00208095Y00267055D01*
X00209000Y00267292D01*
X00209905Y00267055D01*
X00211049Y00266290D01*
X00213000Y00265902D01*
X00214951Y00266290D01*
X00216095Y00267055D01*
X00217000Y00267292D01*
X00217905Y00267055D01*
X00219049Y00266290D01*
X00221000Y00265902D01*
X00222951Y00266290D01*
X00224095Y00267055D01*
X00225000Y00267292D01*
X00225905Y00267055D01*
X00227049Y00266290D01*
X00229000Y00265902D01*
X00230951Y00266290D01*
X00232095Y00267055D01*
X00233000Y00267292D01*
X00233905Y00267055D01*
X00235049Y00266290D01*
X00237000Y00265902D01*
X00238951Y00266290D01*
X00240095Y00267055D01*
X00241000Y00267292D01*
X00241905Y00267055D01*
X00243049Y00266290D01*
X00245000Y00265902D01*
X00246951Y00266290D01*
X00248095Y00267055D01*
X00249000Y00267292D01*
X00249905Y00267055D01*
X00251049Y00266290D01*
X00253000Y00265902D01*
X00254951Y00266290D01*
X00256605Y00267395D01*
X00257710Y00269049D01*
X00257899Y00270000D01*
X00264101D01*
X00264290Y00269049D01*
X00265395Y00267395D01*
X00267049Y00266290D01*
X00269000Y00265902D01*
X00270951Y00266290D01*
X00272095Y00267055D01*
X00273000Y00267292D01*
X00273905Y00267055D01*
X00275049Y00266290D01*
X00277000Y00265902D01*
X00278951Y00266290D01*
X00280605Y00267395D01*
X00281710Y00269049D01*
X00281899Y00270000D01*
X00290000D01*
Y00263098D01*
D02*
G37*
G36*
X00493946Y00326707D02*
X00493491Y00325366D01*
X00493042Y00325307D01*
X00491218Y00324551D01*
X00489651Y00323349D01*
X00488449Y00321782D01*
X00487693Y00319958D01*
X00487435Y00318000D01*
X00487693Y00316042D01*
X00488449Y00314218D01*
X00489392Y00312988D01*
Y00273323D01*
X00487579Y00271509D01*
X00486042Y00271307D01*
X00484218Y00270551D01*
X00482651Y00269349D01*
X00481449Y00267782D01*
X00480693Y00265958D01*
X00480435Y00264000D01*
X00480693Y00262042D01*
X00481449Y00260218D01*
X00482131Y00259329D01*
X00481505Y00258059D01*
X00470581D01*
X00459735Y00268904D01*
X00460080Y00270127D01*
X00461519Y00270472D01*
X00466173Y00272400D01*
X00470467Y00275031D01*
X00474297Y00278303D01*
X00477569Y00282133D01*
X00480200Y00286427D01*
X00482128Y00291081D01*
X00483304Y00295979D01*
X00483699Y00301000D01*
X00483304Y00306021D01*
X00482128Y00310919D01*
X00480200Y00315573D01*
X00477569Y00319867D01*
X00474297Y00323697D01*
X00470467Y00326969D01*
X00466173Y00329600D01*
X00461519Y00331528D01*
X00458962Y00332142D01*
X00459112Y00333412D01*
X00487242D01*
X00493946Y00326707D01*
D02*
G37*
G36*
X00375412Y00259078D02*
X00375000D01*
X00373439Y00258768D01*
X00372116Y00257884D01*
X00371565Y00257059D01*
X00367522D01*
X00367518Y00257061D01*
X00366250Y00257314D01*
X00361250D01*
X00361084Y00257281D01*
X00360236Y00257802D01*
X00359877Y00258335D01*
X00360059Y00259250D01*
X00360059Y00259250D01*
Y00266565D01*
X00360884Y00267116D01*
X00361768Y00268439D01*
X00362078Y00270000D01*
Y00276000D01*
X00361768Y00277561D01*
X00360884Y00278884D01*
X00360588Y00279081D01*
Y00283412D01*
X00375412D01*
Y00259078D01*
D02*
G37*
G36*
X00444238Y00332142D02*
X00441681Y00331528D01*
X00437027Y00329600D01*
X00432733Y00326969D01*
X00428903Y00323697D01*
X00425631Y00319867D01*
X00423000Y00315573D01*
X00421072Y00310919D01*
X00419896Y00306021D01*
X00419501Y00301000D01*
X00419896Y00295979D01*
X00421072Y00291081D01*
X00423000Y00286427D01*
X00425631Y00282133D01*
X00428903Y00278303D01*
X00432733Y00275031D01*
X00437027Y00272400D01*
X00437861Y00272054D01*
X00437613Y00270809D01*
X00424093D01*
X00424093Y00270809D01*
X00422923Y00270576D01*
X00421930Y00269913D01*
X00421930Y00269913D01*
X00383076Y00231059D01*
X00359677D01*
X00358912Y00232329D01*
X00359059Y00233068D01*
Y00234730D01*
X00359561Y00235482D01*
X00359814Y00236750D01*
Y00241750D01*
X00359561Y00243018D01*
X00358843Y00244093D01*
X00357768Y00244811D01*
X00356500Y00245064D01*
X00355232Y00244811D01*
X00354996Y00244654D01*
X00354000Y00244169D01*
X00353004Y00244654D01*
X00352768Y00244811D01*
X00351500Y00245064D01*
X00351160Y00244996D01*
X00349886Y00245253D01*
X00349595Y00245624D01*
X00349169Y00246500D01*
X00349654Y00247496D01*
X00349811Y00247732D01*
X00350064Y00249000D01*
X00349811Y00250268D01*
X00349093Y00251343D01*
X00348018Y00252061D01*
X00346750Y00252314D01*
X00341750D01*
X00340482Y00252061D01*
X00340478Y00252059D01*
X00310294D01*
X00309909Y00253329D01*
X00310965Y00254035D01*
X00312181Y00255854D01*
X00312608Y00258000D01*
X00312181Y00260146D01*
X00310965Y00261965D01*
X00309146Y00263181D01*
X00307000Y00263608D01*
X00304854Y00263181D01*
X00303035Y00261965D01*
X00301679Y00262223D01*
X00300951Y00262710D01*
X00299000Y00263098D01*
X00292039D01*
Y00270000D01*
X00291884Y00270780D01*
X00291442Y00271442D01*
X00291099Y00271671D01*
X00291479Y00272941D01*
X00305733D01*
X00315837Y00262837D01*
X00316829Y00262174D01*
X00318000Y00261941D01*
X00318000Y00261941D01*
X00345733D01*
X00348186Y00259488D01*
Y00256250D01*
X00348439Y00254982D01*
X00349157Y00253907D01*
X00350232Y00253189D01*
X00351500Y00252936D01*
X00352768Y00253189D01*
X00353004Y00253346D01*
X00354000Y00253831D01*
X00354996Y00253346D01*
X00355232Y00253189D01*
X00356500Y00252936D01*
X00356840Y00253004D01*
X00358114Y00252747D01*
X00358553Y00252186D01*
X00358907Y00251657D01*
X00359982Y00250939D01*
X00361250Y00250686D01*
X00366250D01*
X00367518Y00250939D01*
X00367522Y00250941D01*
X00370933D01*
X00371232Y00249439D01*
X00372116Y00248116D01*
X00373439Y00247232D01*
X00375000Y00246922D01*
X00381000D01*
X00382561Y00247232D01*
X00383884Y00248116D01*
X00384768Y00249439D01*
X00385078Y00251000D01*
Y00255000D01*
X00384768Y00256561D01*
X00384588Y00256830D01*
Y00284317D01*
X00385244Y00284756D01*
X00433900Y00333412D01*
X00444088D01*
X00444238Y00332142D01*
D02*
G37*
G36*
X00463674Y00245000D02*
X00463837Y00244837D01*
X00463837Y00244837D01*
X00464432Y00244440D01*
X00464829Y00244174D01*
X00466000Y00243941D01*
X00481000D01*
X00481000Y00205800D01*
X00470300D01*
Y00197000D01*
X00452000Y00197000D01*
X00452000Y00208000D01*
X00451221Y00208779D01*
X00450565Y00209761D01*
X00450059Y00210267D01*
Y00219078D01*
X00453000Y00223000D01*
Y00245000D01*
X00463674D01*
D02*
G37*
G36*
X00105941Y00225804D02*
Y00221272D01*
X00105941Y00221272D01*
X00105941Y00221272D01*
Y00219515D01*
X00105941Y00219515D01*
X00106174Y00218344D01*
X00106837Y00217352D01*
X00129950Y00194239D01*
X00129902Y00194000D01*
X00130290Y00192049D01*
X00131055Y00190905D01*
X00131180Y00190426D01*
X00131025Y00189511D01*
X00130895Y00189202D01*
X00130837Y00189163D01*
X00130733Y00189059D01*
X00119249D01*
X00114145Y00194163D01*
X00113153Y00194826D01*
X00111982Y00195059D01*
X00111982Y00195059D01*
X00102267D01*
X00095823Y00201503D01*
Y00211275D01*
X00095534Y00212728D01*
X00094711Y00213960D01*
X00093478Y00214784D01*
X00093245Y00214830D01*
X00092884Y00216116D01*
X00093768Y00217439D01*
X00094078Y00219000D01*
Y00225000D01*
X00093945Y00225671D01*
X00094925Y00226941D01*
X00104804D01*
X00105941Y00225804D01*
D02*
G37*
G36*
X00294941Y00112733D02*
Y00102000D01*
X00294951Y00101951D01*
Y00097500D01*
X00295145Y00096524D01*
X00295698Y00095698D01*
X00296525Y00095145D01*
X00297500Y00094951D01*
X00298500D01*
X00299475Y00095145D01*
X00300000Y00095496D01*
X00300525Y00095145D01*
X00301500Y00094951D01*
X00302500D01*
X00302779Y00095007D01*
X00303350Y00093915D01*
X00302666Y00093059D01*
X00296000D01*
X00295951Y00093049D01*
X00295049D01*
X00295000Y00093059D01*
X00295000Y00093059D01*
X00289868D01*
X00289768Y00093561D01*
X00288884Y00094884D01*
X00287561Y00095768D01*
X00286000Y00096078D01*
X00282410D01*
X00275078Y00103410D01*
Y00106000D01*
X00274768Y00107561D01*
X00273884Y00108884D01*
X00273588Y00109081D01*
Y00110919D01*
X00274708Y00111518D01*
X00275049Y00111290D01*
X00277000Y00110902D01*
X00278951Y00111290D01*
X00280605Y00112395D01*
X00281710Y00114049D01*
X00282098Y00116000D01*
Y00116941D01*
X00290733D01*
X00294941Y00112733D01*
D02*
G37*
G36*
X00470300Y00168200D02*
X00495700D01*
Y00173000D01*
X00501000D01*
X00533000D01*
Y00091037D01*
X00511000Y00091000D01*
X00452000D01*
Y00177000D01*
X00470300Y00177000D01*
Y00168200D01*
D02*
G37*
G36*
X00131055Y00142905D02*
X00131292Y00142000D01*
X00131055Y00141095D01*
X00130290Y00139951D01*
X00129902Y00138000D01*
X00130290Y00136049D01*
X00131395Y00134395D01*
X00133049Y00133290D01*
X00135000Y00132902D01*
X00141961D01*
Y00124000D01*
X00142116Y00123220D01*
X00142558Y00122558D01*
X00143220Y00122116D01*
X00144000Y00121961D01*
X00151902D01*
Y00116228D01*
X00148733Y00113059D01*
X00142000D01*
X00142000Y00113059D01*
X00140829Y00112826D01*
X00139837Y00112163D01*
X00139837Y00112163D01*
X00136674Y00109000D01*
X00128250D01*
Y00097000D01*
X00139015D01*
X00139501Y00095827D01*
X00136174Y00092500D01*
X00128250D01*
Y00080500D01*
X00141750D01*
Y00089424D01*
X00146168Y00093842D01*
X00147000Y00093677D01*
X00153000D01*
X00154463Y00093968D01*
X00155704Y00094796D01*
X00156532Y00096037D01*
X00156824Y00097500D01*
Y00101000D01*
X00156532Y00102463D01*
X00155704Y00103704D01*
X00154463Y00104532D01*
X00153000Y00104823D01*
X00147000D01*
X00145537Y00104532D01*
X00144296Y00103704D01*
X00143468Y00102463D01*
X00143176Y00101000D01*
Y00100519D01*
X00143020Y00100414D01*
X00141750Y00101093D01*
Y00105424D01*
X00143267Y00106941D01*
X00150000D01*
X00150000Y00106941D01*
X00151171Y00107174D01*
X00152163Y00107837D01*
X00155522Y00111196D01*
X00157000Y00110902D01*
X00158951Y00111290D01*
X00160095Y00112055D01*
X00160753Y00112227D01*
X00161941Y00111533D01*
Y00108250D01*
X00158250D01*
Y00096250D01*
X00169265D01*
X00169751Y00095077D01*
X00166424Y00091750D01*
X00158250D01*
Y00079750D01*
X00171750D01*
Y00088424D01*
X00177002Y00093677D01*
X00183000D01*
X00184463Y00093968D01*
X00185704Y00094796D01*
X00186532Y00096037D01*
X00186824Y00097500D01*
Y00101000D01*
X00186532Y00102463D01*
X00185704Y00103704D01*
X00184463Y00104532D01*
X00183000Y00104823D01*
X00177000D01*
X00175537Y00104532D01*
X00174296Y00103704D01*
X00173468Y00102463D01*
X00173176Y00101000D01*
Y00099519D01*
X00173020Y00099414D01*
X00171750Y00100093D01*
Y00108250D01*
X00168059D01*
Y00111533D01*
X00169247Y00112227D01*
X00169905Y00112055D01*
X00171049Y00111290D01*
X00173000Y00110902D01*
X00173239Y00110950D01*
X00176352Y00107837D01*
X00176352Y00107837D01*
X00177344Y00107174D01*
X00178515Y00106941D01*
X00178515Y00106941D01*
X00184733D01*
X00188250Y00103424D01*
Y00096250D01*
X00199265D01*
X00199751Y00095077D01*
X00196424Y00091750D01*
X00188250D01*
Y00079750D01*
X00201750D01*
Y00088424D01*
X00207002Y00093677D01*
X00213000D01*
X00214463Y00093968D01*
X00215704Y00094796D01*
X00216532Y00096037D01*
X00216824Y00097500D01*
Y00101000D01*
X00216532Y00102463D01*
X00215704Y00103704D01*
X00214463Y00104532D01*
X00213000Y00104823D01*
X00207000D01*
X00205537Y00104532D01*
X00204296Y00103704D01*
X00203468Y00102463D01*
X00203177Y00101000D01*
Y00099519D01*
X00203020Y00099414D01*
X00201750Y00100093D01*
Y00108250D01*
X00192076D01*
X00190306Y00110020D01*
X00190675Y00111235D01*
X00190951Y00111290D01*
X00192095Y00112055D01*
X00193000Y00112292D01*
X00193905Y00112055D01*
X00195049Y00111290D01*
X00197000Y00110902D01*
X00198951Y00111290D01*
X00200605Y00112395D01*
X00201395D01*
X00203049Y00111290D01*
X00205000Y00110902D01*
X00206951Y00111290D01*
X00208095Y00112055D01*
X00209000Y00112292D01*
X00209905Y00112055D01*
X00211049Y00111290D01*
X00213000Y00110902D01*
X00214951Y00111290D01*
X00216605Y00112395D01*
X00217395D01*
X00219049Y00111290D01*
X00221000Y00110902D01*
X00222951Y00111290D01*
X00224095Y00112055D01*
X00225000Y00112292D01*
X00225905Y00112055D01*
X00227049Y00111290D01*
X00229000Y00110902D01*
X00230951Y00111290D01*
X00232095Y00112055D01*
X00233000Y00112292D01*
X00233905Y00112055D01*
X00235049Y00111290D01*
X00237000Y00110902D01*
X00238951Y00111290D01*
X00240605Y00112395D01*
X00241395D01*
X00243049Y00111290D01*
X00245000Y00110902D01*
X00246951Y00111290D01*
X00248095Y00112055D01*
X00249000Y00112292D01*
X00249905Y00112055D01*
X00251049Y00111290D01*
X00253000Y00110902D01*
X00254951Y00111290D01*
X00256605Y00112395D01*
X00257710Y00114049D01*
X00258098Y00116000D01*
Y00125000D01*
X00257741Y00126794D01*
X00258421Y00126973D01*
X00258725Y00127120D01*
X00259038Y00127250D01*
X00259845Y00127789D01*
X00261000Y00128019D01*
X00262155Y00127789D01*
X00263135Y00127135D01*
X00263789Y00126155D01*
X00263960Y00125294D01*
X00263902Y00125000D01*
Y00116000D01*
X00264290Y00114049D01*
X00264412Y00113867D01*
Y00109081D01*
X00264116Y00108884D01*
X00263232Y00107561D01*
X00262922Y00106000D01*
Y00100000D01*
X00263232Y00098439D01*
X00264116Y00097116D01*
X00265439Y00096232D01*
X00267000Y00095922D01*
X00269590D01*
X00275922Y00089590D01*
Y00089410D01*
X00273834Y00087323D01*
X00272000Y00087565D01*
X00270042Y00087307D01*
X00268218Y00086551D01*
X00266651Y00085349D01*
X00265449Y00083782D01*
X00264693Y00081958D01*
X00264435Y00080000D01*
X00264693Y00078042D01*
X00265449Y00076218D01*
X00266131Y00075329D01*
X00265504Y00074059D01*
X00120328D01*
X00119730Y00075179D01*
X00120181Y00075854D01*
X00120608Y00078000D01*
X00120181Y00080146D01*
X00118965Y00081965D01*
X00117146Y00083181D01*
X00115059Y00083596D01*
Y00134733D01*
X00120247Y00139922D01*
X00125000D01*
X00126561Y00140232D01*
X00127884Y00141116D01*
X00128768Y00142439D01*
X00129067Y00143941D01*
X00130362D01*
X00131055Y00142905D01*
D02*
G37*
G36*
X00318232Y00086439D02*
X00319116Y00085116D01*
X00320439Y00084232D01*
X00322000Y00083922D01*
X00328000D01*
X00329561Y00084232D01*
X00330884Y00085116D01*
X00331081Y00085412D01*
X00340099D01*
X00345511Y00080000D01*
X00335600Y00070088D01*
X00324348D01*
X00323749Y00071208D01*
X00324181Y00071854D01*
X00324608Y00074000D01*
X00324181Y00076146D01*
X00322965Y00077965D01*
X00321146Y00079181D01*
X00319000Y00079608D01*
X00318765Y00079561D01*
X00314163Y00084163D01*
X00313171Y00084826D01*
X00313049Y00084850D01*
Y00085755D01*
X00313049Y00086500D01*
X00314256Y00086941D01*
X00318132D01*
X00318232Y00086439D01*
D02*
G37*
%LPC*%
G36*
X00658600Y00643099D02*
X00653579Y00642704D01*
X00648681Y00641528D01*
X00644027Y00639600D01*
X00639733Y00636969D01*
X00635903Y00633697D01*
X00632631Y00629867D01*
X00630000Y00625573D01*
X00628072Y00620919D01*
X00626896Y00616021D01*
X00626501Y00611000D01*
X00626896Y00605979D01*
X00628072Y00601081D01*
X00630000Y00596427D01*
X00632631Y00592133D01*
X00635903Y00588303D01*
X00639733Y00585031D01*
X00644027Y00582400D01*
X00648681Y00580472D01*
X00653579Y00579296D01*
X00658600Y00578901D01*
X00663621Y00579296D01*
X00668519Y00580472D01*
X00673173Y00582400D01*
X00677467Y00585031D01*
X00681297Y00588303D01*
X00684569Y00592133D01*
X00687200Y00596427D01*
X00689128Y00601081D01*
X00690304Y00605979D01*
X00690699Y00611000D01*
X00690304Y00616021D01*
X00689128Y00620919D01*
X00687200Y00625573D01*
X00684569Y00629867D01*
X00681297Y00633697D01*
X00677467Y00636969D01*
X00673173Y00639600D01*
X00668519Y00641528D01*
X00663621Y00642704D01*
X00658600Y00643099D01*
D02*
G37*
G36*
X00451600D02*
X00446579Y00642704D01*
X00441681Y00641528D01*
X00437027Y00639600D01*
X00432733Y00636969D01*
X00428903Y00633697D01*
X00425631Y00629867D01*
X00423000Y00625573D01*
X00421072Y00620919D01*
X00419896Y00616021D01*
X00419501Y00611000D01*
X00419896Y00605979D01*
X00421072Y00601081D01*
X00423000Y00596427D01*
X00425631Y00592133D01*
X00428903Y00588303D01*
X00432733Y00585031D01*
X00437027Y00582400D01*
X00441681Y00580472D01*
X00446579Y00579296D01*
X00451600Y00578901D01*
X00456621Y00579296D01*
X00461519Y00580472D01*
X00466173Y00582400D01*
X00470467Y00585031D01*
X00474297Y00588303D01*
X00477569Y00592133D01*
X00480200Y00596427D01*
X00482128Y00601081D01*
X00483304Y00605979D01*
X00483699Y00611000D01*
X00483304Y00616021D01*
X00482128Y00620919D01*
X00480200Y00625573D01*
X00477569Y00629867D01*
X00474297Y00633697D01*
X00470467Y00636969D01*
X00466173Y00639600D01*
X00461519Y00641528D01*
X00456621Y00642704D01*
X00451600Y00643099D01*
D02*
G37*
G36*
X00680000Y00541556D02*
X00678303Y00541333D01*
X00676722Y00540678D01*
X00675364Y00539636D01*
X00674322Y00538278D01*
X00673667Y00536697D01*
X00673444Y00535000D01*
X00673667Y00533303D01*
X00674322Y00531722D01*
X00675364Y00530364D01*
X00676722Y00529322D01*
X00678303Y00528667D01*
X00680000Y00528444D01*
X00681697Y00528667D01*
X00683278Y00529322D01*
X00684636Y00530364D01*
X00685678Y00531722D01*
X00686333Y00533303D01*
X00686556Y00535000D01*
X00686333Y00536697D01*
X00685678Y00538278D01*
X00684636Y00539636D01*
X00683278Y00540678D01*
X00681697Y00541333D01*
X00680000Y00541556D01*
D02*
G37*
G36*
X00160500Y00502548D02*
X00150000D01*
X00148049Y00502160D01*
X00146395Y00501055D01*
X00145290Y00499401D01*
X00144902Y00497450D01*
X00145290Y00495499D01*
X00146395Y00493845D01*
X00148049Y00492740D01*
X00150000Y00492352D01*
X00160500D01*
X00162451Y00492740D01*
X00164105Y00493845D01*
X00165210Y00495499D01*
X00165598Y00497450D01*
X00165210Y00499401D01*
X00164105Y00501055D01*
X00162451Y00502160D01*
X00160500Y00502548D01*
D02*
G37*
G36*
X00065500D02*
X00055000D01*
X00053049Y00502160D01*
X00051395Y00501055D01*
X00050290Y00499401D01*
X00049902Y00497450D01*
X00050290Y00495499D01*
X00051395Y00493845D01*
X00053049Y00492740D01*
X00055000Y00492352D01*
X00065500D01*
X00067451Y00492740D01*
X00069105Y00493845D01*
X00070210Y00495499D01*
X00070598Y00497450D01*
X00070210Y00499401D01*
X00069105Y00501055D01*
X00067451Y00502160D01*
X00065500Y00502548D01*
D02*
G37*
G36*
X00160500Y00489848D02*
X00150000D01*
X00148049Y00489460D01*
X00146395Y00488355D01*
X00145290Y00486701D01*
X00144902Y00484750D01*
X00145290Y00482799D01*
X00146395Y00481145D01*
X00148049Y00480040D01*
X00150000Y00479652D01*
X00160500D01*
X00162451Y00480040D01*
X00164105Y00481145D01*
X00165210Y00482799D01*
X00165598Y00484750D01*
X00165210Y00486701D01*
X00164105Y00488355D01*
X00162451Y00489460D01*
X00160500Y00489848D01*
D02*
G37*
G36*
X00065500D02*
X00055000D01*
X00053049Y00489460D01*
X00051395Y00488355D01*
X00050290Y00486701D01*
X00049902Y00484750D01*
X00050290Y00482799D01*
X00051395Y00481145D01*
X00053049Y00480040D01*
X00055000Y00479652D01*
X00065500D01*
X00067451Y00480040D01*
X00069105Y00481145D01*
X00070210Y00482799D01*
X00070598Y00484750D01*
X00070210Y00486701D01*
X00069105Y00488355D01*
X00067451Y00489460D01*
X00065500Y00489848D01*
D02*
G37*
G36*
X00160500Y00477148D02*
X00150000D01*
X00148049Y00476760D01*
X00146395Y00475655D01*
X00145290Y00474001D01*
X00144902Y00472050D01*
X00145290Y00470099D01*
X00146395Y00468445D01*
X00148049Y00467340D01*
X00150000Y00466952D01*
X00160500D01*
X00162451Y00467340D01*
X00164105Y00468445D01*
X00165210Y00470099D01*
X00165598Y00472050D01*
X00165210Y00474001D01*
X00164105Y00475655D01*
X00162451Y00476760D01*
X00160500Y00477148D01*
D02*
G37*
G36*
X00065500D02*
X00055000D01*
X00053049Y00476760D01*
X00051395Y00475655D01*
X00050290Y00474001D01*
X00049902Y00472050D01*
X00050290Y00470099D01*
X00051395Y00468445D01*
X00053049Y00467340D01*
X00055000Y00466952D01*
X00065500D01*
X00067451Y00467340D01*
X00069105Y00468445D01*
X00070210Y00470099D01*
X00070598Y00472050D01*
X00070210Y00474001D01*
X00069105Y00475655D01*
X00067451Y00476760D01*
X00065500Y00477148D01*
D02*
G37*
G36*
Y00464448D02*
X00055000D01*
X00053049Y00464060D01*
X00051395Y00462955D01*
X00050290Y00461301D01*
X00049902Y00459350D01*
X00050290Y00457399D01*
X00051395Y00455745D01*
X00053049Y00454640D01*
X00055000Y00454252D01*
X00065500D01*
X00067451Y00454640D01*
X00069105Y00455745D01*
X00070210Y00457399D01*
X00070598Y00459350D01*
X00070210Y00461301D01*
X00069105Y00462955D01*
X00067451Y00464060D01*
X00065500Y00464448D01*
D02*
G37*
G36*
X00160500Y00451748D02*
X00150000D01*
X00148049Y00451360D01*
X00146395Y00450255D01*
X00145290Y00448601D01*
X00144902Y00446650D01*
X00145290Y00444699D01*
X00146395Y00443045D01*
X00148049Y00441940D01*
X00150000Y00441552D01*
X00160500D01*
X00162451Y00441940D01*
X00164105Y00443045D01*
X00165210Y00444699D01*
X00165598Y00446650D01*
X00165210Y00448601D01*
X00164105Y00450255D01*
X00162451Y00451360D01*
X00160500Y00451748D01*
D02*
G37*
G36*
X00389000Y00434069D02*
X00386000D01*
X00384634Y00433797D01*
X00383477Y00433023D01*
X00382703Y00431866D01*
X00382431Y00430500D01*
Y00423500D01*
X00382703Y00422134D01*
X00383477Y00420977D01*
X00384634Y00420203D01*
X00386000Y00419931D01*
X00389000D01*
X00390366Y00420203D01*
X00391523Y00420977D01*
X00392297Y00422134D01*
X00392569Y00423500D01*
Y00430500D01*
X00392297Y00431866D01*
X00391523Y00433023D01*
X00390366Y00433797D01*
X00389000Y00434069D01*
D02*
G37*
G36*
X00166000Y00364000D02*
X00146000D01*
Y00344000D01*
X00160941D01*
Y00334183D01*
X00160267Y00333733D01*
X00159660Y00332823D01*
X00159446Y00331750D01*
Y00330250D01*
X00159660Y00329177D01*
X00160267Y00328267D01*
X00161177Y00327660D01*
X00162250Y00327446D01*
X00163228D01*
X00164941Y00325733D01*
Y00324468D01*
X00163796Y00323704D01*
X00162968Y00322463D01*
X00162677Y00321000D01*
Y00315000D01*
X00162968Y00313537D01*
X00163796Y00312296D01*
X00165037Y00311468D01*
X00166500Y00311176D01*
X00170000D01*
X00171463Y00311468D01*
X00172704Y00312296D01*
X00173532Y00313537D01*
X00173824Y00315000D01*
Y00321000D01*
X00173532Y00322463D01*
X00172704Y00323704D01*
X00171463Y00324532D01*
X00171059Y00324613D01*
Y00327000D01*
X00170826Y00328171D01*
X00170163Y00329163D01*
X00170163Y00329163D01*
X00168554Y00330772D01*
Y00331750D01*
X00168340Y00332823D01*
X00167733Y00333733D01*
X00167059Y00334183D01*
Y00346000D01*
X00166826Y00347171D01*
X00166163Y00348163D01*
X00166163Y00348163D01*
X00166000Y00348326D01*
Y00364000D01*
D02*
G37*
G36*
X00130600Y00364086D02*
X00127990Y00363743D01*
X00125557Y00362735D01*
X00123468Y00361132D01*
X00121865Y00359043D01*
X00120857Y00356610D01*
X00120514Y00354000D01*
X00120857Y00351390D01*
X00121865Y00348957D01*
X00123468Y00346868D01*
X00125557Y00345265D01*
X00125943Y00345105D01*
Y00334184D01*
X00125267Y00333733D01*
X00124660Y00332823D01*
X00124446Y00331750D01*
Y00330250D01*
X00124660Y00329177D01*
X00125267Y00328267D01*
X00125941Y00327817D01*
Y00324613D01*
X00125537Y00324532D01*
X00124296Y00323704D01*
X00123468Y00322463D01*
X00123176Y00321000D01*
Y00315000D01*
X00123468Y00313537D01*
X00124296Y00312296D01*
X00125537Y00311468D01*
X00127000Y00311176D01*
X00130500D01*
X00131963Y00311468D01*
X00133204Y00312296D01*
X00134032Y00313537D01*
X00134323Y00315000D01*
Y00321000D01*
X00134032Y00322463D01*
X00133204Y00323704D01*
X00132059Y00324468D01*
Y00327817D01*
X00132733Y00328267D01*
X00133340Y00329177D01*
X00133554Y00330250D01*
Y00331750D01*
X00133340Y00332823D01*
X00132733Y00333733D01*
X00132061Y00334181D01*
Y00344106D01*
X00133210Y00344257D01*
X00135643Y00345265D01*
X00137732Y00346868D01*
X00139335Y00348957D01*
X00140343Y00351390D01*
X00140686Y00354000D01*
X00140343Y00356610D01*
X00139335Y00359043D01*
X00137732Y00361132D01*
X00135643Y00362735D01*
X00133210Y00363743D01*
X00130600Y00364086D01*
D02*
G37*
G36*
X00035500Y00339823D02*
X00032000D01*
X00030537Y00339532D01*
X00029296Y00338704D01*
X00028468Y00337463D01*
X00028177Y00336000D01*
Y00330000D01*
X00028468Y00328537D01*
X00029296Y00327296D01*
X00030537Y00326468D01*
X00030941Y00326387D01*
Y00323183D01*
X00030267Y00322733D01*
X00029660Y00321823D01*
X00029446Y00320750D01*
Y00319250D01*
X00029660Y00318177D01*
X00030267Y00317267D01*
X00030944Y00316815D01*
Y00307402D01*
X00024003D01*
Y00287402D01*
X00044003D01*
Y00307402D01*
X00037062D01*
Y00316819D01*
X00037733Y00317267D01*
X00038340Y00318177D01*
X00038554Y00319250D01*
Y00320750D01*
X00038340Y00321823D01*
X00037733Y00322733D01*
X00037059Y00323183D01*
Y00326531D01*
X00038204Y00327296D01*
X00039032Y00328537D01*
X00039323Y00330000D01*
Y00336000D01*
X00039032Y00337463D01*
X00038204Y00338704D01*
X00036963Y00339532D01*
X00035500Y00339823D01*
D02*
G37*
G36*
X00657600Y00333099D02*
X00652579Y00332704D01*
X00647681Y00331528D01*
X00643027Y00329600D01*
X00638733Y00326969D01*
X00634903Y00323697D01*
X00631631Y00319867D01*
X00629000Y00315573D01*
X00627072Y00310919D01*
X00625896Y00306021D01*
X00625501Y00301000D01*
X00625896Y00295979D01*
X00627072Y00291081D01*
X00629000Y00286427D01*
X00631631Y00282133D01*
X00634903Y00278303D01*
X00638733Y00275031D01*
X00643027Y00272400D01*
X00647681Y00270472D01*
X00652579Y00269296D01*
X00657600Y00268901D01*
X00662621Y00269296D01*
X00667519Y00270472D01*
X00672173Y00272400D01*
X00676467Y00275031D01*
X00680297Y00278303D01*
X00683569Y00282133D01*
X00686200Y00286427D01*
X00688128Y00291081D01*
X00689304Y00295979D01*
X00689699Y00301000D01*
X00689304Y00306021D01*
X00688128Y00310919D01*
X00686200Y00315573D01*
X00683569Y00319867D01*
X00680297Y00323697D01*
X00676467Y00326969D01*
X00672173Y00329600D01*
X00667519Y00331528D01*
X00662621Y00332704D01*
X00657600Y00333099D01*
D02*
G37*
G36*
X00441250Y00192814D02*
X00435750D01*
X00434482Y00192561D01*
X00433407Y00191843D01*
X00432689Y00190768D01*
X00432436Y00189500D01*
X00432669Y00188329D01*
X00432658Y00188184D01*
X00431945Y00187059D01*
X00426099D01*
X00426000Y00187078D01*
X00420000D01*
X00418439Y00186768D01*
X00417116Y00185884D01*
X00416232Y00184561D01*
X00415922Y00183000D01*
Y00179000D01*
X00416232Y00177439D01*
X00417116Y00176116D01*
X00418439Y00175232D01*
X00420000Y00174922D01*
X00426000D01*
X00427561Y00175232D01*
X00428884Y00176116D01*
X00429768Y00177439D01*
X00430078Y00179000D01*
Y00180941D01*
X00438000D01*
X00439170Y00181174D01*
X00439189Y00181186D01*
X00441250D01*
X00442518Y00181439D01*
X00443593Y00182157D01*
X00444311Y00183232D01*
X00444564Y00184500D01*
X00444311Y00185768D01*
X00444154Y00186004D01*
X00443669Y00187000D01*
X00444154Y00187996D01*
X00444311Y00188232D01*
X00444564Y00189500D01*
X00444311Y00190768D01*
X00443593Y00191843D01*
X00442518Y00192561D01*
X00441250Y00192814D01*
D02*
G37*
G36*
X00373998Y00184084D02*
X00371387Y00183740D01*
X00368955Y00182733D01*
X00366866Y00181130D01*
X00365263Y00179041D01*
X00364441Y00177057D01*
X00356185D01*
X00355733Y00177733D01*
X00354823Y00178340D01*
X00353750Y00178554D01*
X00352250D01*
X00351177Y00178340D01*
X00350267Y00177733D01*
X00349817Y00177059D01*
X00345613D01*
X00345532Y00177463D01*
X00344704Y00178704D01*
X00343463Y00179532D01*
X00342000Y00179823D01*
X00336000D01*
X00334537Y00179532D01*
X00333297Y00178704D01*
X00332468Y00177463D01*
X00332177Y00176000D01*
Y00172500D01*
X00332468Y00171037D01*
X00333297Y00169796D01*
X00334537Y00168968D01*
X00336000Y00168676D01*
X00342000D01*
X00343463Y00168968D01*
X00344704Y00169796D01*
X00345469Y00170941D01*
X00349817D01*
X00350267Y00170267D01*
X00351177Y00169660D01*
X00352250Y00169446D01*
X00353750D01*
X00354823Y00169660D01*
X00355733Y00170267D01*
X00356181Y00170939D01*
X00364441D01*
X00365263Y00168955D01*
X00366866Y00166866D01*
X00368955Y00165263D01*
X00371387Y00164255D01*
X00373998Y00163911D01*
X00376609Y00164255D01*
X00379041Y00165263D01*
X00381130Y00166866D01*
X00382733Y00168955D01*
X00383741Y00171387D01*
X00384084Y00173998D01*
X00383741Y00176608D01*
X00382733Y00179041D01*
X00381130Y00181130D01*
X00379041Y00182733D01*
X00376609Y00183740D01*
X00373998Y00184084D01*
D02*
G37*
G36*
X00443500Y00178314D02*
X00442232Y00178061D01*
X00441157Y00177343D01*
X00440804Y00176816D01*
X00440290Y00176294D01*
X00439187Y00176485D01*
X00438146Y00177181D01*
X00436000Y00177608D01*
X00433854Y00177181D01*
X00432035Y00175965D01*
X00430819Y00174146D01*
X00430392Y00172000D01*
X00430819Y00169854D01*
X00432035Y00168035D01*
X00433854Y00166819D01*
X00436000Y00166392D01*
X00438146Y00166819D01*
X00439408Y00167662D01*
X00440019Y00168000D01*
X00441031Y00167344D01*
X00441157Y00167157D01*
X00442232Y00166439D01*
X00443500Y00166186D01*
X00444768Y00166439D01*
X00445843Y00167157D01*
X00446561Y00168232D01*
X00446814Y00169500D01*
Y00175000D01*
X00446561Y00176268D01*
X00445843Y00177343D01*
X00444768Y00178061D01*
X00443500Y00178314D01*
D02*
G37*
G36*
X00686000Y00172913D02*
X00684107Y00172663D01*
X00682344Y00171933D01*
X00680829Y00170771D01*
X00679667Y00169256D01*
X00678937Y00167493D01*
X00678688Y00165600D01*
X00678937Y00163707D01*
X00679667Y00161944D01*
X00680829Y00160429D01*
X00682344Y00159267D01*
X00684107Y00158537D01*
X00686000Y00158287D01*
X00687893Y00158537D01*
X00689656Y00159267D01*
X00691171Y00160429D01*
X00692333Y00161944D01*
X00693063Y00163707D01*
X00693313Y00165600D01*
X00693063Y00167493D01*
X00692333Y00169256D01*
X00691171Y00170771D01*
X00689656Y00171933D01*
X00687893Y00172663D01*
X00686000Y00172913D01*
D02*
G37*
G36*
X00626000D02*
X00624107Y00172663D01*
X00622344Y00171933D01*
X00620829Y00170771D01*
X00619667Y00169256D01*
X00618937Y00167493D01*
X00618687Y00165600D01*
X00618937Y00163707D01*
X00619667Y00161944D01*
X00620829Y00160429D01*
X00622344Y00159267D01*
X00624107Y00158537D01*
X00626000Y00158287D01*
X00627893Y00158537D01*
X00629656Y00159267D01*
X00631171Y00160429D01*
X00632333Y00161944D01*
X00633063Y00163707D01*
X00633313Y00165600D01*
X00633063Y00167493D01*
X00632333Y00169256D01*
X00631171Y00170771D01*
X00629656Y00171933D01*
X00627893Y00172663D01*
X00626000Y00172913D01*
D02*
G37*
G36*
X00383998Y00158598D02*
X00363998D01*
Y00151657D01*
X00361598D01*
X00360427Y00151424D01*
X00359435Y00150761D01*
X00359435Y00150760D01*
X00352223Y00143548D01*
X00351177Y00143340D01*
X00350267Y00142733D01*
X00349660Y00141823D01*
X00349446Y00140750D01*
Y00138809D01*
X00345563D01*
X00345532Y00138963D01*
X00344704Y00140204D01*
X00343463Y00141032D01*
X00342000Y00141323D01*
X00336000D01*
X00334537Y00141032D01*
X00333296Y00140204D01*
X00332468Y00138963D01*
X00332177Y00137500D01*
Y00134000D01*
X00332468Y00132537D01*
X00333296Y00131296D01*
X00334537Y00130468D01*
X00336000Y00130176D01*
X00342000D01*
X00343463Y00130468D01*
X00344704Y00131296D01*
X00345532Y00132537D01*
X00345563Y00132691D01*
X00350750D01*
X00350750Y00132691D01*
X00351921Y00132924D01*
X00352913Y00133587D01*
X00353777Y00134452D01*
X00354823Y00134660D01*
X00355733Y00135267D01*
X00356340Y00136177D01*
X00356554Y00137250D01*
Y00139228D01*
X00362728Y00145402D01*
X00363998Y00145209D01*
Y00138598D01*
X00383998D01*
Y00158598D01*
D02*
G37*
G36*
X00031000Y00138886D02*
X00028389Y00138543D01*
X00025957Y00137535D01*
X00023868Y00135932D01*
X00022265Y00133843D01*
X00021257Y00131411D01*
X00020914Y00128800D01*
X00021257Y00126189D01*
X00022265Y00123757D01*
X00023868Y00121668D01*
X00025957Y00120065D01*
X00028389Y00119057D01*
X00031000Y00118714D01*
X00033610Y00119057D01*
X00036043Y00120065D01*
X00038132Y00121668D01*
X00039735Y00123757D01*
X00040557Y00125741D01*
X00066800D01*
X00066800Y00125741D01*
X00067970Y00125974D01*
X00068963Y00126637D01*
X00070777Y00128452D01*
X00071823Y00128660D01*
X00072733Y00129267D01*
X00073183Y00129941D01*
X00075532D01*
X00076296Y00128796D01*
X00077537Y00127968D01*
X00079000Y00127677D01*
X00085000D01*
X00086463Y00127968D01*
X00087704Y00128796D01*
X00088532Y00130037D01*
X00088823Y00131500D01*
Y00135000D01*
X00088532Y00136463D01*
X00087704Y00137704D01*
X00086463Y00138532D01*
X00085000Y00138823D01*
X00079000D01*
X00077537Y00138532D01*
X00076296Y00137704D01*
X00075468Y00136463D01*
X00075387Y00136059D01*
X00073183D01*
X00072733Y00136733D01*
X00071823Y00137340D01*
X00070750Y00137554D01*
X00069250D01*
X00068177Y00137340D01*
X00067267Y00136733D01*
X00066660Y00135823D01*
X00066446Y00134750D01*
Y00132772D01*
X00065533Y00131859D01*
X00040557D01*
X00039735Y00133843D01*
X00038132Y00135932D01*
X00036043Y00137535D01*
X00033610Y00138543D01*
X00031000Y00138886D01*
D02*
G37*
G36*
X00172000Y00056824D02*
X00168500D01*
X00167037Y00056532D01*
X00165796Y00055704D01*
X00164968Y00054463D01*
X00164677Y00053000D01*
Y00047000D01*
X00164968Y00045537D01*
X00165796Y00044296D01*
X00167037Y00043468D01*
X00168500Y00043176D01*
X00172000D01*
X00173463Y00043468D01*
X00174704Y00044296D01*
X00175532Y00045537D01*
X00175613Y00045941D01*
X00180817D01*
X00181267Y00045267D01*
X00182177Y00044660D01*
X00183250Y00044446D01*
X00184750D01*
X00185823Y00044660D01*
X00186733Y00045267D01*
X00187183Y00045941D01*
X00213733D01*
X00223306Y00036368D01*
X00223264Y00036313D01*
X00222256Y00033881D01*
X00221913Y00031270D01*
X00222256Y00028660D01*
X00223264Y00026227D01*
X00224867Y00024138D01*
X00226956Y00022535D01*
X00229388Y00021527D01*
X00231999Y00021184D01*
X00234609Y00021527D01*
X00237042Y00022535D01*
X00239131Y00024138D01*
X00240734Y00026227D01*
X00241742Y00028660D01*
X00242085Y00031270D01*
X00241742Y00033881D01*
X00240734Y00036313D01*
X00239131Y00038402D01*
X00237042Y00040005D01*
X00234609Y00041013D01*
X00231999Y00041356D01*
X00229388Y00041013D01*
X00227921Y00040405D01*
X00217163Y00051163D01*
X00216171Y00051826D01*
X00215000Y00052059D01*
X00215000Y00052059D01*
X00187183D01*
X00186733Y00052733D01*
X00185823Y00053340D01*
X00184750Y00053554D01*
X00183250D01*
X00182177Y00053340D01*
X00181267Y00052733D01*
X00180817Y00052059D01*
X00175823D01*
Y00053000D01*
X00175532Y00054463D01*
X00174704Y00055704D01*
X00173463Y00056532D01*
X00172000Y00056824D01*
D02*
G37*
G36*
X00545750Y00046554D02*
X00544250D01*
X00543177Y00046340D01*
X00542267Y00045733D01*
X00541660Y00044823D01*
X00541446Y00043750D01*
Y00040250D01*
X00541660Y00039177D01*
X00541941Y00038756D01*
Y00036812D01*
X00540537Y00036532D01*
X00539296Y00035704D01*
X00538468Y00034463D01*
X00538176Y00033000D01*
Y00029500D01*
X00538468Y00028037D01*
X00539296Y00026796D01*
X00540537Y00025968D01*
X00542000Y00025677D01*
X00548000D01*
X00549463Y00025968D01*
X00550704Y00026796D01*
X00551532Y00028037D01*
X00551824Y00029500D01*
Y00033000D01*
X00551532Y00034463D01*
X00550704Y00035704D01*
X00549463Y00036532D01*
X00548765Y00036671D01*
X00548890Y00037941D01*
X00553733D01*
X00557211Y00034464D01*
X00556857Y00033610D01*
X00556514Y00031000D01*
X00556857Y00028389D01*
X00557865Y00025957D01*
X00559468Y00023868D01*
X00561557Y00022265D01*
X00563989Y00021257D01*
X00566600Y00020914D01*
X00569211Y00021257D01*
X00571643Y00022265D01*
X00573732Y00023868D01*
X00575335Y00025957D01*
X00576343Y00028389D01*
X00576686Y00031000D01*
X00576343Y00033610D01*
X00575335Y00036043D01*
X00573732Y00038132D01*
X00571643Y00039735D01*
X00569211Y00040743D01*
X00566600Y00041086D01*
X00563989Y00040743D01*
X00561557Y00039735D01*
X00561010Y00039316D01*
X00557163Y00043163D01*
X00556171Y00043826D01*
X00555000Y00044059D01*
X00555000Y00044059D01*
X00548493D01*
X00548340Y00044823D01*
X00547733Y00045733D01*
X00546823Y00046340D01*
X00545750Y00046554D01*
D02*
G37*
G36*
X00437750D02*
X00436250D01*
X00435177Y00046340D01*
X00434267Y00045733D01*
X00433660Y00044823D01*
X00433446Y00043750D01*
Y00040250D01*
X00433660Y00039177D01*
X00433747Y00039047D01*
X00433402Y00037705D01*
X00432537Y00037532D01*
X00431296Y00036704D01*
X00430468Y00035463D01*
X00430177Y00034000D01*
Y00030500D01*
X00430468Y00029037D01*
X00431296Y00027796D01*
X00432537Y00026968D01*
X00434000Y00026677D01*
X00440000D01*
X00441463Y00026968D01*
X00442704Y00027796D01*
X00443532Y00029037D01*
X00443823Y00030500D01*
Y00034000D01*
X00443532Y00035463D01*
X00442725Y00036671D01*
X00442763Y00036874D01*
X00443137Y00037941D01*
X00447333D01*
X00449679Y00035595D01*
X00448857Y00033610D01*
X00448514Y00031000D01*
X00448857Y00028389D01*
X00449865Y00025957D01*
X00451468Y00023868D01*
X00453557Y00022265D01*
X00455989Y00021257D01*
X00458600Y00020914D01*
X00461211Y00021257D01*
X00463643Y00022265D01*
X00465732Y00023868D01*
X00467335Y00025957D01*
X00468343Y00028389D01*
X00468686Y00031000D01*
X00468343Y00033610D01*
X00467335Y00036043D01*
X00465732Y00038132D01*
X00463643Y00039735D01*
X00461211Y00040743D01*
X00458600Y00041086D01*
X00455989Y00040743D01*
X00454005Y00039921D01*
X00450763Y00043163D01*
X00449771Y00043826D01*
X00448600Y00044059D01*
X00448600Y00044059D01*
X00440492D01*
X00440340Y00044823D01*
X00439733Y00045733D01*
X00438823Y00046340D01*
X00437750Y00046554D01*
D02*
G37*
G36*
X00337000Y00338059D02*
X00333000D01*
X00331829Y00337826D01*
X00330837Y00337163D01*
X00330174Y00336171D01*
X00329941Y00335000D01*
X00330174Y00333829D01*
X00330837Y00332837D01*
X00331829Y00332174D01*
X00333000Y00331941D01*
X00337000D01*
X00338171Y00332174D01*
X00339163Y00332837D01*
X00339826Y00333829D01*
X00340059Y00335000D01*
X00339826Y00336171D01*
X00339163Y00337163D01*
X00338171Y00337826D01*
X00337000Y00338059D01*
D02*
G37*
G36*
X00567800Y00301086D02*
X00565190Y00300743D01*
X00562757Y00299735D01*
X00560668Y00298132D01*
X00559065Y00296043D01*
X00558057Y00293610D01*
X00557714Y00291000D01*
X00558057Y00288389D01*
X00559065Y00285957D01*
X00560668Y00283868D01*
X00562757Y00282265D01*
X00562941Y00282189D01*
Y00270183D01*
X00562267Y00269733D01*
X00561660Y00268823D01*
X00561446Y00267750D01*
Y00266250D01*
X00561660Y00265177D01*
X00562267Y00264267D01*
X00563177Y00263660D01*
X00563191Y00263657D01*
Y00261563D01*
X00563037Y00261532D01*
X00561796Y00260704D01*
X00560968Y00259463D01*
X00560677Y00258000D01*
Y00252000D01*
X00560968Y00250537D01*
X00561796Y00249296D01*
X00563037Y00248468D01*
X00564500Y00248176D01*
X00568000D01*
X00569463Y00248468D01*
X00570704Y00249296D01*
X00571532Y00250537D01*
X00571823Y00252000D01*
Y00258000D01*
X00571532Y00259463D01*
X00570704Y00260704D01*
X00569463Y00261532D01*
X00569309Y00261563D01*
Y00263984D01*
X00569733Y00264267D01*
X00570340Y00265177D01*
X00570554Y00266250D01*
Y00267750D01*
X00570340Y00268823D01*
X00569733Y00269733D01*
X00569059Y00270183D01*
Y00281079D01*
X00570410Y00281257D01*
X00572843Y00282265D01*
X00574932Y00283868D01*
X00576535Y00285957D01*
X00577543Y00288389D01*
X00577886Y00291000D01*
X00577543Y00293610D01*
X00576535Y00296043D01*
X00574932Y00298132D01*
X00572843Y00299735D01*
X00570410Y00300743D01*
X00567800Y00301086D01*
D02*
G37*
%LPD*%
D12*
X00307000Y00050001D02*
Y00051000D01*
X00312192Y00055000D02*
X00317849D01*
X00309692Y00057500D02*
X00312192Y00055000D01*
X00304308Y00057500D02*
X00309692D01*
X00304307Y00057500D02*
X00304308Y00057500D01*
X00300499Y00057500D02*
X00304307D01*
X00307000Y00050001D02*
X00307999Y00051000D01*
X00317849Y00055000D02*
X00319849Y00053000D01*
X00436252Y00172748D02*
X00443747D01*
X00286979Y00082000D02*
X00298000D01*
Y00084000D01*
X00082000Y00120750D02*
X00083000Y00119750D01*
X00275979Y00071000D02*
X00286979Y00082000D01*
X00110808Y00071000D02*
X00275979D01*
X00539250Y00011250D02*
X00543000Y00015000D01*
X00435907Y00011250D02*
X00539250D01*
X00431657Y00007000D02*
X00435907Y00011250D01*
X00310949Y00075000D02*
X00310999Y00074949D01*
X00430000Y00011000D02*
X00435000Y00016000D01*
X00326197Y00011000D02*
X00430000D01*
X00321000Y00016197D02*
X00326197Y00011000D01*
X00324540Y00007000D02*
X00431657D01*
X00317000Y00014540D02*
X00324540Y00007000D01*
X00437200Y00041600D02*
X00438000Y00042000D01*
X00437000Y00041500D02*
X00437200Y00041600D01*
X00437000Y00041000D02*
Y00041500D01*
Y00033000D02*
Y00041000D01*
X00448600D01*
X00436000Y00032000D02*
X00437000Y00033000D01*
X00435000Y00016000D02*
X00436000D01*
X00108000Y00073808D02*
X00110808Y00071000D01*
X00108000Y00073808D02*
X00108000Y00073808D01*
X00091839Y00117000D02*
X00091919Y00116919D01*
X00092000Y00117000D02*
X00101000Y00108000D01*
X00101000D01*
Y00101000D02*
Y00108000D01*
X00108000Y00073808D02*
Y00094000D01*
X00101000Y00101000D02*
X00108000Y00094000D01*
X00083000Y00117000D02*
X00091839D01*
X00246000Y00352000D02*
Y00368250D01*
X00126000Y00147000D02*
X00143000D01*
X00155750Y00049000D02*
Y00050250D01*
X00146000Y00060000D02*
X00155750Y00050250D01*
X00117000Y00060000D02*
X00146000D01*
X00114000Y00057000D02*
X00117000Y00060000D01*
X00114000Y00078000D02*
X00115000D01*
X00114000Y00057000D02*
X00116000D01*
X00168750Y00049250D02*
X00170000D01*
Y00049000D02*
X00170000Y00049000D01*
X00184000D01*
X00215000D02*
X00232000Y00032000D01*
X00184000Y00049000D02*
X00215000D01*
X00112000Y00080000D02*
X00114000Y00078000D01*
X00300499Y00057500D02*
X00301000Y00056999D01*
X00300001Y00056000D02*
X00301000Y00056999D01*
X00319849Y00053000D02*
X00326000D01*
X00316192Y00051000D02*
X00321000Y00046192D01*
X00307999Y00051000D02*
X00316192D01*
X00321000Y00016197D02*
Y00046192D01*
X00314000Y00043999D02*
X00317000Y00040999D01*
X00314000Y00043999D02*
Y00044000D01*
X00300000Y00056000D02*
Y00057000D01*
Y00056000D02*
X00300001Y00056000D01*
X00306000Y00080050D02*
X00310999Y00075051D01*
X00306000Y00080050D02*
Y00084000D01*
X00310949Y00075000D02*
X00310999Y00075051D01*
X00312000Y00082000D02*
X00319000Y00075000D01*
X00310000Y00082000D02*
X00312000D01*
X00319000Y00074000D02*
Y00075000D01*
X00310000Y00074000D02*
X00310050D01*
X00310999Y00074949D01*
X00344000Y00027000D02*
X00348000Y00031000D01*
X00328000Y00027000D02*
X00344000D01*
X00545000Y00041000D02*
X00555000D01*
X00545000Y00032000D02*
Y00041000D01*
X00555000D02*
X00565000Y00031000D01*
X00566600D01*
X00317000Y00014540D02*
Y00040999D01*
X00448600Y00041000D02*
X00458600Y00031000D01*
X00328000Y00027000D02*
Y00036000D01*
X00310000Y00082000D02*
Y00084000D01*
X00348000Y00031000D02*
X00350000D01*
X00071000Y00133000D02*
X00082000D01*
X00066800Y00128800D02*
X00071000Y00133000D01*
X00031000Y00128800D02*
X00066800D01*
X00112000Y00136000D02*
X00122000Y00146000D01*
X00112000Y00080000D02*
Y00136000D01*
X00302000Y00377000D02*
X00363000D01*
X00469314Y00255000D02*
X00506000D01*
X00456564Y00267750D02*
X00469314Y00255000D01*
X00424093Y00267750D02*
X00456564D01*
X00525000Y00255000D02*
X00526000Y00254000D01*
X00425750Y00263750D02*
X00454907D01*
X00467657Y00251000D02*
X00500000D01*
X00454907Y00263750D02*
X00467657Y00251000D01*
X00466000Y00247000D02*
X00497000D01*
X00453250Y00259750D02*
X00466000Y00247000D01*
X00442500Y00259750D02*
X00453250D01*
X00312000Y00217000D02*
X00313000D01*
X00307000D02*
X00312000D01*
X00300000Y00210000D02*
X00307000Y00217000D01*
X00294500Y00210000D02*
X00300000D01*
X00291000Y00398000D02*
X00292000Y00397000D01*
X00291000Y00398000D02*
Y00398000D01*
X00290999Y00398001D02*
X00291000Y00398000D01*
X00355000Y00428000D02*
X00368500D01*
X00356000Y00383000D02*
Y00384500D01*
X00360000Y00341000D02*
Y00360000D01*
X00339000Y00427000D02*
X00340000Y00428000D01*
X00290999Y00398001D02*
Y00398001D01*
X00290250Y00398750D02*
X00290999Y00398001D01*
X00303657Y00381000D02*
X00331000D01*
X00292000Y00392657D02*
X00303657Y00381000D01*
X00292000Y00392657D02*
Y00397000D01*
X00289500Y00389500D02*
X00302000Y00377000D01*
X00280750Y00389500D02*
X00289500D01*
X00289192Y00384000D02*
X00320000Y00353192D01*
X00281250Y00384000D02*
X00289192D01*
X00391000Y00324000D02*
Y00350657D01*
X00381500Y00360157D02*
X00391000Y00350657D01*
X00381500Y00360157D02*
Y00368692D01*
X00297000Y00368000D02*
Y00370000D01*
X00387000Y00325929D02*
Y00349000D01*
X00377500Y00358500D02*
X00387000Y00349000D01*
X00377500Y00358500D02*
Y00366692D01*
X00364000Y00335000D02*
Y00342000D01*
X00367000Y00345000D02*
Y00360000D01*
X00364000Y00342000D02*
X00367000Y00345000D01*
Y00360000D02*
X00371000Y00364000D01*
X00320000Y00334343D02*
Y00353192D01*
Y00334343D02*
X00331343Y00323000D01*
X00670500Y00376169D02*
Y00487500D01*
X00661000Y00497000D02*
X00670500Y00487500D01*
X00665832Y00371500D02*
X00670500Y00376169D01*
X00611361Y00249361D02*
Y00343639D01*
X00605000Y00243000D02*
X00611361Y00249361D01*
X00514000Y00243000D02*
X00605000D01*
X00386000Y00224000D02*
X00425750Y00263750D01*
X00332849Y00224000D02*
X00386000D01*
X00330349Y00221500D02*
X00332849Y00224000D01*
X00321651Y00221500D02*
X00330349D01*
X00317651Y00225500D02*
X00321651Y00221500D01*
X00319308Y00229500D02*
X00323308Y00225500D01*
X00331192Y00228000D02*
X00384343D01*
X00328692Y00225500D02*
X00331192Y00228000D01*
X00323308Y00225500D02*
X00328692D01*
X00384343Y00228000D02*
X00424093Y00267750D01*
X00331000Y00381000D02*
X00352000D01*
X00331000D02*
Y00420000D01*
X00339000Y00428000D01*
X00372692Y00371500D02*
X00377500Y00366692D01*
X00360308Y00371500D02*
X00372692D01*
X00358808Y00373000D02*
X00360308Y00371500D01*
X00316000Y00373000D02*
X00358808D01*
X00313000Y00370000D02*
X00316000Y00373000D01*
X00365000Y00327000D02*
X00379000D01*
X00377000Y00318000D02*
X00378000Y00319000D01*
X00386000D01*
X00391000Y00324000D01*
X00356000Y00384500D02*
X00365692D01*
X00381500Y00368692D01*
X00363000Y00377000D02*
Y00378000D01*
X00352000Y00381000D02*
X00355000Y00384000D01*
X00359000Y00361000D02*
X00360000Y00360000D01*
X00384071Y00323000D02*
X00387000Y00325929D01*
X00381071Y00323000D02*
X00384071D01*
X00381071Y00323000D02*
X00381071Y00323000D01*
X00376657Y00323000D02*
X00381071D01*
X00376657Y00323000D02*
X00376657Y00323000D01*
X00365000Y00323000D02*
X00376657D01*
X00375000Y00319000D02*
X00375000Y00319000D01*
X00365000Y00319000D02*
X00375000D01*
X00331343Y00323000D02*
X00334000D01*
X00328030Y00315000D02*
X00334657D01*
X00306500Y00336530D02*
Y00343733D01*
X00329686Y00319000D02*
X00333000D01*
X00313000Y00335686D02*
Y00341000D01*
Y00335686D02*
X00329686Y00319000D01*
X00306500Y00336530D02*
X00328030Y00315000D01*
X00334657Y00315000D02*
X00335000D01*
X00334657Y00315000D02*
X00334657Y00315000D01*
X00335000D02*
X00335000Y00315000D01*
X00289000Y00361233D02*
X00306500Y00343733D01*
X00289000Y00361233D02*
Y00372343D01*
X00279929Y00340000D02*
X00292000D01*
X00292000Y00340000D01*
X00277000Y00342929D02*
X00279929Y00340000D01*
X00481457Y00343500D02*
X00491420D01*
X00503420Y00331500D01*
X00592500D01*
X00460000Y00364957D02*
X00481457Y00343500D01*
X00150000Y00110000D02*
X00155000Y00115000D01*
X00142000Y00110000D02*
X00150000D01*
X00135000Y00103000D02*
X00142000Y00110000D01*
X00113000Y00221171D02*
X00132171Y00202000D01*
X00113000Y00221171D02*
Y00228728D01*
X00132171Y00202000D02*
X00139500D01*
X00109000Y00219515D02*
X00134515Y00194000D01*
X00109000Y00219515D02*
Y00221272D01*
X00134515Y00194000D02*
X00139500D01*
X00107728Y00234000D02*
X00113000Y00228728D01*
X00162000Y00433000D02*
Y00434000D01*
X00208000Y00350808D02*
X00208500Y00351308D01*
X00208000Y00349000D02*
Y00350808D01*
X00206000Y00359192D02*
Y00380657D01*
Y00359192D02*
X00208500Y00356692D01*
Y00351308D02*
Y00356692D01*
X00166500Y00420157D02*
X00206000Y00380657D01*
X00639500Y00367500D02*
X00644339D01*
X00626000Y00354000D02*
X00639500Y00367500D01*
X00626000Y00347000D02*
Y00354000D01*
X00456250Y00402990D02*
X00460000Y00399240D01*
Y00364957D02*
Y00399240D01*
X00455500Y00406750D02*
X00456250Y00406000D01*
Y00402990D02*
Y00406000D01*
X00355000Y00384000D02*
X00356000Y00383000D01*
X00648339Y00371500D02*
X00665832D01*
X00644339Y00367500D02*
X00648339Y00371500D01*
X00499500Y00242308D02*
Y00244500D01*
X00497000Y00247000D02*
X00499500Y00244500D01*
Y00242308D02*
X00503808Y00238000D01*
X00509000D01*
X00514000Y00247000D02*
X00545000D01*
X00506000Y00255000D02*
X00514000Y00247000D01*
X00517000Y00255000D02*
X00525000D01*
X00500000Y00251000D02*
X00506000Y00245000D01*
X00509000Y00238000D02*
X00514000Y00243000D01*
X00608000Y00347000D02*
X00611361Y00343639D01*
X00592500Y00331500D02*
X00608000Y00347000D01*
X00505000Y00245000D02*
X00506000D01*
X00434750Y00252000D02*
X00442500Y00259750D01*
X00147000Y00264021D02*
Y00312000D01*
X00146500Y00263521D02*
X00147000Y00264021D01*
X00146500Y00263500D02*
Y00263521D01*
X00141000Y00258000D02*
X00146500Y00263500D01*
X00139500Y00258000D02*
X00141000D01*
X00157000Y00275500D02*
Y00279000D01*
X00151000Y00285000D02*
X00157000Y00279000D01*
X00151000Y00285000D02*
Y00313000D01*
X00152000Y00314000D01*
X00200000Y00309000D02*
X00216500Y00325500D01*
X00178929Y00309000D02*
X00200000D01*
X00168000Y00298071D02*
X00178929Y00309000D01*
X00298000Y00102000D02*
Y00114000D01*
X00292000Y00120000D02*
X00298000Y00114000D01*
X00277500Y00120000D02*
X00292000D01*
X00272250Y00398750D02*
X00290250D01*
X00272000Y00399000D02*
X00272250Y00398750D01*
X00288250Y00378750D02*
X00297000Y00370000D01*
X00281250Y00378750D02*
X00288250D01*
X00286593Y00374750D02*
X00289000Y00372343D01*
X00296000Y00368000D02*
X00297000D01*
X00284000Y00374750D02*
X00286593D01*
X00163000Y00331000D02*
X00164000Y00332000D01*
X00154402Y00352998D02*
X00157002D01*
X00164000Y00332000D02*
Y00346000D01*
X00157002Y00352998D02*
X00164000Y00346000D01*
X00236000Y00331000D02*
Y00336000D01*
X00248808Y00340000D02*
X00250000Y00341192D01*
X00240000Y00340000D02*
X00248808D01*
X00250000Y00341192D02*
Y00353071D01*
X00235000Y00330000D02*
Y00331000D01*
X00235999Y00331999D01*
X00236000Y00336000D02*
X00240000Y00340000D01*
X00257000Y00332000D02*
X00261000D01*
X00247000Y00332000D02*
X00258750Y00320250D01*
X00261000D01*
X00235999Y00331999D02*
X00236000D01*
X00228500Y00325500D02*
Y00361530D01*
X00224500Y00319500D02*
Y00363186D01*
X00220500Y00276000D02*
Y00364843D01*
X00216500Y00325500D02*
Y00366500D01*
X00228500Y00361530D02*
X00240970Y00374000D01*
X00224500Y00363186D02*
X00240314Y00379000D01*
X00220500Y00364843D02*
X00239657Y00384000D01*
X00216500Y00366500D02*
X00238750Y00388750D01*
X00271000Y00322000D02*
X00272750Y00320250D01*
X00261000Y00332000D02*
X00271000Y00322000D01*
X00246999Y00331999D02*
X00247000Y00332000D01*
X00246000Y00331999D02*
X00246999D01*
X00250000Y00353071D02*
X00252929Y00356000D01*
X00228500Y00325500D02*
X00234500Y00319500D01*
X00224500Y00319500D02*
X00228000Y00316000D01*
Y00306000D02*
Y00306808D01*
X00234500Y00313308D01*
X00245000Y00351000D02*
X00246000Y00352000D01*
X00234500Y00313308D02*
Y00319500D01*
X00213000Y00311000D02*
X00213000D01*
X00199000Y00297000D02*
X00213000Y00311000D01*
X00220500Y00276000D02*
X00221000Y00275500D01*
X00332000Y00165000D02*
X00336000Y00161000D01*
X00320485Y00165000D02*
X00332000D01*
X00299485Y00186000D02*
X00320485Y00165000D01*
X00335141Y00152141D02*
X00335283Y00152000D01*
X00326000Y00161000D02*
X00335000Y00152000D01*
X00318828Y00161000D02*
X00326000D01*
X00301828Y00178000D02*
X00318828Y00161000D01*
X00323000Y00239000D02*
X00351000D01*
X00319500Y00235500D02*
X00323000Y00239000D01*
X00312308Y00235500D02*
X00319500D01*
X00545000Y00247000D02*
X00551000Y00253000D01*
X00356000Y00238750D02*
X00356500Y00239250D01*
X00356000Y00233068D02*
Y00238750D01*
X00354932Y00232000D02*
X00356000Y00233068D01*
X00308500Y00239308D02*
X00312308Y00235500D01*
X00312500Y00229500D02*
X00319308D01*
X00308000Y00234000D02*
X00312500Y00229500D01*
X00294500Y00234000D02*
X00308000D01*
X00295000Y00225500D02*
X00317651D01*
X00294500Y00226000D02*
X00295000Y00225500D01*
X00315000Y00242000D02*
X00317000D01*
X00294500Y00249000D02*
X00342000D01*
X00308500Y00239308D02*
Y00239500D01*
X00306000Y00242000D02*
X00308500Y00239500D01*
X00335283Y00152000D02*
X00336283Y00151000D01*
X00338000D01*
X00294500Y00178000D02*
X00301828D01*
X00294500Y00186000D02*
X00299485D01*
X00088000Y00208000D02*
X00089000Y00207000D01*
X00101000Y00192000D02*
X00111982D01*
X00088000Y00205000D02*
X00101000Y00192000D01*
X00088000Y00205000D02*
Y00206000D01*
X00145000Y00314000D02*
X00147000Y00312000D01*
X00152000Y00316250D02*
X00153375Y00317625D01*
X00066000Y00230000D02*
X00106071D01*
X00048000Y00212000D02*
X00066000Y00230000D01*
X00139500Y00202000D02*
X00139500Y00202000D01*
X00109000Y00221272D02*
X00109000Y00221272D01*
X00447000Y00224750D02*
X00449250Y00227000D01*
X00447000Y00221071D02*
Y00224750D01*
X00447000Y00221071D02*
X00447000Y00221071D01*
X00449250Y00227000D02*
Y00254000D01*
X00447000Y00209000D02*
Y00220718D01*
X00281000Y00379000D02*
X00281250Y00378750D01*
X00208000Y00349000D02*
X00209000Y00348000D01*
X00199000Y00282485D02*
Y00297000D01*
X00205000Y00294000D02*
X00211999Y00300999D01*
X00213000D01*
X00465500Y00427250D02*
X00475750D01*
X00282000Y00363000D02*
Y00369000D01*
Y00351000D02*
Y00363000D01*
X00302000Y00084000D02*
X00302000Y00075000D01*
X00143250Y00317033D02*
Y00318000D01*
X00135000Y00258000D02*
X00136000Y00259000D01*
X00307000Y00276000D02*
X00318000Y00265000D01*
X00277500Y00276000D02*
X00307000D01*
X00277000Y00275500D02*
X00277500Y00276000D01*
X00628000Y00391000D02*
X00630000D01*
X00621000Y00398000D02*
X00628000Y00391000D01*
X00619000Y00398000D02*
X00621000D01*
X00576000Y00389000D02*
X00583000D01*
X00575250D02*
X00576000D01*
X00587364Y00376500D02*
X00611500D01*
X00576000Y00389000D02*
X00576500Y00388500D01*
Y00377000D02*
Y00388500D01*
X00616000Y00371000D02*
Y00372000D01*
X00613111Y00374889D02*
Y00374889D01*
X00611500Y00376500D02*
X00613111Y00374889D01*
Y00374889D02*
X00616000Y00372000D01*
X00579864Y00369000D02*
X00587364Y00376500D01*
X00573000Y00369000D02*
X00579864D01*
X00567000Y00375000D02*
X00573000Y00369000D01*
X00567000Y00375000D02*
Y00377000D01*
X00475750Y00427250D02*
X00479000Y00424000D01*
X00566000Y00267000D02*
Y00290000D01*
Y00267000D02*
X00566250Y00266750D01*
Y00255000D02*
Y00266750D01*
X00541000Y00267000D02*
Y00290000D01*
Y00267000D02*
X00541250Y00266750D01*
Y00255000D02*
Y00266750D01*
X00347000Y00265000D02*
X00351000Y00261000D01*
X00318000Y00265000D02*
X00347000D01*
X00357000Y00259250D02*
Y00272000D01*
X00271500Y00360500D02*
X00277000Y00355000D01*
X00271500Y00360500D02*
Y00362750D01*
X00277000Y00353071D02*
Y00355000D01*
X00277000Y00342929D02*
Y00353071D01*
X00277000Y00353071D01*
X00282000Y00351000D02*
X00282000Y00351000D01*
X00280750Y00384500D02*
X00281250Y00384000D01*
X00166500Y00420157D02*
Y00428500D01*
X00162000Y00433000D02*
X00166500Y00428500D01*
X00202000Y00354000D02*
Y00379000D01*
X00161000Y00420000D02*
X00202000Y00379000D01*
X00156500Y00420000D02*
X00161000D01*
X00155250Y00421250D02*
X00156500Y00420000D01*
X00199000Y00282485D02*
X00199000Y00282485D01*
X00205000Y00275500D02*
Y00294000D01*
X00205000Y00275500D02*
X00205000Y00275500D01*
X00199000Y00277500D02*
Y00282485D01*
X00197000Y00275500D02*
X00199000Y00277500D01*
X00252929Y00356000D02*
X00256500Y00359571D01*
X00252929Y00356000D02*
X00252929D01*
X00240970Y00374000D02*
X00246000D01*
X00213000Y00291000D02*
X00213000Y00291000D01*
X00213000Y00275500D02*
Y00291000D01*
X00173000Y00275500D02*
Y00282000D01*
X00168000Y00286000D02*
X00172000Y00282000D01*
X00238750Y00388750D02*
X00246000D01*
X00168000Y00286000D02*
Y00298071D01*
X00246000Y00388750D02*
Y00389000D01*
X00256500Y00359571D02*
Y00362750D01*
X00246000Y00368250D02*
X00247250Y00369500D01*
X00240314Y00379000D02*
X00246000D01*
X00239657Y00384000D02*
X00245000D01*
X00294500Y00242000D02*
X00306000D01*
X00335283Y00152000D02*
X00337000D01*
X00326000Y00232000D02*
X00354932D01*
X00310000Y00101000D02*
Y00143485D01*
X00306000Y00106314D02*
Y00139485D01*
X00306000Y00106314D02*
X00306000Y00106314D01*
X00306000Y00102000D02*
Y00106314D01*
X00302000Y00102000D02*
Y00135000D01*
X00300485Y00145000D02*
X00306000Y00139485D01*
X00299000Y00138000D02*
X00302000Y00135000D01*
X00319000Y00244000D02*
X00342000D01*
X00317000Y00242000D02*
X00319000Y00244000D01*
X00294500Y00258000D02*
X00306000D01*
X00294500Y00242000D02*
X00296500Y00240000D01*
X00294500Y00249000D02*
Y00250000D01*
X00357000Y00272000D02*
X00358000Y00273000D01*
X00356500Y00258750D02*
X00357000Y00259250D01*
X00363750Y00254000D02*
X00377000D01*
X00272750Y00320250D02*
X00274000D01*
X00336000Y00151000D02*
X00336000D01*
X00249000Y00285000D02*
Y00310874D01*
X00253000Y00275500D02*
Y00309217D01*
X00245000Y00281000D02*
X00249000Y00285000D01*
X00249000Y00311000D02*
X00257000Y00319000D01*
X00249000Y00311000D02*
X00249000D01*
X00257000Y00319000D02*
X00258000D01*
X00253000Y00309217D02*
X00256033Y00312250D01*
X00265250D02*
X00272000Y00319000D01*
X00256033Y00312250D02*
X00265250D01*
X00249000Y00311000D02*
X00249000Y00311000D01*
X00245000Y00275500D02*
Y00281000D01*
Y00275500D02*
X00245000Y00275500D01*
X00155000Y00115000D02*
Y00116000D01*
X00135000Y00103000D02*
Y00103000D01*
X00173000Y00115515D02*
Y00116000D01*
Y00115515D02*
X00178515Y00110000D01*
X00186000D01*
X00193750Y00102250D01*
X00195000D01*
X00165000D02*
Y00115000D01*
X00157000Y00120000D02*
Y00120500D01*
X00209000Y00100000D02*
Y00100000D01*
X00195000Y00086000D02*
X00209000Y00100000D01*
X00195000Y00085750D02*
Y00086000D01*
X00147000Y00099000D02*
Y00100000D01*
X00135000Y00087000D02*
X00147000Y00099000D01*
X00135000Y00086500D02*
Y00087000D01*
X00177000Y00098000D02*
Y00100000D01*
X00165000Y00086000D02*
X00177000Y00098000D01*
X00165000Y00085750D02*
Y00086000D01*
X00313000Y00090000D02*
X00322000D01*
X00312000D02*
X00313000D01*
X00424000Y00184000D02*
X00438000D01*
X00424000Y00183000D02*
Y00184000D01*
X00448402Y00202598D02*
Y00207598D01*
X00447000Y00209000D02*
X00448402Y00207598D01*
X00471998Y00191998D02*
X00474000Y00194000D01*
X00459497Y00191998D02*
X00471998D01*
X00471002Y00181998D02*
X00473000Y00180000D01*
X00459497Y00181998D02*
X00471002D01*
X00304000Y00090000D02*
X00308000Y00094000D01*
X00296000Y00090000D02*
X00304000D01*
X00350750Y00135750D02*
X00353000Y00138000D01*
X00339000Y00135750D02*
X00350750D01*
X00353000Y00140000D02*
X00361598Y00148598D01*
X00373998D01*
X00371400Y00146000D02*
X00373998Y00148598D01*
X00168000Y00321000D02*
Y00327000D01*
X00164000Y00331000D02*
X00168000Y00327000D01*
X00300485Y00153000D02*
X00310000Y00143485D01*
X00295500Y00153000D02*
X00300485D01*
X00294500Y00154000D02*
X00295500Y00153000D01*
X00294500Y00145000D02*
X00300485D01*
X00294500D02*
Y00146000D01*
Y00138000D02*
X00299000D01*
X00277000Y00120500D02*
X00277500Y00120000D01*
X00056448Y00234000D02*
X00107728D01*
X00048403Y00242045D02*
Y00303555D01*
Y00242045D02*
X00056448Y00234000D01*
X00050000Y00305152D02*
Y00332000D01*
X00048403Y00303555D02*
X00050000Y00305152D01*
X00106071Y00230000D02*
X00109000Y00227071D01*
Y00221272D02*
Y00227071D01*
X00102000Y00179000D02*
X00103000Y00180000D01*
X00102000Y00166000D02*
Y00179000D01*
X00088000Y00208000D02*
Y00222000D01*
X00165000Y00115000D02*
Y00120500D01*
X00034000Y00211000D02*
Y00224000D01*
Y00210000D02*
Y00211000D01*
Y00224000D02*
X00034003Y00224003D01*
Y00246602D01*
Y00297402D02*
Y00320000D01*
X00034000D02*
Y00330000D01*
X00308000Y00094000D02*
X00311000D01*
X00340000Y00428000D02*
X00353000D01*
X00295000Y00090000D02*
X00295000Y00090000D01*
X00283000Y00090000D02*
X00295000D01*
X00313000Y00090000D02*
X00313000Y00090000D01*
X00253000Y00275500D02*
X00253250Y00275750D01*
X00341000Y00174000D02*
X00353000D01*
X00353002Y00173998D01*
X00373998D01*
X00129000Y00318000D02*
Y00331000D01*
X00129002Y00331002D01*
Y00352998D01*
X00111982Y00192000D02*
X00117982Y00186000D01*
X00132000D01*
X00133000Y00187000D01*
X00130000Y00182000D02*
X00133000Y00179000D01*
X00106000Y00182000D02*
X00130000D01*
D15*
X00448402Y00202598D02*
X00449000Y00202000D01*
D16*
X00278000Y00040000D02*
D03*
Y00030000D02*
D03*
X00184000Y00049000D02*
D03*
Y00039000D02*
D03*
X00328000Y00017000D02*
D03*
Y00027000D02*
D03*
X00437000Y00052000D02*
D03*
Y00042000D02*
D03*
X00545000Y00052000D02*
D03*
Y00042000D02*
D03*
X00353000Y00164000D02*
D03*
Y00174000D02*
D03*
X00353000Y00149000D02*
D03*
Y00139000D02*
D03*
X00080000Y00287000D02*
D03*
Y00297000D02*
D03*
X00070000Y00093500D02*
D03*
Y00103500D02*
D03*
Y00123000D02*
D03*
Y00133000D02*
D03*
D17*
X00170250Y00050000D02*
D03*
X00155750D02*
D03*
X00434750Y00252000D02*
D03*
X00449250D02*
D03*
X00551750Y00255000D02*
D03*
X00566250D02*
D03*
X00526750D02*
D03*
X00541250D02*
D03*
X00153750Y00318000D02*
D03*
X00168250D02*
D03*
X00143250D02*
D03*
X00128750D02*
D03*
X00560750Y00389000D02*
D03*
X00575250D02*
D03*
X00048250Y00333000D02*
D03*
X00033750D02*
D03*
X00048500Y00211000D02*
D03*
X00034000D02*
D03*
D18*
X00438500Y00194500D02*
D03*
Y00189500D02*
D03*
Y00184500D02*
D03*
Y00179500D02*
D03*
D19*
X00443500Y00172250D02*
D03*
X00448500D02*
D03*
X00453500D02*
D03*
X00458500D02*
D03*
Y00201750D02*
D03*
X00453500D02*
D03*
X00448500D02*
D03*
X00443500D02*
D03*
D20*
X00459250Y00182000D02*
D03*
Y00192000D02*
D03*
D21*
X00457250Y00187000D02*
D03*
D22*
X00312000Y00202000D02*
D03*
Y00188000D02*
D03*
X00423000Y00181000D02*
D03*
Y00195000D02*
D03*
X00042000Y00441000D02*
D03*
Y00455000D02*
D03*
X00507000Y00409000D02*
D03*
Y00423000D02*
D03*
X00494000Y00409000D02*
D03*
Y00423000D02*
D03*
X00481000Y00409000D02*
D03*
Y00423000D02*
D03*
X00283000Y00090000D02*
D03*
Y00104000D02*
D03*
X00325000D02*
D03*
Y00090000D02*
D03*
X00378000Y00253000D02*
D03*
Y00239000D02*
D03*
X00122000Y00226000D02*
D03*
Y00240000D02*
D03*
X00122000Y00161000D02*
D03*
Y00175000D02*
D03*
X00403000Y00402000D02*
D03*
Y00416000D02*
D03*
X00418000Y00402000D02*
D03*
Y00416000D02*
D03*
X00353000Y00428000D02*
D03*
Y00414000D02*
D03*
X00339000Y00428000D02*
D03*
Y00414000D02*
D03*
X00376000Y00316000D02*
D03*
Y00302000D02*
D03*
X00379000Y00330000D02*
D03*
Y00344000D02*
D03*
X00122000Y00146000D02*
D03*
Y00132000D02*
D03*
D23*
X00361000Y00069000D02*
D03*
X00371000D02*
D03*
X00471000D02*
D03*
X00481000D02*
D03*
X00578000D02*
D03*
X00588000D02*
D03*
X00556000Y00267000D02*
D03*
X00566000D02*
D03*
X00531000D02*
D03*
X00541000D02*
D03*
X00154000Y00331000D02*
D03*
X00164000D02*
D03*
X00139000D02*
D03*
X00129000D02*
D03*
X00044000Y00320000D02*
D03*
X00034000D02*
D03*
X00044000Y00224000D02*
D03*
X00034000D02*
D03*
D24*
X00414000Y00075000D02*
D03*
X00386000D02*
D03*
X00525000D02*
D03*
X00497000D02*
D03*
X00630000D02*
D03*
X00602000D02*
D03*
X00433000Y00235000D02*
D03*
X00461000D02*
D03*
X00435000Y00461000D02*
D03*
X00463000D02*
D03*
X00438000Y00138000D02*
D03*
X00466000D02*
D03*
D25*
X00329000Y00053250D02*
D03*
Y00038750D02*
D03*
X00437000Y00017750D02*
D03*
Y00032250D02*
D03*
X00545000Y00016750D02*
D03*
Y00031250D02*
D03*
X00339000Y00159750D02*
D03*
Y00174250D02*
D03*
X00339000Y00150250D02*
D03*
Y00135750D02*
D03*
X00261000Y00305750D02*
D03*
Y00320250D02*
D03*
X00274000Y00305750D02*
D03*
Y00320250D02*
D03*
X00082000Y00118750D02*
D03*
Y00133250D02*
D03*
X00210000Y00099250D02*
D03*
Y00084750D02*
D03*
X00180000Y00099250D02*
D03*
Y00084750D02*
D03*
X00150000Y00099250D02*
D03*
Y00084750D02*
D03*
D26*
X00454000Y00216000D02*
D03*
X00440000D02*
D03*
X00563000Y00314000D02*
D03*
X00549000D02*
D03*
X00456000Y00441000D02*
D03*
X00442000D02*
D03*
X00360000Y00351000D02*
D03*
X00346000D02*
D03*
X00284000Y00348000D02*
D03*
X00270000D02*
D03*
X00243000D02*
D03*
X00257000D02*
D03*
X00269000Y00103000D02*
D03*
X00255000D02*
D03*
X00356000Y00273000D02*
D03*
X00342000D02*
D03*
X00261000Y00293000D02*
D03*
X00275000D02*
D03*
X00175000D02*
D03*
X00189000D02*
D03*
X00088000Y00222000D02*
D03*
X00102000D02*
D03*
X00102000Y00166000D02*
D03*
X00088000D02*
D03*
X00459000Y00158000D02*
D03*
X00445000D02*
D03*
D27*
X00483000Y00198300D02*
D03*
Y00175700D02*
D03*
D28*
X00605000Y00177000D02*
D03*
Y00205000D02*
D03*
X00636000Y00405000D02*
D03*
Y00377000D02*
D03*
X00539000Y00355000D02*
D03*
Y00383000D02*
D03*
X00089000Y00074000D02*
D03*
Y00102000D02*
D03*
X00297000Y00012000D02*
D03*
Y00040000D02*
D03*
D29*
X00264000Y00382000D02*
D03*
D30*
X00271500Y00362750D02*
D03*
X00256500D02*
D03*
Y00401250D02*
D03*
X00271500D02*
D03*
D31*
X00247250Y00369500D02*
D03*
Y00374500D02*
D03*
Y00379500D02*
D03*
Y00384500D02*
D03*
Y00389500D02*
D03*
Y00394500D02*
D03*
X00280750D02*
D03*
Y00389500D02*
D03*
Y00384500D02*
D03*
Y00379500D02*
D03*
Y00374500D02*
D03*
Y00369500D02*
D03*
D32*
X00060250Y00497450D02*
D03*
Y00484750D02*
D03*
Y00472050D02*
D03*
Y00459350D02*
D03*
Y00446650D02*
D03*
Y00433950D02*
D03*
Y00421250D02*
D03*
Y00408550D02*
D03*
X00155250Y00497450D02*
D03*
Y00484750D02*
D03*
Y00472050D02*
D03*
Y00459350D02*
D03*
Y00446650D02*
D03*
Y00433950D02*
D03*
Y00421250D02*
D03*
Y00408550D02*
D03*
D33*
X00606500Y00371500D02*
D03*
Y00398500D02*
D03*
D34*
X00596250Y00358500D02*
D03*
Y00365000D02*
D03*
Y00371500D02*
D03*
X00617750D02*
D03*
Y00365000D02*
D03*
Y00358500D02*
D03*
X00596250Y00385500D02*
D03*
Y00392000D02*
D03*
Y00398500D02*
D03*
X00617750D02*
D03*
Y00392000D02*
D03*
Y00385500D02*
D03*
D35*
X00557500Y00377000D02*
D03*
X00567000D02*
D03*
X00576500D02*
D03*
Y00353000D02*
D03*
X00567000D02*
D03*
X00557500D02*
D03*
X00368500Y00427000D02*
D03*
X00387500D02*
D03*
Y00403000D02*
D03*
X00378000D02*
D03*
X00368500D02*
D03*
D36*
X00446900Y00381000D02*
D03*
X00469100D02*
D03*
D37*
X00458000Y00417000D02*
D03*
D38*
X00450500Y00427250D02*
D03*
X00455500D02*
D03*
X00460500D02*
D03*
X00465500D02*
D03*
Y00406750D02*
D03*
X00460500D02*
D03*
X00455500D02*
D03*
X00450500D02*
D03*
D39*
X00310000Y00084000D02*
D03*
X00306000D02*
D03*
X00302000D02*
D03*
X00298000D02*
D03*
Y00100000D02*
D03*
X00302000D02*
D03*
X00306000D02*
D03*
X00310000D02*
D03*
D40*
X00296000Y00090000D02*
D03*
Y00094000D02*
D03*
X00312000D02*
D03*
Y00090000D02*
D03*
D41*
X00340000Y00310000D02*
D03*
X00344000D02*
D03*
X00348000D02*
D03*
X00352000D02*
D03*
X00356000D02*
D03*
X00360000D02*
D03*
Y00340000D02*
D03*
X00356000D02*
D03*
X00352000D02*
D03*
X00348000D02*
D03*
X00344000D02*
D03*
X00340000D02*
D03*
D42*
X00365000Y00315000D02*
D03*
Y00319000D02*
D03*
Y00323000D02*
D03*
Y00327000D02*
D03*
Y00331000D02*
D03*
Y00335000D02*
D03*
X00335000D02*
D03*
Y00331000D02*
D03*
Y00327000D02*
D03*
Y00323000D02*
D03*
Y00319000D02*
D03*
Y00315000D02*
D03*
D43*
X00350000Y00325000D02*
D03*
D44*
X00363750Y00254000D02*
D03*
Y00249000D02*
D03*
Y00244000D02*
D03*
X00344250D02*
D03*
Y00249000D02*
D03*
Y00254000D02*
D03*
D45*
X00356500Y00239250D02*
D03*
X00351500D02*
D03*
Y00258750D02*
D03*
X00356500D02*
D03*
D46*
X00139500Y00138000D02*
D03*
Y00146000D02*
D03*
Y00154000D02*
D03*
Y00162000D02*
D03*
Y00170000D02*
D03*
Y00178000D02*
D03*
Y00186000D02*
D03*
Y00194000D02*
D03*
Y00202000D02*
D03*
Y00210000D02*
D03*
Y00218000D02*
D03*
Y00226000D02*
D03*
Y00234000D02*
D03*
Y00242000D02*
D03*
Y00250000D02*
D03*
Y00258000D02*
D03*
X00294500D02*
D03*
Y00250000D02*
D03*
Y00242000D02*
D03*
Y00234000D02*
D03*
Y00226000D02*
D03*
Y00218000D02*
D03*
Y00210000D02*
D03*
Y00202000D02*
D03*
Y00194000D02*
D03*
Y00186000D02*
D03*
Y00178000D02*
D03*
Y00170000D02*
D03*
Y00162000D02*
D03*
Y00154000D02*
D03*
Y00146000D02*
D03*
Y00138000D02*
D03*
D47*
X00157000Y00275500D02*
D03*
X00165000D02*
D03*
X00173000D02*
D03*
X00181000D02*
D03*
X00189000D02*
D03*
X00197000D02*
D03*
X00205000D02*
D03*
X00213000D02*
D03*
X00221000D02*
D03*
X00229000D02*
D03*
X00237000D02*
D03*
X00245000D02*
D03*
X00253000D02*
D03*
X00261000D02*
D03*
X00269000D02*
D03*
X00277000D02*
D03*
Y00120500D02*
D03*
X00269000D02*
D03*
X00261000D02*
D03*
X00253000D02*
D03*
X00245000D02*
D03*
X00237000D02*
D03*
X00229000D02*
D03*
X00221000D02*
D03*
X00213000D02*
D03*
X00205000D02*
D03*
X00197000D02*
D03*
X00189000D02*
D03*
X00181000D02*
D03*
X00173000D02*
D03*
X00165000D02*
D03*
X00157000D02*
D03*
D48*
X00106000Y00206000D02*
D03*
Y00182000D02*
D03*
X00088000D02*
D03*
Y00206000D02*
D03*
D49*
X00195000Y00085750D02*
D03*
Y00102250D02*
D03*
X00165000Y00085750D02*
D03*
Y00102250D02*
D03*
X00135000Y00086500D02*
D03*
Y00103000D02*
D03*
D50*
X00650000Y00526000D02*
D03*
Y00501000D02*
D03*
Y00476000D02*
D03*
D51*
X00686496Y00425998D02*
D03*
Y00355998D02*
D03*
D52*
X00658996Y00403998D02*
D03*
Y00397498D02*
D03*
Y00390998D02*
D03*
Y00384498D02*
D03*
Y00377998D02*
D03*
D90*
X00656000Y00175000D02*
D03*
D92*
Y00205000D02*
D03*
D94*
X00031000Y00128800D02*
D03*
Y00103400D02*
D03*
X00566600Y00031000D02*
D03*
X00592000D02*
D03*
X00458600D02*
D03*
X00484000D02*
D03*
X00350000D02*
D03*
X00375400D02*
D03*
X00567800Y00291000D02*
D03*
X00542400D02*
D03*
X00517000D02*
D03*
X00231999Y00031270D02*
D03*
X00206599D02*
D03*
X00059403Y00297402D02*
D03*
Y00272001D02*
D03*
Y00246602D02*
D03*
X00034003D02*
D03*
Y00272001D02*
D03*
X00105200Y00354000D02*
D03*
X00130600D02*
D03*
X00373998Y00199398D02*
D03*
Y00173998D02*
D03*
D100*
X00108530Y00065500D02*
X00337500D01*
X00102500Y00071529D02*
X00108530Y00065500D01*
X00337500D02*
X00353000Y00081000D01*
X00031000Y00102000D02*
X00032400Y00103400D01*
X00088600D01*
X00353000Y00081000D02*
X00384000D01*
X00351000D02*
X00353000D01*
X00342000Y00090000D02*
X00351000Y00081000D01*
X00294000Y00040000D02*
Y00051000D01*
X00553000Y00326000D02*
X00568000Y00311000D01*
X00387000Y00402000D02*
X00403000D01*
X00261000Y00306000D02*
X00284000D01*
X00261000Y00292000D02*
Y00305750D01*
X00257000Y00031000D02*
X00266000Y00040000D01*
X00290000Y00055000D02*
X00294000Y00051000D01*
X00289000Y00055000D02*
X00290000D01*
X00278000Y00040000D02*
X00294000D01*
X00266000D02*
X00278000D01*
X00102500Y00071529D02*
Y00091500D01*
X00273000Y00080000D02*
X00283000Y00090000D01*
X00272000Y00080000D02*
X00273000D01*
X00588000Y00032000D02*
Y00069000D01*
X00596000D01*
X00602000Y00075000D01*
X00371000Y00036000D02*
X00372000Y00035000D01*
X00371000Y00036000D02*
Y00069000D01*
X00384000D02*
X00386000Y00071000D01*
X00384000Y00069000D02*
X00385000Y00070000D01*
X00371000Y00069000D02*
X00384000D01*
X00386000Y00071000D02*
Y00075000D01*
X00481000Y00034000D02*
X00484000Y00031000D01*
X00481000Y00034000D02*
Y00069000D01*
X00481000D02*
X00491000D01*
X00497000Y00075000D01*
X00325000Y00090000D02*
X00342000D01*
X00092000Y00102000D02*
X00102500Y00091500D01*
X00092000Y00102000D02*
Y00105000D01*
X00031000Y00103400D02*
X00032400D01*
X00088600D02*
X00089000Y00103000D01*
X00283000Y00090000D02*
Y00090000D01*
X00607000Y00205000D02*
X00656000D01*
X00605000Y00204000D02*
X00605500Y00204500D01*
X00607000Y00205000D02*
X00617000Y00215000D01*
X00606000Y00204000D02*
X00607000Y00205000D01*
X00356000Y00288000D02*
X00382000D01*
X00314000D02*
X00356000D01*
Y00273000D02*
Y00288000D01*
X00356000Y00273000D02*
X00356000Y00273000D01*
X00380000Y00255000D02*
Y00287000D01*
X00378000Y00253000D02*
X00380000Y00255000D01*
X00432000Y00338000D02*
Y00396000D01*
X00418000Y00402000D02*
X00424000Y00396000D01*
X00432000D01*
X00382000Y00288000D02*
X00432000Y00338000D01*
X00296000Y00306000D02*
X00314000Y00288000D01*
X00432000Y00338000D02*
X00489142D01*
X00501142Y00326000D01*
X00553000D01*
X00284000Y00306000D02*
Y00325000D01*
X00273000Y00336000D02*
X00284000Y00325000D01*
X00272000Y00336000D02*
X00273000D01*
X00284000Y00306000D02*
X00296000D01*
X00073000Y00329000D02*
Y00439000D01*
X00070950Y00433950D02*
X00071000Y00434000D01*
X00060250Y00433950D02*
X00070950D01*
X00502000Y00345000D02*
X00504000D01*
X00574000Y00311000D02*
X00593000Y00292000D01*
X00463000Y00236000D02*
X00473000D01*
X00593000Y00475000D02*
X00651000D01*
X00568000Y00311000D02*
X00574000D01*
X00567000D02*
X00568000D01*
X00570750Y00399000D02*
X00609000D01*
X00592015Y00371000D02*
X00609000D01*
X00555000Y00375515D02*
X00567015Y00363500D01*
X00119000Y00270000D02*
X00137000D01*
X00092000Y00297000D02*
X00119000Y00270000D01*
X00061000Y00297000D02*
X00080000D01*
X00092000D02*
Y00310000D01*
X00080000Y00297000D02*
X00092000D01*
X00501000Y00461000D02*
X00540000Y00422000D01*
X00464000Y00461000D02*
X00501000D01*
X00540000Y00422000D02*
X00593000Y00475000D01*
X00282000Y00090000D02*
X00283000D01*
X00269000Y00103000D02*
X00282000Y00090000D01*
X00261000Y00278500D02*
Y00293000D01*
X00044000Y00442000D02*
X00048650Y00446650D01*
X00060250D01*
X00043000Y00440000D02*
X00049050Y00433950D01*
X00060250D01*
X00065000Y00447000D02*
X00073000Y00439000D01*
Y00329000D02*
X00092000Y00310000D01*
X00540000Y00383000D02*
Y00422000D01*
X00557000Y00349515D02*
Y00353000D01*
X00580000Y00343000D02*
X00595500Y00358500D01*
X00563515Y00343000D02*
X00580000D01*
X00557000Y00349515D02*
X00563515Y00343000D01*
X00595500Y00358500D02*
X00596250D01*
X00617000Y00215000D02*
Y00358000D01*
Y00388000D02*
X00624000Y00381000D01*
X00636000Y00377000D02*
X00663252D01*
X00624000Y00381000D02*
X00634000D01*
X00560750Y00389000D02*
X00570750Y00399000D01*
X00555000Y00375515D02*
Y00376000D01*
X00631000Y00377000D02*
X00636000D01*
X00584515Y00363500D02*
X00592015Y00371000D01*
X00567015Y00363500D02*
X00584515D01*
X00383500Y00393500D02*
X00388000Y00398000D01*
Y00401000D01*
X00387000Y00402000D02*
X00388000Y00401000D01*
X00368000Y00398000D02*
Y00400000D01*
Y00398000D02*
X00372500Y00393500D01*
X00383500D01*
X00387000Y00402000D02*
Y00402500D01*
X00387500Y00403000D01*
X00403000Y00402000D02*
X00403000Y00402000D01*
X00418000D01*
X00122000Y00226000D02*
X00138000D01*
X00123000Y00162000D02*
X00138000D01*
X00122000Y00161000D02*
X00123000Y00162000D01*
X00269000Y00103000D02*
X00269000Y00103000D01*
X00269000Y00103000D02*
Y00120500D01*
X00310000Y00202000D02*
X00310000Y00202000D01*
X00294500Y00202000D02*
X00310000D01*
X00261000Y00278500D02*
X00261500Y00278000D01*
X00181000D02*
Y00286000D01*
X00175000Y00292000D02*
X00181000Y00286000D01*
X00175000Y00292000D02*
Y00293000D01*
D101*
X00497000Y00089500D02*
X00590500D01*
X00497000Y00077000D02*
Y00089500D01*
X00590500D02*
X00599000Y00081000D01*
X00396500Y00089500D02*
X00497000D01*
X00385000Y00078000D02*
X00396500Y00089500D01*
X00383000Y00078000D02*
X00385000D01*
X00488000Y00264000D02*
X00495000Y00271000D01*
X00487000Y00263000D02*
X00488000Y00264000D01*
X00495000Y00271000D02*
Y00318000D01*
X00502000Y00345000D02*
X00540000Y00383000D01*
D102*
X00453750Y00174750D02*
X00458250D01*
X00453750Y00199250D02*
X00458250D01*
D103*
X00448000Y00388000D02*
X00450500Y00390500D01*
Y00406750D01*
D104*
X00607002Y00361749D02*
D03*
X00607001Y00388749D02*
D03*
D105*
X00031000Y00078000D02*
D03*
X00034003Y00297402D02*
D03*
X00373998Y00148598D02*
D03*
D106*
X00617400Y00031000D02*
D03*
X00509400D02*
D03*
X00400800D02*
D03*
X00593200Y00291000D02*
D03*
X00257399Y00031270D02*
D03*
X00156000Y00354000D02*
D03*
D107*
X00451600Y00611000D02*
D03*
X00658600D02*
D03*
X00657600Y00301000D02*
D03*
X00451600D02*
D03*
X00035232Y00611000D02*
D03*
X00665000Y00035000D02*
D03*
X00035000D02*
D03*
D108*
X00521000Y00163000D02*
D03*
X00556000D02*
D03*
D109*
X00307000Y00051000D02*
D03*
X00333000Y00078000D02*
D03*
X00630000Y00090000D02*
D03*
X00642000Y00075000D02*
D03*
X00631000Y00061000D02*
D03*
X00618000Y00075000D02*
D03*
X00578000Y00062000D02*
D03*
X00570000Y00069000D02*
D03*
X00545000Y00060000D02*
D03*
X00552000Y00052000D02*
D03*
X00537000Y00074000D02*
D03*
X00525000Y00060000D02*
D03*
X00513000Y00074000D02*
D03*
X00463000Y00069000D02*
D03*
X00471000Y00062000D02*
D03*
X00438000Y00060000D02*
D03*
X00445000Y00051000D02*
D03*
X00427000Y00075000D02*
D03*
X00414000Y00060000D02*
D03*
X00402000Y00075000D02*
D03*
X00353000Y00067000D02*
D03*
X00361000Y00062000D02*
D03*
X00335000Y00019000D02*
D03*
X00089000Y00062000D02*
D03*
X00074000Y00074000D02*
D03*
X00088000Y00085000D02*
D03*
X00070000D02*
D03*
X00064000Y00093000D02*
D03*
X00071000Y00116000D02*
D03*
X00064000Y00121000D02*
D03*
X00273000Y00024000D02*
D03*
X00184000Y00031000D02*
D03*
X00177000Y00038000D02*
D03*
X00282000Y00012000D02*
D03*
X00285000Y00024000D02*
D03*
X00305000Y00023000D02*
D03*
X00115000Y00078000D02*
D03*
X00114000Y00057000D02*
D03*
X00314000Y00044000D02*
D03*
X00300000Y00057000D02*
D03*
X00300999Y00074000D02*
D03*
X00319000Y00074000D02*
D03*
X00310000D02*
D03*
X00291000Y00398000D02*
D03*
X00656000Y00526000D02*
D03*
X00643000D02*
D03*
X00317000Y00109000D02*
D03*
X00371000Y00364000D02*
D03*
X00363000Y00378000D02*
D03*
X00367000Y00297000D02*
D03*
X00359000Y00361000D02*
D03*
X00350000Y00321000D02*
D03*
X00313000Y00341000D02*
D03*
X00295000Y00340000D02*
D03*
X00350000Y00329000D02*
D03*
X00474000Y00264000D02*
D03*
X00237000Y00360000D02*
D03*
X00367000Y00263000D02*
D03*
X00627000Y00365000D02*
D03*
X00452000Y00350000D02*
D03*
X00306000Y00355000D02*
D03*
X00235000Y00295000D02*
D03*
X00686000Y00351000D02*
D03*
Y00361000D02*
D03*
Y00421000D02*
D03*
Y00431000D02*
D03*
X00517000Y00255000D02*
D03*
X00506000Y00245000D02*
D03*
X00608000Y00347000D02*
D03*
X00626000D02*
D03*
X00650000Y00412000D02*
D03*
X00636000Y00417000D02*
D03*
X00622000Y00406000D02*
D03*
X00541000Y00343000D02*
D03*
X00549000Y00367000D02*
D03*
X00538000D02*
D03*
X00549000Y00304000D02*
D03*
X00539000Y00308000D02*
D03*
Y00317000D02*
D03*
X00423000Y00461000D02*
D03*
X00510000Y00433000D02*
D03*
X00500000D02*
D03*
X00490000D02*
D03*
X00445000Y00417000D02*
D03*
X00433000Y00441000D02*
D03*
X00448000Y00457000D02*
D03*
Y00467000D02*
D03*
X00420000Y00425000D02*
D03*
X00410000D02*
D03*
X00400000D02*
D03*
X00382000Y00415000D02*
D03*
X00373000D02*
D03*
X00357000Y00404000D02*
D03*
X00348000D02*
D03*
X00339000D02*
D03*
X00374000Y00352000D02*
D03*
X00337000Y00351000D02*
D03*
X00345000Y00361000D02*
D03*
X00385000Y00309000D02*
D03*
X00367000Y00308000D02*
D03*
X00424000Y00171000D02*
D03*
X00500000Y00187000D02*
D03*
X00422000Y00239000D02*
D03*
Y00228000D02*
D03*
X00430000Y00217000D02*
D03*
X00438000Y00201000D02*
D03*
X00423000Y00203000D02*
D03*
X00436000Y00158000D02*
D03*
X00438000Y00123000D02*
D03*
X00425000Y00141000D02*
D03*
Y00129000D02*
D03*
X00353000Y00156000D02*
D03*
X00319000Y00180000D02*
D03*
X00322000Y00192000D02*
D03*
X00389000Y00245000D02*
D03*
X00367000Y00237000D02*
D03*
X00336000Y00257000D02*
D03*
X00335000Y00280000D02*
D03*
X00333000Y00272000D02*
D03*
X00285000Y00288000D02*
D03*
Y00297000D02*
D03*
X00189000Y00302000D02*
D03*
X00264000Y00357000D02*
D03*
X00257000Y00412000D02*
D03*
X00141000Y00459000D02*
D03*
X00170000D02*
D03*
X00032000Y00455000D02*
D03*
X00041000Y00464000D02*
D03*
X00042000Y00313000D02*
D03*
X00080000Y00279000D02*
D03*
X00072000Y00286000D02*
D03*
X00112000Y00242000D02*
D03*
X00122000Y00249000D02*
D03*
X00043000Y00231000D02*
D03*
X00051000Y00226000D02*
D03*
X00117000Y00199000D02*
D03*
X00077000Y00187000D02*
D03*
Y00175000D02*
D03*
Y00165000D02*
D03*
X00112000Y00169000D02*
D03*
X00596000Y00166000D02*
D03*
X00613000D02*
D03*
X00596000Y00188000D02*
D03*
X00613000D02*
D03*
X00325000Y00112000D02*
D03*
X00123000Y00123000D02*
D03*
X00132000Y00129000D02*
D03*
X00156000Y00078000D02*
D03*
X00186000D02*
D03*
X00217000Y00079000D02*
D03*
X00246000Y00101000D02*
D03*
X00254000Y00093000D02*
D03*
X00290000Y00112000D02*
D03*
X00296000Y00368000D02*
D03*
X00257000Y00332000D02*
D03*
X00236000Y00331999D02*
D03*
X00246000D02*
D03*
X00228000Y00316000D02*
D03*
Y00306000D02*
D03*
X00246000Y00362000D02*
D03*
X00213000Y00311000D02*
D03*
X00315000Y00242000D02*
D03*
X00355000Y00384000D02*
D03*
X00213000Y00300999D02*
D03*
X00443000Y00429000D02*
D03*
X00470000Y00419000D02*
D03*
X00313000Y00370000D02*
D03*
X00282000Y00363000D02*
D03*
X00273000Y00336000D02*
D03*
X00630000Y00391000D02*
D03*
X00585000Y00389000D02*
D03*
X00202000Y00354000D02*
D03*
X00209000Y00348000D02*
D03*
X00213000Y00291000D02*
D03*
X00312000Y00217000D02*
D03*
X00326000Y00232000D02*
D03*
X00307000Y00258000D02*
D03*
X00465000Y00168000D02*
D03*
X00436000Y00172000D02*
D03*
D110*
X00289000Y00055000D02*
D03*
X00272000Y00080000D02*
D03*
X00495000Y00318000D02*
D03*
X00472000Y00402000D02*
D03*
X00488000Y00264000D02*
D03*
X00504000Y00345000D02*
D03*
X00473000Y00236000D02*
D03*
X00137000Y00270000D02*
D03*
X00432000Y00396000D02*
D03*
X00155000Y00260000D02*
D03*
D111*
X00258500Y00387500D02*
D03*
Y00376500D02*
D03*
X00269500D02*
D03*
Y00387500D02*
D03*
M02*
