G04*
G04 #@! TF.GenerationSoftware,Altium Limited,Altium Designer,18.1.7 (191)*
G04*
G04 Layer_Color=65535*
%FSAX44Y44*%
%MOMM*%
G71*
G01*
G75*
%ADD10C,0.1000*%
%ADD11C,0.2500*%
%ADD12C,0.2000*%
%ADD13C,0.6000*%
%ADD14C,0.2540*%
%ADD15C,0.1500*%
D10*
X00283000Y00041500D02*
G03*
X00283000Y00041500I-00000500J00000000D01*
G01*
X00189000Y00050500D02*
G03*
X00189000Y00050500I-00000500J00000000D01*
G01*
X00373000Y00064500D02*
G03*
X00373000Y00064500I-00000500J00000000D01*
G01*
X00333000Y00028500D02*
G03*
X00333000Y00028500I-00000500J00000000D01*
G01*
X00483000Y00064500D02*
G03*
X00483000Y00064500I-00000500J00000000D01*
G01*
X00433000Y00040500D02*
G03*
X00433000Y00040500I-00000500J00000000D01*
G01*
X00541000D02*
G03*
X00541000Y00040500I-00000500J00000000D01*
G01*
X00590000Y00064500D02*
G03*
X00590000Y00064500I-00000500J00000000D01*
G01*
X00496321Y00205921D02*
G03*
X00496321Y00205921I-00000500J00000000D01*
G01*
X00568000Y00262500D02*
G03*
X00568000Y00262500I-00000500J00000000D01*
G01*
X00543000D02*
G03*
X00543000Y00262500I-00000500J00000000D01*
G01*
X00166000Y00326500D02*
G03*
X00166000Y00326500I-00000500J00000000D01*
G01*
X00128000Y00335500D02*
G03*
X00128000Y00335500I-00000500J00000000D01*
G01*
X00439329Y00398071D02*
G03*
X00439329Y00398071I-00000500J00000000D01*
G01*
X00445500Y00404000D02*
G03*
X00445500Y00404000I-00000500J00000000D01*
G01*
X00316500Y00080000D02*
G03*
X00316500Y00080000I-00000500J00000000D01*
G01*
X00358000Y00175500D02*
G03*
X00358000Y00175500I-00000500J00000000D01*
G01*
X00349000Y00137500D02*
G03*
X00349000Y00137500I-00000500J00000000D01*
G01*
X00085000Y00298500D02*
G03*
X00085000Y00298500I-00000500J00000000D01*
G01*
X00033000Y00324500D02*
G03*
X00033000Y00324500I-00000500J00000000D01*
G01*
Y00228500D02*
G03*
X00033000Y00228500I-00000500J00000000D01*
G01*
X00075000Y00105000D02*
G03*
X00075000Y00105000I-00000500J00000000D01*
G01*
Y00134500D02*
G03*
X00075000Y00134500I-00000500J00000000D01*
G01*
X00188629Y00079629D02*
G03*
X00188629Y00079629I-00000500J00000000D01*
G01*
X00158629D02*
G03*
X00158629Y00079629I-00000500J00000000D01*
G01*
X00128629Y00080379D02*
G03*
X00128629Y00080379I-00000500J00000000D01*
G01*
X00691750Y00156000D02*
Y00229700D01*
X00620250D02*
X00691750D01*
X00620250Y00156000D02*
Y00229700D01*
X00620250Y00156001D02*
X00691750Y00155992D01*
X00662750Y00141985D02*
Y00155985D01*
X00648750Y00141985D02*
X00662750D01*
X00648750D02*
Y00155985D01*
D11*
X00431500Y00202000D02*
G03*
X00431500Y00202000I-00001250J00000000D01*
G01*
X00291500Y00361250D02*
G03*
X00291500Y00361250I-00001250J00000000D01*
G01*
X00061500Y00505950D02*
G03*
X00061500Y00505950I-00001250J00000000D01*
G01*
X00623500Y00350250D02*
G03*
X00623500Y00350250I-00001250J00000000D01*
G01*
Y00377250D02*
G03*
X00623500Y00377250I-00001250J00000000D01*
G01*
X00550250Y00353000D02*
G03*
X00550250Y00353000I-00001250J00000000D01*
G01*
X00335750Y00301500D02*
G03*
X00335750Y00301500I-00001250J00000000D01*
G01*
X00365750Y00267500D02*
G03*
X00365750Y00267500I-00001250J00000000D01*
G01*
X00149500Y00120500D02*
G03*
X00149500Y00120500I-00001250J00000000D01*
G01*
X00361250Y00403000D02*
G03*
X00361250Y00403000I-00001250J00000000D01*
G01*
D12*
X00579500Y00163000D02*
G03*
X00579500Y00163000I-00041000J00000000D01*
G01*
X00081414Y00215000D02*
G03*
X00081414Y00215000I-00001414J00000000D01*
G01*
X00019239Y00316001D02*
G03*
X00019239Y00316001I-00002236J00000000D01*
G01*
X00436750Y00199750D02*
Y00203500D01*
X00438000D01*
X00463500D02*
X00464750D01*
Y00199750D02*
Y00203500D01*
Y00170500D02*
Y00174250D01*
X00463500Y00170500D02*
X00464750D01*
X00436750D02*
Y00174250D01*
Y00170500D02*
X00438000D01*
X00607198Y00278300D02*
Y00303700D01*
X00502999Y00278300D02*
Y00303700D01*
X00580500Y00278300D02*
Y00303700D01*
X00502999D02*
X00607198D01*
X00502999Y00278300D02*
X00607198D01*
X00396500Y00067000D02*
X00403500D01*
X00396500Y00083000D02*
X00403500D01*
X00507500Y00067000D02*
X00514500D01*
X00507500Y00083000D02*
X00514500D01*
X00612500Y00067000D02*
X00619500D01*
X00612500Y00083000D02*
X00619500D01*
X00443500Y00243000D02*
X00450500D01*
X00443500Y00227000D02*
X00450500D01*
X00492700Y00185000D02*
Y00189000D01*
X00473300Y00185000D02*
Y00189000D01*
X00521000Y00175500D02*
Y00185500D01*
X00516000Y00180500D02*
X00526000D01*
X00576000Y00148000D02*
Y00178000D01*
X00597000Y00187500D02*
Y00194500D01*
X00613000Y00187500D02*
Y00194500D01*
X00644000Y00387500D02*
Y00394500D01*
X00628000Y00387500D02*
Y00394500D01*
X00276750Y00404250D02*
X00283750D01*
Y00399750D02*
Y00404250D01*
X00244250D02*
X00251250D01*
X00244250Y00399750D02*
Y00404250D01*
Y00359750D02*
Y00364250D01*
Y00359750D02*
X00251250D01*
X00276750D02*
X00283750D01*
Y00364250D01*
X00072500Y00401500D02*
Y00504500D01*
X00143000Y00401500D02*
Y00504500D01*
X00072500D02*
X00143000D01*
X00072500Y00401500D02*
X00143000D01*
X00552000Y00368000D02*
X00582000D01*
X00552000Y00362000D02*
X00582000D01*
Y00368000D01*
X00552000Y00362000D02*
Y00368000D01*
X00531000Y00365500D02*
Y00372500D01*
X00547000Y00365500D02*
Y00372500D01*
X00456500Y00394950D02*
X00459500D01*
X00456500Y00367050D02*
X00459500D01*
X00445500Y00469000D02*
X00452500D01*
X00445500Y00453000D02*
X00452500D01*
X00314000Y00097500D02*
Y00101000D01*
X00294000Y00097500D02*
Y00101000D01*
Y00083000D02*
Y00086500D01*
X00314000Y00083000D02*
Y00086500D01*
X00333000Y00308000D02*
X00335000D01*
X00333000D02*
Y00310000D01*
Y00340000D02*
Y00342000D01*
X00335000D01*
X00365000D02*
X00367000D01*
Y00340000D02*
Y00342000D01*
X00365000Y00308000D02*
X00367000D01*
Y00310000D01*
X00342000Y00259250D02*
Y00261000D01*
X00346250D01*
X00342000Y00237000D02*
Y00238750D01*
Y00237000D02*
X00346250D01*
X00361750D02*
X00366000D01*
Y00238750D01*
Y00259250D02*
Y00261000D01*
X00361750D02*
X00366000D01*
X00283000Y00132000D02*
Y00264000D01*
X00151000Y00132000D02*
Y00264000D01*
X00283000D01*
X00151000Y00132000D02*
X00283000D01*
X00111000Y00191000D02*
Y00197000D01*
X00096000Y00177000D02*
X00098000D01*
X00083000Y00191000D02*
Y00197000D01*
X00096000Y00211000D02*
X00098000D01*
X00081000Y00084500D02*
Y00091500D01*
X00097000Y00084500D02*
Y00091500D01*
X00289000Y00022500D02*
Y00029500D01*
X00305000Y00022500D02*
Y00029500D01*
X00046703Y00284701D02*
Y00311400D01*
Y00232600D02*
X00072103D01*
Y00311400D01*
X00021303Y00232600D02*
Y00311400D01*
Y00284701D02*
X00046703D01*
X00021303Y00232600D02*
X00046703D01*
X00021303Y00311400D02*
X00072103D01*
X00448500Y00146000D02*
X00455500D01*
X00448500Y00130000D02*
X00455500D01*
X00091199Y00366700D02*
X00169998D01*
X00091199Y00341300D02*
X00169998D01*
X00143300D02*
Y00366700D01*
X00091199Y00341300D02*
Y00366700D01*
X00169998Y00341300D02*
Y00366700D01*
X00386698Y00134600D02*
Y00213399D01*
X00361298Y00134600D02*
Y00213399D01*
Y00161298D02*
X00386698D01*
X00361298Y00213399D02*
X00386698D01*
X00361298Y00134600D02*
X00386698D01*
X00191250Y00093500D02*
Y00094500D01*
X00198750Y00093500D02*
Y00094500D01*
X00161250Y00093500D02*
Y00094500D01*
X00168750Y00093500D02*
Y00094500D01*
X00131250Y00094250D02*
Y00095250D01*
X00138750Y00094250D02*
Y00095250D01*
X00363000Y00418000D02*
X00393000D01*
X00363000Y00412000D02*
X00393000D01*
Y00418000D01*
X00363000Y00412000D02*
Y00418000D01*
D13*
X00085500Y00494500D02*
G03*
X00085500Y00494500I-00003000J00000000D01*
G01*
X00164000Y00142000D02*
G03*
X00164000Y00142000I-00003000J00000000D01*
G01*
D14*
X00051000Y00078000D02*
X00060000D01*
X00051000D02*
Y00128800D01*
X00060000D01*
X00002000Y00141500D02*
X00060000D01*
X00002000Y00065300D02*
Y00141500D01*
Y00065300D02*
X00060000D01*
Y00141500D01*
X00617400Y00051000D02*
Y00060000D01*
X00566600Y00051000D02*
X00617400D01*
X00566600D02*
Y00060000D01*
X00553900Y00002000D02*
Y00060000D01*
Y00002000D02*
X00630100D01*
Y00060000D01*
X00553900D02*
X00630100D01*
X00509400Y00051000D02*
Y00060000D01*
X00458600Y00051000D02*
X00509400D01*
X00458600D02*
Y00060000D01*
X00445900Y00002000D02*
Y00060000D01*
Y00002000D02*
X00522100D01*
Y00060000D01*
X00445900D02*
X00522100D01*
X00400800Y00051000D02*
Y00060000D01*
X00350000Y00051000D02*
X00400800D01*
X00350000D02*
Y00060000D01*
X00337300Y00002000D02*
Y00060000D01*
Y00002000D02*
X00413500D01*
Y00060000D01*
X00337300D02*
X00413500D01*
X00193899Y00060270D02*
X00270099D01*
Y00002270D02*
Y00060270D01*
X00193899Y00002270D02*
X00270099D01*
X00193899D02*
Y00060270D01*
X00206599Y00051270D02*
Y00060270D01*
Y00051270D02*
X00257399D01*
Y00060270D01*
X00165000Y00514000D02*
Y00529235D01*
X00172617D01*
X00175157Y00526696D01*
Y00521618D01*
X00172617Y00519078D01*
X00165000D01*
X00170078D02*
X00175157Y00514000D01*
X00187853D02*
X00182774D01*
X00180235Y00516539D01*
Y00521618D01*
X00182774Y00524157D01*
X00187853D01*
X00190392Y00521618D01*
Y00519078D01*
X00180235D01*
X00195470Y00524157D02*
X00200548Y00514000D01*
X00205627Y00524157D01*
X00210705Y00514000D02*
X00215784D01*
X00213244D01*
Y00524157D01*
X00210705D01*
X00223401Y00514000D02*
X00231019D01*
X00233558Y00516539D01*
X00231019Y00519078D01*
X00225940D01*
X00223401Y00521618D01*
X00225940Y00524157D01*
X00233558D01*
X00238636Y00514000D02*
X00243715D01*
X00241175D01*
Y00524157D01*
X00238636D01*
X00253871Y00514000D02*
X00258950D01*
X00261489Y00516539D01*
Y00521618D01*
X00258950Y00524157D01*
X00253871D01*
X00251332Y00521618D01*
Y00516539D01*
X00253871Y00514000D01*
X00266567D02*
Y00524157D01*
X00274185D01*
X00276724Y00521618D01*
Y00514000D01*
X00297037D02*
X00302116D01*
X00299576D01*
Y00529235D01*
X00297037Y00526696D01*
X00309733Y00514000D02*
Y00516539D01*
X00312272D01*
Y00514000D01*
X00309733D01*
X00322429Y00526696D02*
X00324968Y00529235D01*
X00330047D01*
X00332586Y00526696D01*
Y00516539D01*
X00330047Y00514000D01*
X00324968D01*
X00322429Y00516539D01*
Y00526696D01*
X00174157Y00552696D02*
X00171618Y00555235D01*
X00166539D01*
X00164000Y00552696D01*
Y00542539D01*
X00166539Y00540000D01*
X00171618D01*
X00174157Y00542539D01*
X00181774Y00540000D02*
X00186853D01*
X00189392Y00542539D01*
Y00547617D01*
X00186853Y00550157D01*
X00181774D01*
X00179235Y00547617D01*
Y00542539D01*
X00181774Y00540000D01*
X00194470D02*
Y00550157D01*
X00202088D01*
X00204627Y00547617D01*
Y00540000D01*
X00212244Y00552696D02*
Y00550157D01*
X00209705D01*
X00214784D01*
X00212244D01*
Y00542539D01*
X00214784Y00540000D01*
X00222401Y00550157D02*
Y00540000D01*
Y00545078D01*
X00224940Y00547617D01*
X00227479Y00550157D01*
X00230019D01*
X00240175Y00540000D02*
X00245254D01*
X00247793Y00542539D01*
Y00547617D01*
X00245254Y00550157D01*
X00240175D01*
X00237636Y00547617D01*
Y00542539D01*
X00240175Y00540000D01*
X00252871D02*
X00257950D01*
X00255410D01*
Y00555235D01*
X00252871D01*
X00265567Y00540000D02*
X00270646D01*
X00268106D01*
Y00555235D01*
X00265567D01*
X00285881Y00540000D02*
X00280802D01*
X00278263Y00542539D01*
Y00547617D01*
X00280802Y00550157D01*
X00285881D01*
X00288420Y00547617D01*
Y00545078D01*
X00278263D01*
X00293498Y00550157D02*
Y00540000D01*
Y00545078D01*
X00296037Y00547617D01*
X00298576Y00550157D01*
X00301116D01*
X00164000Y00574235D02*
Y00561539D01*
X00166539Y00559000D01*
X00171618D01*
X00174157Y00561539D01*
Y00574235D01*
X00179235Y00559000D02*
Y00569157D01*
X00186853D01*
X00189392Y00566618D01*
Y00559000D01*
X00194470D02*
Y00574235D01*
X00199548Y00569157D01*
X00204627Y00574235D01*
Y00559000D01*
X00212244Y00569157D02*
X00217323D01*
X00219862Y00566618D01*
Y00559000D01*
X00212244D01*
X00209705Y00561539D01*
X00212244Y00564078D01*
X00219862D01*
X00224940Y00559000D02*
Y00569157D01*
X00232558D01*
X00235097Y00566618D01*
Y00559000D01*
X00240175D02*
Y00569157D01*
X00247793D01*
X00250332Y00566618D01*
Y00559000D01*
X00263028D02*
X00257950D01*
X00255410Y00561539D01*
Y00566618D01*
X00257950Y00569157D01*
X00263028D01*
X00265567Y00566618D01*
Y00564078D01*
X00255410D01*
X00280802Y00574235D02*
Y00559000D01*
X00273185D01*
X00270646Y00561539D01*
Y00566618D01*
X00273185Y00569157D01*
X00280802D01*
X00285881Y00559000D02*
Y00574235D01*
X00293498D01*
X00296037Y00571696D01*
Y00566618D01*
X00293498Y00564078D01*
X00285881D01*
X00303655Y00569157D02*
X00308733D01*
X00311272Y00566618D01*
Y00559000D01*
X00303655D01*
X00301116Y00561539D01*
X00303655Y00564078D01*
X00311272D01*
X00316351Y00569157D02*
Y00559000D01*
Y00564078D01*
X00318890Y00566618D01*
X00321429Y00569157D01*
X00323968D01*
X00334125D02*
X00339203D01*
X00341743Y00566618D01*
Y00559000D01*
X00334125D01*
X00331586Y00561539D01*
X00334125Y00564078D01*
X00341743D01*
X00356978Y00569157D02*
X00349360D01*
X00346821Y00566618D01*
Y00561539D01*
X00349360Y00559000D01*
X00356978D01*
X00362056Y00574235D02*
Y00559000D01*
Y00566618D01*
X00364595Y00569157D01*
X00369674D01*
X00372213Y00566618D01*
Y00559000D01*
X00377291Y00569157D02*
Y00561539D01*
X00379830Y00559000D01*
X00387448D01*
Y00569157D01*
X00395065Y00571696D02*
Y00569157D01*
X00392526D01*
X00397604D01*
X00395065D01*
Y00561539D01*
X00397604Y00559000D01*
X00412840D02*
X00407761D01*
X00405222Y00561539D01*
Y00566618D01*
X00407761Y00569157D01*
X00412840D01*
X00415379Y00566618D01*
Y00564078D01*
X00405222D01*
X00421003Y00040000D02*
X00429000D01*
Y00043999D01*
X00427667Y00045332D01*
X00422336D01*
X00421003Y00043999D01*
Y00040000D01*
X00427667Y00047997D02*
X00429000Y00049330D01*
Y00051996D01*
X00427667Y00053329D01*
X00422336D01*
X00421003Y00051996D01*
Y00049330D01*
X00422336Y00047997D01*
X00423668D01*
X00425001Y00049330D01*
Y00053329D01*
D15*
X00116000Y00007000D02*
Y00042000D01*
X00161000D01*
Y00007000D02*
Y00042000D01*
X00116000Y00007000D02*
X00161000D01*
X00086000Y00294000D02*
X00127000D01*
X00086000Y00248000D02*
Y00294000D01*
X00127000Y00248000D02*
Y00294000D01*
X00086000Y00248000D02*
X00127000D01*
X00584000Y00328998D02*
X00585000Y00329998D01*
X00586999D01*
X00587999Y00328998D01*
Y00327999D01*
X00586999Y00326999D01*
X00585999D01*
X00586999D01*
X00587999Y00325999D01*
Y00325000D01*
X00586999Y00324000D01*
X00585000D01*
X00584000Y00325000D01*
X00589998Y00329998D02*
Y00325999D01*
X00591997Y00324000D01*
X00593997Y00325999D01*
Y00329998D01*
X00595996Y00328998D02*
X00596996Y00329998D01*
X00598995D01*
X00599995Y00328998D01*
Y00327999D01*
X00598995Y00326999D01*
X00597995D01*
X00598995D01*
X00599995Y00325999D01*
Y00325000D01*
X00598995Y00324000D01*
X00596996D01*
X00595996Y00325000D01*
X00562000Y00328998D02*
X00565999D01*
X00563999D01*
Y00323000D01*
X00567998Y00328998D02*
X00571997Y00323000D01*
Y00328998D02*
X00567998Y00323000D01*
X00538000D02*
Y00328998D01*
X00540999D01*
X00541999Y00327998D01*
Y00325999D01*
X00540999Y00324999D01*
X00538000D01*
X00539999D02*
X00541999Y00323000D01*
X00543998Y00328998D02*
X00547997Y00323000D01*
Y00328998D02*
X00543998Y00323000D01*
X00513999Y00327998D02*
X00512999Y00328998D01*
X00511000D01*
X00510000Y00327998D01*
Y00324000D01*
X00511000Y00323000D01*
X00512999D01*
X00513999Y00324000D01*
Y00325999D01*
X00511999D01*
X00515998Y00323000D02*
Y00328998D01*
X00519997Y00323000D01*
Y00328998D01*
X00521996D02*
Y00323000D01*
X00524995D01*
X00525995Y00324000D01*
Y00327998D01*
X00524995Y00328998D01*
X00521996D01*
X00147003Y00011000D02*
X00152334D01*
X00155000Y00013666D01*
X00152334Y00016332D01*
X00147003D01*
X00155000Y00018997D02*
Y00021663D01*
Y00020330D01*
X00149668D01*
Y00018997D01*
X00155000Y00025662D02*
X00149668D01*
Y00029661D01*
X00151001Y00030993D01*
X00155000D01*
X00133003Y00011000D02*
X00138334D01*
X00141000Y00013666D01*
X00138334Y00016332D01*
X00133003D01*
X00141000Y00020330D02*
Y00022996D01*
X00139667Y00024329D01*
X00137001D01*
X00135668Y00022996D01*
Y00020330D01*
X00137001Y00018997D01*
X00139667D01*
X00141000Y00020330D01*
X00135668Y00026995D02*
X00139667D01*
X00141000Y00028328D01*
Y00032326D01*
X00135668D01*
X00134335Y00036325D02*
X00135668D01*
Y00034992D01*
Y00037658D01*
Y00036325D01*
X00139667D01*
X00141000Y00037658D01*
X00121335Y00016332D02*
X00120003Y00014999D01*
Y00012333D01*
X00121335Y00011000D01*
X00126667D01*
X00128000Y00012333D01*
Y00014999D01*
X00126667Y00016332D01*
X00124001D01*
Y00013666D01*
X00128000Y00018997D02*
X00120003D01*
X00128000Y00024329D01*
X00120003D01*
Y00026995D02*
X00128000D01*
Y00030993D01*
X00126667Y00032326D01*
X00121335D01*
X00120003Y00030993D01*
Y00026995D01*
X00107332Y00259664D02*
X00105999Y00260997D01*
X00103333D01*
X00102000Y00259664D01*
Y00254333D01*
X00103333Y00253000D01*
X00105999D01*
X00107332Y00254333D01*
Y00256999D01*
X00104666D01*
X00109997Y00253000D02*
Y00260997D01*
X00115329Y00253000D01*
Y00260997D01*
X00117995D02*
Y00253000D01*
X00121994D01*
X00123326Y00254333D01*
Y00259664D01*
X00121994Y00260997D01*
X00117995D01*
X00102000Y00289997D02*
Y00284666D01*
X00104666Y00282000D01*
X00107332Y00284666D01*
Y00289997D01*
X00109997Y00282000D02*
X00112663D01*
X00111330D01*
Y00287332D01*
X00109997D01*
X00116662Y00282000D02*
Y00287332D01*
X00120661D01*
X00121994Y00285999D01*
Y00282000D01*
X00095332Y00259664D02*
X00093999Y00260997D01*
X00091333D01*
X00090000Y00259664D01*
Y00254333D01*
X00091333Y00253000D01*
X00093999D01*
X00095332Y00254333D01*
X00090000Y00271999D02*
X00095332D01*
X00113992D02*
X00119324D01*
X00090000Y00289997D02*
Y00282000D01*
X00093999D01*
X00095332Y00283333D01*
Y00288664D01*
X00093999Y00289997D01*
X00090000D01*
X00101199Y00374998D02*
X00100199Y00375998D01*
X00098200D01*
X00097200Y00374998D01*
Y00371000D01*
X00098200Y00370000D01*
X00100199D01*
X00101199Y00371000D01*
Y00372999D01*
X00099199D01*
X00103198Y00370000D02*
Y00375998D01*
X00107197Y00370000D01*
Y00375998D01*
X00109196D02*
Y00370000D01*
X00112195D01*
X00113195Y00371000D01*
Y00374998D01*
X00112195Y00375998D01*
X00109196D01*
X00151000Y00370000D02*
Y00375998D01*
X00153999D01*
X00154999Y00374998D01*
Y00372999D01*
X00153999Y00371999D01*
X00151000D01*
X00152999D02*
X00154999Y00370000D01*
X00156998Y00375998D02*
X00160997Y00370000D01*
Y00375998D02*
X00156998Y00370000D01*
X00124200Y00375998D02*
X00128199D01*
X00126199D01*
Y00370000D01*
X00130198Y00375998D02*
X00134197Y00370000D01*
Y00375998D02*
X00130198Y00370000D01*
X00391000Y00196996D02*
X00390000Y00195997D01*
Y00193997D01*
X00391000Y00192998D01*
X00394998D01*
X00395998Y00193997D01*
Y00195997D01*
X00394998Y00196996D01*
X00392999D01*
Y00194997D01*
X00395998Y00198996D02*
X00390000D01*
X00395998Y00202994D01*
X00390000D01*
Y00204994D02*
X00395998D01*
Y00207993D01*
X00394998Y00208993D01*
X00391000D01*
X00390000Y00207993D01*
Y00204994D01*
X00395998Y00143998D02*
X00390000D01*
Y00146997D01*
X00391000Y00147996D01*
X00392999D01*
X00393999Y00146997D01*
Y00143998D01*
Y00145997D02*
X00395998Y00147996D01*
X00390000Y00149996D02*
X00395998Y00153995D01*
X00390000D02*
X00395998Y00149996D01*
X00390000Y00168998D02*
Y00172996D01*
Y00170997D01*
X00395998D01*
X00390000Y00174996D02*
X00395998Y00178995D01*
X00390000D02*
X00395998Y00174996D01*
X00174000Y00020000D02*
X00166003D01*
Y00023999D01*
X00167335Y00025332D01*
X00170001D01*
X00171334Y00023999D01*
Y00020000D01*
Y00022666D02*
X00174000Y00025332D01*
Y00033329D02*
Y00027997D01*
X00168668Y00033329D01*
X00167335D01*
X00166003Y00031996D01*
Y00029330D01*
X00167335Y00027997D01*
Y00035995D02*
X00166003Y00037328D01*
Y00039994D01*
X00167335Y00041326D01*
X00172667D01*
X00174000Y00039994D01*
Y00037328D01*
X00172667Y00035995D01*
X00167335D01*
X00181003Y00012000D02*
X00189000D01*
Y00015999D01*
X00187667Y00017332D01*
X00182335D01*
X00181003Y00015999D01*
Y00012000D01*
X00189000Y00019997D02*
Y00022663D01*
Y00021330D01*
X00181003D01*
X00182335Y00019997D01*
X00187667Y00026662D02*
X00189000Y00027995D01*
Y00030661D01*
X00187667Y00031994D01*
X00182335D01*
X00181003Y00030661D01*
Y00027995D01*
X00182335Y00026662D01*
X00183668D01*
X00185001Y00027995D01*
Y00031994D01*
X00274003Y00047000D02*
X00282000D01*
Y00050999D01*
X00280667Y00052332D01*
X00275336D01*
X00274003Y00050999D01*
Y00047000D01*
X00282000Y00054997D02*
Y00057663D01*
Y00056330D01*
X00274003D01*
X00275336Y00054997D01*
Y00061662D02*
X00274003Y00062995D01*
Y00065661D01*
X00275336Y00066994D01*
X00276668D01*
X00278001Y00065661D01*
X00279334Y00066994D01*
X00280667D01*
X00282000Y00065661D01*
Y00062995D01*
X00280667Y00061662D01*
X00279334D01*
X00278001Y00062995D01*
X00276668Y00061662D01*
X00275336D01*
X00278001Y00062995D02*
Y00065661D01*
X00552000Y00086997D02*
Y00079000D01*
X00557332D01*
X00563996D02*
X00561330D01*
X00559997Y00080333D01*
Y00082999D01*
X00561330Y00084332D01*
X00563996D01*
X00565329Y00082999D01*
Y00081666D01*
X00559997D01*
X00569328Y00079000D02*
Y00085665D01*
Y00082999D01*
X00567995D01*
X00570661D01*
X00569328D01*
Y00085665D01*
X00570661Y00086997D01*
X00575992Y00085665D02*
Y00084332D01*
X00574659D01*
X00577325D01*
X00575992D01*
Y00080333D01*
X00577325Y00079000D01*
X00586656D02*
X00581324D01*
X00586656Y00084332D01*
Y00085665D01*
X00585323Y00086997D01*
X00582657D01*
X00581324Y00085665D01*
X00445000Y00080000D02*
Y00087997D01*
X00448999D01*
X00450332Y00086664D01*
Y00083999D01*
X00448999Y00082666D01*
X00445000D01*
X00447666D02*
X00450332Y00080000D01*
X00452997D02*
X00455663D01*
X00454330D01*
Y00085332D01*
X00452997D01*
X00462328Y00077334D02*
X00463661D01*
X00464994Y00078667D01*
Y00085332D01*
X00460995D01*
X00459662Y00083999D01*
Y00081333D01*
X00460995Y00080000D01*
X00464994D01*
X00467659Y00087997D02*
Y00080000D01*
Y00083999D01*
X00468992Y00085332D01*
X00471658D01*
X00472991Y00083999D01*
Y00080000D01*
X00476990Y00086664D02*
Y00085332D01*
X00475657D01*
X00478323D01*
X00476990D01*
Y00081333D01*
X00478323Y00080000D01*
X00487653D02*
X00482321D01*
X00487653Y00085332D01*
Y00086664D01*
X00486320Y00087997D01*
X00483654D01*
X00482321Y00086664D01*
X00334000Y00085997D02*
Y00078000D01*
X00339332D01*
X00345996D02*
X00343330D01*
X00341997Y00079333D01*
Y00081999D01*
X00343330Y00083332D01*
X00345996D01*
X00347329Y00081999D01*
Y00080666D01*
X00341997D01*
X00351328Y00078000D02*
Y00084664D01*
Y00081999D01*
X00349995D01*
X00352661D01*
X00351328D01*
Y00084664D01*
X00352661Y00085997D01*
X00357992Y00084664D02*
Y00083332D01*
X00356659D01*
X00359325D01*
X00357992D01*
Y00079333D01*
X00359325Y00078000D01*
X00363324D02*
X00365990D01*
X00364657D01*
Y00085997D01*
X00363324Y00084664D01*
X00006000Y00148000D02*
Y00155997D01*
X00009999D01*
X00011332Y00154664D01*
Y00151999D01*
X00009999Y00150666D01*
X00006000D01*
X00008666D02*
X00011332Y00148000D01*
X00013997D02*
X00016663D01*
X00015330D01*
Y00153332D01*
X00013997D01*
X00023328Y00145334D02*
X00024661D01*
X00025993Y00146667D01*
Y00153332D01*
X00021995D01*
X00020662Y00151999D01*
Y00149333D01*
X00021995Y00148000D01*
X00025993D01*
X00028659Y00155997D02*
Y00148000D01*
Y00151999D01*
X00029992Y00153332D01*
X00032658D01*
X00033991Y00151999D01*
Y00148000D01*
X00037990Y00154664D02*
Y00153332D01*
X00036657D01*
X00039323D01*
X00037990D01*
Y00149333D01*
X00039323Y00148000D01*
X00043321D02*
X00045987D01*
X00044654D01*
Y00155997D01*
X00043321Y00154664D01*
X00472500Y00229497D02*
Y00221500D01*
X00476499D01*
X00477832Y00222833D01*
Y00228165D01*
X00476499Y00229497D01*
X00472500D01*
X00485829Y00228165D02*
X00484496Y00229497D01*
X00481830D01*
X00480497Y00228165D01*
Y00222833D01*
X00481830Y00221500D01*
X00484496D01*
X00485829Y00222833D01*
X00488495Y00225499D02*
X00493826D01*
X00496492Y00229497D02*
Y00221500D01*
X00500491D01*
X00501824Y00222833D01*
Y00228165D01*
X00500491Y00229497D01*
X00496492D01*
X00509821Y00228165D02*
X00508488Y00229497D01*
X00505823D01*
X00504490Y00228165D01*
Y00222833D01*
X00505823Y00221500D01*
X00508488D01*
X00509821Y00222833D01*
X00517819Y00221500D02*
X00512487D01*
X00517819Y00226832D01*
Y00228165D01*
X00516486Y00229497D01*
X00513820D01*
X00512487Y00228165D01*
X00508332Y00314664D02*
X00506999Y00315997D01*
X00504333D01*
X00503000Y00314664D01*
Y00309333D01*
X00504333Y00308000D01*
X00506999D01*
X00508332Y00309333D01*
Y00311999D01*
X00505666D01*
X00510997Y00308000D02*
Y00315997D01*
X00514996D01*
X00516329Y00314664D01*
Y00311999D01*
X00514996Y00310666D01*
X00510997D01*
X00524327Y00314664D02*
X00522994Y00315997D01*
X00520328D01*
X00518995Y00314664D01*
Y00313332D01*
X00520328Y00311999D01*
X00522994D01*
X00524327Y00310666D01*
Y00309333D01*
X00522994Y00308000D01*
X00520328D01*
X00518995Y00309333D01*
X00605332Y00344333D02*
Y00349664D01*
X00603999Y00350997D01*
X00601333D01*
X00600000Y00349664D01*
Y00344333D01*
X00601333Y00343000D01*
X00603999D01*
X00602666Y00345666D02*
X00605332Y00343000D01*
X00603999D02*
X00605332Y00344333D01*
X00613329Y00343000D02*
X00607998D01*
X00613329Y00348332D01*
Y00349664D01*
X00611996Y00350997D01*
X00609330D01*
X00607998Y00349664D01*
X00256332Y00093665D02*
X00254999Y00094997D01*
X00252333D01*
X00251000Y00093665D01*
Y00088333D01*
X00252333Y00087000D01*
X00254999D01*
X00256332Y00088333D01*
X00262996Y00087000D02*
Y00094997D01*
X00258997Y00090999D01*
X00264329D01*
X00150000Y00296997D02*
Y00290333D01*
X00151333Y00289000D01*
X00153999D01*
X00155332Y00290333D01*
Y00296997D01*
X00157997Y00289000D02*
X00160663D01*
X00159330D01*
Y00296997D01*
X00157997Y00295665D01*
X00071003Y00175000D02*
X00079000Y00180332D01*
X00071003D02*
X00079000Y00175000D01*
X00071003Y00182997D02*
Y00188329D01*
Y00185663D01*
X00079000D01*
Y00190995D02*
X00073668D01*
X00071003Y00193661D01*
X00073668Y00196327D01*
X00079000D01*
X00075001D01*
Y00190995D01*
X00071003Y00198992D02*
X00079000D01*
Y00204324D01*
Y00206990D02*
Y00209655D01*
Y00208323D01*
X00071003D01*
X00072336Y00206990D01*
X00643888Y00559369D02*
X00642555Y00560701D01*
X00639889D01*
X00638556Y00559369D01*
Y00558036D01*
X00639889Y00556703D01*
X00642555D01*
X00643888Y00555370D01*
Y00554037D01*
X00642555Y00552704D01*
X00639889D01*
X00638556Y00554037D01*
X00646553Y00560701D02*
Y00552704D01*
X00649219Y00555370D01*
X00651885Y00552704D01*
Y00560701D01*
X00654551Y00552704D02*
X00657217D01*
X00655884D01*
Y00560701D01*
X00654551Y00559369D01*
X00524000Y00225000D02*
Y00232997D01*
X00527999D01*
X00529332Y00231665D01*
Y00228999D01*
X00527999Y00227666D01*
X00524000D01*
X00526666D02*
X00529332Y00225000D01*
X00531997D02*
X00534663D01*
X00533330D01*
Y00232997D01*
X00531997Y00231665D01*
X00538662Y00226333D02*
X00539995Y00225000D01*
X00542661D01*
X00543994Y00226333D01*
Y00231665D01*
X00542661Y00232997D01*
X00539995D01*
X00538662Y00231665D01*
Y00230332D01*
X00539995Y00228999D01*
X00543994D01*
X00551000Y00225000D02*
Y00232997D01*
X00554999D01*
X00556332Y00231665D01*
Y00228999D01*
X00554999Y00227666D01*
X00551000D01*
X00553666D02*
X00556332Y00225000D01*
X00558997D02*
X00561663D01*
X00560330D01*
Y00232997D01*
X00558997Y00231665D01*
X00565662D02*
X00566995Y00232997D01*
X00569661D01*
X00570993Y00231665D01*
Y00230332D01*
X00569661Y00228999D01*
X00570993Y00227666D01*
Y00226333D01*
X00569661Y00225000D01*
X00566995D01*
X00565662Y00226333D01*
Y00227666D01*
X00566995Y00228999D01*
X00565662Y00230332D01*
Y00231665D01*
X00566995Y00228999D02*
X00569661D01*
X00537000Y00011000D02*
X00529003D01*
Y00014999D01*
X00530336Y00016332D01*
X00533001D01*
X00534334Y00014999D01*
Y00011000D01*
Y00013666D02*
X00537000Y00016332D01*
Y00018997D02*
Y00021663D01*
Y00020330D01*
X00529003D01*
X00530336Y00018997D01*
X00529003Y00025662D02*
Y00030994D01*
X00530336D01*
X00535667Y00025662D01*
X00537000D01*
X00428309Y00015132D02*
X00420311D01*
Y00019131D01*
X00421644Y00020464D01*
X00424310D01*
X00425643Y00019131D01*
Y00015132D01*
Y00017798D02*
X00428309Y00020464D01*
Y00023129D02*
Y00025795D01*
Y00024462D01*
X00420311D01*
X00421644Y00023129D01*
X00420311Y00035126D02*
X00421644Y00032460D01*
X00424310Y00029794D01*
X00426976D01*
X00428309Y00031127D01*
Y00033793D01*
X00426976Y00035126D01*
X00425643D01*
X00424310Y00033793D01*
Y00029794D01*
X00321000Y00036000D02*
X00313003D01*
Y00039999D01*
X00314335Y00041332D01*
X00317001D01*
X00318334Y00039999D01*
Y00036000D01*
Y00038666D02*
X00321000Y00041332D01*
Y00043997D02*
Y00046663D01*
Y00045330D01*
X00313003D01*
X00314335Y00043997D01*
X00313003Y00055994D02*
Y00050662D01*
X00317001D01*
X00315668Y00053328D01*
Y00054661D01*
X00317001Y00055994D01*
X00319667D01*
X00321000Y00054661D01*
Y00051995D01*
X00319667Y00050662D01*
X00559000Y00398000D02*
Y00405997D01*
X00562999D01*
X00564332Y00404664D01*
Y00401999D01*
X00562999Y00400666D01*
X00559000D01*
X00561666D02*
X00564332Y00398000D01*
X00566997D02*
X00569663D01*
X00568330D01*
Y00405997D01*
X00566997Y00404664D01*
X00577661Y00398000D02*
Y00405997D01*
X00573662Y00401999D01*
X00578994D01*
X00098000Y00117000D02*
X00090003D01*
Y00120999D01*
X00091335Y00122332D01*
X00094001D01*
X00095334Y00120999D01*
Y00117000D01*
Y00119666D02*
X00098000Y00122332D01*
Y00124997D02*
Y00127663D01*
Y00126330D01*
X00090003D01*
X00091335Y00124997D01*
Y00131662D02*
X00090003Y00132995D01*
Y00135661D01*
X00091335Y00136994D01*
X00092668D01*
X00094001Y00135661D01*
Y00134328D01*
Y00135661D01*
X00095334Y00136994D01*
X00096667D01*
X00098000Y00135661D01*
Y00132995D01*
X00096667Y00131662D01*
X00008000Y00207000D02*
Y00214997D01*
X00011999D01*
X00013332Y00213664D01*
Y00210999D01*
X00011999Y00209666D01*
X00008000D01*
X00010666D02*
X00013332Y00207000D01*
X00015997D02*
X00018663D01*
X00017330D01*
Y00214997D01*
X00015997Y00213664D01*
X00027994Y00207000D02*
X00022662D01*
X00027994Y00212332D01*
Y00213664D01*
X00026661Y00214997D01*
X00023995D01*
X00022662Y00213664D01*
X00031000Y00355000D02*
Y00362997D01*
X00034999D01*
X00036332Y00361665D01*
Y00358999D01*
X00034999Y00357666D01*
X00031000D01*
X00033666D02*
X00036332Y00355000D01*
X00038997D02*
X00041663D01*
X00040330D01*
Y00362997D01*
X00038997Y00361665D01*
X00045662Y00355000D02*
X00048328D01*
X00046995D01*
Y00362997D01*
X00045662Y00361665D01*
X00240000Y00081000D02*
X00232003D01*
Y00084999D01*
X00233335Y00086332D01*
X00236001D01*
X00237334Y00084999D01*
Y00081000D01*
Y00083666D02*
X00240000Y00086332D01*
Y00088997D02*
Y00091663D01*
Y00090330D01*
X00232003D01*
X00233335Y00088997D01*
Y00095662D02*
X00232003Y00096995D01*
Y00099661D01*
X00233335Y00100994D01*
X00238667D01*
X00240000Y00099661D01*
Y00096995D01*
X00238667Y00095662D01*
X00233335D01*
X00435000Y00260000D02*
Y00267997D01*
X00438999D01*
X00440332Y00266665D01*
Y00263999D01*
X00438999Y00262666D01*
X00435000D01*
X00437666D02*
X00440332Y00260000D01*
X00442997Y00261333D02*
X00444330Y00260000D01*
X00446996D01*
X00448329Y00261333D01*
Y00266665D01*
X00446996Y00267997D01*
X00444330D01*
X00442997Y00266665D01*
Y00265332D01*
X00444330Y00263999D01*
X00448329D01*
X00173000Y00070000D02*
Y00077997D01*
X00176999D01*
X00178332Y00076665D01*
Y00073999D01*
X00176999Y00072666D01*
X00173000D01*
X00175666D02*
X00178332Y00070000D01*
X00180997Y00076665D02*
X00182330Y00077997D01*
X00184996D01*
X00186329Y00076665D01*
Y00075332D01*
X00184996Y00073999D01*
X00186329Y00072666D01*
Y00071333D01*
X00184996Y00070000D01*
X00182330D01*
X00180997Y00071333D01*
Y00072666D01*
X00182330Y00073999D01*
X00180997Y00075332D01*
Y00076665D01*
X00182330Y00073999D02*
X00184996D01*
X00141000Y00070000D02*
Y00077997D01*
X00144999D01*
X00146332Y00076665D01*
Y00073999D01*
X00144999Y00072666D01*
X00141000D01*
X00143666D02*
X00146332Y00070000D01*
X00148997Y00077997D02*
X00154329D01*
Y00076665D01*
X00148997Y00071333D01*
Y00070000D01*
X00292000Y00307000D02*
X00284003D01*
Y00310999D01*
X00285336Y00312332D01*
X00288001D01*
X00289334Y00310999D01*
Y00307000D01*
Y00309666D02*
X00292000Y00312332D01*
X00284003Y00320329D02*
X00285336Y00317663D01*
X00288001Y00314997D01*
X00290667D01*
X00292000Y00316330D01*
Y00318996D01*
X00290667Y00320329D01*
X00289334D01*
X00288001Y00318996D01*
Y00314997D01*
X00304000Y00307000D02*
X00296003D01*
Y00310999D01*
X00297335Y00312332D01*
X00300001D01*
X00301334Y00310999D01*
Y00307000D01*
Y00309666D02*
X00304000Y00312332D01*
X00296003Y00320329D02*
Y00314997D01*
X00300001D01*
X00298668Y00317663D01*
Y00318996D01*
X00300001Y00320329D01*
X00302667D01*
X00304000Y00318996D01*
Y00316330D01*
X00302667Y00314997D01*
X00108000Y00313000D02*
Y00320997D01*
X00111999D01*
X00113332Y00319664D01*
Y00316999D01*
X00111999Y00315666D01*
X00108000D01*
X00110666D02*
X00113332Y00313000D01*
X00119996D02*
Y00320997D01*
X00115997Y00316999D01*
X00121329D01*
X00175000Y00317000D02*
Y00324997D01*
X00178999D01*
X00180332Y00323665D01*
Y00320999D01*
X00178999Y00319666D01*
X00175000D01*
X00177666D02*
X00180332Y00317000D01*
X00182997Y00323665D02*
X00184330Y00324997D01*
X00186996D01*
X00188329Y00323665D01*
Y00322332D01*
X00186996Y00320999D01*
X00185663D01*
X00186996D01*
X00188329Y00319666D01*
Y00318333D01*
X00186996Y00317000D01*
X00184330D01*
X00182997Y00318333D01*
X00317000Y00161000D02*
X00309003D01*
Y00164999D01*
X00310336Y00166332D01*
X00313001D01*
X00314334Y00164999D01*
Y00161000D01*
Y00163666D02*
X00317000Y00166332D01*
Y00174329D02*
Y00168997D01*
X00311668Y00174329D01*
X00310336D01*
X00309003Y00172996D01*
Y00170330D01*
X00310336Y00168997D01*
X00317000Y00139000D02*
X00309003D01*
Y00142999D01*
X00310336Y00144332D01*
X00313001D01*
X00314334Y00142999D01*
Y00139000D01*
Y00141666D02*
X00317000Y00144332D01*
Y00146997D02*
Y00149663D01*
Y00148330D01*
X00309003D01*
X00310336Y00146997D01*
X00604332Y00406333D02*
Y00411665D01*
X00602999Y00412997D01*
X00600333D01*
X00599000Y00411665D01*
Y00406333D01*
X00600333Y00405000D01*
X00602999D01*
X00601666Y00407666D02*
X00604332Y00405000D01*
X00602999D02*
X00604332Y00406333D01*
X00606997Y00405000D02*
X00609663D01*
X00608330D01*
Y00412997D01*
X00606997Y00411665D01*
X00219003Y00077000D02*
X00227000D01*
Y00082332D01*
X00219003Y00090329D02*
Y00084997D01*
X00227000D01*
Y00090329D01*
X00223001Y00084997D02*
Y00087663D01*
X00219003Y00092995D02*
X00227000D01*
Y00096994D01*
X00225667Y00098326D01*
X00220336D01*
X00219003Y00096994D01*
Y00092995D01*
X00220336Y00100992D02*
X00219003Y00102325D01*
Y00104991D01*
X00220336Y00106324D01*
X00221668D01*
X00223001Y00104991D01*
Y00103658D01*
Y00104991D01*
X00224334Y00106324D01*
X00225667D01*
X00227000Y00104991D01*
Y00102325D01*
X00225667Y00100992D01*
X00159000Y00065997D02*
Y00058000D01*
X00164332D01*
X00172329Y00065997D02*
X00166997D01*
Y00058000D01*
X00172329D01*
X00166997Y00061999D02*
X00169663D01*
X00174995Y00065997D02*
Y00058000D01*
X00178994D01*
X00180326Y00059333D01*
Y00064665D01*
X00178994Y00065997D01*
X00174995D01*
X00188324Y00058000D02*
X00182992D01*
X00188324Y00063332D01*
Y00064665D01*
X00186991Y00065997D01*
X00184325D01*
X00182992Y00064665D01*
X00116003Y00081000D02*
X00124000D01*
Y00086332D01*
X00116003Y00094329D02*
Y00088997D01*
X00124000D01*
Y00094329D01*
X00120001Y00088997D02*
Y00091663D01*
X00116003Y00096995D02*
X00124000D01*
Y00100993D01*
X00122667Y00102326D01*
X00117336D01*
X00116003Y00100993D01*
Y00096995D01*
X00124000Y00104992D02*
Y00107658D01*
Y00106325D01*
X00116003D01*
X00117336Y00104992D01*
X00365000Y00444997D02*
Y00437000D01*
X00370332D01*
X00372997Y00444997D02*
Y00437000D01*
X00376996D01*
X00378329Y00438333D01*
Y00443665D01*
X00376996Y00444997D01*
X00372997D01*
X00384994D02*
X00382328D01*
X00380995Y00443665D01*
Y00438333D01*
X00382328Y00437000D01*
X00384994D01*
X00386326Y00438333D01*
Y00443665D01*
X00384994Y00444997D01*
X00388992Y00437000D02*
X00391658D01*
X00390325D01*
Y00444997D01*
X00388992Y00443665D01*
X00473000Y00216997D02*
Y00209000D01*
X00478332D01*
X00486329D02*
X00480997D01*
X00486329Y00214332D01*
Y00215665D01*
X00484996Y00216997D01*
X00482330D01*
X00480997Y00215665D01*
X00429000Y00411997D02*
Y00404000D01*
X00434332D01*
X00436997D02*
X00439663D01*
X00438330D01*
Y00411997D01*
X00436997Y00410664D01*
X00657858Y00451989D02*
X00655192D01*
X00656525D01*
Y00445325D01*
X00655192Y00443992D01*
X00653859D01*
X00652526Y00445325D01*
X00660523D02*
X00661856Y00443992D01*
X00664522D01*
X00665855Y00445325D01*
Y00450657D01*
X00664522Y00451989D01*
X00661856D01*
X00660523Y00450657D01*
Y00449324D01*
X00661856Y00447991D01*
X00665855D01*
X00105336Y00013332D02*
X00104003Y00011999D01*
Y00009333D01*
X00105336Y00008000D01*
X00106668D01*
X00108001Y00009333D01*
Y00011999D01*
X00109334Y00013332D01*
X00110667D01*
X00112000Y00011999D01*
Y00009333D01*
X00110667Y00008000D01*
X00112000Y00017330D02*
Y00019996D01*
X00110667Y00021329D01*
X00108001D01*
X00106668Y00019996D01*
Y00017330D01*
X00108001Y00015997D01*
X00110667D01*
X00112000Y00017330D01*
Y00023995D02*
X00106668D01*
Y00027994D01*
X00108001Y00029327D01*
X00112000D01*
X00106668Y00033325D02*
Y00035991D01*
X00108001Y00037324D01*
X00112000D01*
Y00033325D01*
X00110667Y00031992D01*
X00109334Y00033325D01*
Y00037324D01*
X00106668Y00039990D02*
X00112000D01*
X00109334D01*
X00108001Y00041323D01*
X00106668Y00042656D01*
Y00043988D01*
X00627332Y00240997D02*
X00624666D01*
X00625999D01*
Y00234333D01*
X00624666Y00233000D01*
X00623333D01*
X00622000Y00234333D01*
X00635329Y00240997D02*
X00632663Y00239664D01*
X00629997Y00236999D01*
Y00234333D01*
X00631330Y00233000D01*
X00633996D01*
X00635329Y00234333D01*
Y00235666D01*
X00633996Y00236999D01*
X00629997D01*
X00016000Y00262000D02*
X00008003D01*
Y00265999D01*
X00009336Y00267332D01*
X00012001D01*
X00013334Y00265999D01*
Y00262000D01*
X00008003Y00269997D02*
X00016000D01*
Y00273996D01*
X00014667Y00275329D01*
X00009336D01*
X00008003Y00273996D01*
Y00269997D01*
Y00277995D02*
Y00280661D01*
Y00279328D01*
X00016000D01*
Y00277995D01*
Y00280661D01*
X00102532Y00388997D02*
X00097200D01*
Y00381000D01*
X00102532D01*
X00097200Y00384999D02*
X00099866D01*
X00105197Y00386332D02*
X00110529Y00381000D01*
X00107863Y00383666D01*
X00110529Y00386332D01*
X00105197Y00381000D01*
X00114528Y00387664D02*
Y00386332D01*
X00113195D01*
X00115861D01*
X00114528D01*
Y00382333D01*
X00115861Y00381000D01*
X00355000Y00227997D02*
Y00220000D01*
X00358999D01*
X00360332Y00221333D01*
Y00226665D01*
X00358999Y00227997D01*
X00355000D01*
X00366996Y00220000D02*
X00364330D01*
X00362997Y00221333D01*
Y00223999D01*
X00364330Y00225332D01*
X00366996D01*
X00368329Y00223999D01*
Y00222666D01*
X00362997D01*
X00370995Y00227997D02*
Y00220000D01*
X00374994D01*
X00376326Y00221333D01*
Y00222666D01*
Y00223999D01*
X00374994Y00225332D01*
X00370995D01*
X00378992D02*
Y00221333D01*
X00380325Y00220000D01*
X00384324D01*
Y00225332D01*
X00389655Y00217334D02*
X00390988D01*
X00392321Y00218667D01*
Y00225332D01*
X00388323D01*
X00386990Y00223999D01*
Y00221333D01*
X00388323Y00220000D01*
X00392321D01*
X00558000Y00344997D02*
X00560666D01*
X00559333D01*
Y00337000D01*
X00558000D01*
X00560666D01*
X00569996Y00343665D02*
X00568663Y00344997D01*
X00565997D01*
X00564664Y00343665D01*
Y00338333D01*
X00565997Y00337000D01*
X00568663D01*
X00569996Y00338333D01*
X00572662Y00344997D02*
X00577994D01*
Y00343665D01*
X00572662Y00338333D01*
Y00337000D01*
X00240000Y00418997D02*
X00242666D01*
X00241333D01*
Y00411000D01*
X00240000D01*
X00242666D01*
X00251996Y00417664D02*
X00250663Y00418997D01*
X00247997D01*
X00246665Y00417664D01*
Y00412333D01*
X00247997Y00411000D01*
X00250663D01*
X00251996Y00412333D01*
X00259994Y00418997D02*
X00254662D01*
Y00414999D01*
X00257328Y00416332D01*
X00258661D01*
X00259994Y00414999D01*
Y00412333D01*
X00258661Y00411000D01*
X00255995D01*
X00254662Y00412333D01*
X00295000Y00076997D02*
X00297666D01*
X00296333D01*
Y00069000D01*
X00295000D01*
X00297666D01*
X00306996Y00075665D02*
X00305663Y00076997D01*
X00302997D01*
X00301665Y00075665D01*
Y00070333D01*
X00302997Y00069000D01*
X00305663D01*
X00306996Y00070333D01*
X00313661Y00069000D02*
Y00076997D01*
X00309662Y00072999D01*
X00314994D01*
X00050000Y00518997D02*
X00052666D01*
X00051333D01*
Y00511000D01*
X00050000D01*
X00052666D01*
X00061996Y00517664D02*
X00060663Y00518997D01*
X00057997D01*
X00056665Y00517664D01*
Y00512333D01*
X00057997Y00511000D01*
X00060663D01*
X00061996Y00512333D01*
X00064662Y00517664D02*
X00065995Y00518997D01*
X00068661D01*
X00069994Y00517664D01*
Y00516332D01*
X00068661Y00514999D01*
X00067328D01*
X00068661D01*
X00069994Y00513666D01*
Y00512333D01*
X00068661Y00511000D01*
X00065995D01*
X00064662Y00512333D01*
X00327003Y00239000D02*
Y00241666D01*
Y00240333D01*
X00335000D01*
Y00239000D01*
Y00241666D01*
X00328335Y00250996D02*
X00327003Y00249663D01*
Y00246997D01*
X00328335Y00245665D01*
X00333667D01*
X00335000Y00246997D01*
Y00249663D01*
X00333667Y00250996D01*
X00335000Y00258994D02*
Y00253662D01*
X00329668Y00258994D01*
X00328335D01*
X00327003Y00257661D01*
Y00254995D01*
X00328335Y00253662D01*
X00316999Y00357000D02*
X00319665D01*
X00318332D01*
Y00349002D01*
X00316999D01*
X00319665D01*
X00328995Y00355667D02*
X00327662Y00357000D01*
X00324996D01*
X00323663Y00355667D01*
Y00350335D01*
X00324996Y00349002D01*
X00327662D01*
X00328995Y00350335D01*
X00331661Y00349002D02*
X00334327D01*
X00332994D01*
Y00357000D01*
X00331661Y00355667D01*
X00465000Y00443997D02*
Y00436000D01*
X00468999D01*
X00470332Y00437333D01*
Y00442664D01*
X00468999Y00443997D01*
X00465000D01*
X00478329Y00442664D02*
X00476996Y00443997D01*
X00474330D01*
X00472997Y00442664D01*
Y00437333D01*
X00474330Y00436000D01*
X00476996D01*
X00478329Y00437333D01*
X00480995Y00439999D02*
X00486326D01*
X00488992Y00443997D02*
Y00436000D01*
X00492991D01*
X00494324Y00437333D01*
Y00442664D01*
X00492991Y00443997D01*
X00488992D01*
X00502321Y00442664D02*
X00500988Y00443997D01*
X00498323D01*
X00496990Y00442664D01*
Y00437333D01*
X00498323Y00436000D01*
X00500988D01*
X00502321Y00437333D01*
X00504987Y00436000D02*
X00507653D01*
X00506320D01*
Y00443997D01*
X00504987Y00442664D01*
X00077003Y00304000D02*
X00085000D01*
Y00307999D01*
X00083667Y00309332D01*
X00078335D01*
X00077003Y00307999D01*
Y00304000D01*
X00085000Y00311997D02*
Y00314663D01*
Y00313330D01*
X00077003D01*
X00078335Y00311997D01*
X00077003Y00318662D02*
Y00323994D01*
X00078335D01*
X00083667Y00318662D01*
X00085000D01*
X00074997Y00085000D02*
X00067000D01*
Y00081001D01*
X00068333Y00079668D01*
X00073664D01*
X00074997Y00081001D01*
Y00085000D01*
X00067000Y00077003D02*
Y00074337D01*
Y00075670D01*
X00074997D01*
X00073664Y00077003D01*
X00074997Y00065006D02*
X00073664Y00067672D01*
X00070999Y00070338D01*
X00068333D01*
X00067000Y00069005D01*
Y00066339D01*
X00068333Y00065006D01*
X00069666D01*
X00070999Y00066339D01*
Y00070338D01*
X00334000Y00071997D02*
Y00064000D01*
X00337999D01*
X00339332Y00065333D01*
Y00070665D01*
X00337999Y00071997D01*
X00334000D01*
X00341997Y00064000D02*
X00344663D01*
X00343330D01*
Y00071997D01*
X00341997Y00070665D01*
X00353994Y00071997D02*
X00348662D01*
Y00067999D01*
X00351328Y00069332D01*
X00352661D01*
X00353994Y00067999D01*
Y00065333D01*
X00352661Y00064000D01*
X00349995D01*
X00348662Y00065333D01*
X00524000Y00246997D02*
Y00239000D01*
X00527999D01*
X00529332Y00240333D01*
Y00245665D01*
X00527999Y00246997D01*
X00524000D01*
X00531997Y00239000D02*
X00534663D01*
X00533330D01*
Y00246997D01*
X00531997Y00245665D01*
X00542661Y00239000D02*
Y00246997D01*
X00538662Y00242999D01*
X00543994D01*
X00445000Y00072997D02*
Y00065000D01*
X00448999D01*
X00450332Y00066333D01*
Y00071665D01*
X00448999Y00072997D01*
X00445000D01*
X00452997Y00065000D02*
X00455663D01*
X00454330D01*
Y00072997D01*
X00452997Y00071665D01*
X00459662D02*
X00460995Y00072997D01*
X00463661D01*
X00464994Y00071665D01*
Y00070332D01*
X00463661Y00068999D01*
X00462328D01*
X00463661D01*
X00464994Y00067666D01*
Y00066333D01*
X00463661Y00065000D01*
X00460995D01*
X00459662Y00066333D01*
X00552000Y00072997D02*
Y00065000D01*
X00555999D01*
X00557332Y00066333D01*
Y00071665D01*
X00555999Y00072997D01*
X00552000D01*
X00559997Y00065000D02*
X00562663D01*
X00561330D01*
Y00072997D01*
X00559997Y00071665D01*
X00571993Y00065000D02*
X00566662D01*
X00571993Y00070332D01*
Y00071665D01*
X00570661Y00072997D01*
X00567995D01*
X00566662Y00071665D01*
X00551000Y00246997D02*
Y00239000D01*
X00554999D01*
X00556332Y00240333D01*
Y00245665D01*
X00554999Y00246997D01*
X00551000D01*
X00558997Y00239000D02*
X00561663D01*
X00560330D01*
Y00246997D01*
X00558997Y00245665D01*
X00565662Y00239000D02*
X00568328D01*
X00566995D01*
Y00246997D01*
X00565662Y00245665D01*
X00529003Y00037000D02*
X00537000D01*
Y00040999D01*
X00535667Y00042332D01*
X00530336D01*
X00529003Y00040999D01*
Y00037000D01*
X00537000Y00044997D02*
Y00047663D01*
Y00046330D01*
X00529003D01*
X00530336Y00044997D01*
Y00051662D02*
X00529003Y00052995D01*
Y00055661D01*
X00530336Y00056994D01*
X00535667D01*
X00537000Y00055661D01*
Y00052995D01*
X00535667Y00051662D01*
X00530336D01*
X00313003Y00014000D02*
X00321000D01*
Y00017999D01*
X00319667Y00019332D01*
X00314335D01*
X00313003Y00017999D01*
Y00014000D01*
X00314335Y00021997D02*
X00313003Y00023330D01*
Y00025996D01*
X00314335Y00027329D01*
X00315668D01*
X00317001Y00025996D01*
X00318334Y00027329D01*
X00319667D01*
X00321000Y00025996D01*
Y00023330D01*
X00319667Y00021997D01*
X00318334D01*
X00317001Y00023330D01*
X00315668Y00021997D01*
X00314335D01*
X00317001Y00023330D02*
Y00025996D01*
X00066003Y00141000D02*
X00074000D01*
Y00144999D01*
X00072667Y00146332D01*
X00067336D01*
X00066003Y00144999D01*
Y00141000D01*
Y00148997D02*
Y00154329D01*
X00067336D01*
X00072667Y00148997D01*
X00074000D01*
X00008000Y00227997D02*
Y00220000D01*
X00011999D01*
X00013332Y00221333D01*
Y00226665D01*
X00011999Y00227997D01*
X00008000D01*
X00021329D02*
X00018663Y00226665D01*
X00015997Y00223999D01*
Y00221333D01*
X00017330Y00220000D01*
X00019996D01*
X00021329Y00221333D01*
Y00222666D01*
X00019996Y00223999D01*
X00015997D01*
X00031000Y00349997D02*
Y00342000D01*
X00034999D01*
X00036332Y00343333D01*
Y00348665D01*
X00034999Y00349997D01*
X00031000D01*
X00044329D02*
X00038997D01*
Y00345999D01*
X00041663Y00347332D01*
X00042996D01*
X00044329Y00345999D01*
Y00343333D01*
X00042996Y00342000D01*
X00040330D01*
X00038997Y00343333D01*
X00108000Y00335997D02*
Y00328000D01*
X00111999D01*
X00113332Y00329333D01*
Y00334664D01*
X00111999Y00335997D01*
X00108000D01*
X00119996Y00328000D02*
Y00335997D01*
X00115997Y00331999D01*
X00121329D01*
X00175000Y00337997D02*
Y00330000D01*
X00178999D01*
X00180332Y00331333D01*
Y00336665D01*
X00178999Y00337997D01*
X00175000D01*
X00182997Y00336665D02*
X00184330Y00337997D01*
X00186996D01*
X00188329Y00336665D01*
Y00335332D01*
X00186996Y00333999D01*
X00185663D01*
X00186996D01*
X00188329Y00332666D01*
Y00331333D01*
X00186996Y00330000D01*
X00184330D01*
X00182997Y00331333D01*
X00323003Y00161000D02*
X00331000D01*
Y00164999D01*
X00329667Y00166332D01*
X00324336D01*
X00323003Y00164999D01*
Y00161000D01*
X00331000Y00174329D02*
Y00168997D01*
X00325668Y00174329D01*
X00324336D01*
X00323003Y00172996D01*
Y00170330D01*
X00324336Y00168997D01*
X00323003Y00139000D02*
X00331000D01*
Y00142999D01*
X00329667Y00144332D01*
X00324336D01*
X00323003Y00142999D01*
Y00139000D01*
X00331000Y00146997D02*
Y00149663D01*
Y00148330D01*
X00323003D01*
X00324336Y00146997D01*
X00085332Y00155665D02*
X00083999Y00156997D01*
X00081333D01*
X00080000Y00155665D01*
Y00150333D01*
X00081333Y00149000D01*
X00083999D01*
X00085332Y00150333D01*
X00091996Y00149000D02*
Y00156997D01*
X00087997Y00152999D01*
X00093329D01*
X00095995Y00155665D02*
X00097328Y00156997D01*
X00099994D01*
X00101326Y00155665D01*
Y00154332D01*
X00099994Y00152999D01*
X00098661D01*
X00099994D01*
X00101326Y00151666D01*
Y00150333D01*
X00099994Y00149000D01*
X00097328D01*
X00095995Y00150333D01*
X00532332Y00214664D02*
X00530999Y00215997D01*
X00528333D01*
X00527000Y00214664D01*
Y00209333D01*
X00528333Y00208000D01*
X00530999D01*
X00532332Y00209333D01*
X00538996Y00208000D02*
Y00215997D01*
X00534997Y00211999D01*
X00540329D01*
X00548326Y00208000D02*
X00542995D01*
X00548326Y00213332D01*
Y00214664D01*
X00546993Y00215997D01*
X00544328D01*
X00542995Y00214664D01*
X00415332Y00218664D02*
X00413999Y00219997D01*
X00411333D01*
X00410000Y00218664D01*
Y00213333D01*
X00411333Y00212000D01*
X00413999D01*
X00415332Y00213333D01*
X00421996Y00212000D02*
Y00219997D01*
X00417997Y00215999D01*
X00423329D01*
X00425995Y00212000D02*
X00428661D01*
X00427328D01*
Y00219997D01*
X00425995Y00218664D01*
X00089332Y00237665D02*
X00087999Y00238997D01*
X00085333D01*
X00084000Y00237665D01*
Y00232333D01*
X00085333Y00231000D01*
X00087999D01*
X00089332Y00232333D01*
X00095996Y00231000D02*
Y00238997D01*
X00091997Y00234999D01*
X00097329D01*
X00099995Y00237665D02*
X00101328Y00238997D01*
X00103994D01*
X00105326Y00237665D01*
Y00232333D01*
X00103994Y00231000D01*
X00101328D01*
X00099995Y00232333D01*
Y00237665D01*
X00578332Y00314664D02*
X00576999Y00315997D01*
X00574333D01*
X00573000Y00314664D01*
Y00309333D01*
X00574333Y00308000D01*
X00576999D01*
X00578332Y00309333D01*
X00580997Y00314664D02*
X00582330Y00315997D01*
X00584996D01*
X00586329Y00314664D01*
Y00313332D01*
X00584996Y00311999D01*
X00583663D01*
X00584996D01*
X00586329Y00310666D01*
Y00309333D01*
X00584996Y00308000D01*
X00582330D01*
X00580997Y00309333D01*
X00588995D02*
X00590328Y00308000D01*
X00592994D01*
X00594326Y00309333D01*
Y00314664D01*
X00592994Y00315997D01*
X00590328D01*
X00588995Y00314664D01*
Y00313332D01*
X00590328Y00311999D01*
X00594326D01*
X00405332Y00238664D02*
X00403999Y00239997D01*
X00401333D01*
X00400000Y00238664D01*
Y00233333D01*
X00401333Y00232000D01*
X00403999D01*
X00405332Y00233333D01*
X00407997Y00238664D02*
X00409330Y00239997D01*
X00411996D01*
X00413329Y00238664D01*
Y00237332D01*
X00411996Y00235999D01*
X00410663D01*
X00411996D01*
X00413329Y00234666D01*
Y00233333D01*
X00411996Y00232000D01*
X00409330D01*
X00407997Y00233333D01*
X00415995Y00238664D02*
X00417328Y00239997D01*
X00419994D01*
X00421326Y00238664D01*
Y00237332D01*
X00419994Y00235999D01*
X00421326Y00234666D01*
Y00233333D01*
X00419994Y00232000D01*
X00417328D01*
X00415995Y00233333D01*
Y00234666D01*
X00417328Y00235999D01*
X00415995Y00237332D01*
Y00238664D01*
X00417328Y00235999D02*
X00419994D01*
X00410332Y00138665D02*
X00408999Y00139997D01*
X00406333D01*
X00405000Y00138665D01*
Y00133333D01*
X00406333Y00132000D01*
X00408999D01*
X00410332Y00133333D01*
X00412997Y00138665D02*
X00414330Y00139997D01*
X00416996D01*
X00418329Y00138665D01*
Y00137332D01*
X00416996Y00135999D01*
X00415663D01*
X00416996D01*
X00418329Y00134666D01*
Y00133333D01*
X00416996Y00132000D01*
X00414330D01*
X00412997Y00133333D01*
X00420995Y00139997D02*
X00426326D01*
Y00138665D01*
X00420995Y00133333D01*
Y00132000D01*
X00418332Y00158665D02*
X00416999Y00159997D01*
X00414333D01*
X00413000Y00158665D01*
Y00153333D01*
X00414333Y00152000D01*
X00416999D01*
X00418332Y00153333D01*
X00420997Y00158665D02*
X00422330Y00159997D01*
X00424996D01*
X00426329Y00158665D01*
Y00157332D01*
X00424996Y00155999D01*
X00423663D01*
X00424996D01*
X00426329Y00154666D01*
Y00153333D01*
X00424996Y00152000D01*
X00422330D01*
X00420997Y00153333D01*
X00434327Y00159997D02*
X00431661Y00158665D01*
X00428995Y00155999D01*
Y00153333D01*
X00430328Y00152000D01*
X00432994D01*
X00434327Y00153333D01*
Y00154666D01*
X00432994Y00155999D01*
X00428995D01*
X00405336Y00182332D02*
X00404003Y00180999D01*
Y00178333D01*
X00405336Y00177000D01*
X00410667D01*
X00412000Y00178333D01*
Y00180999D01*
X00410667Y00182332D01*
X00405336Y00184997D02*
X00404003Y00186330D01*
Y00188996D01*
X00405336Y00190329D01*
X00406668D01*
X00408001Y00188996D01*
Y00187663D01*
Y00188996D01*
X00409334Y00190329D01*
X00410667D01*
X00412000Y00188996D01*
Y00186330D01*
X00410667Y00184997D01*
X00404003Y00198326D02*
Y00192995D01*
X00408001D01*
X00406668Y00195661D01*
Y00196994D01*
X00408001Y00198326D01*
X00410667D01*
X00412000Y00196994D01*
Y00194328D01*
X00410667Y00192995D01*
X00531335Y00410332D02*
X00530003Y00408999D01*
Y00406333D01*
X00531335Y00405000D01*
X00536667D01*
X00538000Y00406333D01*
Y00408999D01*
X00536667Y00410332D01*
X00531335Y00412997D02*
X00530003Y00414330D01*
Y00416996D01*
X00531335Y00418329D01*
X00532668D01*
X00534001Y00416996D01*
Y00415663D01*
Y00416996D01*
X00535334Y00418329D01*
X00536667D01*
X00538000Y00416996D01*
Y00414330D01*
X00536667Y00412997D01*
X00538000Y00424994D02*
X00530003D01*
X00534001Y00420995D01*
Y00426326D01*
X00544336Y00409332D02*
X00543003Y00407999D01*
Y00405333D01*
X00544336Y00404000D01*
X00549667D01*
X00551000Y00405333D01*
Y00407999D01*
X00549667Y00409332D01*
X00544336Y00411997D02*
X00543003Y00413330D01*
Y00415996D01*
X00544336Y00417329D01*
X00545668D01*
X00547001Y00415996D01*
Y00414663D01*
Y00415996D01*
X00548334Y00417329D01*
X00549667D01*
X00551000Y00415996D01*
Y00413330D01*
X00549667Y00411997D01*
X00544336Y00419995D02*
X00543003Y00421328D01*
Y00423994D01*
X00544336Y00425326D01*
X00545668D01*
X00547001Y00423994D01*
Y00422661D01*
Y00423994D01*
X00548334Y00425326D01*
X00549667D01*
X00551000Y00423994D01*
Y00421328D01*
X00549667Y00419995D01*
X00409332Y00462664D02*
X00407999Y00463997D01*
X00405333D01*
X00404000Y00462664D01*
Y00457333D01*
X00405333Y00456000D01*
X00407999D01*
X00409332Y00457333D01*
X00411997Y00462664D02*
X00413330Y00463997D01*
X00415996D01*
X00417329Y00462664D01*
Y00461332D01*
X00415996Y00459999D01*
X00414663D01*
X00415996D01*
X00417329Y00458666D01*
Y00457333D01*
X00415996Y00456000D01*
X00413330D01*
X00411997Y00457333D01*
X00425326Y00456000D02*
X00419995D01*
X00425326Y00461332D01*
Y00462664D01*
X00423994Y00463997D01*
X00421328D01*
X00419995Y00462664D01*
X00419332Y00444664D02*
X00417999Y00445997D01*
X00415333D01*
X00414000Y00444664D01*
Y00439333D01*
X00415333Y00438000D01*
X00417999D01*
X00419332Y00439333D01*
X00421997Y00444664D02*
X00423330Y00445997D01*
X00425996D01*
X00427329Y00444664D01*
Y00443332D01*
X00425996Y00441999D01*
X00424663D01*
X00425996D01*
X00427329Y00440666D01*
Y00439333D01*
X00425996Y00438000D01*
X00423330D01*
X00421997Y00439333D01*
X00429995Y00438000D02*
X00432661D01*
X00431328D01*
Y00445997D01*
X00429995Y00444664D01*
X00518335Y00410332D02*
X00517003Y00408999D01*
Y00406333D01*
X00518335Y00405000D01*
X00523667D01*
X00525000Y00406333D01*
Y00408999D01*
X00523667Y00410332D01*
X00518335Y00412997D02*
X00517003Y00414330D01*
Y00416996D01*
X00518335Y00418329D01*
X00519668D01*
X00521001Y00416996D01*
Y00415663D01*
Y00416996D01*
X00522334Y00418329D01*
X00523667D01*
X00525000Y00416996D01*
Y00414330D01*
X00523667Y00412997D01*
X00518335Y00420995D02*
X00517003Y00422328D01*
Y00424994D01*
X00518335Y00426326D01*
X00523667D01*
X00525000Y00424994D01*
Y00422328D01*
X00523667Y00420995D01*
X00518335D01*
X00306336Y00414332D02*
X00305003Y00412999D01*
Y00410333D01*
X00306336Y00409000D01*
X00311667D01*
X00313000Y00410333D01*
Y00412999D01*
X00311667Y00414332D01*
X00313000Y00422329D02*
Y00416997D01*
X00307668Y00422329D01*
X00306336D01*
X00305003Y00420996D01*
Y00418330D01*
X00306336Y00416997D01*
X00311667Y00424995D02*
X00313000Y00426328D01*
Y00428994D01*
X00311667Y00430326D01*
X00306336D01*
X00305003Y00428994D01*
Y00426328D01*
X00306336Y00424995D01*
X00307668D01*
X00309001Y00426328D01*
Y00430326D01*
X00320336Y00414332D02*
X00319003Y00412999D01*
Y00410333D01*
X00320336Y00409000D01*
X00325667D01*
X00327000Y00410333D01*
Y00412999D01*
X00325667Y00414332D01*
X00327000Y00422329D02*
Y00416997D01*
X00321668Y00422329D01*
X00320336D01*
X00319003Y00420996D01*
Y00418330D01*
X00320336Y00416997D01*
Y00424995D02*
X00319003Y00426328D01*
Y00428994D01*
X00320336Y00430326D01*
X00321668D01*
X00323001Y00428994D01*
X00324334Y00430326D01*
X00325667D01*
X00327000Y00428994D01*
Y00426328D01*
X00325667Y00424995D01*
X00324334D01*
X00323001Y00426328D01*
X00321668Y00424995D01*
X00320336D01*
X00323001Y00426328D02*
Y00428994D01*
X00400336Y00375332D02*
X00399003Y00373999D01*
Y00371333D01*
X00400336Y00370000D01*
X00405667D01*
X00407000Y00371333D01*
Y00373999D01*
X00405667Y00375332D01*
X00407000Y00383329D02*
Y00377997D01*
X00401668Y00383329D01*
X00400336D01*
X00399003Y00381996D01*
Y00379330D01*
X00400336Y00377997D01*
X00399003Y00385995D02*
Y00391326D01*
X00400336D01*
X00405667Y00385995D01*
X00407000D01*
X00414336Y00375332D02*
X00413003Y00373999D01*
Y00371333D01*
X00414336Y00370000D01*
X00419667D01*
X00421000Y00371333D01*
Y00373999D01*
X00419667Y00375332D01*
X00421000Y00383329D02*
Y00377997D01*
X00415668Y00383329D01*
X00414336D01*
X00413003Y00381996D01*
Y00379330D01*
X00414336Y00377997D01*
X00413003Y00391326D02*
X00414336Y00388661D01*
X00417001Y00385995D01*
X00419667D01*
X00421000Y00387328D01*
Y00389994D01*
X00419667Y00391326D01*
X00418334D01*
X00417001Y00389994D01*
Y00385995D01*
X00272332Y00334664D02*
X00270999Y00335997D01*
X00268333D01*
X00267000Y00334664D01*
Y00329333D01*
X00268333Y00328000D01*
X00270999D01*
X00272332Y00329333D01*
X00280329Y00328000D02*
X00274997D01*
X00280329Y00333332D01*
Y00334664D01*
X00278996Y00335997D01*
X00276330D01*
X00274997Y00334664D01*
X00288326Y00335997D02*
X00282995D01*
Y00331999D01*
X00285661Y00333332D01*
X00286994D01*
X00288326Y00331999D01*
Y00329333D01*
X00286994Y00328000D01*
X00284328D01*
X00282995Y00329333D01*
X00519335Y00363332D02*
X00518003Y00361999D01*
Y00359333D01*
X00519335Y00358000D01*
X00524667D01*
X00526000Y00359333D01*
Y00361999D01*
X00524667Y00363332D01*
X00526000Y00371329D02*
Y00365997D01*
X00520668Y00371329D01*
X00519335D01*
X00518003Y00369996D01*
Y00367330D01*
X00519335Y00365997D01*
X00526000Y00377994D02*
X00518003D01*
X00522001Y00373995D01*
Y00379326D01*
X00244332Y00334664D02*
X00242999Y00335997D01*
X00240333D01*
X00239000Y00334664D01*
Y00329333D01*
X00240333Y00328000D01*
X00242999D01*
X00244332Y00329333D01*
X00252329Y00328000D02*
X00246997D01*
X00252329Y00333332D01*
Y00334664D01*
X00250996Y00335997D01*
X00248330D01*
X00246997Y00334664D01*
X00254995D02*
X00256328Y00335997D01*
X00258994D01*
X00260326Y00334664D01*
Y00333332D01*
X00258994Y00331999D01*
X00257661D01*
X00258994D01*
X00260326Y00330666D01*
Y00329333D01*
X00258994Y00328000D01*
X00256328D01*
X00254995Y00329333D01*
X00106335Y00133332D02*
X00105003Y00131999D01*
Y00129333D01*
X00106335Y00128000D01*
X00111667D01*
X00113000Y00129333D01*
Y00131999D01*
X00111667Y00133332D01*
X00113000Y00141329D02*
Y00135997D01*
X00107668Y00141329D01*
X00106335D01*
X00105003Y00139996D01*
Y00137330D01*
X00106335Y00135997D01*
X00113000Y00149326D02*
Y00143995D01*
X00107668Y00149326D01*
X00106335D01*
X00105003Y00147994D01*
Y00145328D01*
X00106335Y00143995D01*
X00325332Y00119664D02*
X00323999Y00120997D01*
X00321333D01*
X00320000Y00119664D01*
Y00114333D01*
X00321333Y00113000D01*
X00323999D01*
X00325332Y00114333D01*
X00333329Y00113000D02*
X00327997D01*
X00333329Y00118332D01*
Y00119664D01*
X00331996Y00120997D01*
X00329330D01*
X00327997Y00119664D01*
X00335995Y00113000D02*
X00338661D01*
X00337328D01*
Y00120997D01*
X00335995Y00119664D01*
X00272332Y00079665D02*
X00270999Y00080997D01*
X00268333D01*
X00267000Y00079665D01*
Y00074333D01*
X00268333Y00073000D01*
X00270999D01*
X00272332Y00074333D01*
X00280329Y00073000D02*
X00274997D01*
X00280329Y00078332D01*
Y00079665D01*
X00278996Y00080997D01*
X00276330D01*
X00274997Y00079665D01*
X00282995D02*
X00284328Y00080997D01*
X00286994D01*
X00288326Y00079665D01*
Y00074333D01*
X00286994Y00073000D01*
X00284328D01*
X00282995Y00074333D01*
Y00079665D01*
X00508332Y00095665D02*
X00506999Y00096997D01*
X00504333D01*
X00503000Y00095665D01*
Y00090333D01*
X00504333Y00089000D01*
X00506999D01*
X00508332Y00090333D01*
X00510997Y00089000D02*
X00513663D01*
X00512330D01*
Y00096997D01*
X00510997Y00095665D01*
X00517662Y00090333D02*
X00518995Y00089000D01*
X00521661D01*
X00522994Y00090333D01*
Y00095665D01*
X00521661Y00096997D01*
X00518995D01*
X00517662Y00095665D01*
Y00094332D01*
X00518995Y00092999D01*
X00522994D01*
X00612332Y00095665D02*
X00610999Y00096997D01*
X00608333D01*
X00607000Y00095665D01*
Y00090333D01*
X00608333Y00089000D01*
X00610999D01*
X00612332Y00090333D01*
X00614997Y00089000D02*
X00617663D01*
X00616330D01*
Y00096997D01*
X00614997Y00095665D01*
X00621662D02*
X00622995Y00096997D01*
X00625661D01*
X00626994Y00095665D01*
Y00094332D01*
X00625661Y00092999D01*
X00626994Y00091666D01*
Y00090333D01*
X00625661Y00089000D01*
X00622995D01*
X00621662Y00090333D01*
Y00091666D01*
X00622995Y00092999D01*
X00621662Y00094332D01*
Y00095665D01*
X00622995Y00092999D02*
X00625661D01*
X00032332Y00470664D02*
X00030999Y00471997D01*
X00028333D01*
X00027000Y00470664D01*
Y00465333D01*
X00028333Y00464000D01*
X00030999D01*
X00032332Y00465333D01*
X00034997Y00464000D02*
X00037663D01*
X00036330D01*
Y00471997D01*
X00034997Y00470664D01*
X00041662Y00471997D02*
X00046994D01*
Y00470664D01*
X00041662Y00465333D01*
Y00464000D01*
X00276336Y00010332D02*
X00275003Y00008999D01*
Y00006333D01*
X00276336Y00005000D01*
X00281667D01*
X00283000Y00006333D01*
Y00008999D01*
X00281667Y00010332D01*
X00283000Y00012997D02*
Y00015663D01*
Y00014330D01*
X00275003D01*
X00276336Y00012997D01*
X00275003Y00024994D02*
X00276336Y00022328D01*
X00279001Y00019662D01*
X00281667D01*
X00283000Y00020995D01*
Y00023661D01*
X00281667Y00024994D01*
X00280334D01*
X00279001Y00023661D01*
Y00019662D01*
X00377332Y00268664D02*
X00375999Y00269997D01*
X00373333D01*
X00372000Y00268664D01*
Y00263333D01*
X00373333Y00262000D01*
X00375999D01*
X00377332Y00263333D01*
X00379997Y00262000D02*
X00382663D01*
X00381330D01*
Y00269997D01*
X00379997Y00268664D01*
X00391994Y00269997D02*
X00386662D01*
Y00265999D01*
X00389328Y00267332D01*
X00390661D01*
X00391994Y00265999D01*
Y00263333D01*
X00390661Y00262000D01*
X00387995D01*
X00386662Y00263333D01*
X00390336Y00333332D02*
X00389003Y00331999D01*
Y00329333D01*
X00390336Y00328000D01*
X00395667D01*
X00397000Y00329333D01*
Y00331999D01*
X00395667Y00333332D01*
X00397000Y00335997D02*
Y00338663D01*
Y00337330D01*
X00389003D01*
X00390336Y00335997D01*
X00397000Y00346661D02*
X00389003D01*
X00393001Y00342662D01*
Y00347994D01*
X00375332Y00281665D02*
X00373999Y00282997D01*
X00371333D01*
X00370000Y00281665D01*
Y00276333D01*
X00371333Y00275000D01*
X00373999D01*
X00375332Y00276333D01*
X00377997Y00275000D02*
X00380663D01*
X00379330D01*
Y00282997D01*
X00377997Y00281665D01*
X00384662D02*
X00385995Y00282997D01*
X00388661D01*
X00389994Y00281665D01*
Y00280332D01*
X00388661Y00278999D01*
X00387328D01*
X00388661D01*
X00389994Y00277666D01*
Y00276333D01*
X00388661Y00275000D01*
X00385995D01*
X00384662Y00276333D01*
X00387336Y00304332D02*
X00386003Y00302999D01*
Y00300333D01*
X00387336Y00299000D01*
X00392667D01*
X00394000Y00300333D01*
Y00302999D01*
X00392667Y00304332D01*
X00394000Y00306997D02*
Y00309663D01*
Y00308330D01*
X00386003D01*
X00387336Y00306997D01*
X00394000Y00318993D02*
Y00313662D01*
X00388668Y00318993D01*
X00387336D01*
X00386003Y00317661D01*
Y00314995D01*
X00387336Y00313662D01*
X00399332Y00095665D02*
X00397999Y00096997D01*
X00395333D01*
X00394000Y00095665D01*
Y00090333D01*
X00395333Y00089000D01*
X00397999D01*
X00399332Y00090333D01*
X00401997Y00089000D02*
X00404663D01*
X00403330D01*
Y00096997D01*
X00401997Y00095665D01*
X00408662Y00089000D02*
X00411328D01*
X00409995D01*
Y00096997D01*
X00408662Y00095665D01*
X00348332Y00365665D02*
X00346999Y00366997D01*
X00344333D01*
X00343000Y00365665D01*
Y00360333D01*
X00344333Y00359000D01*
X00346999D01*
X00348332Y00360333D01*
X00350997Y00359000D02*
X00353663D01*
X00352330D01*
Y00366997D01*
X00350997Y00365665D01*
X00357662D02*
X00358995Y00366997D01*
X00361661D01*
X00362994Y00365665D01*
Y00360333D01*
X00361661Y00359000D01*
X00358995D01*
X00357662Y00360333D01*
Y00365665D01*
X00088332Y00060665D02*
X00086999Y00061997D01*
X00084333D01*
X00083000Y00060665D01*
Y00055333D01*
X00084333Y00054000D01*
X00086999D01*
X00088332Y00055333D01*
X00090997D02*
X00092330Y00054000D01*
X00094996D01*
X00096329Y00055333D01*
Y00060665D01*
X00094996Y00061997D01*
X00092330D01*
X00090997Y00060665D01*
Y00059332D01*
X00092330Y00057999D01*
X00096329D01*
X00634332Y00423665D02*
X00632999Y00424997D01*
X00630333D01*
X00629000Y00423665D01*
Y00418333D01*
X00630333Y00417000D01*
X00632999D01*
X00634332Y00418333D01*
X00636997Y00423665D02*
X00638330Y00424997D01*
X00640996D01*
X00642329Y00423665D01*
Y00422332D01*
X00640996Y00420999D01*
X00642329Y00419666D01*
Y00418333D01*
X00640996Y00417000D01*
X00638330D01*
X00636997Y00418333D01*
Y00419666D01*
X00638330Y00420999D01*
X00636997Y00422332D01*
Y00423665D01*
X00638330Y00420999D02*
X00640996D01*
X00601332Y00222665D02*
X00599999Y00223997D01*
X00597333D01*
X00596000Y00222665D01*
Y00217333D01*
X00597333Y00216000D01*
X00599999D01*
X00601332Y00217333D01*
X00603997Y00223997D02*
X00609329D01*
Y00222665D01*
X00603997Y00217333D01*
Y00216000D01*
X00120332Y00215665D02*
X00118999Y00216997D01*
X00116333D01*
X00115000Y00215665D01*
Y00210333D01*
X00116333Y00209000D01*
X00118999D01*
X00120332Y00210333D01*
X00128329Y00216997D02*
X00125663Y00215665D01*
X00122997Y00212999D01*
Y00210333D01*
X00124330Y00209000D01*
X00126996D01*
X00128329Y00210333D01*
Y00211666D01*
X00126996Y00212999D01*
X00122997D01*
X00120332Y00189664D02*
X00118999Y00190997D01*
X00116333D01*
X00115000Y00189664D01*
Y00184333D01*
X00116333Y00183000D01*
X00118999D01*
X00120332Y00184333D01*
X00128329Y00190997D02*
X00122997D01*
Y00186999D01*
X00125663Y00188332D01*
X00126996D01*
X00128329Y00186999D01*
Y00184333D01*
X00126996Y00183000D01*
X00124330D01*
X00122997Y00184333D01*
X00312332Y00218664D02*
X00310999Y00219997D01*
X00308333D01*
X00307000Y00218664D01*
Y00213333D01*
X00308333Y00212000D01*
X00310999D01*
X00312332Y00213333D01*
X00314997Y00218664D02*
X00316330Y00219997D01*
X00318996D01*
X00320329Y00218664D01*
Y00217332D01*
X00318996Y00215999D01*
X00317663D01*
X00318996D01*
X00320329Y00214666D01*
Y00213333D01*
X00318996Y00212000D01*
X00316330D01*
X00314997Y00213333D01*
X00181332Y00310665D02*
X00179999Y00311997D01*
X00177333D01*
X00176000Y00310665D01*
Y00305333D01*
X00177333Y00304000D01*
X00179999D01*
X00181332Y00305333D01*
X00189329Y00304000D02*
X00183997D01*
X00189329Y00309332D01*
Y00310665D01*
X00187996Y00311997D01*
X00185330D01*
X00183997Y00310665D01*
X00291332Y00296665D02*
X00289999Y00297997D01*
X00287333D01*
X00286000Y00296665D01*
Y00291333D01*
X00287333Y00290000D01*
X00289999D01*
X00291332Y00291333D01*
X00293997Y00290000D02*
X00296663D01*
X00295330D01*
Y00297997D01*
X00293997Y00296665D01*
M02*
