M48
;Layer_Color=9474304
;FILE_FORMAT=4:4
METRIC
;TYPE=PLATED
T1F00S00C0.2000
T2F00S00C0.3000
T3F00S00C0.7000
T4F00S00C0.8000
T5F00S00C0.9000
T6F00S00C1.0000
T7F00S00C1.1000
T8F00S00C3.1000
T9F00S00C3.2000
;TYPE=NON_PLATED
T10F00S00C1.0500
%
T01
X00258500Y00376500
Y00387500
X00269500
Y00376500
T02
X00074000Y00074000
X00070000Y00085000
X00064000Y00093000
Y00121000
X00071000Y00116000
X00088000Y00085000
X00089000Y00062000
X00114000Y00057000
X00115000Y00078000
X00156000Y00078000
X00186000
X00217000Y00079000
X00246000Y00101000
X00254000Y00093000
X00290000Y00112000
X00317000Y00109000
X00325000Y00112000
X00333000Y00078000
X00319000Y00074000
X00310000
X00300999Y00074000
X00300000Y00057000
X00307000Y00051000
X00314000Y00044000
X00305000Y00023000
X00285000Y00024000
X00273000
X00282000Y00012000
X00335000Y00019000
X00353000Y00067000
X00361000Y00062000
X00353000Y00156000
X00319000Y00180000
X00322000Y00192000
X00312000Y00217000
X00315000Y00242000
X00326000Y00232000
X00336000Y00257000
X00333000Y00272000
X00335000Y00280000
X00367000Y00297000
Y00308000
X00385000Y00309000
X00350000Y00321000
Y00329000
X00337000Y00351000
X00345000Y00361000
X00359000
X00371000Y00364000
X00374000Y00352000
X00363000Y00378000
X00355000Y00384000
X00313000Y00370000
X00296000Y00368000
X00282000Y00363000
X00264000Y00357000
X00246000Y00362000
X00237000Y00360000
X00236000Y00331999
X00246000
X00257000Y00332000
X00273000Y00336000
X00295000Y00340000
X00313000Y00341000
X00306000Y00355000
X00285000Y00297000
Y00288000
X00307000Y00258000
X00367000Y00263000
Y00237000
X00389000Y00245000
X00235000Y00295000
X00228000Y00306000
Y00316000
X00213000Y00311000
X00213000Y00300999
X00213000Y00291000
X00189000Y00302000
X00202000Y00354000
X00209000Y00348000
X00122000Y00249000
X00112000Y00242000
X00117000Y00199000
X00112000Y00169000
X00077000Y00165000
Y00175000
Y00187000
X00051000Y00226000
X00043000Y00231000
X00042000Y00313000
X00072000Y00286000
X00080000Y00279000
X00123000Y00123000
X00132000Y00129000
X00177000Y00038000
X00184000Y00031000
X00414000Y00060000
X00438000
X00445000Y00051000
X00463000Y00069000
X00471000Y00062000
X00513000Y00074000
X00537000
X00545000Y00060000
X00552000Y00052000
X00570000Y00069000
X00578000Y00062000
X00618000Y00075000
X00642000
X00631000Y00061000
X00630000Y00090000
X00613000Y00166000
X00596000
Y00188000
X00613000
X00500000Y00187000
X00465000Y00168000
X00436000Y00172000
X00424000Y00171000
X00436000Y00158000
X00425000Y00141000
Y00129000
X00438000Y00123000
X00427000Y00075000
X00402000
X00525000Y00060000
X00517000Y00255000
X00506000Y00245000
X00474000Y00264000
X00422000Y00239000
Y00228000
X00430000Y00217000
X00423000Y00203000
X00438000Y00201000
X00452000Y00350000
X00541000Y00343000
X00538000Y00367000
X00549000
X00585000Y00389000
X00630000Y00391000
X00627000Y00365000
X00626000Y00347000
X00608000
X00686000Y00351000
Y00361000
X00539000Y00317000
Y00308000
X00549000Y00304000
X00510000Y00433000
X00500000
X00490000
X00470000Y00419000
X00445000Y00417000
X00443000Y00429000
X00433000Y00441000
X00420000Y00425000
X00410000
X00400000
X00423000Y00461000
X00448000Y00457000
Y00467000
X00622000Y00406000
X00636000Y00417000
X00650000Y00412000
X00686000Y00421000
Y00431000
X00656000Y00526000
X00643000
X00382000Y00415000
X00373000
X00357000Y00404000
X00348000
X00339000
X00291000Y00398000
X00257000Y00412000
X00170000Y00459000
X00141000
X00041000Y00464000
X00032000Y00455000
T03
X00289000Y00055000
X00272000Y00080000
X00155000Y00260000
X00137000Y00270000
X00488000Y00264000
X00473000Y00236000
X00495000Y00318000
X00504000Y00345000
X00432000Y00396000
X00472000Y00402000
T04
X00521000Y00163000
X00556000
T05
X00680000Y00467000
Y00535000
T06
X00031000Y00078000
Y00103400
Y00128800
X00034003Y00246602
X00059403
Y00272001
Y00297402
X00034003
Y00272001
X00105200Y00354000
X00130600
X00156000
X00373998Y00199398
Y00173998
Y00148598
X00375400Y00031000
X00350000
X00257399Y00031270
X00231999
X00206599
X00400800Y00031000
X00458600
X00484000
X00509400
X00566600
X00592000
X00617400
X00593200Y00291000
X00567800
X00542400
X00517000
T07
X00656000Y00175000
Y00205000
T08
X00035000Y00035000
X00665000
X00035232Y00611000
T09
X00451600Y00301000
X00657600
X00658600Y00611000
X00451600
T10
X00626000Y00165600
X00686000
M30
