M48
;Layer_Color=9474304
;FILE_FORMAT=4:4
METRIC
;TYPE=PLATED
T1F00S00C0.2000
T2F00S00C0.3000
T3F00S00C0.7000
T4F00S00C0.8000
T5F00S00C0.9000
T6F00S00C1.0000
T7F00S00C1.1000
T8F00S00C3.1000
T9F00S00C3.2000
;TYPE=NON_PLATED
T10F00S00C1.0500
%
T01
X00258500Y00376500
Y00387500
X00269500
Y00376500
T02
X00069000Y00060500
Y00072000
X00064500Y00080750
X00082500Y00081250
X00092500
X00102000
X00111250Y00081500
X00122750Y00070750
Y00060500
X00146750Y00076500
X00179750Y00076000
X00209500Y00071750
X00208750Y00084250
X00223750Y00069250
X00234250Y00076000
X00232750Y00101500
X00246500Y00102750
X00280000Y00105750
X00277000Y00081000
X00276250Y00044830
X00338250Y00050250
X00334000Y00077000
X00325000
Y00086000
X00334000
X00343000
X00352000
Y00077000
X00343000
X00357500Y00062500
X00327250Y00122250
X00315500Y00135500
X00315515Y00144507
X00311999Y00158000
X00325250Y00162500
X00322250Y00187500
X00321000Y00210000
Y00232000
X00336000Y00257000
X00333000Y00272000
X00335000Y00280000
X00368500Y00269500
X00367000Y00297000
Y00308000
X00385000Y00309000
X00350000Y00321000
Y00329000
X00337000Y00351000
X00345000Y00361000
X00359000
X00354750Y00378000
X00315750Y00373000
X00316000Y00354000
X00321500Y00336750
X00309250Y00324000
X00294692Y00328750
X00285000Y00297000
Y00288000
X00226011Y00287014
X00230011Y00295764
X00241000Y00305500
X00241262Y00323266
X00241250Y00332500
X00254750Y00335500
X00264000Y00357000
X00246000Y00362000
X00282000Y00363000
X00291250Y00378000
X00291000Y00396000
X00209260Y00356017
X00203500Y00348250
X00199500Y00314250
X00191009Y00307515
X00198750Y00292000
X00133500Y00311500
X00133250Y00320250
X00125000Y00359000
X00041500Y00344500
X00042000Y00313000
X00072000Y00286000
X00080000Y00279000
X00112000Y00242000
X00122000Y00249000
X00117000Y00199000
X00112500Y00169000
X00097750Y00147000
X00098000Y00132902
X00087000Y00156500
X00070000Y00157500
X00077500Y00166250
X00076750Y00177250
X00077000Y00187000
X00061750Y00149000
X00051000Y00226000
X00043000Y00231000
X00133250Y00120750
X00156500Y00046500
X00164500Y00036500
X00251999Y00134000
X00263000Y00134000
X00308000Y00174000
X00361000Y00212000
X00372250Y00202500
X00367000Y00237000
X00388000Y00241000
X00385500Y00145250
X00395250Y00131250
X00373500Y00352500
X00439250Y00383250
X00509000Y00393000
X00486250Y00340500
X00525750Y00308500
X00553250Y00309000
X00546500Y00316250
X00590000Y00309500
X00598000Y00320250
X00602750Y00331250
X00593250Y00340000
X00594000Y00164500
X00601250Y00152250
X00613250Y00152000
X00599000Y00120250
X00599500Y00109250
X00615000Y00092750
Y00082000
X00627000Y00071500
X00639750Y00087250
X00627250Y00101750
X00586000Y00132250
X00575000Y00132500
X00548250Y00143250
X00548000Y00153500
X00523500Y00148750
X00524750Y00162000
X00513250Y00186250
Y00192500
X00501000Y00206500
X00495000Y00218000
X00482750Y00227500
X00507750Y00232000
X00462000Y00206500
X00434500Y00210250
X00468000Y00176500
X00462500Y00066250
X00437250Y00060000
X00426250Y00067500
X00413250Y00060500
X00401500Y00068000
X00423250Y00039500
X00531750Y00039750
X00534250Y00067000
X00520500Y00061000
X00508000Y00067250
X00491000Y00417750
X00481000Y00418000
X00497750Y00439000
X00509750Y00435250
X00509000Y00450000
X00523000Y00444000
X00534250
X00543750Y00460250
X00586000Y00453000
X00599250Y00451250
X00613250Y00466000
X00597000Y00485250
X00588750Y00505000
X00581250Y00511000
X00593000Y00530250
X00588000Y00550750
X00612000Y00549500
X00600250Y00564500
X00608500Y00506250
X00506500Y00487000
X00494250Y00486000
X00491250Y00461125
X00475303Y00471750
X00458500Y00436500
X00449000Y00434000
X00439750Y00426250
X00418999Y00433999
X00410000Y00434000
X00400000
X00431750Y00544750
X00424250Y00553750
X00446250Y00539250
X00537500Y00571000
X00525750Y00586000
X00538250Y00598750
X00521250Y00638000
X00511500
X00582500Y00638250
X00592250Y00638000
X00645000Y00417000
X00656000
X00382000Y00424000
X00373000
X00357000Y00413000
X00348000
X00339000
X00257000Y00412000
X00264000Y00401750
X00259750Y00434250
X00261000Y00473000
X00233500Y00454500
X00288250Y00452000
X00387750Y00503250
X00396500Y00511250
Y00536500
X00387250Y00531500
X00128250Y00481750
X00111750Y00452000
T03
X00137000Y00270000
X00155000Y00260000
X00503000Y00354000
X00520000Y00345000
X00461250Y00398750
X00472523Y00438771
T04
X00436000Y00134000
X00471000
T05
X00681000Y00358000
Y00426000
T06
X00031000Y00084000
Y00109400
Y00134800
X00034003Y00246602
X00059403
Y00272001
Y00297402
X00034003
Y00272001
X00097600Y00338000
X00123000
X00148400
X00194600Y00033000
X00220000
X00245400
X00350000Y00031000
X00375400
X00400800
X00458600
X00484000
X00509400
X00566600
X00592000
X00617400
X00599500Y00284000
X00574100
X00548700
X00523300
X00406000Y00235700
Y00210300
X00408000Y00523900
Y00549300
Y00574700
Y00600100
T07
X00657000Y00163000
Y00193000
T08
X00035000Y00035000
X00665000
X00035232Y00611000
T09
X00457900Y00294000
X00663900
X00664900Y00604000
X00457900
T10
X00627000Y00153600
X00687000
M30
